0
SECTION
2
HEADER
9
$INSUNITS
70
4
9
$ACADVER
1
AC1014
9
$HANDSEED
5
FFFF
0
ENDSEC
0
SECTION
2
TABLES
0
TABLE
2
VPORT
5
8
100
AcDbSymbolTable
0
ENDTAB
0
TABLE
2
LTYPE
5
5
100
AcDbSymbolTable
0
LTYPE
5
14
100
AcDbSymbolTableRecord
100
AcDbLinetypeTableRecord
2
BYBLOCK
70
0
0
LTYPE
5
15
100
AcDbSymbolTableRecord
100
AcDbLinetypeTableRecord
2
BYLAYER
70
0
0
ENDTAB
0
TABLE
2
LAYER
5
2
100
AcDbSymbolTable
70
2
0
LAYER
5
50
100
AcDbSymbolTableRecord
100
AcDbLayerTableRecord
2
0
70
0
6
CONTINUOUS
0
ENDTAB
0
TABLE
2
STYLE
5
3
100
AcDbSymbolTable
70
1
0
STYLE
5
11
100
AcDbSymbolTableRecord
100
AcDbTextStyleTableRecord
2
STANDARD
70
0
0
ENDTAB
0
TABLE
2
VIEW
5
6
100
AcDbSymbolTable
70
0
0
ENDTAB
0
TABLE
2
UCS
5
7
100
AcDbSymbolTable
70
0
0
ENDTAB
0
TABLE
2
APPID
5
9
100
AcDbSymbolTable
70
2
0
APPID
5
12
100
AcDbSymbolTableRecord
100
AcDbRegAppTableRecord
2
ACAD
70
0
0
ENDTAB
0
TABLE
2
DIMSTYLE
5
A
100
AcDbSymbolTable
70
1
0
ENDTAB
0
TABLE
2
BLOCK_RECORD
5
1
100
AcDbSymbolTable
70
1
0
BLOCK_RECORD
5
1F
100
AcDbSymbolTableRecord
100
AcDbBlockTableRecord
2
*MODEL_SPACE
0
BLOCK_RECORD
5
1B
100
AcDbSymbolTableRecord
100
AcDbBlockTableRecord
2
*PAPER_SPACE
0
ENDTAB
0
ENDSEC
0
SECTION
2
BLOCKS
0
BLOCK
5
20
100
AcDbEntity
100
AcDbBlockBegin
2
*MODEL_SPACE
0
ENDBLK
5
21
100
AcDbEntity
100
AcDbBlockEnd
0
BLOCK
5
1C
100
AcDbEntity
100
AcDbBlockBegin
2
*PAPER_SPACE
0
ENDBLK
5
1D
100
AcDbEntity
100
AcDbBlockEnd
0
ENDSEC
0
SECTION
2
ENTITIES
0
LWPOLYLINE
5
100
100
AcDbEntity
8
OUTER_PROFILES
100
AcDbPolyline
90
4
70
1
43
0.0
10
650
20
278.61673549367646
10
0
20
278.61673549367646
10
0
20
0
10
650
20
0
0
LWPOLYLINE
5
101
100
AcDbEntity
8
INTERIOR_PROFILES
100
AcDbPolyline
90
4
70
1
43
0.0
10
516.00000000000023
20
150.7483208527994
10
516.00000000000023
20
148.99832085279951
42
-0.99999999999999989
10
516.00000000000023
20
127.49832085279942
10
516.00000000000023
20
125.74832085279952
42
-0.99999999999999989
0
LWPOLYLINE
5
102
100
AcDbEntity
8
INTERIOR_PROFILES
100
AcDbPolyline
90
4
70
1
43
0.0
10
511.09123770853188
20
216.1649302457414
10
585.90876229147
20
216.1649302457414
42
-1.005634562668746
10
585.90876229146647
20
183.68893021593908
10
511.09123770852847
20
183.68893021593905
42
-1.0056345626686267
0
CIRCLE
5
103
100
AcDbEntity
8
INTERIOR_PROFILES
100
AcDbCircle
10
-228.00000029802339
20
138.24832085279948
30
0
40
2.3999999999999844
210
0
220
0
230
-1
0
LWPOLYLINE
5
104
100
AcDbEntity
8
INTERIOR_PROFILES
100
AcDbPolyline
90
4
70
1
43
0.0
10
431.90576229146666
20
183.68893021593905
42
1.005634562668746
10
431.90576229146984
20
216.1649302457414
10
357.08823770853172
20
216.1649302457414
42
1.0056345626687311
10
357.08823770853189
20
183.68893021593905
0
LWPOLYLINE
5
105
100
AcDbEntity
8
INTERIOR_PROFILES
100
AcDbPolyline
90
4
70
1
43
0.0
10
49.085237708531508
20
216.1649302457414
42
1.0056345626689098
10
49.085237708538045
20
183.68893021593908
10
123.90276229146666
20
183.68893021593905
42
1.0056345626687508
10
123.90276229146977
20
216.1649302457414
0
LWPOLYLINE
5
106
100
AcDbEntity
8
INTERIOR_PROFILES
100
AcDbPolyline
90
4
70
1
43
0.0
10
277.90576229146666
20
183.68893021593905
42
1.005634562668746
10
277.90576229146973
20
216.1649302457414
10
203.0882377085324
20
216.16493024574143
42
1.0056345626688503
10
203.08823770853513
20
183.68893021593905
0
CIRCLE
5
107
100
AcDbEntity
8
INTERIOR_PROFILES
100
AcDbCircle
10
-507.5
20
4.4999999999999751
30
0
40
2.4000000000000199
210
0
220
0
230
-1
0
CIRCLE
5
108
100
AcDbEntity
8
INTERIOR_PROFILES
100
AcDbCircle
10
-182.5
20
4.4999999999999751
30
0
40
2.3999999999999844
210
0
220
0
230
-1
0
CIRCLE
5
109
100
AcDbEntity
8
INTERIOR_PROFILES
100
AcDbCircle
10
-536.00000029802345
20
138.24832085279945
30
0
40
2.4000000000000199
210
0
220
0
230
-1
0
CIRCLE
5
110
100
AcDbEntity
8
INTERIOR_PROFILES
100
AcDbCircle
10
-399.73999999999978
20
76.661088590805178
30
0
40
2.4000000000000199
210
0
220
0
230
-1
0
CIRCLE
5
111
100
AcDbEntity
8
INTERIOR_PROFILES
100
AcDbCircle
10
-345
20
4.4999999999999751
30
0
40
2.4000000000000199
210
0
220
0
230
-1
0
CIRCLE
5
112
100
AcDbEntity
8
INTERIOR_PROFILES
100
AcDbCircle
10
-382.00000029802339
20
138.24832085279948
30
0
40
2.4000000000000199
210
0
220
0
230
-1
0
CIRCLE
5
113
100
AcDbEntity
8
INTERIOR_PROFILES
100
AcDbCircle
10
-20
20
4.4999999999999929
30
0
40
2.3999999999999999
210
0
220
0
230
-1
0
CIRCLE
5
114
100
AcDbEntity
8
INTERIOR_PROFILES
100
AcDbCircle
10
-467.5
20
4.4999999999999751
30
0
40
2.4000000000000199
210
0
220
0
230
-1
0
CIRCLE
5
115
100
AcDbEntity
8
INTERIOR_PROFILES
100
AcDbCircle
10
-119.00000000000034
20
63.743320852799386
30
0
40
21.999999999999993
210
0
220
0
230
-1
0
CIRCLE
5
116
100
AcDbEntity
8
INTERIOR_PROFILES
100
AcDbCircle
10
-341.99999970197695
20
138.24832085279945
30
0
40
2.4000000000000199
210
0
220
0
230
-1
0
LWPOLYLINE
5
117
100
AcDbEntity
8
INTERIOR_PROFILES
100
AcDbPolyline
90
4
70
1
43
0.0
10
208.00000000000014
20
150.74832085279945
42
0.99999999999999989
10
208.00000000000014
20
125.74832085279949
10
208.00000000000014
20
127.49832085279947
42
0.99999999999999989
10
208.00000000000014
20
148.99832085279948
0
CIRCLE
5
118
100
AcDbEntity
8
INTERIOR_PROFILES
100
AcDbCircle
10
-535.73999999999967
20
76.661088590805178
30
0
40
2.4000000000000199
210
0
220
0
230
-1
0
CIRCLE
5
119
100
AcDbEntity
8
INTERIOR_PROFILES
100
AcDbCircle
10
-33.999999701976833
20
138.24832085279945
30
0
40
2.4000000000000021
210
0
220
0
230
-1
0
CIRCLE
5
120
100
AcDbEntity
8
INTERIOR_PROFILES
100
AcDbCircle
10
-187.99999970197689
20
138.24832085279945
30
0
40
2.3999999999999844
210
0
220
0
230
-1
0
CIRCLE
5
121
100
AcDbEntity
8
INTERIOR_PROFILES
100
AcDbCircle
10
-495.999999701977
20
138.2483208527994
30
0
40
2.4000000000000199
210
0
220
0
230
-1
0
LWPOLYLINE
5
122
100
AcDbEntity
8
INTERIOR_PROFILES
100
AcDbPolyline
90
4
70
1
43
0.0
10
54.000000000000057
20
150.74832085279945
42
0.99999999999999989
10
54.000000000000057
20
125.74832085279949
10
54.000000000000057
20
127.49832085279947
42
0.99999999999999989
10
54.000000000000057
20
148.99832085279948
0
LWPOLYLINE
5
123
100
AcDbEntity
8
INTERIOR_PROFILES
100
AcDbPolyline
90
4
70
1
43
0.0
10
362.00000000000017
20
127.49832085279945
10
362.00000000000017
20
125.74832085279948
42
-0.99999999999999989
10
362.00000000000017
20
150.74832085279945
10
362.00000000000017
20
148.99832085279948
42
-0.99999999999999989
0
CIRCLE
5
124
100
AcDbEntity
8
INTERIOR_PROFILES
100
AcDbCircle
10
-427
20
63.7433208527994
30
0
40
22.000000000000028
210
0
220
0
230
-1
0
CIRCLE
5
125
100
AcDbEntity
8
INTERIOR_PROFILES
100
AcDbCircle
10
-305.00000000000006
20
4.4999999999999751
30
0
40
2.3999999999999844
210
0
220
0
230
-1
0
CIRCLE
5
126
100
AcDbEntity
8
INTERIOR_PROFILES
100
AcDbCircle
10
-74.000000298023352
20
138.24832085279948
30
0
40
2.4000000000000021
210
0
220
0
230
-1
0
CIRCLE
5
127
100
AcDbEntity
8
INTERIOR_PROFILES
100
AcDbCircle
10
-630
20
4.4999999999999929
30
0
40
2.4000000000000199
210
0
220
0
230
-1
0
CIRCLE
5
128
100
AcDbEntity
8
INTERIOR_PROFILES
100
AcDbCircle
10
-142.5
20
4.4999999999999751
30
0
40
2.4000000000000021
210
0
220
0
230
-1
0
CIRCLE
5
129
100
AcDbEntity
8
INTERIOR_PROFILES
100
AcDbCircle
10
-325
20
266.53706122413729
30
0
40
1.5875000000000128
210
0
220
0
230
-1
0
CIRCLE
5
130
100
AcDbEntity
8
INTERIOR_PROFILES
100
AcDbCircle
10
-626.89999999999998
20
266.53706122413922
30
0
40
1.5875000000000128
210
0
220
0
230
-1
0
ELLIPSE
5
131
100
AcDbEntity
8
INTERIOR_PROFILES
100
AcDbEllipse
10
638.49999999999693
20
160.11019224660919
30
0
11
-1.5874999999999997
21
4.0280364148048142e-15
31
0.0
40
0.98480775301220813
41
0
42
6.2831853071795862
0
CIRCLE
5
132
100
AcDbEntity
8
INTERIOR_PROFILES
100
AcDbCircle
10
-23.100000000000023
20
266.53706122413729
30
0
40
1.5875000000000128
210
0
220
0
230
-1
0
CIRCLE
5
133
100
AcDbEntity
8
INTERIOR_PROFILES
100
AcDbCircle
10
-581.00000000000011
20
63.743320852799386
30
0
40
22.000000000000028
210
0
220
0
230
-1
0
CIRCLE
5
134
100
AcDbEntity
8
INTERIOR_PROFILES
100
AcDbCircle
10
-475.94999999999999
20
266.53706122413831
30
0
40
1.5875000000000128
210
0
220
0
230
-1
0
CIRCLE
5
135
100
AcDbEntity
8
INTERIOR_PROFILES
100
AcDbCircle
10
-174.05000000000001
20
266.53706122413729
30
0
40
1.5875000000000128
210
0
220
0
230
-1
0
CIRCLE
5
136
100
AcDbEntity
8
INTERIOR_PROFILES
100
AcDbCircle
10
-273.00000000000006
20
63.743320852799386
30
0
40
21.999999999999993
210
0
220
0
230
-1
0
LINE
5
137
100
AcDbEntity
8
BEND
100
AcDbLine
10
650
20
178.71737286237177
30
-2.2759572004815536e-14
11
0
21
178.71737286237177
31
-2.2759572004815536e-14
0
LINE
5
138
100
AcDbEntity
8
BEND_EXTENT
100
AcDbLine
10
650
20
180.52693023083953
30
8.8817841970012523e-15
11
0
21
180.52693023083953
31
8.8817841970012523e-15
0
LINE
5
139
100
AcDbEntity
8
BEND_EXTENT
100
AcDbLine
10
0
20
176.90781549390411
30
0
11
650
21
176.90781549390411
31
0
0
ENDSEC
0
SECTION
2
OBJECTS
0
DICTIONARY
5
C
100
AcDbDictionary
3
ACAD_GROUP
350
D
3
ACAD_MLINESTYLE
350
17
0
DICTIONARY
5
D
100
AcDbDictionary
0
DICTIONARY
5
1A
330
C
100
AcDbDictionary
0
DICTIONARY
5
17
100
AcDbDictionary
0
ENDSEC
0
EOF
