0
SECTION
2
HEADER
9
$INSUNITS
70
4
9
$ACADVER
1
AC1014
9
$HANDSEED
5
FFFF
0
ENDSEC
0
SECTION
2
TABLES
0
TABLE
2
VPORT
5
8
100
AcDbSymbolTable
0
ENDTAB
0
TABLE
2
LTYPE
5
5
100
AcDbSymbolTable
0
LTYPE
5
14
100
AcDbSymbolTableRecord
100
AcDbLinetypeTableRecord
2
BYBLOCK
70
0
0
LTYPE
5
15
100
AcDbSymbolTableRecord
100
AcDbLinetypeTableRecord
2
BYLAYER
70
0
0
ENDTAB
0
TABLE
2
LAYER
5
2
100
AcDbSymbolTable
70
2
0
LAYER
5
50
100
AcDbSymbolTableRecord
100
AcDbLayerTableRecord
2
0
70
0
6
CONTINUOUS
0
ENDTAB
0
TABLE
2
STYLE
5
3
100
AcDbSymbolTable
70
1
0
STYLE
5
11
100
AcDbSymbolTableRecord
100
AcDbTextStyleTableRecord
2
STANDARD
70
0
0
ENDTAB
0
TABLE
2
VIEW
5
6
100
AcDbSymbolTable
70
0
0
ENDTAB
0
TABLE
2
UCS
5
7
100
AcDbSymbolTable
70
0
0
ENDTAB
0
TABLE
2
APPID
5
9
100
AcDbSymbolTable
70
2
0
APPID
5
12
100
AcDbSymbolTableRecord
100
AcDbRegAppTableRecord
2
ACAD
70
0
0
ENDTAB
0
TABLE
2
DIMSTYLE
5
A
100
AcDbSymbolTable
70
1
0
ENDTAB
0
TABLE
2
BLOCK_RECORD
5
1
100
AcDbSymbolTable
70
1
0
BLOCK_RECORD
5
1F
100
AcDbSymbolTableRecord
100
AcDbBlockTableRecord
2
*MODEL_SPACE
0
BLOCK_RECORD
5
1B
100
AcDbSymbolTableRecord
100
AcDbBlockTableRecord
2
*PAPER_SPACE
0
ENDTAB
0
ENDSEC
0
SECTION
2
BLOCKS
0
BLOCK
5
20
100
AcDbEntity
100
AcDbBlockBegin
2
*MODEL_SPACE
0
ENDBLK
5
21
100
AcDbEntity
100
AcDbBlockEnd
0
BLOCK
5
1C
100
AcDbEntity
100
AcDbBlockBegin
2
*PAPER_SPACE
0
ENDBLK
5
1D
100
AcDbEntity
100
AcDbBlockEnd
0
ENDSEC
0
SECTION
2
ENTITIES
0
SPLINE
5
100
100
AcDbEntity
8
OUTER_PROFILES
100
AcDbSpline
70
0
71
3
72
11
73
7
74
0
42
0.000000001
43
0.0000000001
44
0.0000000001
40
0.067759721452344004
40
0.067759721452344004
40
0.067759721452344004
40
0.067759721452344004
40
0.12315513918443421
40
0.12315513918443421
40
0.12315513918443421
40
0.13046684884343035
40
0.13046684884343035
40
0.13046684884343035
40
0.13046684884343035
10
563.68191346332674
20
215.63037639358572
30
0
10
563.68191346332674
20
215.42125230668816
30
0
10
563.81644176802047
20
215.2543289686447
30
0
10
563.93927775593193
20
215.13509757447193
30
0
10
563.9554910298101
20
215.11936007537685
30
0
10
563.97179249993746
20
215.10423971923669
30
0
10
563.98884912136168
20
215.08904094341719
30
0
0
LINE
5
101
100
AcDbEntity
8
OUTER_PROFILES
100
AcDbLine
10
563.68191346332674
20
215.63037639358572
30
0
11
548.25542073502766
21
215.63037639358581
31
0
0
LINE
5
102
100
AcDbEntity
8
OUTER_PROFILES
100
AcDbLine
10
548.25542073502766
20
215.63037639358581
30
0
11
548.25542073502754
21
290.00408865519586
31
0
0
LINE
5
103
100
AcDbEntity
8
OUTER_PROFILES
100
AcDbLine
10
548.25542073502754
20
290.00408865519586
30
0
11
101.74457926497261
21
290.00408865519591
31
0
0
LINE
5
104
100
AcDbEntity
8
OUTER_PROFILES
100
AcDbLine
10
101.74457926497261
20
290.00408865519591
30
0
11
101.74457926497247
21
215.63037639358581
31
0
0
LINE
5
105
100
AcDbEntity
8
OUTER_PROFILES
100
AcDbLine
10
101.74457926497247
20
215.63037639358581
30
0
11
86.318086536672951
21
215.63037639358581
31
0
0
SPLINE
5
106
100
AcDbEntity
8
OUTER_PROFILES
100
AcDbSpline
70
0
71
3
72
8
73
4
74
0
42
0.000000001
43
0.0000000001
44
0.0000000001
40
1.1572471437767899
40
1.1572471437767899
40
1.1572471437767899
40
1.1572471437767899
40
1.2742908209311381
40
1.2742908209311381
40
1.2742908209311381
40
1.2742908209311381
10
86.011150878638489
20
215.08904094341733
30
0
10
86.173375241857315
20
215.23359546378171
30
0
10
86.318086536672922
20
215.40666427713376
30
0
10
86.318086536672922
20
215.63037639358581
30
0
0
SPLINE
5
107
100
AcDbEntity
8
OUTER_PROFILES
100
AcDbSpline
70
0
71
3
72
17
73
13
74
0
42
0.000000001
43
0.0000000001
44
0.0000000001
40
0
40
0
40
0
40
0
40
0.57862357188839497
40
0.57862357188839497
40
0.57862357188839497
40
0.92401637474037712
40
0.92401637474037712
40
0.92401637474037712
40
1.085497894082079
40
1.085497894082079
40
1.085497894082079
40
1.1572471437767899
40
1.1572471437767899
40
1.1572471437767899
40
1.1572471437767899
10
76.873597413419645
20
212.01126165665039
30
0
10
78.765612139234449
20
212.55071125138502
30
0
10
80.6876385712782
20
213.05060046600229
30
0
10
82.297252286318638
20
213.5349986976737
30
0
10
83.258065187065881
20
213.82414637685915
30
0
10
84.107391230168645
20
214.10761923093392
30
0
10
84.771490407951759
20
214.38877296907845
30
0
10
85.081976739272136
20
214.52022079436401
30
0
10
85.383394522360732
20
214.66057227599686
30
0
10
85.66780667970157
20
214.83778393739578
30
0
10
85.794176303770257
20
214.91652238247826
30
0
10
85.91170529878184
20
215.00042719999857
30
0
10
86.011150878638531
20
215.08904094341727
30
0
0
SPLINE
5
108
100
AcDbEntity
8
OUTER_PROFILES
100
AcDbSpline
70
4
71
5
72
20
73
14
74
0
42
0.000000001
43
0.0000000001
44
0.0000000001
40
0.13382054364541474
40
0.13382054364541474
40
0.13382054364541474
40
0.13382054364541474
40
0.13382054364541474
40
0.13382054364541474
40
0.20000000000000001
40
0.30000000000000004
40
0.40000000000000002
40
0.5
40
0.59999999999999998
40
0.69999999999999996
40
0.79999999999999993
40
0.89999999999999991
40
1
40
1
40
1
40
1
40
1
40
1
41
1
41
1
41
1
41
1
41
1
41
1
41
1
41
1
41
1
41
1
41
1
41
1
41
1
41
1
10
76.873597413419787
20
212.0112616566503
30
0
10
74.557919971485518
20
211.55275892036389
30
0
10
68.834622008880473
20
210.31157050111131
30
0
10
60.040135582299143
20
207.95769591328292
30
0
10
48.796929729165939
20
203.88499370372725
30
0
10
36.111453692494138
20
197.13962507199165
30
0
10
24.598970044412454
20
187.97399143311929
30
0
10
15.326028334804533
20
176.86879168590494
30
0
10
8.284459728756346
20
164.04523279055417
30
0
10
3.3719056143218751
20
149.86658237563691
30
0
10
1.0564840430528477
20
137.73905839613923
30
0
10
0.19208821006557741
20
128.33540970182378
30
0
10
0
20
121.94635921944371
30
0
10
0
20
118.72185082049683
30
0
0
LINE
5
109
100
AcDbEntity
8
OUTER_PROFILES
100
AcDbLine
10
9.472640535397305e-16
20
118.72185082049683
30
0
11
0
21
0
31
0
0
LINE
5
110
100
AcDbEntity
8
OUTER_PROFILES
100
AcDbLine
10
0
20
0
30
0
11
650
21
-1.7763568394002505e-14
31
0
0
LINE
5
111
100
AcDbEntity
8
OUTER_PROFILES
100
AcDbLine
10
650
20
-1.7763568394002505e-14
30
0
11
650
21
118.72185082049688
31
0
0
SPLINE
5
112
100
AcDbEntity
8
OUTER_PROFILES
100
AcDbSpline
70
4
71
5
72
20
73
14
74
0
42
0.000000001
43
0.0000000001
44
0.0000000001
40
-1
40
-1
40
-1
40
-1
40
-1
40
-1
40
-0.89999999999999991
40
-0.79999999999999993
40
-0.69999999999999996
40
-0.59999999999999998
40
-0.5
40
-0.40000000000000002
40
-0.30000000000000004
40
-0.20000000000000001
40
-0.1338205436454154
40
-0.1338205436454154
40
-0.1338205436454154
40
-0.1338205436454154
40
-0.1338205436454154
40
-0.1338205436454154
41
1
41
1
41
1
41
1
41
1
41
1
41
1
41
1
41
1
41
1
41
1
41
1
41
1
41
1
10
650
20
118.72185082049688
30
0
10
650.00000000000011
20
121.94635921944371
30
0
10
649.80791178993456
20
128.33540970182383
30
0
10
648.94351595694729
20
137.73905839613928
30
0
10
646.62809438567831
20
149.86658237563694
30
0
10
641.71554027124375
20
164.04523279055417
30
0
10
634.6739716651955
20
176.86879168590497
30
0
10
625.40102995558777
20
187.97399143311929
30
0
10
613.88854630750598
20
197.13962507199165
30
0
10
601.20307027083413
20
203.88499370372716
30
0
10
589.95986441770106
20
207.95769591328292
30
0
10
581.16537799111961
20
210.31157050111122
30
0
10
575.44208002851474
20
211.55275892036386
30
0
10
573.1264025865803
20
212.0112616566503
30
0
0
SPLINE
5
113
100
AcDbEntity
8
OUTER_PROFILES
100
AcDbSpline
70
0
71
3
72
14
73
10
74
0
42
0.000000001
43
0.0000000001
44
0.0000000001
40
0.13046684884343035
40
0.13046684884343035
40
0.13046684884343035
40
0.13046684884343035
40
0.26810360574923731
40
0.26810360574923731
40
0.26810360574923731
40
0.38451428914654928
40
0.38451428914654928
40
0.38451428914654928
40
0.94252643670794056
40
0.94252643670794056
40
0.94252643670794056
40
0.94252643670794056
10
563.98884912136168
20
215.08904094341719
30
0
10
564.30992560909044
20
214.8029368295654
30
0
10
564.82721626216403
20
214.55653418471596
30
0
10
565.27347296619598
20
214.36985119006977
30
0
10
565.65090882747938
20
214.21195808452177
30
0
10
565.96013151079808
20
214.10005717530919
30
0
10
566.33576546905283
20
213.97121025578625
30
0
10
568.13635889935983
20
213.35358527351306
30
0
10
570.6526645337259
20
212.71657170095634
30
0
10
573.12640258658064
20
212.0112616566503
30
0
0
LWPOLYLINE
5
114
100
AcDbEntity
8
INTERIOR_PROFILES
100
AcDbPolyline
90
32
70
1
43
0.0
10
276.34166666666664
20
41.175630828324984
10
377.50833333333355
20
41.175630828324941
42
-0.20000000000000856
10
378.21839250493122
20
40.879772840159262
10
386.37470414201198
20
32.654920769153357
42
0.41421356237309381
10
393.44571005917174
20
32.625334970336773
10
401.77547983690533
20
40.885689999922583
42
-0.19782518726432061
10
402.47962184873961
20
41.175630828324955
10
423.72500000000014
20
41.175630828324962
42
0.41421356237309764
10
424.72500000000025
20
42.175630828324898
10
424.72500000000025
20
157.37563082832517
42
0.41421356237308982
10
423.72500000000031
20
158.37563082832523
10
402.34166666666687
20
158.37563082832526
42
-0.20000000000000853
10
401.6316074950692
20
158.67148881649092
10
393.47529585798833
20
166.89634088749682
42
0.41666666666666236
10
386.37470414201204
20
166.89634088749688
10
378.2183925049311
20
158.67148881649095
42
-0.19999999999999005
10
377.50833333333355
20
158.37563082832526
10
276.34166666666664
20
158.37563082832528
42
-0.19999999999998624
10
275.63160749506903
20
158.67148881649095
10
267.4752958579881
20
166.89634088749685
42
0.41666666666666535
10
260.37470414201181
20
166.89634088749699
10
252.2183925049309
20
158.67148881649103
42
-0.20000000000000856
10
251.50833333333324
20
158.37563082832537
10
226.27499999999992
20
158.37563082832534
42
0.41421356237308982
10
225.27499999999989
20
157.37563082832534
10
225.27499999999989
20
42.175630828324948
42
0.414213562373069
10
226.27499999999984
20
41.175630828325005
10
251.50833333333327
20
41.175630828324998
42
-0.19999999999999929
10
252.2183925049309
20
40.879772840159305
10
260.37470414201181
20
32.654920769153378
42
0.41666666666666435
10
267.4752958579881
20
32.65492076915335
10
275.63160749506892
20
40.879772840159312
42
-0.20000000000003032
0
CIRCLE
5
115
100
AcDbEntity
8
INTERIOR_PROFILES
100
AcDbCircle
10
-325.00000000000011
20
283.62442071633131
30
0
40
2.5499999999999901
210
-0
220
0
230
-1
0
CIRCLE
5
116
100
AcDbEntity
8
INTERIOR_PROFILES
100
AcDbCircle
10
-220.87228950000002
20
283.62442071633131
30
0
40
2.5499999999999901
210
-0
220
0
230
-1
0
CIRCLE
5
117
100
AcDbEntity
8
INTERIOR_PROFILES
100
AcDbCircle
10
-429.12771050000015
20
283.62442071633257
30
0
40
2.5499999999999901
210
-0
220
0
230
-1
0
CIRCLE
5
118
100
AcDbEntity
8
INTERIOR_PROFILES
100
AcDbCircle
10
-116.74457926497243
20
283.62442071633131
30
0
40
2.5499999999999901
210
0
220
0
230
-1
0
CIRCLE
5
119
100
AcDbEntity
8
INTERIOR_PROFILES
100
AcDbCircle
10
-533.25542073502777
20
283.62442071633365
30
0
40
2.5499999999999901
210
0
220
0
230
-1
0
LINE
5
120
100
AcDbEntity
8
BEND
100
AcDbLine
10
91.46232822198435
20
213.82081902469739
30
1.9418938887702011e-14
11
558.53767177739212
21
213.82081902473408
31
2.2419109549512337e-14
0
LINE
5
121
100
AcDbEntity
8
BEND
100
AcDbLine
10
548.25542073502777
20
275.83731926865897
30
1.5091510266617923e-14
11
101.74457926497254
21
275.83731926865903
31
-2.2324843674560948e-14
0
LINE
5
122
100
AcDbEntity
8
BEND_EXTENT
100
AcDbLine
10
101.74457926497257
20
277.24475277746694
30
7.7782836535742909e-16
11
548.25542073502777
21
277.244752777467
31
8.422526736498765e-14
0
LINE
5
123
100
AcDbEntity
8
BEND_EXTENT
100
AcDbLine
10
548.25542073502754
20
274.42988575985049
30
1.3281945156109552e-14
11
101.74457926497261
21
274.42988575985049
31
8.8877973248934827e-16
0
LINE
5
124
100
AcDbEntity
8
BEND_EXTENT
100
AcDbLine
10
548.25542073502766
20
215.63037639358581
30
1.559959849818374e-14
11
101.74457926497254
21
215.63037639358583
31
3.2064330745635313e-15
0
LINE
5
125
100
AcDbEntity
8
BEND_EXTENT
100
AcDbLine
10
76.873597413419787
20
212.0112616566503
30
2.0422344808891368e-14
11
573.1264025865803
21
212.0112616566503
31
3.4196127067342997e-14
0
ENDSEC
0
SECTION
2
OBJECTS
0
DICTIONARY
5
C
100
AcDbDictionary
3
ACAD_GROUP
350
D
3
ACAD_MLINESTYLE
350
17
0
DICTIONARY
5
D
100
AcDbDictionary
0
DICTIONARY
5
1A
330
C
100
AcDbDictionary
0
DICTIONARY
5
17
100
AcDbDictionary
0
ENDSEC
0
EOF
