0
SECTION
2
HEADER
9
$INSUNITS
70
4
9
$ACADVER
1
AC1014
9
$HANDSEED
5
FFFF
0
ENDSEC
0
SECTION
2
TABLES
0
TABLE
2
VPORT
5
8
100
AcDbSymbolTable
0
ENDTAB
0
TABLE
2
LTYPE
5
5
100
AcDbSymbolTable
0
LTYPE
5
14
100
AcDbSymbolTableRecord
100
AcDbLinetypeTableRecord
2
BYBLOCK
70
0
0
LTYPE
5
15
100
AcDbSymbolTableRecord
100
AcDbLinetypeTableRecord
2
BYLAYER
70
0
0
ENDTAB
0
TABLE
2
LAYER
5
2
100
AcDbSymbolTable
70
2
0
LAYER
5
50
100
AcDbSymbolTableRecord
100
AcDbLayerTableRecord
2
0
70
0
6
CONTINUOUS
0
ENDTAB
0
TABLE
2
STYLE
5
3
100
AcDbSymbolTable
70
1
0
STYLE
5
11
100
AcDbSymbolTableRecord
100
AcDbTextStyleTableRecord
2
STANDARD
70
0
0
ENDTAB
0
TABLE
2
VIEW
5
6
100
AcDbSymbolTable
70
0
0
ENDTAB
0
TABLE
2
UCS
5
7
100
AcDbSymbolTable
70
0
0
ENDTAB
0
TABLE
2
APPID
5
9
100
AcDbSymbolTable
70
2
0
APPID
5
12
100
AcDbSymbolTableRecord
100
AcDbRegAppTableRecord
2
ACAD
70
0
0
ENDTAB
0
TABLE
2
DIMSTYLE
5
A
100
AcDbSymbolTable
70
1
0
ENDTAB
0
TABLE
2
BLOCK_RECORD
5
1
100
AcDbSymbolTable
70
1
0
BLOCK_RECORD
5
1F
100
AcDbSymbolTableRecord
100
AcDbBlockTableRecord
2
*MODEL_SPACE
0
BLOCK_RECORD
5
1B
100
AcDbSymbolTableRecord
100
AcDbBlockTableRecord
2
*PAPER_SPACE
0
ENDTAB
0
ENDSEC
0
SECTION
2
BLOCKS
0
BLOCK
5
20
100
AcDbEntity
100
AcDbBlockBegin
2
*MODEL_SPACE
0
ENDBLK
5
21
100
AcDbEntity
100
AcDbBlockEnd
0
BLOCK
5
1C
100
AcDbEntity
100
AcDbBlockBegin
2
*PAPER_SPACE
0
ENDBLK
5
1D
100
AcDbEntity
100
AcDbBlockEnd
0
ENDSEC
0
SECTION
2
ENTITIES
0
LINE
5
100
100
AcDbEntity
8
OUTER_PROFILES
100
AcDbLine
10
-284.13865304249543
20
260.08746207609335
30
0
11
-317.13166812874789
21
350.73502602528839
31
0
0
ARC
5
101
100
AcDbEntity
8
OUTER_PROFILES
100
AcDbCircle
10
-315.62815993549054
20
351.28225825460947
30
0
40
1.5999999999999703
210
0
220
0
230
1
100
AcDbArc
50
109.9999999999972
51
200.00000000000171
0
LINE
5
102
100
AcDbEntity
8
OUTER_PROFILES
100
AcDbLine
10
-316.17539216481151
20
352.78576644786688
30
0
11
-149.85056500478862
21
413.32305275358908
31
0
0
LINE
5
103
100
AcDbEntity
8
OUTER_PROFILES
100
AcDbLine
10
-149.85056500478862
20
413.32305275358908
30
0
11
-149.31264554816866
21
413.59167976802689
31
0
0
ARC
5
104
100
AcDbEntity
8
OUTER_PROFILES
100
AcDbCircle
10
163.66118413135638
20
441.74624317303739
30
0
40
31.599999999999731
210
0
220
-0
230
-1
100
AcDbArc
50
206.83813920300094
51
242.99503706133152
0
LINE
5
105
100
AcDbEntity
8
OUTER_PROFILES
100
AcDbLine
10
-135.46496258464089
20
427.47974078147274
30
0
11
-107.07779298030104
21
505.3039509199528
31
0
0
LINE
5
106
100
AcDbEntity
8
OUTER_PROFILES
100
AcDbLine
10
-107.07779298030104
20
505.3039509199528
30
0
11
0.79999999999984084
21
505.30395091995268
31
0
0
LINE
5
107
100
AcDbEntity
8
OUTER_PROFILES
100
AcDbLine
10
0.79999999999984084
20
505.30395091995268
30
0
11
0.79999999999984084
21
506.90395091995271
31
0
0
LINE
5
108
100
AcDbEntity
8
OUTER_PROFILES
100
AcDbLine
10
0.79999999999984084
20
506.90395091995271
30
0
11
-3.0966136469710648
21
506.90395091804942
31
0
0
SPLINE
5
109
100
AcDbEntity
8
OUTER_PROFILES
100
AcDbSpline
70
0
71
3
72
14
73
10
74
0
42
0.000000001
43
0.0000000001
44
0.0000000001
40
0.3608204720080363
40
0.3608204720080363
40
0.3608204720080363
40
0.3608204720080363
40
5.3954013715011131
40
5.3954013715011131
40
9.6946556310598346
40
9.6946556310598346
40
13.717252193911015
40
13.717252193911015
40
19.02183558283447
40
19.02183558283447
40
19.02183558283447
40
19.02183558283447
10
83.218086536672331
20
606.86550647548279
30
0
10
66.99422837236483
20
604.40713464751468
30
0
10
53.635621776964015
20
600.14590657890062
30
0
10
33.24100557625826
20
589.3908763502468
30
0
10
25.01942471668869
20
583.0011747885361
30
0
10
11.877721436158382
20
567.08735754090208
30
0
10
7.1987494910445093
20
558.29687263126152
30
0
10
-0.55420048390856869
20
536.61855658828085
30
0
10
-2.9938442798723552
20
522.33237786786094
30
0
10
-3.0966136469583629
20
506.90395091804953
30
0
0
LINE
5
110
100
AcDbEntity
8
OUTER_PROFILES
100
AcDbLine
10
83.218086536672331
20
606.86550647548279
30
0
11
560.58191346332774
21
606.86550647548279
31
0
0
SPLINE
5
111
100
AcDbEntity
8
OUTER_PROFILES
100
AcDbSpline
70
0
71
3
72
14
73
10
74
0
42
0.000000001
43
0.0000000001
44
0.0000000001
40
0.1019062203073583
40
0.1019062203073583
40
0.1019062203073583
40
0.1019062203073583
40
5.0796587289540254
40
5.0796587289540254
40
9.9638644061666923
40
9.9638644061666923
40
16.233035420886573
40
16.233035420886573
40
24.090111479525483
40
24.090111479525483
40
24.090111479525483
40
24.090111479525483
10
646.89661363812888
20
506.90395224324948
30
0
10
646.78640292535886
20
523.45024027116881
30
0
10
643.98749068814163
20
538.85627043244949
30
0
10
633.6987737637254
20
564.91147731166177
30
0
10
627.23721709448864
20
573.36513951180291
30
0
10
614.72014896891528
20
586.35830602968304
30
0
10
606.43816816992376
20
591.96705554155574
30
0
10
585.83414819114898
20
601.67361632345796
30
0
10
573.14495926612631
20
604.96185091080201
30
0
10
560.58191346332774
20
606.86550647548279
30
0
0
LINE
5
112
100
AcDbEntity
8
OUTER_PROFILES
100
AcDbLine
10
646.89661363812888
20
506.90395224324948
30
0
11
643
21
506.90395224548809
31
0
0
LINE
5
113
100
AcDbEntity
8
OUTER_PROFILES
100
AcDbLine
10
643
20
506.90395224548809
30
0
11
643
21
505.30395224548795
31
0
0
LINE
5
114
100
AcDbEntity
8
OUTER_PROFILES
100
AcDbLine
10
643
20
505.30395224548795
30
0
11
750.87779298029534
21
505.30395091995052
31
0
0
LINE
5
115
100
AcDbEntity
8
OUTER_PROFILES
100
AcDbLine
10
750.87779298029534
20
505.30395091995052
30
0
11
779.26496258463521
21
427.47974078147047
31
0
0
ARC
5
116
100
AcDbEntity
8
OUTER_PROFILES
100
AcDbCircle
10
-807.46118413135048
20
441.74624317303511
30
0
40
31.599999999999749
210
-0
220
0
230
-1
100
AcDbArc
50
297.00496293866854
51
333.16186079699889
0
LINE
5
117
100
AcDbEntity
8
OUTER_PROFILES
100
AcDbLine
10
793.11264554816273
20
413.59167976802462
30
0
11
793.65056500478295
21
413.32305275358681
31
0
0
LINE
5
118
100
AcDbEntity
8
OUTER_PROFILES
100
AcDbLine
10
793.65056500478295
20
413.32305275358681
30
0
11
959.97539216480573
21
352.7857664478646
31
0
0
ARC
5
119
100
AcDbEntity
8
OUTER_PROFILES
100
AcDbCircle
10
959.42815993548481
20
351.2822582546072
30
0
40
1.6000000000000492
210
-0
220
0
230
1
100
AcDbArc
50
-19.99999999999962
51
70.000000000004704
0
LINE
5
120
100
AcDbEntity
8
OUTER_PROFILES
100
AcDbLine
10
960.93166812874233
20
350.73502602528612
30
0
11
927.93865304249061
21
260.08746207609352
31
0
0
LINE
5
121
100
AcDbEntity
8
OUTER_PROFILES
100
AcDbLine
10
927.93865304249061
20
260.08746207609352
30
0
11
920.40912556160436
21
261.41512092295966
31
0
0
LINE
5
122
100
AcDbEntity
8
OUTER_PROFILES
100
AcDbLine
10
920.40912556160436
20
261.41512092295966
30
0
11
920.82588118800481
21
263.77865953018897
31
0
0
LINE
5
123
100
AcDbEntity
8
OUTER_PROFILES
100
AcDbLine
10
920.82588118800481
20
263.77865953018897
30
0
11
919.25018878318542
21
264.05649661445608
31
0
0
LINE
5
124
100
AcDbEntity
8
OUTER_PROFILES
100
AcDbLine
10
919.25018878318542
20
264.05649661445608
30
0
11
915.56552817741078
21
243.15974790946586
31
0
0
LINE
5
125
100
AcDbEntity
8
OUTER_PROFILES
100
AcDbLine
10
915.56552817741078
20
243.15974790946586
30
0
11
851.55302423161731
21
254.44687945781732
31
0
0
LINE
5
126
100
AcDbEntity
8
OUTER_PROFILES
100
AcDbLine
10
851.55302423161731
20
254.44687945781732
30
0
11
855.23768483739207
21
275.34362816280753
31
0
0
LINE
5
127
100
AcDbEntity
8
OUTER_PROFILES
100
AcDbLine
10
855.23768483739207
20
275.34362816280753
30
0
11
853.66199243257256
21
275.6214652470747
31
0
0
LINE
5
128
100
AcDbEntity
8
OUTER_PROFILES
100
AcDbLine
10
853.66199243257256
20
275.6214652470747
30
0
11
853.24523680617187
21
273.25792663984538
31
0
0
LINE
5
129
100
AcDbEntity
8
OUTER_PROFILES
100
AcDbLine
10
853.24523680617187
20
273.25792663984538
30
0
11
834.92737870358405
21
276.4878592521211
31
0
0
LINE
5
130
100
AcDbEntity
8
OUTER_PROFILES
100
AcDbLine
10
834.92737870358405
20
276.4878592521211
30
0
11
838.71290897672361
21
297.95666826778785
31
0
0
LINE
5
131
100
AcDbEntity
8
OUTER_PROFILES
100
AcDbLine
10
838.71290897672361
20
297.95666826778785
30
0
11
740.23213367550306
21
315.3214860344824
31
0
0
LINE
5
132
100
AcDbEntity
8
OUTER_PROFILES
100
AcDbLine
10
740.23213367550306
20
315.3214860344824
30
0
11
736.44660340236351
21
293.85267701881565
31
0
0
LINE
5
133
100
AcDbEntity
8
OUTER_PROFILES
100
AcDbLine
10
736.44660340236351
20
293.85267701881565
30
0
11
720.15642985919226
21
296.72507413490024
31
0
0
LINE
5
134
100
AcDbEntity
8
OUTER_PROFILES
100
AcDbLine
10
720.15642985919226
20
296.72507413490024
30
0
11
720.57318548559294
21
299.0886127421295
31
0
0
LINE
5
135
100
AcDbEntity
8
OUTER_PROFILES
100
AcDbLine
10
720.57318548559294
20
299.0886127421295
30
0
11
718.99749308077344
21
299.36644982639666
31
0
0
LINE
5
136
100
AcDbEntity
8
OUTER_PROFILES
100
AcDbLine
10
718.99749308077344
20
299.36644982639666
30
0
11
715.31283247499869
21
278.46970112140639
31
0
0
LINE
5
137
100
AcDbEntity
8
OUTER_PROFILES
100
AcDbLine
10
715.31283247499869
20
278.46970112140639
30
0
11
690.69263864969355
21
282.81090556307993
31
0
0
LINE
5
138
100
AcDbEntity
8
OUTER_PROFILES
100
AcDbLine
10
690.69263864969355
20
282.81090556307993
30
0
11
694.3772992554683
21
303.70765426807031
31
0
0
LINE
5
139
100
AcDbEntity
8
OUTER_PROFILES
100
AcDbLine
10
694.3772992554683
20
303.70765426807031
30
0
11
692.8016068506488
21
303.98549135233742
31
0
0
LINE
5
140
100
AcDbEntity
8
OUTER_PROFILES
100
AcDbLine
10
692.8016068506488
20
303.98549135233742
30
0
11
692.38485122424822
21
301.62195274510816
31
0
0
LINE
5
141
100
AcDbEntity
8
OUTER_PROFILES
100
AcDbLine
10
692.38485122424822
20
301.62195274510816
30
0
11
651.47448385577172
21
308.83555430286634
31
0
0
LINE
5
142
100
AcDbEntity
8
OUTER_PROFILES
100
AcDbLine
10
651.47448385577172
20
308.83555430286634
30
0
11
651.19664677150467
21
309.55062529524986
31
0
0
LINE
5
143
100
AcDbEntity
8
OUTER_PROFILES
100
AcDbLine
10
651.19664677150467
20
309.55062529524986
30
0
11
643.79999999999995
21
309.55062529524992
31
0
0
LINE
5
144
100
AcDbEntity
8
OUTER_PROFILES
100
AcDbLine
10
643.79999999999995
20
309.55062529524992
30
0
11
643.79999999999995
21
215.93275323774128
31
0
0
LINE
5
145
100
AcDbEntity
8
OUTER_PROFILES
100
AcDbLine
10
643.79999999999995
20
215.93275323774128
30
0
11
606.29999999999984
21
215.93275323774128
31
0
0
LINE
5
146
100
AcDbEntity
8
OUTER_PROFILES
100
AcDbLine
10
606.29999999999984
20
215.93275323774128
30
0
11
606.29999999999995
21
115.93275323774131
31
0
0
LINE
5
147
100
AcDbEntity
8
OUTER_PROFILES
100
AcDbLine
10
606.29999999999995
20
115.93275323774131
30
0
11
643.79999999999995
21
115.93275323774131
31
0
0
LINE
5
148
100
AcDbEntity
8
OUTER_PROFILES
100
AcDbLine
10
643.79999999999995
20
115.93275323774131
30
0
11
643.79999999999984
21
-3.5527136788005009e-14
31
0
0
LINE
5
149
100
AcDbEntity
8
OUTER_PROFILES
100
AcDbLine
10
643.79999999999984
20
-3.5527136788005009e-14
30
0
11
0
21
0
31
0
0
LINE
5
150
100
AcDbEntity
8
OUTER_PROFILES
100
AcDbLine
10
0
20
0
30
0
11
-1.4210854715202004e-13
21
115.93275323774131
31
0
0
LINE
5
151
100
AcDbEntity
8
OUTER_PROFILES
100
AcDbLine
10
-1.4210854715202004e-13
20
115.93275323774131
30
0
11
37.499999999999929
21
115.93275323774131
31
0
0
LINE
5
152
100
AcDbEntity
8
OUTER_PROFILES
100
AcDbLine
10
37.499999999999929
20
115.93275323774131
30
0
11
37.499999999999929
21
215.93275323774134
31
0
0
LINE
5
153
100
AcDbEntity
8
OUTER_PROFILES
100
AcDbLine
10
37.499999999999929
20
215.93275323774134
30
0
11
0
21
215.93275323774134
31
0
0
LINE
5
154
100
AcDbEntity
8
OUTER_PROFILES
100
AcDbLine
10
0
20
215.93275323774134
30
0
11
-1.4210854715202004e-13
21
309.55062529524992
31
0
0
LINE
5
155
100
AcDbEntity
8
OUTER_PROFILES
100
AcDbLine
10
-1.4210854715202004e-13
20
309.55062529524992
30
0
11
-7.3966467715082729
21
309.55062529525003
31
0
0
LINE
5
156
100
AcDbEntity
8
OUTER_PROFILES
100
AcDbLine
10
-7.3966467715082729
20
309.55062529525003
30
0
11
-7.6744838557753781
21
308.83555430286651
31
0
0
LINE
5
157
100
AcDbEntity
8
OUTER_PROFILES
100
AcDbLine
10
-7.6744838557753781
20
308.83555430286651
30
0
11
-48.584851224250087
21
301.62195274510856
31
0
0
LINE
5
158
100
AcDbEntity
8
OUTER_PROFILES
100
AcDbLine
10
-48.584851224250087
20
301.62195274510856
30
0
11
-49.001606850650745
21
303.98549135233787
31
0
0
LINE
5
159
100
AcDbEntity
8
OUTER_PROFILES
100
AcDbLine
10
-49.001606850650745
20
303.98549135233787
30
0
11
-50.577299255470223
21
303.70765426807077
31
0
0
LINE
5
160
100
AcDbEntity
8
OUTER_PROFILES
100
AcDbLine
10
-50.577299255470223
20
303.70765426807077
30
0
11
-46.892638649695328
21
282.8109055630805
31
0
0
LINE
5
161
100
AcDbEntity
8
OUTER_PROFILES
100
AcDbLine
10
-46.892638649695328
20
282.8109055630805
30
0
11
-71.512832475000465
21
278.46970112140684
31
0
0
LINE
5
162
100
AcDbEntity
8
OUTER_PROFILES
100
AcDbLine
10
-71.512832475000465
20
278.46970112140684
30
0
11
-75.197493080775217
21
299.36644982639712
31
0
0
LINE
5
163
100
AcDbEntity
8
OUTER_PROFILES
100
AcDbLine
10
-75.197493080775217
20
299.36644982639712
30
0
11
-76.773185485594837
21
299.08861274212995
31
0
0
LINE
5
164
100
AcDbEntity
8
OUTER_PROFILES
100
AcDbLine
10
-76.773185485594837
20
299.08861274212995
30
0
11
-76.356429859194179
21
296.72507413490064
31
0
0
LINE
5
165
100
AcDbEntity
8
OUTER_PROFILES
100
AcDbLine
10
-76.356429859194179
20
296.72507413490064
30
0
11
-92.64660340236361
21
293.85267701881639
31
0
0
LINE
5
166
100
AcDbEntity
8
OUTER_PROFILES
100
AcDbLine
10
-92.64660340236361
20
293.85267701881639
30
0
11
-96.432133675503167
21
315.32148603448252
31
0
0
LINE
5
167
100
AcDbEntity
8
OUTER_PROFILES
100
AcDbLine
10
-96.432133675503167
20
315.32148603448252
30
0
11
-194.91290897672357
21
297.9566682677879
31
0
0
LINE
5
168
100
AcDbEntity
8
OUTER_PROFILES
100
AcDbLine
10
-194.91290897672357
20
297.9566682677879
30
0
11
-191.1273787035843
21
276.48785925212178
31
0
0
LINE
5
169
100
AcDbEntity
8
OUTER_PROFILES
100
AcDbLine
10
-191.1273787035843
20
276.48785925212178
30
0
11
-204.52119804111263
21
274.12616752818059
31
0
0
LINE
5
170
100
AcDbEntity
8
OUTER_PROFILES
100
AcDbLine
10
-204.52119804111263
20
274.12616752818059
30
0
11
-204.93795366751343
21
276.48970613540985
31
0
0
LINE
5
171
100
AcDbEntity
8
OUTER_PROFILES
100
AcDbLine
10
-204.93795366751343
20
276.48970613540985
30
0
11
-206.5136460723329
21
276.21186905114268
31
0
0
LINE
5
172
100
AcDbEntity
8
OUTER_PROFILES
100
AcDbLine
10
-206.5136460723329
20
276.21186905114268
30
0
11
-202.82898546655787
21
255.31512034615224
31
0
0
LINE
5
173
100
AcDbEntity
8
OUTER_PROFILES
100
AcDbLine
10
-202.82898546655787
20
255.31512034615224
30
0
11
-271.76552817741225
21
243.15974790946603
31
0
0
LINE
5
174
100
AcDbEntity
8
OUTER_PROFILES
100
AcDbLine
10
-271.76552817741225
20
243.15974790946603
30
0
11
-275.45018878318729
21
264.05649661445648
31
0
0
LINE
5
175
100
AcDbEntity
8
OUTER_PROFILES
100
AcDbLine
10
-275.45018878318729
20
264.05649661445648
30
0
11
-277.02588118800679
21
263.77865953018943
31
0
0
LINE
5
176
100
AcDbEntity
8
OUTER_PROFILES
100
AcDbLine
10
-277.02588118800679
20
263.77865953018943
30
0
11
-276.60912556160611
21
261.41512092296011
31
0
0
LINE
5
177
100
AcDbEntity
8
OUTER_PROFILES
100
AcDbLine
10
-276.60912556160611
20
261.41512092296011
30
0
11
-284.13865304249543
21
260.08746207609335
31
0
0
CIRCLE
5
178
100
AcDbEntity
8
INTERIOR_PROFILES
100
AcDbCircle
10
-497.39999999999998
20
347.05062529525014
30
0
40
1.5874999999999773
210
0
220
0
230
-1
0
CIRCLE
5
179
100
AcDbEntity
8
INTERIOR_PROFILES
100
AcDbCircle
10
-635.39999999999759
20
90.73231264762525
30
0
40
1.5874999999999773
210
0
220
0
230
-1
0
CIRCLE
5
180
100
AcDbEntity
8
INTERIOR_PROFILES
100
AcDbCircle
10
-8.4000000000022368
20
90.73231264762515
30
0
40
1.5874999999999995
210
0
220
0
230
-1
0
CIRCLE
5
181
100
AcDbEntity
8
INTERIOR_PROFILES
100
AcDbCircle
10
-478.39999999999986
20
323.05062529525014
30
0
40
1.5874999999999773
210
0
220
0
230
-1
0
CIRCLE
5
182
100
AcDbEntity
8
INTERIOR_PROFILES
100
AcDbCircle
10
-635.40000000000009
20
246.57422896571296
30
0
40
1.5874999999999773
210
0
220
0
230
-1
0
CIRCLE
5
183
100
AcDbEntity
8
INTERIOR_PROFILES
100
AcDbCircle
10
-442.39999999999998
20
323.05062529524992
30
0
40
1.5874999999999773
210
0
220
0
230
-1
0
CIRCLE
5
184
100
AcDbEntity
8
INTERIOR_PROFILES
100
AcDbCircle
10
-425.39999999999992
20
347.05062529524969
30
0
40
1.5874999999999773
210
0
220
0
230
-1
0
CIRCLE
5
185
100
AcDbEntity
8
INTERIOR_PROFILES
100
AcDbCircle
10
-536.89999895691869
20
184.07031693730687
30
0
40
2.4000000000000199
210
0
220
0
230
-1
0
CIRCLE
5
186
100
AcDbEntity
8
INTERIOR_PROFILES
100
AcDbCircle
10
-8.4000000000030184
20
40.732312647625157
30
0
40
1.5874999999999995
210
0
220
0
230
-1
0
CIRCLE
5
187
100
AcDbEntity
8
INTERIOR_PROFILES
100
AcDbCircle
10
-412.89999895691864
20
184.07031693730684
30
0
40
2.4000000000000199
210
0
220
0
230
-1
0
CIRCLE
5
188
100
AcDbEntity
8
INTERIOR_PROFILES
100
AcDbCircle
10
-8.3999999999996078
20
246.5742289657129
30
0
40
1.5874999999999995
210
0
220
0
230
-1
0
LWPOLYLINE
5
189
100
AcDbEntity
8
INTERIOR_PROFILES
100
AcDbPolyline
90
4
70
1
43
0.0
10
361.89999999999998
20
312.72591926589701
42
0.99999999999999989
10
361.89999999999998
20
346.72591926589701
10
296.89999999999992
20
346.72591926589701
42
0.99999999999999989
10
296.89999999999992
20
312.72591926589701
0
CIRCLE
5
190
100
AcDbEntity
8
INTERIOR_PROFILES
100
AcDbCircle
10
-258.89999895691869
20
184.0703169373069
30
0
40
2.3999999999999844
210
0
220
0
230
-1
0
CIRCLE
5
191
100
AcDbEntity
8
INTERIOR_PROFILES
100
AcDbCircle
10
-465.89999895691875
20
219.96719184785587
30
0
40
2.4000000000000199
210
0
220
0
230
-1
0
CIRCLE
5
192
100
AcDbEntity
8
INTERIOR_PROFILES
100
AcDbCircle
10
-461.39999999999986
20
347.05062529524992
30
0
40
1.5874999999999773
210
0
220
0
230
-1
0
CIRCLE
5
193
100
AcDbEntity
8
INTERIOR_PROFILES
100
AcDbCircle
10
-635.39999999999668
20
40.732312647625264
30
0
40
1.5874999999999773
210
0
220
0
230
-1
0
CIRCLE
5
194
100
AcDbEntity
8
INTERIOR_PROFILES
100
AcDbCircle
10
-465.89999895691875
20
184.07031693730687
30
0
40
2.4000000000000199
210
0
220
0
230
-1
0
CIRCLE
5
195
100
AcDbEntity
8
INTERIOR_PROFILES
100
AcDbCircle
10
-196.89999895691869
20
184.07031693730684
30
0
40
2.4000000000000199
210
0
220
0
230
-1
0
CIRCLE
5
196
100
AcDbEntity
8
INTERIOR_PROFILES
100
AcDbCircle
10
-196.89999895691869
20
219.96719184785587
30
0
40
2.4000000000000199
210
0
220
0
230
-1
0
CIRCLE
5
197
100
AcDbEntity
8
INTERIOR_PROFILES
100
AcDbCircle
10
-258.89999895691864
20
219.96719184785593
30
0
40
2.3999999999999844
210
0
220
0
230
-1
0
CIRCLE
5
198
100
AcDbEntity
8
INTERIOR_PROFILES
100
AcDbCircle
10
-536.89999895691869
20
219.96719184785587
30
0
40
2.4000000000000199
210
0
220
0
230
-1
0
CIRCLE
5
199
100
AcDbEntity
8
INTERIOR_PROFILES
100
AcDbCircle
10
-412.89999895691869
20
219.96719184785587
30
0
40
2.4000000000000199
210
0
220
0
230
-1
0
CIRCLE
5
200
100
AcDbEntity
8
INTERIOR_PROFILES
100
AcDbCircle
10
-478.96000000000026
20
125.46875323774137
30
0
40
2.4000000000000199
210
0
220
0
230
-1
0
CIRCLE
5
201
100
AcDbEntity
8
INTERIOR_PROFILES
100
AcDbCircle
10
-554.76436451616098
20
581.86551487227405
30
0
40
2.5500000000000256
210
0
220
0
230
-1
0
CIRCLE
5
202
100
AcDbEntity
8
INTERIOR_PROFILES
100
AcDbCircle
10
-348.96000000000026
20
125.46875323774138
30
0
40
2.4000000000000199
210
0
220
0
230
-1
0
CIRCLE
5
203
100
AcDbEntity
8
INTERIOR_PROFILES
100
AcDbCircle
10
-24.999999999999858
20
291.33363441797309
30
0
40
2.4000000000000021
210
0
220
0
230
-1
0
CIRCLE
5
204
100
AcDbEntity
8
INTERIOR_PROFILES
100
AcDbCircle
10
-618.79999999999984
20
40.531872057508629
30
0
40
2.4000000000000199
210
0
220
0
230
-1
0
CIRCLE
5
205
100
AcDbEntity
8
INTERIOR_PROFILES
100
AcDbCircle
10
-487.89999999999992
20
335.0506252952502
30
0
40
12.800000014901158
210
0
220
0
230
-1
0
CIRCLE
5
206
100
AcDbEntity
8
INTERIOR_PROFILES
100
AcDbCircle
10
-321.89999999999992
20
291.33363441797354
30
0
40
2.4000000000000199
210
0
220
0
230
-1
0
CIRCLE
5
207
100
AcDbEntity
8
INTERIOR_PROFILES
100
AcDbCircle
10
-621.89326774721474
20
506.61534762851045
30
0
40
2.5500000000000256
210
0
220
0
230
-1
0
CIRCLE
5
208
100
AcDbEntity
8
INTERIOR_PROFILES
100
AcDbCircle
10
-618.79999999999995
20
291.333634417974
30
0
40
2.4000000000000199
210
0
220
0
230
-1
0
CIRCLE
5
209
100
AcDbEntity
8
INTERIOR_PROFILES
100
AcDbCircle
10
-478.96000000000026
20
143.06875323774142
30
0
40
2.4000000000000199
210
0
220
0
230
-1
0
CIRCLE
5
210
100
AcDbEntity
8
INTERIOR_PROFILES
100
AcDbCircle
10
-348.96000000000026
20
143.06875323774142
30
0
40
2.4000000000000199
210
0
220
0
230
-1
0
CIRCLE
5
211
100
AcDbEntity
8
INTERIOR_PROFILES
100
AcDbCircle
10
-111.16000000000028
20
125.46875323774137
30
0
40
2.4000000000000021
210
0
220
0
230
-1
0
CIRCLE
5
212
100
AcDbEntity
8
INTERIOR_PROFILES
100
AcDbCircle
10
-111.16000000000028
20
143.06875323774142
30
0
40
2.4000000000000021
210
0
220
0
230
-1
0
CIRCLE
5
213
100
AcDbEntity
8
INTERIOR_PROFILES
100
AcDbCircle
10
-415.89999999999986
20
335.05062529524969
30
0
40
12.800000014901158
210
0
220
0
230
-1
0
CIRCLE
5
214
100
AcDbEntity
8
INTERIOR_PROFILES
100
AcDbCircle
10
-471.89663564905902
20
421.58910405535443
30
0
40
2.5500000000000256
210
0
220
0
230
-1
0
CIRCLE
5
215
100
AcDbEntity
8
INTERIOR_PROFILES
100
AcDbCircle
10
-321.900000149059
20
421.5890989196505
30
0
40
2.5500000000000256
210
0
220
0
230
-1
0
CIRCLE
5
216
100
AcDbEntity
8
INTERIOR_PROFILES
100
AcDbCircle
10
-247.16000000000031
20
143.06875323774142
30
0
40
2.3999999999999844
210
0
220
0
230
-1
0
CIRCLE
5
217
100
AcDbEntity
8
INTERIOR_PROFILES
100
AcDbCircle
10
-205.46781360937786
20
581.86550647548302
30
0
40
2.5500000000000256
210
0
220
0
230
-1
0
CIRCLE
5
218
100
AcDbEntity
8
INTERIOR_PROFILES
100
AcDbCircle
10
-321.89999999999992
20
40.531872057508629
30
0
40
2.4000000000000199
210
0
220
0
230
-1
0
CIRCLE
5
219
100
AcDbEntity
8
INTERIOR_PROFILES
100
AcDbCircle
10
-438.33218090937794
20
581.8655106738787
30
0
40
2.5500000000000256
210
0
220
0
230
-1
0
CIRCLE
5
220
100
AcDbEntity
8
INTERIOR_PROFILES
100
AcDbCircle
10
-406.39999999999998
20
323.05062529524974
30
0
40
1.5874999999999773
210
0
220
0
230
-1
0
CIRCLE
5
221
100
AcDbEntity
8
INTERIOR_PROFILES
100
AcDbCircle
10
-321.89999725937787
20
581.86550647548313
30
0
40
2.5500000000000256
210
0
220
0
230
-1
0
CIRCLE
5
222
100
AcDbEntity
8
INTERIOR_PROFILES
100
AcDbCircle
10
-621.89327065841053
20
421.5891091910583
30
0
40
2.5500000000000256
210
0
220
0
230
-1
0
CIRCLE
5
223
100
AcDbEntity
8
INTERIOR_PROFILES
100
AcDbCircle
10
-247.16000000000031
20
125.46875323774137
30
0
40
2.3999999999999844
210
0
220
0
230
-1
0
CIRCLE
5
224
100
AcDbEntity
8
INTERIOR_PROFILES
100
AcDbCircle
10
-24.999999999999858
20
40.531872057508629
30
0
40
2.4000000000000021
210
0
220
0
230
-1
0
CIRCLE
5
225
100
AcDbEntity
8
INTERIOR_PROFILES
100
AcDbCircle
10
-451.89999999999998
20
335.05062529524992
30
0
40
12.200000014901207
210
0
220
0
230
-1
0
CIRCLE
5
226
100
AcDbEntity
8
INTERIOR_PROFILES
100
AcDbCircle
10
-171.90336464905897
20
421.58909864666771
30
0
40
2.5500000000000256
210
0
220
0
230
-1
0
CIRCLE
5
227
100
AcDbEntity
8
INTERIOR_PROFILES
100
AcDbCircle
10
-21.906729484965908
20
506.61533681113713
30
0
40
2.5500000000000256
210
0
220
0
230
-1
0
CIRCLE
5
228
100
AcDbEntity
8
INTERIOR_PROFILES
100
AcDbCircle
10
-89.035630002594814
20
581.86550647548302
30
0
40
2.5500000000000256
210
0
220
0
230
-1
0
CIRCLE
5
229
100
AcDbEntity
8
INTERIOR_PROFILES
100
AcDbCircle
10
-21.906729639707336
20
421.58909837368469
30
0
40
2.5500000000000256
210
0
220
0
230
-1
0
CIRCLE
5
230
100
AcDbEntity
8
INTERIOR_PROFILES
100
AcDbCircle
10
-704.46138025474988
20
288.91268846754554
30
0
40
1.587499999999999
210
0
220
0
230
-1
0
CIRCLE
5
231
100
AcDbEntity
8
INTERIOR_PROFILES
100
AcDbCircle
10
-217.77228949999994
20
600.20938374066441
30
0
40
1.5874999999999773
210
0
220
0
230
-1
0
LWPOLYLINE
5
232
100
AcDbEntity
8
INTERIOR_PROFILES
100
AcDbPolyline
90
8
70
1
43
0.0
10
57.999999999999972
20
327.8960879506746
10
35.799999999999912
20
327.8960879506746
42
-0.41421356237308815
10
32.799999999999976
20
330.89608795067466
10
32.79999999999994
20
384.5960879506747
42
-0.41421356237310025
10
35.799999999999969
20
387.59608795067464
10
58.000000000000028
20
387.59608795067464
42
-0.41421356237309681
10
61.000000000000014
20
384.5960879506747
10
61.00000000000005
20
330.89608795067466
42
-0.41421356237310197
0
CIRCLE
5
233
100
AcDbEntity
8
INTERIOR_PROFILES
100
AcDbCircle
10
-124.7800228224461
20
225.93340014449734
30
0
40
2.5500000000000078
210
0
220
0
230
-1
0
SPLINE
5
234
100
AcDbEntity
8
INTERIOR_PROFILES
100
AcDbSpline
70
0
71
3
72
29
73
25
74
0
42
0.000000001
43
0.0000000001
44
0.0000000001
40
0.16035147076741602
40
0.16035147076741602
40
0.16035147076741602
40
0.16035147076741602
40
4.4536359316722534
40
4.4536359316722534
40
4.4536359316722534
40
5.0796587289323245
40
5.0796587289323245
40
5.0796587289323245
40
8.3094257050158049
40
8.3094257050158049
40
8.3094257050158049
40
9.9638644059984465
40
9.9638644059984465
40
9.9638644059984465
40
14.991325377655492
40
14.991325377655492
40
14.991325377655492
40
16.233035420263089
40
16.233035420263089
40
16.233035420263089
40
22.90470749938164
40
22.90470749938164
40
22.90470749938164
40
24.479558707987835
40
24.479558707987835
40
24.479558707987835
40
24.479558707987835
10
26.906729485013656
20
506.5890983827843
30
0
10
27.026714270892853
20
518.02094362819798
30
0
10
28.781519628810059
20
528.38902650137936
30
0
10
31.608938210070505
20
536.83547584626524
30
0
10
32.021216619615345
20
538.06708998549857
30
0
10
32.455444255479833
20
539.258165049166
30
0
10
32.90894394228566
20
540.40661030683884
30
0
10
35.261351530083047
20
546.36386103251925
30
0
10
37.785669228541536
20
550.44988580912081
30
0
10
40.139603871497087
20
553.55674012507916
30
0
10
41.345400017698353
20
555.14821717487837
30
0
10
42.513574374938159
20
556.47984171657731
30
0
10
43.649510273297381
20
557.65898399917501
30
0
10
47.016771772021713
20
561.15432243811733
30
0
10
50.925587580370362
20
564.09732273719078
30
0
10
55.646993826031732
20
566.69702648395491
30
0
10
56.813112784193649
20
567.33911565547919
30
0
10
58.027499033771051
20
567.95794816209172
30
0
10
59.291100394184113
20
568.5532311904318
30
0
10
66.070143698518038
20
571.74684078430971
30
0
10
74.292487060347341
20
574.21266567480802
30
0
10
83.082608539137155
20
575.84300827427978
30
0
10
85.15752068567302
20
576.22785138149072
30
0
10
87.262512465755364
20
576.56806185735672
30
0
10
89.384377002306152
20
576.86550647548279
30
0
0
LINE
5
235
100
AcDbEntity
8
INTERIOR_PROFILES
100
AcDbLine
10
26.906729485013656
20
506.5890983827843
30
0
11
26.906729630607771
21
426.5890983827843
31
0
0
LINE
5
236
100
AcDbEntity
8
INTERIOR_PROFILES
100
AcDbLine
10
26.906729630607771
20
426.5890983827843
30
0
11
616.89327064931081
21
426.58909945651658
31
0
0
LINE
5
237
100
AcDbEntity
8
INTERIOR_PROFILES
100
AcDbLine
10
616.89327064931081
20
426.58909945651658
30
0
11
616.89327050371674
21
506.58909945651658
31
0
0
SPLINE
5
238
100
AcDbEntity
8
INTERIOR_PROFILES
100
AcDbSpline
70
0
71
3
72
29
73
25
74
0
42
0.000000001
43
0.0000000001
44
0.0000000001
40
0.64481195568886107
40
0.64481195568886107
40
0.64481195568886107
40
0.64481195568886107
40
3.6230464997187433
40
3.6230464997187433
40
3.6230464997187433
40
4.7628585305096225
40
4.7628585305096225
40
4.7628585305096225
40
7.4836284127420258
40
7.4836284127420258
40
7.4836284127420258
40
8.5280660999578721
40
8.5280660999578721
40
8.5280660999578721
40
11.99108944637079
40
11.99108944637079
40
11.99108944637079
40
12.593054718022998
40
12.593054718022998
40
12.593054718022998
40
17.659946331126825
40
17.659946331126825
40
17.659946331126825
40
18.283408061416004
40
18.283408061416004
40
18.283408061416004
40
18.283408061416004
10
554.41561411655834
20
576.86550647548302
30
0
10
562.73821114025088
20
575.69882687821757
30
0
10
570.8002300768967
20
573.85021299865411
30
0
10
577.83121943295282
20
571.31080387438999
30
0
10
580.52207743554368
20
570.33893647169066
30
0
10
583.06323458582563
20
569.26930052777732
30
0
10
585.42505801345828
20
568.1132955292851
30
0
10
591.09013857835885
20
565.34049660906658
30
0
10
595.04410520953104
20
562.47199692955621
30
0
10
598.20216657889205
20
559.56518850100701
30
0
10
599.41446988107168
20
558.44933511990359
30
0
10
600.50810103243134
20
557.32174562009777
30
0
10
601.52202419958519
20
556.16923650287629
30
0
10
604.84546622282073
20
552.39153681475523
30
0
10
607.60985726979447
20
547.97491875508899
30
0
10
609.89878480874336
20
542.7836472293817
30
0
10
610.29666110062658
20
541.88126660366925
30
0
10
610.67929759713957
20
540.95644489602626
30
0
10
611.04635727164452
20
540.00971004952203
30
0
10
614.13595901333599
20
532.04088690210347
30
0
10
616.26178196325088
20
522.02080164104586
30
0
10
616.77572803815815
20
510.7883458276882
30
0
10
616.83896714678804
20
509.4062348864
30
0
10
616.87839979723674
20
508.00594135818841
30
0
10
616.89327050371674
20
506.58909945651658
30
0
0
LINE
5
239
100
AcDbEntity
8
INTERIOR_PROFILES
100
AcDbLine
10
554.41561411655834
20
576.86550647548302
30
0
11
89.384377002306152
21
576.86550647548279
31
0
0
CIRCLE
5
240
100
AcDbEntity
8
INTERIOR_PROFILES
100
AcDbCircle
10
-170.94999999999999
20
11.157440590117282
30
0
40
2.5499999999999998
210
0
220
0
230
-1
0
CIRCLE
5
241
100
AcDbEntity
8
INTERIOR_PROFILES
100
AcDbCircle
10
-472.84999999999997
20
11.157440590116323
30
0
40
2.5499999999999998
210
0
220
0
230
-1
0
CIRCLE
5
242
100
AcDbEntity
8
INTERIOR_PROFILES
100
AcDbCircle
10
-209.01997717755393
20
225.93340014449734
30
0
40
2.5499999999999901
210
0
220
0
230
-1
0
CIRCLE
5
243
100
AcDbEntity
8
INTERIOR_PROFILES
100
AcDbCircle
10
-124.77985280619691
20
266.73340014608652
30
0
40
2.5500000000000078
210
0
220
0
230
-1
0
CIRCLE
5
244
100
AcDbEntity
8
INTERIOR_PROFILES
100
AcDbCircle
10
60.66138025475027
20
288.91268846754656
30
0
40
1.5875000000000019
210
0
220
0
230
-1
0
CIRCLE
5
245
100
AcDbEntity
8
INTERIOR_PROFILES
100
AcDbCircle
10
214.13570768908244
20
261.85102369478579
30
0
40
1.587500000000005
210
0
220
0
230
-1
0
CIRCLE
5
246
100
AcDbEntity
8
INTERIOR_PROFILES
100
AcDbCircle
10
-113.64457926497231
20
600.20938374066441
30
0
40
1.5874999999999773
210
0
220
0
230
-1
0
CIRCLE
5
247
100
AcDbEntity
8
INTERIOR_PROFILES
100
AcDbCircle
10
-20
20
11.157440590118277
30
0
40
2.5499999999999998
210
0
220
0
230
-1
0
CIRCLE
5
248
100
AcDbEntity
8
INTERIOR_PROFILES
100
AcDbCircle
10
-530.15542073502752
20
600.20938374066213
30
0
40
1.5874999999999773
210
0
220
0
230
-1
0
CIRCLE
5
249
100
AcDbEntity
8
INTERIOR_PROFILES
100
AcDbCircle
10
-321.89999999999998
20
11.157440590116323
30
0
40
2.5499999999999998
210
0
220
0
230
-1
0
CIRCLE
5
250
100
AcDbEntity
8
INTERIOR_PROFILES
100
AcDbCircle
10
-857.93570768908148
20
261.85102369478182
30
0
40
1.587499999999999
210
0
220
0
230
-1
0
CIRCLE
5
251
100
AcDbEntity
8
INTERIOR_PROFILES
100
AcDbCircle
10
263.37609533969271
20
253.16861481143854
30
0
40
1.587500000000005
210
0
220
0
230
-1
0
CIRCLE
5
252
100
AcDbEntity
8
INTERIOR_PROFILES
100
AcDbCircle
10
-426.02771049999996
20
600.20938374066327
30
0
40
1.5874999999999773
210
0
220
0
230
-1
0
CIRCLE
5
253
100
AcDbEntity
8
INTERIOR_PROFILES
100
AcDbCircle
10
-321.89999999999998
20
600.20938374066441
30
0
40
1.5874999999999773
210
0
220
0
230
-1
0
CIRCLE
5
254
100
AcDbEntity
8
INTERIOR_PROFILES
100
AcDbCircle
10
-209.02014719380304
20
266.73340014608652
30
0
40
2.5499999999999901
210
0
220
0
230
-1
0
CIRCLE
5
255
100
AcDbEntity
8
INTERIOR_PROFILES
100
AcDbCircle
10
-623.79999999999984
20
11.157440590116323
30
0
40
2.5499999999999998
210
0
220
0
230
-1
0
CIRCLE
5
256
100
AcDbEntity
8
INTERIOR_PROFILES
100
AcDbCircle
10
-907.17609533969153
20
253.16861481143354
30
0
40
1.587499999999999
210
0
220
0
230
-1
0
CIRCLE
5
257
100
AcDbEntity
8
INTERIOR_PROFILES
100
AcDbCircle
10
-46.899999999999622
20
393.74608795067473
30
0
40
2.5499999999999901
210
0
220
0
230
-1
0
CIRCLE
5
258
100
AcDbEntity
8
INTERIOR_PROFILES
100
AcDbCircle
10
-46.899999999999977
20
321.74608795067462
30
0
40
2.5499999999999901
210
0
220
0
230
-1
0
LINE
5
259
100
AcDbEntity
8
BEND
100
AcDbLine
10
645.60955736846768
20
505.30395224548795
30
-4.546363285840016e-13
11
645.60955736846768
21
309.5506252952498
31
9.8662476823200338e-14
0
LINE
5
260
100
AcDbEntity
8
BEND
100
AcDbLine
10
-1.8095573684679778
20
309.55062529524997
30
3.3601558018669637e-13
11
-1.8095573684679778
21
505.30395091995263
31
-4.8903083465164018e-13
0
LINE
5
261
100
AcDbEntity
8
BEND
100
AcDbLine
10
-50.12415437391823
20
301.13774193967373
30
-1.8512655965664637e-12
11
-74.744348199223367
21
296.79653749800013
31
-1.8144808643853937e-12
0
LINE
5
262
100
AcDbEntity
8
BEND
100
AcDbLine
10
918.79704390163374
20
261.4865842860591
30
-1.1691268547566629e-11
11
854.78453995584027
21
272.77371583441061
31
-9.0328395151016921e-12
0
LINE
5
263
100
AcDbEntity
8
BEND
100
AcDbLine
10
-206.06050119078091
20
273.64195672274559
30
-2.497275888851761e-12
11
-274.99704390163527
21
261.48658428605938
31
-2.7982937008936191e-12
0
LINE
5
264
100
AcDbEntity
8
BEND
100
AcDbLine
10
718.54434819922176
20
296.79653749799962
30
-3.3642402064599045e-12
11
693.92415437391662
21
301.13774193967328
31
-2.554887621508165e-12
0
LINE
5
265
100
AcDbEntity
8
BEND
100
AcDbLine
10
-2.8421709430404007e-13
20
307.94212985661198
30
-3.4416913763379853e-14
11
643.79999999999995
21
307.94212985661198
31
-3.4416913763379853e-14
0
LINE
5
266
100
AcDbEntity
8
BEND
100
AcDbLine
10
643.79999999999995
20
23.923376618870549
30
-6.3973792042068049e-14
11
0
21
23.923376618870549
31
-6.3973792042068188e-14
0
LINE
5
267
100
AcDbEntity
8
BEND_EXTENT
100
AcDbLine
10
647.4191147369354
20
505.30395224548806
30
-5.6843418860808015e-13
11
647.4191147369354
21
309.5506252952498
31
0
0
LINE
5
268
100
AcDbEntity
8
BEND_EXTENT
100
AcDbLine
10
694.23838071333478
20
302.9198080656605
30
-1.9184653865522705e-12
11
718.85857453863991
21
298.57860362398691
31
-2.9842794901924208e-12
0
LINE
5
269
100
AcDbEntity
8
BEND_EXTENT
100
AcDbLine
10
855.09876629525843
20
274.55578196039778
30
-8.5975671026972122e-12
11
919.1112702410519
21
263.26865041204633
31
-1.1297629498585593e-11
0
LINE
5
270
100
AcDbEntity
8
BEND_EXTENT
100
AcDbLine
10
718.23012185980349
20
295.01447137201217
30
-3.2684965844964609e-12
11
693.60992803449835
21
299.35567581368582
31
-2.4602542225693469e-12
0
LINE
5
271
100
AcDbEntity
8
BEND_EXTENT
100
AcDbLine
10
-205.74627485136276
20
271.85989059675819
30
-2.5135449277513544e-12
11
-274.68281756221711
21
259.70451816007193
31
-2.7888802378583932e-12
0
LINE
5
272
100
AcDbEntity
8
BEND_EXTENT
100
AcDbLine
10
-275.31127024105359
20
263.26865041204672
30
-1.9895196601282805e-12
11
-206.37472753019935
21
275.42402284873299
31
-1.7408297026122455e-12
0
LINE
5
273
100
AcDbEntity
8
BEND_EXTENT
100
AcDbLine
10
918.48281756221559
20
259.70451816007176
30
-1.1546319456101628e-11
11
854.47031361642212
21
270.99164970842332
31
-8.8906659811982536e-12
0
LINE
5
274
100
AcDbEntity
8
BEND_EXTENT
100
AcDbLine
10
-49.809928034500075
20
299.35567581368633
30
-1.7763568394002505e-12
11
-74.430121859805212
21
295.01447137201274
31
-1.7674750552032492e-12
0
LINE
5
275
100
AcDbEntity
8
BEND_EXTENT
100
AcDbLine
10
-75.058574538641665
20
298.57860362398731
30
-1.1723955140041653e-12
11
-50.43838071333667
21
302.91980806566096
31
-1.1013412404281553e-12
0
LINE
5
276
100
AcDbEntity
8
BEND_EXTENT
100
AcDbLine
10
643.79999999999995
20
306.33363441797405
30
-7.1054273576010019e-14
11
-2.8421709430404007e-13
21
306.33363441797405
31
-7.1054273576010019e-14
0
LINE
5
277
100
AcDbEntity
8
BEND_EXTENT
100
AcDbLine
10
0
20
25.531872057508664
30
-7.1054273576010019e-14
11
643.79999999999995
21
25.531872057508629
31
-7.1054273576010019e-14
0
LINE
5
278
100
AcDbEntity
8
BEND_EXTENT
100
AcDbLine
10
-3.6191147369353871
20
309.55062529524997
30
3.5527136788005009e-13
11
-3.6191147369353871
21
505.30395091995263
31
-4.9737991503207013e-13
0
LINE
5
279
100
AcDbEntity
8
BEND_EXTENT
100
AcDbLine
10
643.79999999999984
20
22.314881180232682
30
-3.5527136788005009e-14
11
-1.4210854715202004e-13
21
22.314881180232717
31
-3.5527136788005009e-14
0
LINE
5
280
100
AcDbEntity
8
BEND_EXTENT
100
AcDbLine
10
-1.4210854715202004e-13
20
505.30395091995268
30
-6.0396132539608516e-13
11
-1.4210854715202004e-13
21
309.55062529524992
31
0
0
LINE
5
281
100
AcDbEntity
8
BEND_EXTENT
100
AcDbLine
10
-1.4210854715202004e-13
20
309.55062529524992
30
0
11
643.79999999999995
21
309.55062529524992
31
0
0
LINE
5
282
100
AcDbEntity
8
BEND_EXTENT
100
AcDbLine
10
643.79999999999995
20
309.55062529524992
30
0
11
643.79999999999995
21
505.30395224548795
31
-5.3290705182007514e-13
0
ENDSEC
0
SECTION
2
OBJECTS
0
DICTIONARY
5
C
100
AcDbDictionary
3
ACAD_GROUP
350
D
3
ACAD_MLINESTYLE
350
17
0
DICTIONARY
5
D
100
AcDbDictionary
0
DICTIONARY
5
1A
330
C
100
AcDbDictionary
0
DICTIONARY
5
17
100
AcDbDictionary
0
ENDSEC
0
EOF
