                                                                        S      1
,,14HP-TET-000137-0,14HP-TET-000137-0,7Hunknown,7Hunknown,32,38,7,99,15,G      1
,1.,2,2HMM,1,0.08,15H20210708.222156,0.01,10000.,7Hunknown,7Hunknown,11,G      2
0,;                                                                     G      3
     186       1                                                00000000D      1
     186            -135       1       0                               0D      2
     514       2                                                00010000D      3
     514                       1       1                               0D      4
     510       3                                                00010000D      5
     510            -135       1       1                               0D      6
     510       4                                                00010000D      7
     510            -135       1       1                               0D      8
     510       5                                                00010000D      9
     510            -135       1       1                               0D     10
     510       6                                                00010000D     11
     510            -135       1       1                               0D     12
     510       7                                                00010000D     13
     510            -135       1       1                               0D     14
     510       8                                                00010000D     15
     510            -135       1       1                               0D     16
     510       9                                                00010000D     17
     510            -135       1       1                               0D     18
     510      10                                                00010000D     19
     510            -135       1       1                               0D     20
     510      11                                                00010000D     21
     510            -135       1       1                               0D     22
     510      12                                                00010000D     23
     510            -135       1       1                               0D     24
     508      13                                                00010000D     25
     508                       2       1                               0D     26
     508      15                                                00010000D     27
     508                       1       1                               0D     28
     508      16                                                00010000D     29
     508                       1       1                               0D     30
     508      17                                                00010000D     31
     508                       2       1                               0D     32
     508      19                                                00010000D     33
     508                       1       1                               0D     34
     508      20                                                00010000D     35
     508                       1       1                               0D     36
     508      21                                                00010000D     37
     508                       2       1                               0D     38
     508      23                                                00010000D     39
     508                       2       1                               0D     40
     508      25                                                00010000D     41
     508                       1       1                               0D     42
     508      26                                                00010000D     43
     508                       1       1                               0D     44
     508      27                                                00010000D     45
     508                       2       1                               0D     46
     508      29                                                00010000D     47
     508                       2       1                               0D     48
     508      31                                                00010000D     49
     508                       2       1                               0D     50
     126      33                                                00010000D     51
     126       0               7       0                               0D     52
     126      40                                                00010000D     53
     126       0               9       0                               0D     54
     126      49                                                00010000D     55
     126       0               4       0                               0D     56
     126      53                                                00010000D     57
     126       0               7       0                               0D     58
     126      60                                                00010000D     59
     126       0               8       0                               0D     60
     126      68                                                00010000D     61
     126       0               6       0                               0D     62
     126      74                                                00010000D     63
     126       0               7       0                               0D     64
     126      81                                                00010000D     65
     126       0               3       0                               0D     66
     126      84                                                00010000D     67
     126       0               6       0                               0D     68
     126      90                                                00010000D     69
     126       0               7       0                               0D     70
     126      97                                                00010000D     71
     126       0               8       0                               0D     72
     126     105                                                00010000D     73
     126       0               9       0                               0D     74
     126     114                                                00010000D     75
     126       0               4       0                               0D     76
     126     118                                                00010000D     77
     126       0               8       0                               0D     78
     126     126                                                00010000D     79
     126       0               7       0                               0D     80
     126     133                                                00010000D     81
     126       0              10       0                               0D     82
     126     143                                                00010000D     83
     126       0               6       0                               0D     84
     126     149                                                00010000D     85
     126       0               5       0                               0D     86
     126     154                                                00010000D     87
     126       0              10       0                               0D     88
     126     164                                                00010000D     89
     126       0               5       0                               0D     90
     126     169                                                00010000D     91
     126       0               6       0                               0D     92
     126     175                                                00010000D     93
     126       0              10       0                               0D     94
     126     185                                                00010000D     95
     126       0               5       0                               0D     96
     126     190                                                00010000D     97
     126       0               4       0                               0D     98
     126     194                                                00010000D     99
     126       0               5       0                               0D    100
     126     199                                                00010000D    101
     126       0               7       0                               0D    102
     126     206                                                00010000D    103
     126       0              10       0                               0D    104
     126     216                                                00010000D    105
     126       0               6       0                               0D    106
     126     222                                                00010000D    107
     126       0               4       0                               0D    108
     128     226                                                00010000D    109
     128       0    -135      20       0                               0D    110
     128     246                                                00010000D    111
     128       0    -135       7       0                               0D    112
     128     253                                                00010000D    113
     128       0    -135      13       0                               0D    114
     128     266                                                00010000D    115
     128       0    -135       8       0                               0D    116
     128     274                                                00010000D    117
     128       0    -135      20       0                               0D    118
     128     294                                                00010000D    119
     128       0    -135      29       0                               0D    120
     128     323                                                00010000D    121
     128       0    -135       7       0                               0D    122
     128     330                                                00010000D    123
     128       0    -135      22       0                               0D    124
     128     352                                                00010000D    125
     128       0    -135      28       0                               0D    126
     128     380                                                00010000D    127
     128       0    -135      22       0                               0D    128
     502     402                                                00010000D    129
     502                      12       1                               0D    130
     504     414                                                00010001D    131
     504                       8       1                               0D    132
     406     422                                                00000000D    133
     406                       1      15                               0D    134
     314     423                                                00000200D    135
     314                       1       0                               0D    136
     314     424                                                00000200D    137
     314                       2       0                               0D    138
186,3,1,0,0,1,133;                                                     1P      1
514,10,5,1,7,1,9,1,11,1,13,1,15,1,17,1,19,1,21,1,23,1;                 3P      2
510,109,1,1,25;                                                        5P      3
510,111,2,1,27,29;                                                     7P      4
510,113,1,1,31;                                                        9P      5
510,115,2,1,33,35;                                                    11P      6
510,117,1,1,37;                                                       13P      7
510,119,1,1,39;                                                       15P      8
510,121,2,1,41,43;                                                    17P      9
510,123,1,1,45;                                                       19P     10
510,125,1,1,47;                                                       21P     11
510,127,1,1,49;                                                       23P     12
508,6,0,131,1,0,0,0,131,2,0,0,0,131,3,1,0,0,131,4,0,0,0,131,5,0,      25P     13
0,0,131,3,0,0;                                                        25P     14
508,2,0,131,1,1,0,0,131,2,1,0;                                        27P     15
508,2,0,131,6,0,0,0,131,7,0,0;                                        29P     16
508,6,0,131,6,1,0,0,131,8,1,0,0,131,9,0,0,0,131,10,0,0,0,131,8,       31P     17
0,0,0,131,7,1,0;                                                      31P     18
508,2,0,131,11,0,0,0,131,12,0,0;                                      33P     19
508,2,0,131,9,1,0,0,131,10,1,0;                                       35P     20
508,6,0,131,11,1,0,0,131,13,1,0,0,131,14,1,0,0,131,15,1,0,0,131,      37P     21
13,0,0,0,131,12,1,0;                                                  37P     22
508,7,0,131,16,1,0,0,131,17,1,0,0,131,18,1,0,0,131,19,1,0,0,131,      39P     23
20,1,0,0,131,18,0,0,0,131,21,1,0;                                     39P     24
508,2,0,131,20,0,0,0,131,19,0,0;                                      41P     25
508,2,0,131,22,0,0,0,131,23,0,0;                                      43P     26
508,7,0,131,16,0,0,0,131,21,0,0,0,131,17,0,0,0,131,24,1,0,0,131,      45P     27
5,1,0,0,131,4,1,0,0,131,24,0,0;                                       45P     28
508,7,0,131,22,1,0,0,131,25,1,0,0,131,26,1,0,0,131,27,1,0,0,131,      47P     29
28,1,0,0,131,25,0,0,0,131,23,1,0;                                     47P     30
508,7,0,131,28,0,0,0,131,27,0,0,0,131,29,1,0,0,131,15,0,0,0,131,      49P     31
14,0,0,0,131,29,0,0,0,131,26,0,0;                                     49P     32
126,4,2,0,0,0,0,1.5707963267949,1.5707963267949,1.5707963267949,      51P     33
3.14159265358979,3.14159265358979,4.71238898038469,                   51P     34
4.71238898038469,4.71238898038469,1.,0.707106781186548,1.,            51P     35
0.707106781186548,1.,40.5,5.0788281188972,-6.78382569705557D-16,      51P     36
40.5,5.0788281188972,11.0788281188972,40.5,-6.,11.0788281188972,      51P     37
40.5,-17.0788281188972,11.0788281188972,40.5,-17.0788281188972,       51P     38
2.03514770911667D-15,1.5707963267949,4.71238898038469,0.,0.,0.;       51P     39
126,4,2,0,0,0,0,4.71238898038469,4.71238898038469,                    53P     40
4.71238898038469,6.28318530717959,6.28318530717959,                   53P     41
7.85398163397448,7.85398163397448,7.85398163397448,1.,                53P     42
0.707106781186547,1.,0.707106781186548,1.,40.5,                       53P     43
-17.0788281188972,2.03514770911667D-15,40.5,-17.0788281188972,        53P     44
-11.0788281188972,40.5,-6.,-11.0788281188972,40.5,                    53P     45
5.07882811889719,-11.0788281188972,40.5,5.0788281188972,              53P     46
-3.39191284852779D-15,4.71238898038469,7.85398163397448,0.,0.,        53P     47
0.;                                                                   53P     48
126,1,1,0,0,1,0,-0.259503980849392,-0.259503980849392,                55P     49
0.259503980849392,0.259503980849392,1.,1.,40.5,                       55P     50
-17.0788281188972,0.,34.75,-17.0788281188972,0.,                      55P     51
-0.259503980849392,0.259503980849392,0.,0.,0.;                        55P     52
126,4,2,0,0,0,0,0.,0.,0.,1.5707963267949,1.5707963267949,             57P     53
3.14159265358979,3.14159265358979,3.14159265358979,1.,                57P     54
0.707106781186548,1.,0.707106781186548,1.,34.75,5.0788281188972,      57P     55
0.,34.75,5.0788281188972,-11.0788281188972,34.75,-6.,                 57P     56
-11.0788281188972,34.75,-17.0788281188972,-11.0788281188972,          57P     57
34.75,-17.0788281188972,-1.35676513941111D-15,0.,                     57P     58
3.14159265358979,0.,0.,0.;                                            57P     59
126,4,2,0,0,0,0,3.14159265358979,3.14159265358979,                    59P     60
3.14159265358979,4.71238898038469,4.71238898038469,                   59P     61
6.28318530717959,6.28318530717959,6.28318530717959,1.,                59P     62
0.707106781186548,1.,0.707106781186547,1.,34.75,                      59P     63
-17.0788281188972,-1.35676513941111D-15,34.75,-17.0788281188972,      59P     64
11.0788281188972,34.75,-6.,11.0788281188972,34.75,                    59P     65
5.0788281188972,11.0788281188972,34.75,5.0788281188972,               59P     66
2.71353027882223D-15,3.14159265358979,6.28318530717959,0.,0.,0.;      59P     67
126,4,2,0,0,0,0,1.5707963267949,1.5707963267949,1.5707963267949,      61P     68
3.14159265358979,3.14159265358979,4.71238898038469,                   61P     69
4.71238898038469,4.71238898038469,1.,0.707106781186548,1.,            61P     70
0.707106781186547,1.,40.5,1.5,-4.59242549680257D-16,40.5,1.5,         61P     71
7.5,40.5,-6.,7.5,40.5,-13.5,7.5,40.5,-13.5,1.37772764904077D-15,      61P     72
1.5707963267949,4.71238898038469,0.,0.,0.;                            61P     73
126,4,2,0,0,0,0,4.71238898038469,4.71238898038469,                    63P     74
4.71238898038469,6.28318530717959,6.28318530717959,                   63P     75
7.85398163397448,7.85398163397448,7.85398163397448,1.,                63P     76
0.707106781186547,1.,0.707106781186547,1.,40.5,-13.5,                 63P     77
1.37772764904077D-15,40.5,-13.5,-7.5,40.5,-6.,-7.5,40.5,1.5,          63P     78
-7.5,40.5,1.5,-2.29621274840129D-15,4.71238898038469,                 63P     79
7.85398163397448,0.,0.,0.;                                            63P     80
126,1,1,0,0,1,0,-0.333333333333333,-0.333333333333333,                65P     81
0.333333333333333,0.333333333333333,1.,1.,40.5,-13.5,0.,35.5,         65P     82
-13.5,0.,-0.333333333333333,0.333333333333333,0.,0.,0.;               65P     83
126,4,2,0,0,0,0,1.5707963267949,1.5707963267949,1.5707963267949,      67P     84
3.14159265358979,3.14159265358979,4.71238898038469,                   67P     85
4.71238898038469,4.71238898038469,1.,0.707106781186548,1.,            67P     86
0.707106781186547,1.,35.5,1.5,-4.59242549680257D-16,35.5,1.5,         67P     87
7.5,35.5,-6.,7.5,35.5,-13.5,7.5,35.5,-13.5,1.37772764904077D-15,      67P     88
1.5707963267949,4.71238898038469,0.,0.,0.;                            67P     89
126,4,2,0,0,0,0,4.71238898038469,4.71238898038469,                    69P     90
4.71238898038469,6.28318530717959,6.28318530717959,                   69P     91
7.85398163397448,7.85398163397448,7.85398163397448,1.,                69P     92
0.707106781186547,1.,0.707106781186547,1.,35.5,-13.5,                 69P     93
1.37772764904077D-15,35.5,-13.5,-7.5,35.5,-6.,-7.5,35.5,1.5,          69P     94
-7.5,35.5,1.5,-2.29621274840129D-15,4.71238898038469,                 69P     95
7.85398163397448,0.,0.,0.;                                            69P     96
126,4,2,0,0,0,0,1.5707963267949,1.5707963267949,1.5707963267949,      71P     97
3.14159265358979,3.14159265358979,4.71238898038469,                   71P     98
4.71238898038469,4.71238898038469,1.,0.707106781186548,1.,            71P     99
0.707106781186548,1.,35.5,1.71617188110281,                           71P    100
-4.72479259793168D-16,35.5,1.71617188110281,7.71617188110281,         71P    101
35.5,-6.,7.71617188110281,35.5,-13.7161718811028,                     71P    102
7.71617188110281,35.5,-13.7161718811028,1.4174377793795D-15,          71P    103
1.5707963267949,4.71238898038469,0.,0.,0.;                            71P    104
126,4,2,0,0,0,0,4.71238898038469,4.71238898038469,                    73P    105
4.71238898038469,6.28318530717959,6.28318530717959,                   73P    106
7.85398163397448,7.85398163397448,7.85398163397448,1.,                73P    107
0.707106781186549,1.,0.707106781186548,1.,35.5,                       73P    108
-13.7161718811028,1.4174377793795D-15,35.5,-13.7161718811028,         73P    109
-7.7161718811028,35.5,-6.,-7.71617188110281,35.5,                     73P    110
1.7161718811028,-7.71617188110281,35.5,1.71617188110281,              73P    111
-2.36239629896584D-15,4.71238898038469,7.85398163397448,0.,0.,        73P    112
0.;                                                                   73P    113
126,1,1,0,0,1,0,-0.0485992284488102,-0.0485992284488102,              75P    114
0.0485992284488102,0.0485992284488102,1.,1.,35.5,                     75P    115
-13.7161718811028,0.,34.75,-13.7161718811028,0.,                      75P    116
-0.0485992284488102,0.0485992284488102,0.,0.,0.;                      75P    117
126,4,2,0,0,0,0,3.14159265358979,3.14159265358979,                    77P    118
3.14159265358979,4.71238898038469,4.71238898038469,                   77P    119
6.28318530717959,6.28318530717959,6.28318530717959,1.,                77P    120
0.707106781186549,1.,0.707106781186548,1.,34.75,                      77P    121
-13.7161718811028,-9.44958519586336D-16,34.75,-13.7161718811028,      77P    122
7.71617188110281,34.75,-6.,7.71617188110281,34.75,                    77P    123
1.7161718811028,7.71617188110281,34.75,1.71617188110281,              77P    124
1.88991703917267D-15,3.14159265358979,6.28318530717959,0.,0.,0.;      77P    125
126,4,2,0,0,0,0,0.,0.,0.,1.5707963267949,1.5707963267949,             79P    126
3.14159265358979,3.14159265358979,3.14159265358979,1.,                79P    127
0.707106781186548,1.,0.707106781186548,1.,34.75,                      79P    128
1.71617188110281,0.,34.75,1.71617188110281,-7.71617188110281,         79P    129
34.75,-6.,-7.71617188110281,34.75,-13.7161718811028,                  79P    130
-7.71617188110281,34.75,-13.7161718811028,-9.44958519586336D-16,      79P    131
0.,3.14159265358979,0.,0.,0.;                                         79P    132
126,4,2,0,0,0,0,-3.14159265358979,-3.14159265358979,                  81P    133
-3.14159265358979,-1.5707963267949,-1.5707963267949,                  81P    134
-1.22464679914735D-16,-1.22464679914735D-16,                          81P    135
-1.22464679914735D-16,1.,0.707106781186548,1.,0.707106781186548,      81P    136
1.,15.8937484701211,4.84304884921429,-2.65578101323773D-15,           81P    137
15.8937484701211,4.84304884921428,-10.8430488492143,                  81P    138
15.8937484701211,-6.,-10.8430488492143,15.8937484701211,              81P    139
-16.8430488492143,-10.8430488492143,15.8937484701211,                 81P    140
-16.8430488492143,2.46519032881566D-31,-3.14159265358979,             81P    141
-1.22464679914735D-16,0.,0.,0.;                                       81P    142
126,2,2,0,0,0,0,-1.22464679914735D-16,-1.22464679914735D-16,          83P    143
-1.22464679914735D-16,1.5707963267949,1.5707963267949,                83P    144
1.5707963267949,1.,0.707106781186548,1.,15.8937484701211,             83P    145
-16.8430488492143,2.46519032881566D-31,15.8937484701211,              83P    146
-16.8430488492143,10.8430488492143,15.8937484701211,-6.,              83P    147
10.8430488492143,-1.22464679914735D-16,1.5707963267949,0.,0.,0.;      83P    148
126,2,2,0,0,0,0,0.0125033855407694,0.0125033855407694,                85P    149
0.0125033855407694,1.5707963267949,1.5707963267949,                   85P    150
1.5707963267949,1.,0.711513548626416,1.,15.8937484701211,-6.,         85P    151
10.8430488492143,15.4,-6.,10.836875,15.4,-6.,10.3430879323676,        85P    152
0.0125033855407694,1.5707963267949,0.,0.,0.;                          85P    153
126,6,2,0,0,0,0,-1.5707963267949,-1.5707963267949,                    87P    154
-1.5707963267949,0.,0.,1.5707963267949,1.5707963267949,               87P    155
3.14159265358979,3.14159265358979,3.14159265358979,1.,                87P    156
0.707106781186548,1.,0.707106781186548,1.,0.707106781186548,1.,       87P    157
15.4,-6.,10.3430879323676,15.4,-16.3430879323676,                     87P    158
10.3430879323676,15.4,-16.3430879323676,1.26666295296736D-15,         87P    159
15.4,-16.3430879323676,-10.3430879323676,15.4,-6.,                    87P    160
-10.3430879323676,15.4,4.3430879323676,-10.3430879323676,15.4,        87P    161
4.34308793236761,-2.53332590593472D-15,-1.5707963267949,              87P    162
3.14159265358979,0.,0.,0.;                                            87P    163
126,2,2,0,0,0,0,-3.14159265358979,-3.14159265358979,                  89P    164
-3.14159265358979,-1.5707963267949,-1.5707963267949,                  89P    165
-1.5707963267949,1.,0.707106781186548,1.,15.4,4.34308793236761,       89P    166
0.,15.4,4.34308793236761,10.3430879323676,15.4,-6.,                   89P    167
10.3430879323676,-3.14159265358979,-1.5707963267949,0.,0.,0.;         89P    168
126,2,2,0,0,0,0,1.5707963267949,1.5707963267949,1.5707963267949,      91P    169
3.14159265358979,3.14159265358979,3.14159265358979,1.,                91P    170
0.707106781186547,1.,15.8937484701211,-6.,10.8430488492143,           91P    171
15.8937484701211,4.84304884921429,10.8430488492143,                   91P    172
15.8937484701211,4.84304884921429,0.,1.5707963267949,                 91P    173
3.14159265358979,0.,0.,0.;                                            91P    174
126,6,2,0,0,0,0,-3.14159265358979,-3.14159265358979,                  93P    175
-3.14159265358979,-1.5707963267949,-1.5707963267949,0.,0.,            93P    176
1.5707963267949,1.5707963267949,1.5707963267949,1.,                   93P    177
0.707106781186547,1.,0.707106781186548,1.,0.707106781186548,1.,       93P    178
15.4,2.45191206763239,-2.07012141206018D-15,15.4,                     93P    179
2.45191206763239,-8.45191206763239,15.4,-6.,-8.45191206763239,        93P    180
15.4,-14.4519120676324,-8.45191206763239,15.4,-14.4519120676324,      93P    181
1.03506070603009D-15,15.4,-14.4519120676324,8.45191206763239,         93P    182
15.4,-6.,8.45191206763239,-3.14159265358979,1.5707963267949,0.,       93P    183
0.,0.;                                                                93P    184
126,2,2,0,0,0,0,1.5707963267949,1.5707963267949,1.5707963267949,      95P    185
3.14159265358979,3.14159265358979,3.14159265358979,1.,                95P    186
0.707106781186547,1.,15.4,-6.,8.45191206763239,15.4,                  95P    187
2.45191206763239,8.45191206763239,15.4,2.45191206763239,0.,           95P    188
1.5707963267949,3.14159265358979,0.,0.,0.;                            95P    189
126,1,1,0,0,1,0,-1.70214081907026,-1.70214081907026,                  97P    190
1.41166701337887D-18,1.41166701337887D-18,1.,1.,15.893748470121,      97P    191
-16.8430488492143,0.,34.75,-17.0788281188972,0.,                      97P    192
-1.70214081907026,1.41166701337887D-18,0.,0.,0.;                      97P    193
126,2,2,0,0,0,0,1.5707963267949,1.5707963267949,1.5707963267949,      99P    194
3.12908926804903,3.12908926804903,3.12908926804903,1.,                99P    195
0.711513548626411,1.,15.4,-6.,8.45191206763239,15.4,-6.,              99P    196
7.958125,15.8937484701211,-6.,7.95195115078571,1.5707963267949,       99P    197
3.12908926804903,0.,0.,0.;                                            99P    198
126,2,2,0,0,0,0,-1.5707963267949,-1.5707963267949,                   101P    199
-1.5707963267949,-1.22464679914735D-16,-1.22464679914735D-16,        101P    200
-1.22464679914735D-16,1.,0.707106781186548,1.,15.8937484701211,      101P    201
-6.,7.95195115078571,15.8937484701211,-13.9519511507857,             101P    202
7.95195115078571,15.8937484701211,-13.9519511507857,                 101P    203
-1.23259516440783D-31,-1.5707963267949,-1.22464679914735D-16,0.,     101P    204
0.,0.;                                                               101P    205
126,4,2,0,0,0,0,-1.22464679914735D-16,-1.22464679914735D-16,         103P    206
-1.22464679914735D-16,1.5707963267949,1.5707963267949,               103P    207
3.14159265358979,3.14159265358979,3.14159265358979,1.,               103P    208
0.707106781186548,1.,0.707106781186548,1.,15.8937484701211,          103P    209
-13.9519511507857,-1.23259516440783D-31,15.8937484701211,            103P    210
-13.9519511507857,-7.95195115078571,15.8937484701211,-6.,            103P    211
-7.95195115078571,15.8937484701211,1.95195115078571,                 103P    212
-7.95195115078571,15.8937484701211,1.95195115078571,                 103P    213
-1.94766630475717D-15,-1.22464679914735D-16,3.14159265358979,0.,     103P    214
0.,0.;                                                               103P    215
126,2,2,0,0,0,0,-3.14159265358979,-3.14159265358979,                 105P    216
-3.14159265358979,-1.5707963267949,-1.5707963267949,                 105P    217
-1.5707963267949,1.,0.707106781186548,1.,15.8937484701211,           105P    218
1.95195115078571,-1.23259516440783D-31,15.8937484701211,             105P    219
1.95195115078571,7.95195115078571,15.8937484701211,-6.,              105P    220
7.95195115078571,-3.14159265358979,-1.5707963267949,0.,0.,0.;        105P    221
126,1,1,0,0,1,0,0.0620481668272854,0.0620481668272854,               107P    222
2.43166733825753,2.43166733825753,1.,1.,15.8937484701211,            107P    223
-13.9519511507857,0.,34.75,-13.7161718811028,0.,                     107P    224
0.0620481668272854,2.43166733825753,0.,0.,0.;                        107P    225
128,1,8,1,2,0,1,0,0,1,-0.259503980849392,-0.259503980849392,         109P    226
0.259503980849392,0.259503980849392,-3.14159265358979,               109P    227
-3.14159265358979,-3.14159265358979,-1.5707963267949,                109P    228
-1.5707963267949,0.,0.,1.5707963267949,1.5707963267949,              109P    229
3.14159265358979,3.14159265358979,3.14159265358979,1.,1.,            109P    230
0.707106781186548,0.707106781186548,1.,1.,0.707106781186548,         109P    231
0.707106781186548,1.,1.,0.707106781186548,0.707106781186548,1.,      109P    232
1.,0.707106781186548,0.707106781186548,1.,1.,40.5,                   109P    233
-17.0788281188972,0.,34.75,-17.0788281188972,0.,40.5,                109P    234
-17.0788281188972,-11.0788281188972,34.75,-17.0788281188972,         109P    235
-11.0788281188972,40.5,-6.,-11.0788281188972,34.75,-6.,              109P    236
-11.0788281188972,40.5,5.0788281188972,-11.0788281188972,34.75,      109P    237
5.0788281188972,-11.0788281188972,40.5,5.0788281188972,0.,34.75,     109P    238
5.0788281188972,0.,40.5,5.0788281188972,11.0788281188972,34.75,      109P    239
5.0788281188972,11.0788281188972,40.5,-6.,11.0788281188972,          109P    240
34.75,-6.,11.0788281188972,40.5,-17.0788281188972,                   109P    241
11.0788281188972,34.75,-17.0788281188972,11.0788281188972,40.5,      109P    242
-17.0788281188972,0.,34.75,-17.0788281188972,0.,                     109P    243
-0.259503980849392,0.259503980849392,-3.14159265358979,              109P    244
3.14159265358979;                                                    109P    245
128,1,1,1,1,0,0,1,0,0,-1.10888281188972,-1.10888281188972,           111P    246
1.10888281188972,1.10888281188972,-1.85888281188972,                 111P    247
-1.85888281188972,0.35888281188972,0.35888281188972,1.,1.,1.,1.,     111P    248
40.5,-17.0888281188972,11.0888281188972,40.5,-17.0888281188972,      111P    249
-11.0888281188972,40.5,5.0888281188972,11.0888281188972,40.5,        111P    250
5.0888281188972,-11.0888281188972,-1.10888281188972,                 111P    251
1.10888281188972,-1.85888281188972,0.35888281188972;                 111P    252
128,1,8,1,2,0,1,0,0,1,-0.333333333333333,-0.333333333333333,         113P    253
0.333333333333333,0.333333333333333,-3.14159265358979,               113P    254
-3.14159265358979,-3.14159265358979,-1.5707963267949,                113P    255
-1.5707963267949,0.,0.,1.5707963267949,1.5707963267949,              113P    256
3.14159265358979,3.14159265358979,3.14159265358979,1.,1.,            113P    257
0.707106781186548,0.707106781186548,1.,1.,0.707106781186548,         113P    258
0.707106781186548,1.,1.,0.707106781186548,0.707106781186548,1.,      113P    259
1.,0.707106781186548,0.707106781186548,1.,1.,35.5,-13.5,0.,40.5,     113P    260
-13.5,0.,35.5,-13.5,-7.5,40.5,-13.5,-7.5,35.5,-6.,-7.5,40.5,-6.,     113P    261
-7.5,35.5,1.5,-7.5,40.5,1.5,-7.5,35.5,1.5,0.,40.5,1.5,0.,35.5,       113P    262
1.5,7.5,40.5,1.5,7.5,35.5,-6.,7.5,40.5,-6.,7.5,35.5,-13.5,7.5,       113P    263
40.5,-13.5,7.5,35.5,-13.5,0.,40.5,-13.5,0.,-0.333333333333333,       113P    264
0.333333333333333,-3.14159265358979,3.14159265358979;                113P    265
128,1,1,1,1,0,0,1,0,0,-0.772617188110281,-0.772617188110281,         115P    266
0.772617188110281,0.772617188110281,-1.54423437622056,               115P    267
-1.54423437622056,0.00100000000000001,0.00100000000000001,1.,1.,     115P    268
1.,1.,35.5,-13.7261718811028,-7.72617188110281,35.5,                 115P    269
-13.7261718811028,7.72617188110281,35.5,1.72617188110281,            115P    270
-7.72617188110281,35.5,1.72617188110281,7.72617188110281,            115P    271
-0.772617188110281,0.772617188110281,-1.54423437622056,              115P    272
0.00100000000000001;                                                 115P    273
128,1,8,1,2,0,1,0,0,1,-0.0485992284488102,-0.0485992284488102,       117P    274
0.0485992284488102,0.0485992284488102,-3.14159265358979,             117P    275
-3.14159265358979,-3.14159265358979,-1.5707963267949,                117P    276
-1.5707963267949,0.,0.,1.5707963267949,1.5707963267949,              117P    277
3.14159265358979,3.14159265358979,3.14159265358979,1.,1.,            117P    278
0.707106781186548,0.707106781186548,1.,1.,0.707106781186548,         117P    279
0.707106781186548,1.,1.,0.707106781186548,0.707106781186548,1.,      117P    280
1.,0.707106781186548,0.707106781186548,1.,1.,34.75,                  117P    281
-13.7161718811028,0.,35.5,-13.7161718811028,0.,34.75,                117P    282
-13.7161718811028,-7.71617188110281,35.5,-13.7161718811028,          117P    283
-7.71617188110281,34.75,-6.,-7.71617188110281,35.5,-6.,              117P    284
-7.71617188110281,34.75,1.7161718811028,-7.71617188110281,35.5,      117P    285
1.7161718811028,-7.71617188110281,34.75,1.71617188110281,0.,         117P    286
35.5,1.71617188110281,0.,34.75,1.7161718811028,7.71617188110281,     117P    287
35.5,1.7161718811028,7.71617188110281,34.75,-6.,                     117P    288
7.71617188110281,35.5,-6.,7.71617188110281,34.75,                    117P    289
-13.7161718811028,7.71617188110281,35.5,-13.7161718811028,           117P    290
7.71617188110281,34.75,-13.7161718811028,0.,35.5,                    117P    291
-13.7161718811028,0.,-0.0485992284488102,0.0485992284488102,         117P    292
-3.14159265358979,3.14159265358979;                                  117P    293
128,2,8,2,2,0,1,0,0,1,-1.5707963267949,-1.5707963267949,             119P    294
-1.5707963267949,-0.0125033855407694,-0.0125033855407694,            119P    295
-0.0125033855407694,-3.14159265358979,-3.14159265358979,             119P    296
-3.14159265358979,-1.5707963267949,-1.5707963267949,0.,0.,           119P    297
1.5707963267949,1.5707963267949,3.14159265358979,                    119P    298
3.14159265358979,3.14159265358979,1.,0.711513548626416,1.,           119P    299
0.707106781186548,0.503116055139843,0.707106781186548,1.,            119P    300
0.711513548626416,1.,0.707106781186548,0.503116055139843,            119P    301
0.707106781186548,1.,0.711513548626416,1.,0.707106781186548,         119P    302
0.503116055139843,0.707106781186548,1.,0.711513548626416,1.,         119P    303
0.707106781186548,0.503116055139843,0.707106781186548,1.,            119P    304
0.711513548626416,1.,15.8937484701211,-6.,10.8430488492143,15.4,     119P    305
-6.,10.836875,15.4,-6.,10.3430879323676,15.8937484701211,            119P    306
-16.8430488492143,10.8430488492143,15.4,-16.836875,10.836875,        119P    307
15.4,-16.3430879323676,10.3430879323676,15.8937484701211,            119P    308
-16.8430488492143,0.,15.4,-16.836875,0.,15.4,-16.3430879323676,      119P    309
0.,15.8937484701211,-16.8430488492143,-10.8430488492143,15.4,        119P    310
-16.836875,-10.836875,15.4,-16.3430879323676,-10.3430879323676,      119P    311
15.8937484701211,-6.,-10.8430488492143,15.4,-6.,-10.836875,15.4,     119P    312
-6.,-10.3430879323676,15.8937484701211,4.84304884921428,             119P    313
-10.8430488492143,15.4,4.83687499999999,-10.836875,15.4,             119P    314
4.3430879323676,-10.3430879323676,15.8937484701211,                  119P    315
4.84304884921429,0.,15.4,4.83687499999999,0.,15.4,                   119P    316
4.34308793236761,0.,15.8937484701211,4.84304884921428,               119P    317
10.8430488492143,15.4,4.83687499999999,10.836875,15.4,               119P    318
4.3430879323676,10.3430879323676,15.8937484701211,-6.,               119P    319
10.8430488492143,15.4,-6.,10.836875,15.4,-6.,10.3430879323676,       119P    320
-1.5707963267949,-0.0125033855407694,-3.14159265358979,              119P    321
3.14159265358979;                                                    119P    322
128,1,1,1,1,0,0,1,0,0,-1.03530879323676,-1.03530879323676,           121P    323
1.03530879323676,1.03530879323676,-1.03530879323676,                 121P    324
-1.03530879323676,1.03530879323676,1.03530879323676,1.,1.,1.,1.,     121P    325
15.4,-16.3530879323676,-10.3530879323676,15.4,-16.3530879323676,     121P    326
10.3530879323676,15.4,4.35308793236761,-10.3530879323676,15.4,       121P    327
4.35308793236761,10.3530879323676,-1.03530879323676,                 121P    328
1.03530879323676,-1.03530879323676,1.03530879323676;                 121P    329
128,1,8,1,2,0,1,0,0,1,-1.41166701337887D-18,                         123P    330
-1.41166701337887D-18,1.70214081907026,1.70214081907026,             123P    331
-3.14159265358979,-3.14159265358979,-3.14159265358979,               123P    332
-1.5707963267949,-1.5707963267949,0.,0.,1.5707963267949,             123P    333
1.5707963267949,3.14159265358979,3.14159265358979,                   123P    334
3.14159265358979,1.,1.,0.707106781186548,0.707106781186548,1.,       123P    335
1.,0.707106781186548,0.707106781186548,1.,1.,0.707106781186548,      123P    336
0.707106781186548,1.,1.,0.707106781186548,0.707106781186548,1.,      123P    337
1.,15.893748470121,-16.8430488492143,0.,34.75,-17.0788281188972,     123P    338
0.,15.893748470121,-16.8430488492143,10.8430488492143,34.75,         123P    339
-17.0788281188972,11.0788281188972,15.893748470121,-6.,              123P    340
10.8430488492143,34.75,-6.,11.0788281188972,15.893748470121,         123P    341
4.84304884921428,10.8430488492143,34.75,5.0788281188972,             123P    342
11.0788281188972,15.893748470121,4.84304884921429,0.,34.75,          123P    343
5.0788281188972,0.,15.893748470121,4.84304884921428,                 123P    344
-10.8430488492143,34.75,5.0788281188972,-11.0788281188972,           123P    345
15.893748470121,-6.,-10.8430488492143,34.75,-6.,                     123P    346
-11.0788281188972,15.893748470121,-16.8430488492143,                 123P    347
-10.8430488492143,34.75,-17.0788281188972,-11.0788281188972,         123P    348
15.893748470121,-16.8430488492143,0.,34.75,-17.0788281188972,0.,     123P    349
-1.41166701337887D-18,1.70214081907026,-3.14159265358979,            123P    350
3.14159265358979;                                                    123P    351
128,2,8,2,2,0,1,0,0,1,-3.12908926804903,-3.12908926804903,           125P    352
-3.12908926804903,-1.5707963267949,-1.5707963267949,                 125P    353
-1.5707963267949,-3.14159265358979,-3.14159265358979,                125P    354
-3.14159265358979,-1.5707963267949,-1.5707963267949,0.,0.,           125P    355
1.5707963267949,1.5707963267949,3.14159265358979,                    125P    356
3.14159265358979,3.14159265358979,1.,0.711513548626411,1.,           125P    357
0.707106781186548,0.50311605513984,0.707106781186548,1.,             125P    358
0.711513548626411,1.,0.707106781186548,0.50311605513984,             125P    359
0.707106781186548,1.,0.711513548626411,1.,0.707106781186548,         125P    360
0.50311605513984,0.707106781186548,1.,0.711513548626411,1.,          125P    361
0.707106781186548,0.50311605513984,0.707106781186548,1.,             125P    362
0.711513548626411,1.,15.4,-6.,8.45191206763239,15.4,-6.,             125P    363
7.958125,15.8937484701211,-6.,7.95195115078571,15.4,                 125P    364
-14.4519120676324,8.45191206763239,15.4,-13.958125,7.958125,         125P    365
15.8937484701211,-13.9519511507857,7.95195115078571,15.4,            125P    366
-14.4519120676324,0.,15.4,-13.958125,0.,15.8937484701211,            125P    367
-13.9519511507857,0.,15.4,-14.4519120676324,-8.45191206763239,       125P    368
15.4,-13.958125,-7.958125,15.8937484701211,-13.9519511507857,        125P    369
-7.95195115078571,15.4,-6.,-8.45191206763239,15.4,-6.,-7.958125,     125P    370
15.8937484701211,-6.,-7.95195115078571,15.4,2.45191206763239,        125P    371
-8.45191206763239,15.4,1.958125,-7.958125,15.8937484701211,          125P    372
1.95195115078571,-7.95195115078571,15.4,2.45191206763239,0.,         125P    373
15.4,1.958125,0.,15.8937484701211,1.95195115078571,0.,15.4,          125P    374
2.45191206763239,8.45191206763239,15.4,1.958125,7.958125,            125P    375
15.8937484701211,1.95195115078571,7.95195115078571,15.4,-6.,         125P    376
8.45191206763239,15.4,-6.,7.958125,15.8937484701211,-6.,             125P    377
7.95195115078571,-3.12908926804903,-1.5707963267949,                 125P    378
-3.14159265358979,3.14159265358979;                                  125P    379
128,1,8,1,2,0,1,0,0,1,0.0620481668272854,0.0620481668272854,         127P    380
2.43166733825753,2.43166733825753,-3.14159265358979,                 127P    381
-3.14159265358979,-3.14159265358979,-1.5707963267949,                127P    382
-1.5707963267949,0.,0.,1.5707963267949,1.5707963267949,              127P    383
3.14159265358979,3.14159265358979,3.14159265358979,1.,1.,            127P    384
0.707106781186548,0.707106781186548,1.,1.,0.707106781186548,         127P    385
0.707106781186548,1.,1.,0.707106781186548,0.707106781186548,1.,      127P    386
1.,0.707106781186548,0.707106781186548,1.,1.,15.8937484701211,       127P    387
-13.9519511507857,0.,34.75,-13.7161718811028,0.,                     127P    388
15.8937484701211,-13.9519511507857,-7.95195115078571,34.75,          127P    389
-13.7161718811028,-7.71617188110281,15.8937484701211,-6.,            127P    390
-7.95195115078571,34.75,-6.,-7.71617188110281,15.8937484701211,      127P    391
1.95195115078571,-7.95195115078571,34.75,1.7161718811028,            127P    392
-7.71617188110281,15.8937484701211,1.95195115078571,0.,34.75,        127P    393
1.71617188110281,0.,15.8937484701211,1.95195115078571,               127P    394
7.95195115078571,34.75,1.7161718811028,7.71617188110281,             127P    395
15.8937484701211,-6.,7.95195115078571,34.75,-6.,                     127P    396
7.71617188110281,15.8937484701211,-13.9519511507857,                 127P    397
7.95195115078571,34.75,-13.7161718811028,7.71617188110281,           127P    398
15.8937484701211,-13.9519511507857,0.,34.75,-13.7161718811028,       127P    399
0.,0.0620481668272854,2.43166733825753,-3.14159265358979,            127P    400
3.14159265358979;                                                    127P    401
502,22,40.5,5.0788281188972,0.,40.5,-17.0788281188972,0.,34.75,      129P    402
-17.0788281188972,0.,34.75,5.0788281188972,0.,40.5,1.5,0.,40.5,      129P    403
-13.5,0.,35.5,-13.5,0.,35.5,1.5,0.,35.5,1.71617188110281,0.,         129P    404
35.5,-13.7161718811028,0.,34.75,-13.7161718811028,0.,34.75,          129P    405
1.71617188110281,0.,15.8937484701211,4.84304884921429,               129P    406
-2.65578101323773D-15,15.893748470121,-16.8430488492143,0.,          129P    407
15.8937484701211,-6.,10.8430488492143,15.4,-6.,10.3430879323676,     129P    408
15.4,4.34308793236761,0.,15.4,2.45191206763239,                      129P    409
-2.07012141206018D-15,15.4,-6.,8.45191206763239,                     129P    410
15.8937484701211,-6.,7.95195115078571,15.8937484701211,              129P    411
-13.9519511507857,0.,15.8937484701211,1.95195115078571,              129P    412
-1.23259516440783D-31;                                               129P    413
504,29,51,129,1,129,2,53,129,2,129,1,55,129,2,129,3,57,129,4,        131P    414
129,3,59,129,3,129,4,61,129,5,129,6,63,129,6,129,5,65,129,6,129,     131P    415
7,67,129,8,129,7,69,129,7,129,8,71,129,9,129,10,73,129,10,129,9,     131P    416
75,129,10,129,11,77,129,11,129,12,79,129,12,129,11,81,129,13,        131P    417
129,14,83,129,14,129,15,85,129,15,129,16,87,129,16,129,17,89,        131P    418
129,17,129,16,91,129,15,129,13,93,129,18,129,19,95,129,19,129,       131P    419
18,97,129,14,129,3,99,129,19,129,20,101,129,20,129,21,103,129,       131P    420
21,129,22,105,129,22,129,20,107,129,21,129,11;                       131P    421
406,1,23HInternal_slip_connector;                                    133P    422
314,100.,47.4509803921569,23.1372549019608,13HSteel - Satin;         135P    423
314,62.7450980392157,62.7450980392157,62.7450980392157,13HSteel      137P    424
- Satin;                                                             137P    425
S      1G      3D    138P    425                                        T      1
