G04 EAGLE Gerber RS-274X export*
G75*
%MOMM*%
%FSLAX34Y34*%
%LPD*%
%INBottom Copper*%
%IPPOS*%
%AMOC8*
5,1,8,0,0,1.08239X$1,22.5*%
G01*
%ADD10C,1.447800*%
%ADD11P,2.749271X8X202.500000*%
%ADD12C,4.318000*%
%ADD13R,2.413000X2.413000*%
%ADD14C,2.413000*%
%ADD15C,6.604000*%
%ADD16C,1.676400*%
%ADD17C,1.879600*%
%ADD18C,0.304800*%
%ADD19C,0.685800*%
%ADD20C,0.406400*%
%ADD21C,0.812800*%
%ADD22C,0.705600*%
%ADD23C,0.609600*%


D10*
X1257300Y-114300D03*
X1257300Y-165100D03*
X1257300Y-88900D03*
D11*
X926592Y138430D03*
X861568Y138430D03*
D12*
X1234600Y139700D03*
X1294600Y139700D03*
X1264600Y186700D03*
D10*
X1257300Y-139700D03*
D13*
X-152400Y-228600D03*
D14*
X-152400Y-263600D03*
X-152400Y-298600D03*
D13*
X-152400Y-88900D03*
D14*
X-152400Y-123900D03*
X-152400Y-158900D03*
D13*
X-152400Y50800D03*
D14*
X-152400Y15800D03*
X-152400Y-19200D03*
D13*
X-152400Y190500D03*
D14*
X-152400Y155500D03*
X-152400Y120500D03*
D15*
X292100Y25400D03*
X292100Y-228600D03*
X800100Y25400D03*
X800100Y-228600D03*
X546100Y25400D03*
X546100Y-228600D03*
X1282700Y-304800D03*
X1282700Y266700D03*
D13*
X1018280Y279170D03*
D14*
X983280Y279170D03*
X948280Y279170D03*
X913280Y279170D03*
D13*
X662680Y279170D03*
D14*
X627680Y279170D03*
X592680Y279170D03*
X557680Y279170D03*
D13*
X840480Y279170D03*
D14*
X805480Y279170D03*
X770480Y279170D03*
X735480Y279170D03*
D13*
X1196080Y279170D03*
D14*
X1161080Y279170D03*
X1126080Y279170D03*
X1091080Y279170D03*
D15*
X38100Y-228600D03*
X1054100Y25400D03*
D16*
X-29700Y-259200D03*
X-55100Y-259200D03*
X-29700Y-233800D03*
X-55100Y-233800D03*
X-29700Y-208400D03*
X-55100Y-208400D03*
X-29700Y-183000D03*
X-55100Y-183000D03*
X-29700Y-157600D03*
X-55100Y-157600D03*
X-29700Y-132200D03*
X-55100Y-132200D03*
X-29700Y-106800D03*
X-55100Y-106800D03*
X-29700Y-81400D03*
X-55100Y-81400D03*
X-29700Y-56000D03*
X-55100Y-56000D03*
X-29700Y-30600D03*
X-55100Y-30600D03*
X-29700Y-5200D03*
X-55100Y-5200D03*
X-29700Y20200D03*
X-55100Y20200D03*
X-29700Y45600D03*
X-55100Y45600D03*
X-29700Y71000D03*
X-55100Y71000D03*
X-29700Y96400D03*
X-55100Y96400D03*
X-29700Y121800D03*
X-55100Y121800D03*
X-29700Y147200D03*
X-55100Y147200D03*
X-29700Y172600D03*
X-55100Y172600D03*
X-29700Y198000D03*
X-55100Y198000D03*
X-29700Y223400D03*
X-55100Y223400D03*
D15*
X38100Y25400D03*
X1054100Y-228600D03*
D17*
X1066800Y-292100D03*
X1041400Y-292100D03*
D18*
X1257300Y-88900D02*
X1260475Y-85725D01*
X1260475Y150813D01*
X1220788Y190500D01*
X642938Y190500D02*
X639763Y187325D01*
X639763Y130175D01*
X361950Y109538D02*
X361950Y93663D01*
X484188Y166688D02*
X488950Y161925D01*
X488950Y149225D01*
X361950Y93663D02*
X361950Y-47625D01*
X714375Y157163D02*
X720725Y163513D01*
X714375Y157163D02*
X714375Y101600D01*
D19*
X1220788Y190500D03*
X642938Y190500D03*
X639763Y130175D03*
X361950Y109538D03*
X361950Y93663D03*
X484188Y166688D03*
X488950Y149225D03*
X361950Y-47625D03*
X720725Y163513D03*
X714375Y101600D03*
D18*
X984250Y120650D02*
X989013Y115888D01*
X984250Y200025D02*
X984250Y277813D01*
X984250Y200025D02*
X984250Y120650D01*
X984250Y277813D02*
X983280Y279170D01*
X804863Y184150D02*
X782638Y161925D01*
X804863Y200025D02*
X804863Y277813D01*
X804863Y200025D02*
X804863Y184150D01*
X804863Y277813D02*
X805480Y279170D01*
X627063Y222250D02*
X609600Y204788D01*
X627063Y222250D02*
X627063Y277813D01*
X627680Y279170D01*
X804863Y200025D02*
X984250Y200025D01*
X263525Y165100D02*
X225425Y203200D01*
D20*
X-152400Y-263600D02*
X-153595Y-263600D01*
X-169545Y-247650D01*
X-169545Y-142558D01*
X-152400Y-125413D01*
D18*
X-152400Y-123900D01*
D20*
X-152400Y153988D02*
X-55563Y153988D01*
D18*
X-55563Y147638D01*
X-152400Y153988D02*
X-152400Y155500D01*
X-55563Y147638D02*
X-55100Y147200D01*
X1268413Y-290513D02*
X1282700Y-304800D01*
X1268413Y-290513D02*
X1268413Y-125413D01*
X1257300Y-114300D01*
D19*
X989013Y115888D03*
X782638Y161925D03*
X609600Y204788D03*
X263525Y165100D03*
X225425Y203200D03*
D21*
X-49103Y237878D02*
X-61097Y237878D01*
X-34625Y223400D02*
X-29700Y223400D01*
X-34625Y223400D02*
X-49103Y237878D01*
X-61097Y237878D02*
X-76200Y222775D01*
X-76200Y165100D01*
X-58300Y147200D01*
X-55100Y147200D01*
D22*
X-88900Y38100D03*
D21*
X-71120Y55880D01*
X-71120Y58420D01*
D22*
X-71120Y58420D03*
D18*
X385763Y193675D02*
X396875Y204788D01*
X385763Y193675D02*
X385763Y44450D01*
X504825Y47625D02*
X504825Y76200D01*
X544513Y109538D02*
X636588Y201613D01*
X44450Y-134938D02*
X-28575Y-207963D01*
X44450Y-134938D02*
X44450Y-30163D01*
X-28575Y-207963D02*
X-29700Y-208400D01*
D19*
X396875Y204788D03*
X385763Y44450D03*
X504825Y47625D03*
X504825Y76200D03*
X636588Y201613D03*
X544513Y109538D03*
X44450Y-30163D03*
D18*
X328613Y76200D02*
X328613Y209550D01*
X654050Y206375D02*
X655638Y204788D01*
X654050Y206375D02*
X654050Y246063D01*
X596900Y254000D02*
X544513Y201613D01*
X544513Y122238D01*
X3175Y-266700D02*
X-28575Y-234950D01*
X3175Y-266700D02*
X254000Y-266700D01*
X254000Y-65088D01*
X330200Y11113D01*
X330200Y74613D01*
X328613Y76200D01*
X-28575Y-234950D02*
X-29700Y-233800D01*
D19*
X328613Y209550D03*
X328613Y76200D03*
X655638Y204788D03*
X654050Y246063D03*
X596900Y254000D03*
X544513Y122238D03*
D22*
X0Y-203200D03*
D20*
X11055Y-203200D02*
X76200Y-138055D01*
X11055Y-203200D02*
X0Y-203200D01*
X76200Y-138055D02*
X76200Y-50800D01*
D22*
X76200Y-50800D03*
D18*
X1235075Y-142875D02*
X1257300Y-165100D01*
X1235075Y-142875D02*
X1235075Y139700D01*
X1234600Y139700D01*
X631825Y163513D02*
X630238Y161925D01*
X630238Y147638D01*
X396875Y147638D02*
X392113Y142875D01*
X392113Y49213D01*
X393700Y47625D01*
X393700Y41275D01*
X389731Y37306D02*
X388938Y36513D01*
X389731Y37306D02*
X393700Y41275D01*
X388938Y36513D02*
X377825Y36513D01*
X377825Y55563D01*
X379413Y57150D01*
X379413Y133350D01*
X374650Y138113D01*
X628650Y146050D02*
X630238Y147638D01*
X628650Y146050D02*
X628650Y65088D01*
X623888Y60325D01*
X623888Y-26988D01*
X446088Y-26988D02*
X390525Y28575D01*
X390525Y36513D01*
X389731Y37306D01*
D19*
X631825Y163513D03*
X630238Y147638D03*
X396875Y147638D03*
X374650Y138113D03*
X623888Y-26988D03*
X446088Y-26988D03*
D18*
X504825Y-120650D02*
X595313Y-30163D01*
X595313Y66675D01*
X635000Y112713D02*
X647700Y125413D01*
X635000Y112713D02*
X635000Y60325D01*
D19*
X504825Y-120650D03*
X595313Y66675D03*
X647700Y125413D03*
X635000Y60325D03*
D18*
X496888Y-123825D02*
X490538Y-130175D01*
X496888Y-123825D02*
X496888Y-104775D01*
X587375Y-14288D01*
X587375Y103188D01*
X674688Y152400D02*
X674688Y163513D01*
X669925Y168275D01*
X655638Y168275D01*
X655638Y68263D01*
D19*
X490538Y-130175D03*
X587375Y103188D03*
X674688Y152400D03*
X655638Y68263D03*
D18*
X615950Y-42863D02*
X596900Y-61913D01*
X615950Y-42863D02*
X615950Y76200D01*
X674688Y139700D02*
X682625Y147638D01*
X674688Y139700D02*
X674688Y61913D01*
D19*
X596900Y-61913D03*
X615950Y76200D03*
X682625Y147638D03*
X674688Y61913D03*
D18*
X588963Y-79375D02*
X555625Y-112713D01*
X588963Y-79375D02*
X588963Y-44450D01*
X608013Y-25400D01*
X608013Y103188D01*
X682625Y120650D02*
X687388Y125413D01*
X682625Y120650D02*
X682625Y-115888D01*
X666750Y-131763D01*
X557213Y-131763D01*
X557213Y-112713D01*
X555625Y-112713D01*
D19*
X555625Y-112713D03*
X608013Y103188D03*
X687388Y125413D03*
D18*
X712788Y52388D02*
X712788Y-106363D01*
X693738Y147638D02*
X695325Y149225D01*
X695325Y165100D01*
X720725Y190500D01*
X720725Y193675D01*
X725488Y198438D01*
X736600Y198438D01*
X736600Y76200D01*
X712788Y52388D01*
D19*
X712788Y-106363D03*
X712788Y52388D03*
X693738Y147638D03*
D18*
X666750Y-120650D02*
X663575Y-123825D01*
X666750Y-120650D02*
X666750Y109538D01*
X666750Y160338D01*
D19*
X663575Y-123825D03*
X666750Y109538D03*
X666750Y160338D03*
D18*
X696913Y-101600D02*
X723900Y-128588D01*
X696913Y-101600D02*
X696913Y76200D01*
X701675Y152400D02*
X706438Y157163D01*
X701675Y152400D02*
X701675Y117475D01*
X696913Y112713D01*
X696913Y76200D01*
D19*
X723900Y-128588D03*
X696913Y76200D03*
X706438Y157163D03*
D18*
X704850Y109538D02*
X704850Y-95250D01*
D19*
X704850Y-95250D03*
X704850Y109538D03*
D18*
X536575Y179388D02*
X530225Y185738D01*
X536575Y179388D02*
X536575Y100013D01*
X579438Y57150D01*
X728663Y101600D02*
X728663Y190500D01*
D19*
X530225Y185738D03*
X579438Y57150D03*
X728663Y190500D03*
X728663Y101600D03*
D18*
X482600Y244475D02*
X449263Y211138D01*
X482600Y244475D02*
X482600Y246063D01*
X635000Y246063D02*
X647700Y233363D01*
X647700Y201613D01*
X677863Y171450D01*
X766763Y179388D02*
X766763Y153988D01*
D19*
X449263Y211138D03*
X482600Y246063D03*
X635000Y246063D03*
X677863Y171450D03*
X766763Y153988D03*
X766763Y179388D03*
D18*
X400050Y220663D02*
X385763Y234950D01*
X385763Y236538D01*
X344488Y234950D02*
X336550Y227013D01*
X336550Y-33338D01*
X358775Y-55563D01*
X446088Y-55563D01*
X720725Y-53975D02*
X742950Y-31750D01*
X742950Y190500D01*
X744538Y192088D01*
D19*
X400050Y220663D03*
X385763Y236538D03*
X344488Y234950D03*
X446088Y-55563D03*
X720725Y-53975D03*
X744538Y192088D03*
D18*
X488950Y214313D02*
X455613Y180975D01*
X488950Y214313D02*
X488950Y239713D01*
X669925Y239713D02*
X695325Y214313D01*
X695325Y209550D01*
D19*
X455613Y180975D03*
X488950Y239713D03*
X669925Y239713D03*
X695325Y209550D03*
D18*
X434975Y206375D02*
X433388Y204788D01*
X434975Y206375D02*
X434975Y220663D01*
X477838Y263525D01*
X496888Y263525D01*
X496888Y22225D01*
X531813Y-12700D01*
X579438Y-12700D01*
X579438Y-11113D01*
X758825Y68263D02*
X758825Y190500D01*
X742950Y206375D01*
X701675Y206375D01*
X701675Y182563D01*
D19*
X433388Y204788D03*
X579438Y-11113D03*
X758825Y68263D03*
X701675Y182563D03*
D18*
X427038Y209550D02*
X422275Y204788D01*
X427038Y209550D02*
X427038Y220663D01*
D19*
X422275Y204788D03*
X427038Y220663D03*
D18*
X455613Y160338D02*
X461963Y153988D01*
X461963Y82550D01*
X463550Y80963D01*
X463550Y41275D01*
X461963Y39688D01*
X569913Y77788D02*
X579438Y87313D01*
X579438Y106363D01*
X604838Y131763D01*
X622300Y131763D01*
X622300Y166688D01*
X630238Y174625D01*
D19*
X455613Y160338D03*
X461963Y39688D03*
X569913Y77788D03*
X630238Y174625D03*
D18*
X369888Y220663D02*
X358775Y209550D01*
X358775Y131763D01*
X363538Y127000D01*
X363538Y120650D01*
X371475Y112713D01*
X371475Y60325D01*
X512763Y55563D02*
X514350Y57150D01*
X514350Y209550D01*
D19*
X369888Y220663D03*
X371475Y60325D03*
X512763Y55563D03*
X514350Y209550D03*
D18*
X1195388Y277813D02*
X1196080Y279170D01*
D22*
X1308100Y63500D03*
D23*
X1295400Y63500D01*
X1267930Y150747D02*
X1283553Y166370D01*
X1283970Y166370D01*
X1308100Y190500D01*
X1270000Y228600D01*
X1266918Y228600D01*
X1217706Y277813D02*
X1195388Y277813D01*
X1217706Y277813D02*
X1266918Y228600D01*
X1267930Y90970D02*
X1295400Y63500D01*
X1267930Y90970D02*
X1267930Y150747D01*
D22*
X355600Y-203200D03*
D23*
X355600Y-127000D01*
X292100Y-63500D01*
D22*
X292100Y-63500D03*
X241300Y-50800D03*
D23*
X241300Y76200D01*
D18*
X141641Y228600D02*
X76200Y228600D01*
X241300Y128941D02*
X241300Y76200D01*
X241300Y128941D02*
X141641Y228600D01*
X76200Y228600D02*
X63500Y241300D01*
D22*
X63500Y241300D03*
D18*
X366713Y133350D02*
X371475Y128588D01*
X366713Y133350D02*
X366713Y158750D01*
X611188Y142875D02*
X614363Y139700D01*
X611188Y142875D02*
X611188Y163513D01*
X377825Y169863D02*
X366713Y158750D01*
X377825Y169863D02*
X377825Y242888D01*
X425450Y244475D02*
X450850Y244475D01*
X476250Y269875D01*
X506413Y269875D01*
X506413Y141288D01*
D19*
X371475Y128588D03*
X366713Y158750D03*
X614363Y139700D03*
X611188Y163513D03*
X377825Y242888D03*
X425450Y244475D03*
X506413Y141288D03*
D18*
X447675Y176213D02*
X438150Y166688D01*
X447675Y176213D02*
X447675Y184150D01*
X466725Y203200D01*
X555625Y201613D02*
X590550Y166688D01*
D19*
X438150Y166688D03*
X466725Y203200D03*
X555625Y201613D03*
X590550Y166688D03*
D18*
X661988Y220663D02*
X671513Y211138D01*
X661988Y220663D02*
X661988Y249238D01*
X644525Y266700D01*
X644525Y285750D01*
X635000Y295275D01*
X609600Y295275D01*
X609600Y215900D01*
X601663Y207963D01*
X601663Y193675D01*
X609600Y185738D01*
X320675Y182563D02*
X254000Y115888D01*
X254000Y-20638D01*
X461963Y12700D02*
X469900Y20638D01*
X469900Y104775D01*
X468313Y106363D01*
X468313Y173038D01*
X488950Y193675D01*
X590550Y193675D02*
X601663Y193675D01*
D19*
X671513Y211138D03*
X609600Y185738D03*
X320675Y182563D03*
X254000Y-20638D03*
X461963Y12700D03*
X488950Y193675D03*
X590550Y193675D03*
D18*
X192088Y76200D02*
X188913Y76200D01*
X90488Y-22225D01*
X-28575Y-22225D01*
X-28575Y-30163D01*
X-29700Y-30600D01*
D19*
X192088Y76200D03*
D18*
X217488Y112713D02*
X228600Y112713D01*
X217488Y112713D02*
X92075Y-12700D01*
X-28575Y-12700D01*
X-28575Y-6350D01*
X-29700Y-5200D01*
D19*
X228600Y112713D03*
D18*
X228600Y131763D02*
X160338Y63500D01*
X-17463Y63500D01*
X-17463Y31750D01*
X-28575Y20638D01*
X-29700Y20200D01*
D19*
X228600Y131763D03*
D18*
X344488Y111125D02*
X354013Y101600D01*
X344488Y111125D02*
X344488Y220663D01*
X858838Y223838D02*
X912813Y277813D01*
X913280Y279170D01*
D19*
X354013Y101600D03*
X344488Y220663D03*
X858838Y223838D03*
D18*
X409575Y158750D02*
X407988Y160338D01*
X407988Y233363D01*
X405606Y235744D02*
X382588Y258763D01*
X405606Y235744D02*
X407988Y233363D01*
X382588Y258763D02*
X352425Y258763D01*
X352425Y127000D01*
X405606Y235744D02*
X406400Y236538D01*
D19*
X409575Y158750D03*
X352425Y127000D03*
X406400Y236538D03*
D18*
X417513Y125413D02*
X400050Y107950D01*
X400050Y98425D01*
X436563Y61913D01*
X436563Y60325D01*
X522288Y82550D02*
X522288Y242888D01*
X557213Y277813D01*
X557680Y279170D01*
D19*
X417513Y125413D03*
X400050Y98425D03*
X436563Y60325D03*
X522288Y82550D03*
D18*
X420688Y147638D02*
X400050Y127000D01*
X400050Y119063D01*
X419100Y147638D02*
X417513Y149225D01*
X417513Y198438D01*
X414338Y201613D01*
X414338Y231775D01*
X415925Y233363D01*
X415925Y276225D01*
X438150Y298450D01*
X592138Y298450D01*
X592138Y279400D01*
X420688Y147638D02*
X419100Y147638D01*
X592138Y279400D02*
X592680Y279170D01*
D19*
X420688Y147638D03*
X400050Y119063D03*
D18*
X430213Y101600D02*
X430213Y147638D01*
X430213Y190500D01*
X441325Y201613D01*
X441325Y215900D01*
X481013Y255588D01*
X714058Y256858D02*
X735013Y277813D01*
X735480Y279170D01*
D19*
X430213Y147638D03*
X430213Y101600D03*
X481013Y255588D03*
X714058Y256858D03*
D18*
X446088Y103188D02*
X438150Y111125D01*
X446088Y103188D02*
X446088Y39688D01*
X774700Y98425D02*
X776288Y96838D01*
X774700Y98425D02*
X774700Y274638D01*
X771525Y277813D01*
X770480Y279170D01*
D19*
X438150Y111125D03*
X446088Y39688D03*
X776288Y96838D03*
D18*
X479425Y106363D02*
X476250Y109538D01*
X479425Y106363D02*
X479425Y-130175D01*
X487363Y-138113D01*
X754063Y-138113D01*
X754063Y-114300D01*
X800100Y-95250D02*
X1090613Y195263D01*
X1090613Y277813D01*
X1091080Y279170D01*
D19*
X476250Y109538D03*
X754063Y-114300D03*
X800100Y-95250D03*
D18*
X455613Y141288D02*
X449263Y147638D01*
X455613Y141288D02*
X455613Y77788D01*
X454025Y76200D01*
X454025Y-138113D01*
X466725Y-150813D01*
X760413Y-150813D01*
X760413Y-123825D01*
X1074738Y190500D01*
X1074738Y285750D01*
X1084263Y295275D01*
X1125538Y295275D01*
X1125538Y279400D01*
X1126080Y279170D01*
D19*
X449263Y147638D03*
X455613Y77788D03*
D18*
X-63500Y84138D02*
X-123825Y23813D01*
X-123825Y-269875D01*
X-152400Y-298450D01*
X-152400Y-298600D01*
D19*
X-63500Y84138D03*
D18*
X-63500Y134938D02*
X-130175Y68263D01*
X-130175Y-136525D01*
X-152400Y-158750D01*
X-152400Y-158900D01*
D19*
X-63500Y134938D03*
D18*
X-136525Y84138D02*
X-136525Y-3175D01*
X-152400Y-19050D01*
X-152400Y-19200D01*
D19*
X-136525Y84138D03*
D18*
X71438Y114300D02*
X80963Y114300D01*
X71438Y114300D02*
X66675Y109538D01*
X55563Y109538D01*
X55563Y152400D01*
D19*
X80963Y114300D03*
X55563Y152400D03*
D18*
X63500Y123825D02*
X82550Y123825D01*
X63500Y123825D02*
X63500Y117475D01*
D19*
X82550Y123825D03*
X63500Y117475D03*
D18*
X90488Y115888D02*
X96838Y109538D01*
X90488Y115888D02*
X90488Y166688D01*
X63500Y193675D01*
D19*
X96838Y109538D03*
X63500Y193675D03*
D18*
X369888Y4763D02*
X393700Y-19050D01*
D19*
X393700Y-19050D03*
X369888Y4763D03*
M02*
