M48
;GenerationSoftware,Autodesk,EAGLE,9.5.2*%
;CreationDate,2020-10-12T20:19:45Z*%
FMAT,2
ICI,OFF
METRIC,TZ,000.000
T10C0.330
T9C0.350
T8C0.900
T7C0.965
T6C1.016
T5C1.200
T4C1.300
T3C2.800
T2C2.997
T1C3.658
%
G90
M71
T1
X77470Y0
X52070Y0
X77470Y25400
X52070Y25400
X77470Y-25400
X52070Y-25400
X77470Y50800
X52070Y-50800
X52070Y50800
X77470Y-50800
T2
X42800Y-48990
X38100Y-51990
X38100Y-45990
T3
X-4240Y27210
X44760Y27210
X44760Y-30790
X-4242Y-30810
T4
X-15113Y-52070
X-10113Y-52070
T5
X-26670Y49840
X-26670Y53340
X-26670Y32370
X-26670Y35870
X-26670Y39370
X-26670Y18400
X-26647Y-59152
X-26670Y7930
X-26647Y-55652
X-26670Y21900
X-26670Y25400
X-26670Y4430
X-26647Y-27092
X-26670Y11430
X-26647Y-23592
X-26647Y-20092
X-26670Y46340
X-26647Y-12812
X-26647Y-9312
X-26647Y-5812
X-26647Y-30592
X-26647Y-2312
X-26647Y-48372
X-26647Y-44872
X-26647Y-41372
X-26647Y-37872
X-26647Y-66152
X-26647Y-62652
T6
X5080Y-31750
X2540Y-31750
T7
X-1270Y-45720
X-1270Y-40640
X-1270Y-48260
X-1270Y-43180
X-1270Y-50800
T8
X-5510Y14720
X-2970Y17260
X-5510Y17260
X-2970Y19800
X-5510Y19800
X-2970Y22340
X-5510Y22340
X-5510Y-520
X-2970Y4560
X-2970Y-25920
X-5510Y-25920
X-2970Y-23380
X-5510Y-23380
X-2970Y-20840
X-5510Y-20840
X-2970Y-18300
X-5510Y-18300
X-2970Y-15760
X-5510Y-15760
X-2970Y-13220
X-5510Y-13220
X-2970Y-10680
X-5510Y-10680
X-2970Y-8140
X-5510Y-8140
X-2970Y-5600
X-5510Y-5600
X-2970Y-3060
X-5510Y-3060
X-2970Y-520
X-2970Y2020
X-5510Y2020
X-5510Y4560
X-2970Y7100
X-5510Y7100
X-2970Y9640
X-5510Y9640
X-2970Y12180
X-5510Y12180
X-2970Y14720
T9
X58420Y-3810
X66802Y-6858
X1270Y-10160
X2553Y-11443
X38176Y-1143
X-7772Y-23089
X53721Y-10573
X55880Y-6350
X10160Y12700
X45720Y-6350
X-8128Y5715
X3810Y-34290
X49022Y-18415
X8890Y-8890
X0Y7620
X45847Y-11303
X17018Y-4064
X1270Y-3810
X0Y-8890
X-8890Y3810
T10
X35433Y16688
X43205Y20345
X35890Y25603
X35662Y24232
X63779Y16459
X-8687Y-29261
X-7087Y-24003
X29489Y15545
X5817Y-2845
X-11201Y-29261
X-8687Y-26746
X29489Y13487
X8534Y-2591
X-19202Y11430
X47549Y-16002
X-14402Y-30861
X-14402Y-39319
X35204Y7087
X11887Y-8001
X3658Y-33376
X65151Y-20574
X65151Y-18288
X36119Y15773
X44120Y8230
X36119Y17374
X43891Y11887
X65837Y-8915
X42062Y10973
X-11887Y-34519
X-14173Y35662
X-9601Y-2972
X-13945Y32918
X-8458Y-1600
X-12802Y32918
X-9601Y2972
X-16916Y21717
X37262Y-23089
X29947Y-25375
X-15545Y38176
X34061Y-22403
X-11887Y-41834
X-10744Y-40691
X-13487Y38633
X-17602Y6858
X-27432Y-35204
X-18288Y-34519
X-22860Y-20574
X-7772Y-27203
X-12573Y30632
X-22174Y-48235
X61951Y39319
X-13716Y-34747
X-17602Y-28575
X-17602Y-33147
X-16916Y-26746
X-16916Y-32004
X-14402Y30632
X-8230Y-8915
X44120Y19660
X-14402Y-21260
X-8687Y-25832
X66523Y-13030
X67894Y-13030
X41834Y5486
X39319Y18517
X43205Y-23089
X43434Y7087
X41834Y15088
X65837Y15545
X39319Y21260
X38633Y19660
M30