G04 EAGLE Gerber RS-274X export*
G75*
%MOMM*%
%FSLAX34Y34*%
%LPD*%
%IN*%
%IPPOS*%
%AMOC8*
5,1,8,0,0,1.08239X$1,22.5*%
G01*
%ADD10C,0.254000*%


D10*
X-304800Y-690880D02*
X-304723Y-692651D01*
X-304491Y-694409D01*
X-304108Y-696139D01*
X-303575Y-697830D01*
X-302896Y-699468D01*
X-302078Y-701040D01*
X-301125Y-702535D01*
X-300046Y-703941D01*
X-298848Y-705248D01*
X-297541Y-706446D01*
X-296135Y-707525D01*
X-294640Y-708478D01*
X-293068Y-709296D01*
X-291430Y-709975D01*
X-289739Y-710508D01*
X-288009Y-710891D01*
X-286251Y-711123D01*
X-284480Y-711200D01*
X-185420Y-711200D01*
X-183649Y-711123D01*
X-181891Y-710891D01*
X-180161Y-710508D01*
X-178470Y-709975D01*
X-176832Y-709296D01*
X-175260Y-708478D01*
X-173765Y-707525D01*
X-172359Y-706446D01*
X-171052Y-705248D01*
X-169854Y-703941D01*
X-168775Y-702535D01*
X-167822Y-701040D01*
X-167004Y-699468D01*
X-166325Y-697830D01*
X-165792Y-696139D01*
X-165409Y-694409D01*
X-165177Y-692651D01*
X-165100Y-690880D01*
X-165100Y-558800D01*
X81280Y-558800D01*
X83051Y-558723D01*
X84809Y-558491D01*
X86539Y-558108D01*
X88230Y-557575D01*
X89868Y-556896D01*
X91440Y-556078D01*
X92935Y-555125D01*
X94341Y-554046D01*
X95648Y-552848D01*
X96846Y-551541D01*
X97925Y-550135D01*
X98878Y-548640D01*
X99696Y-547068D01*
X100375Y-545430D01*
X100908Y-543739D01*
X101291Y-542009D01*
X101523Y-540251D01*
X101600Y-538480D01*
X101600Y-330200D01*
X139700Y-292100D01*
X266700Y-292100D01*
X304800Y-330200D01*
X304800Y-538480D01*
X304877Y-540251D01*
X305109Y-542009D01*
X305492Y-543739D01*
X306025Y-545430D01*
X306704Y-547068D01*
X307522Y-548640D01*
X308475Y-550135D01*
X309554Y-551541D01*
X310752Y-552848D01*
X312059Y-554046D01*
X313465Y-555125D01*
X314960Y-556078D01*
X316532Y-556896D01*
X318170Y-557575D01*
X319861Y-558108D01*
X321591Y-558491D01*
X323349Y-558723D01*
X325120Y-558800D01*
X792480Y-558800D01*
X794251Y-558723D01*
X796009Y-558491D01*
X797739Y-558108D01*
X799430Y-557575D01*
X801068Y-556896D01*
X802640Y-556078D01*
X804135Y-555125D01*
X805541Y-554046D01*
X806848Y-552848D01*
X808046Y-551541D01*
X809125Y-550135D01*
X810078Y-548640D01*
X810896Y-547068D01*
X811575Y-545430D01*
X812108Y-543739D01*
X812491Y-542009D01*
X812723Y-540251D01*
X812800Y-538480D01*
X812800Y527050D01*
X812723Y528821D01*
X812491Y530579D01*
X812108Y532309D01*
X811575Y534000D01*
X810896Y535638D01*
X810078Y537210D01*
X809125Y538705D01*
X808046Y540111D01*
X806848Y541418D01*
X805541Y542616D01*
X804135Y543695D01*
X802640Y544648D01*
X801068Y545466D01*
X799430Y546145D01*
X797739Y546678D01*
X796009Y547061D01*
X794251Y547293D01*
X792480Y547370D01*
X501650Y547370D01*
X499879Y547293D01*
X498121Y547061D01*
X496391Y546678D01*
X494700Y546145D01*
X493062Y545466D01*
X491490Y544648D01*
X489995Y543695D01*
X488589Y542616D01*
X487282Y541418D01*
X486084Y540111D01*
X485005Y538705D01*
X484052Y537210D01*
X483234Y535638D01*
X482555Y534000D01*
X482022Y532309D01*
X481639Y530579D01*
X481407Y528821D01*
X481330Y527050D01*
X481330Y304800D01*
X-88900Y304800D01*
X-88900Y551180D01*
X-88977Y552951D01*
X-89209Y554709D01*
X-89592Y556439D01*
X-90125Y558130D01*
X-90804Y559768D01*
X-91622Y561340D01*
X-92575Y562835D01*
X-93654Y564241D01*
X-94852Y565548D01*
X-96159Y566746D01*
X-97565Y567825D01*
X-99060Y568778D01*
X-100632Y569596D01*
X-102270Y570275D01*
X-103961Y570808D01*
X-105691Y571191D01*
X-107449Y571423D01*
X-109220Y571500D01*
X-284480Y571500D01*
X-286251Y571423D01*
X-288009Y571191D01*
X-289739Y570808D01*
X-291430Y570275D01*
X-293068Y569596D01*
X-294640Y568778D01*
X-296135Y567825D01*
X-297541Y566746D01*
X-298848Y565548D01*
X-300046Y564241D01*
X-301125Y562835D01*
X-302078Y561340D01*
X-302896Y559768D01*
X-303575Y558130D01*
X-304108Y556439D01*
X-304491Y554709D01*
X-304723Y552951D01*
X-304800Y551180D01*
X-304800Y-690880D01*
X448100Y-293900D02*
X449098Y-293971D01*
X450087Y-294114D01*
X451065Y-294326D01*
X452024Y-294608D01*
X452961Y-294957D01*
X453871Y-295373D01*
X454748Y-295852D01*
X455590Y-296393D01*
X456390Y-296992D01*
X457146Y-297647D01*
X457853Y-298354D01*
X458508Y-299110D01*
X459107Y-299910D01*
X459648Y-300752D01*
X460127Y-301629D01*
X460543Y-302539D01*
X460892Y-303476D01*
X461174Y-304436D01*
X461386Y-305413D01*
X461529Y-306403D01*
X461600Y-307400D01*
X461600Y-308400D01*
X461529Y-309398D01*
X461386Y-310387D01*
X461174Y-311365D01*
X460892Y-312324D01*
X460543Y-313261D01*
X460127Y-314171D01*
X459648Y-315048D01*
X459107Y-315890D01*
X458508Y-316690D01*
X457853Y-317446D01*
X457146Y-318153D01*
X456390Y-318808D01*
X455590Y-319407D01*
X454748Y-319948D01*
X453871Y-320427D01*
X452961Y-320843D01*
X452024Y-321192D01*
X451065Y-321474D01*
X450087Y-321686D01*
X449098Y-321829D01*
X448100Y-321900D01*
X447100Y-321900D01*
X446103Y-321829D01*
X445113Y-321686D01*
X444136Y-321474D01*
X443176Y-321192D01*
X442239Y-320843D01*
X441329Y-320427D01*
X440452Y-319948D01*
X439610Y-319407D01*
X438810Y-318808D01*
X438054Y-318153D01*
X437347Y-317446D01*
X436692Y-316690D01*
X436093Y-315890D01*
X435552Y-315048D01*
X435073Y-314171D01*
X434657Y-313261D01*
X434308Y-312324D01*
X434026Y-311365D01*
X433814Y-310387D01*
X433671Y-309398D01*
X433600Y-308400D01*
X433600Y-307400D01*
X433671Y-306403D01*
X433814Y-305413D01*
X434026Y-304436D01*
X434308Y-303476D01*
X434657Y-302539D01*
X435073Y-301629D01*
X435552Y-300752D01*
X436093Y-299910D01*
X436692Y-299110D01*
X437347Y-298354D01*
X438054Y-297647D01*
X438810Y-296992D01*
X439610Y-296393D01*
X440452Y-295852D01*
X441329Y-295373D01*
X442239Y-294957D01*
X443176Y-294608D01*
X444136Y-294326D01*
X445113Y-294114D01*
X446103Y-293971D01*
X447100Y-293900D01*
X448100Y-293900D01*
X-41900Y286100D02*
X-40903Y286029D01*
X-39913Y285886D01*
X-38936Y285674D01*
X-37976Y285392D01*
X-37039Y285043D01*
X-36129Y284627D01*
X-35252Y284148D01*
X-34410Y283607D01*
X-33610Y283008D01*
X-32854Y282353D01*
X-32147Y281646D01*
X-31492Y280890D01*
X-30893Y280090D01*
X-30352Y279248D01*
X-29873Y278371D01*
X-29457Y277461D01*
X-29108Y276524D01*
X-28826Y275565D01*
X-28614Y274587D01*
X-28471Y273598D01*
X-28400Y272600D01*
X-28400Y271600D01*
X-28471Y270603D01*
X-28614Y269613D01*
X-28826Y268636D01*
X-29108Y267676D01*
X-29457Y266739D01*
X-29873Y265829D01*
X-30352Y264952D01*
X-30893Y264110D01*
X-31492Y263310D01*
X-32147Y262554D01*
X-32854Y261847D01*
X-33610Y261192D01*
X-34410Y260593D01*
X-35252Y260052D01*
X-36129Y259573D01*
X-37039Y259157D01*
X-37976Y258808D01*
X-38936Y258526D01*
X-39913Y258314D01*
X-40903Y258171D01*
X-41900Y258100D01*
X-42900Y258100D01*
X-43898Y258171D01*
X-44887Y258314D01*
X-45865Y258526D01*
X-46824Y258808D01*
X-47761Y259157D01*
X-48671Y259573D01*
X-49548Y260052D01*
X-50390Y260593D01*
X-51190Y261192D01*
X-51946Y261847D01*
X-52653Y262554D01*
X-53308Y263310D01*
X-53907Y264110D01*
X-54448Y264952D01*
X-54927Y265829D01*
X-55343Y266739D01*
X-55692Y267676D01*
X-55974Y268636D01*
X-56186Y269613D01*
X-56329Y270603D01*
X-56400Y271600D01*
X-56400Y272600D01*
X-56329Y273598D01*
X-56186Y274587D01*
X-55974Y275565D01*
X-55692Y276524D01*
X-55343Y277461D01*
X-54927Y278371D01*
X-54448Y279248D01*
X-53907Y280090D01*
X-53308Y280890D01*
X-52653Y281646D01*
X-51946Y282353D01*
X-51190Y283008D01*
X-50390Y283607D01*
X-49548Y284148D01*
X-48671Y284627D01*
X-47761Y285043D01*
X-46824Y285392D01*
X-45865Y285674D01*
X-44887Y285886D01*
X-43898Y286029D01*
X-42900Y286100D01*
X-41900Y286100D01*
X448100Y286100D02*
X449098Y286029D01*
X450087Y285886D01*
X451065Y285674D01*
X452024Y285392D01*
X452961Y285043D01*
X453871Y284627D01*
X454748Y284148D01*
X455590Y283607D01*
X456390Y283008D01*
X457146Y282353D01*
X457853Y281646D01*
X458508Y280890D01*
X459107Y280090D01*
X459648Y279248D01*
X460127Y278371D01*
X460543Y277461D01*
X460892Y276524D01*
X461174Y275565D01*
X461386Y274587D01*
X461529Y273598D01*
X461600Y272600D01*
X461600Y271600D01*
X461529Y270603D01*
X461386Y269613D01*
X461174Y268636D01*
X460892Y267676D01*
X460543Y266739D01*
X460127Y265829D01*
X459648Y264952D01*
X459107Y264110D01*
X458508Y263310D01*
X457853Y262554D01*
X457146Y261847D01*
X456390Y261192D01*
X455590Y260593D01*
X454748Y260052D01*
X453871Y259573D01*
X452961Y259157D01*
X452024Y258808D01*
X451065Y258526D01*
X450087Y258314D01*
X449098Y258171D01*
X448100Y258100D01*
X447100Y258100D01*
X446103Y258171D01*
X445113Y258314D01*
X444136Y258526D01*
X443176Y258808D01*
X442239Y259157D01*
X441329Y259573D01*
X440452Y260052D01*
X439610Y260593D01*
X438810Y261192D01*
X438054Y261847D01*
X437347Y262554D01*
X436692Y263310D01*
X436093Y264110D01*
X435552Y264952D01*
X435073Y265829D01*
X434657Y266739D01*
X434308Y267676D01*
X434026Y268636D01*
X433814Y269613D01*
X433671Y270603D01*
X433600Y271600D01*
X433600Y272600D01*
X433671Y273598D01*
X433814Y274587D01*
X434026Y275565D01*
X434308Y276524D01*
X434657Y277461D01*
X435073Y278371D01*
X435552Y279248D01*
X436093Y280090D01*
X436692Y280890D01*
X437347Y281646D01*
X438054Y282353D01*
X438810Y283008D01*
X439610Y283607D01*
X440452Y284148D01*
X441329Y284627D01*
X442239Y285043D01*
X443176Y285392D01*
X444136Y285674D01*
X445113Y285886D01*
X446103Y286029D01*
X447100Y286100D01*
X448100Y286100D01*
M02*
