G04 EAGLE Gerber RS-274X export*
G75*
%MOMM*%
%FSLAX34Y34*%
%LPD*%
%INSoldermask Bottom*%
%IPPOS*%
%AMOC8*
5,1,8,0,0,1.08239X$1,22.5*%
G01*
%ADD10C,1.940563*%
%ADD11C,5.598162*%
%ADD12R,2.616200X2.616200*%
%ADD13C,2.616200*%
%ADD14C,6.807200*%
%ADD15C,1.879600*%
%ADD16C,3.003200*%
%ADD17C,6.400800*%
%ADD18C,2.082800*%
%ADD19R,2.543200X2.543200*%
%ADD20C,2.543200*%
%ADD21C,0.685800*%
%ADD22C,0.705600*%
%ADD23C,1.005600*%
%ADD24C,1.105600*%


D10*
X-12700Y-457200D03*
X-12700Y-406400D03*
X-12700Y-482600D03*
D11*
X381000Y-459900D03*
X381000Y-519900D03*
X428000Y-489900D03*
D10*
X-12700Y-431800D03*
D12*
X-266700Y114300D03*
D13*
X-266700Y79300D03*
X-266700Y44300D03*
D12*
X-266700Y254000D03*
D13*
X-266700Y219000D03*
X-266700Y184000D03*
D12*
X-266700Y393700D03*
D13*
X-266700Y358700D03*
X-266700Y323700D03*
D12*
X-266700Y533400D03*
D13*
X-266700Y498400D03*
X-266700Y463400D03*
D14*
X520700Y-254000D03*
X774700Y-254000D03*
X520700Y254000D03*
X774700Y254000D03*
X520700Y0D03*
X774700Y0D03*
D12*
X-266470Y-200920D03*
D13*
X-266470Y-235920D03*
X-266470Y-270920D03*
X-266470Y-305920D03*
D12*
X-266470Y-556520D03*
D13*
X-266470Y-591520D03*
X-266470Y-626520D03*
X-266470Y-661520D03*
D12*
X-266470Y-378720D03*
D13*
X-266470Y-413720D03*
X-266470Y-448720D03*
X-266470Y-483720D03*
D12*
X-266470Y-23120D03*
D13*
X-266470Y-58120D03*
X-266470Y-93120D03*
X-266470Y-128120D03*
D14*
X774700Y-508000D03*
X520700Y508000D03*
X520700Y-508000D03*
X774700Y508000D03*
D10*
X-12700Y-508000D03*
D15*
X-29700Y-259200D03*
X-55100Y-259200D03*
X-29700Y-233800D03*
X-55100Y-233800D03*
X-29700Y-208400D03*
X-55100Y-208400D03*
X-29700Y-183000D03*
X-55100Y-183000D03*
X-29700Y-157600D03*
X-55100Y-157600D03*
X-29700Y-132200D03*
X-55100Y-132200D03*
X-29700Y-106800D03*
X-55100Y-106800D03*
X-29700Y-81400D03*
X-55100Y-81400D03*
X-29700Y-56000D03*
X-55100Y-56000D03*
X-29700Y-30600D03*
X-55100Y-30600D03*
X-29700Y-5200D03*
X-55100Y-5200D03*
X-29700Y20200D03*
X-55100Y20200D03*
X-29700Y45600D03*
X-55100Y45600D03*
X-29700Y71000D03*
X-55100Y71000D03*
X-29700Y96400D03*
X-55100Y96400D03*
X-29700Y121800D03*
X-55100Y121800D03*
X-29700Y147200D03*
X-55100Y147200D03*
X-29700Y172600D03*
X-55100Y172600D03*
X-29700Y198000D03*
X-55100Y198000D03*
X-29700Y223400D03*
X-55100Y223400D03*
D16*
X447600Y-307900D03*
X-42400Y272100D03*
X447600Y272100D03*
D17*
X-42418Y-308102D03*
D18*
X25400Y-317500D03*
X50800Y-317500D03*
D19*
X-151130Y-520700D03*
D20*
X-101130Y-520700D03*
D21*
X-118872Y-345186D03*
X-118872Y-418338D03*
X-107442Y-406908D03*
X-125730Y306324D03*
X-144018Y306324D03*
X-82296Y-89154D03*
X-86868Y-258318D03*
X665226Y-130302D03*
X678942Y-130302D03*
X418338Y54864D03*
X434340Y70866D03*
X393192Y212598D03*
X354330Y166878D03*
X432054Y203454D03*
D22*
X537210Y-105730D03*
X558800Y-63500D03*
X584200Y-38100D03*
X668020Y-68580D03*
D21*
X358902Y256032D03*
X356616Y242316D03*
X619506Y393192D03*
X637794Y164592D03*
D23*
X215900Y-12700D03*
D24*
X177800Y-101600D03*
D22*
X217170Y-99060D03*
X217170Y-110490D03*
X228600Y-99060D03*
X240030Y-99060D03*
X240030Y-110490D03*
X228600Y-110490D03*
D24*
X269240Y-86360D03*
X289560Y-81280D03*
D21*
X-86868Y-292608D03*
X-77724Y-272034D03*
X-70866Y-240030D03*
X294894Y155448D03*
X58166Y-28448D03*
X-112014Y-292608D03*
X-86868Y-267462D03*
X294894Y134874D03*
X85344Y-25908D03*
D22*
X-77724Y-230886D03*
X12700Y-101600D03*
X25531Y-114431D03*
D21*
X-192024Y114300D03*
D22*
X381762Y-11430D03*
X304800Y-12700D03*
D21*
X-144018Y-308610D03*
X-144018Y-393192D03*
X352044Y70866D03*
X36576Y-333756D03*
D22*
X62484Y-333756D03*
D21*
X651510Y-205740D03*
X651510Y-182880D03*
X361188Y157734D03*
X441198Y82296D03*
X361188Y173736D03*
X438912Y118872D03*
X658368Y-89154D03*
X420624Y109728D03*
X658368Y155448D03*
X418338Y150876D03*
X393192Y185166D03*
X386334Y196596D03*
X441198Y196596D03*
D22*
X153169Y-51569D03*
X50800Y-139700D03*
D21*
X-169164Y-320040D03*
X-169164Y-267462D03*
X-176022Y-331470D03*
X-176022Y-285750D03*
X-137160Y-347472D03*
X-221742Y-482346D03*
X-144018Y-212598D03*
X-182880Y-345186D03*
X-228600Y-205740D03*
X-274320Y-352044D03*
X-176022Y68580D03*
X-134874Y386334D03*
X-155448Y381762D03*
X-169164Y217170D03*
X-96012Y29718D03*
X-128016Y329184D03*
X-84582Y-16002D03*
X-139446Y329184D03*
X-96012Y-29718D03*
X-141732Y356616D03*
D22*
X0Y-88900D03*
X12700Y-38100D03*
X144780Y-40640D03*
X458470Y-113030D03*
X0Y76200D03*
X-81280Y57150D03*
X457200Y-63500D03*
X374650Y-40640D03*
X262890Y77470D03*
X38100Y-342900D03*
X101600Y127000D03*
X-88900Y38100D03*
M02*
