G04 EAGLE Gerber RS-274X export*
G75*
%MOMM*%
%FSLAX34Y34*%
%LPD*%
%INSoldermask Top*%
%IPPOS*%
%AMOC8*
5,1,8,0,0,1.08239X$1,22.5*%
G01*
%ADD10C,1.600200*%
%ADD11R,1.352400X0.952400*%
%ADD12R,1.352400X1.552400*%
%ADD13R,0.952400X1.352400*%
%ADD14C,4.470400*%
%ADD15R,1.143000X0.457200*%
%ADD16R,1.452400X1.652400*%
%ADD17R,2.565400X2.565400*%
%ADD18C,2.565400*%
%ADD19C,6.756400*%
%ADD20R,0.552400X1.752400*%
%ADD21R,0.952400X1.052400*%
%ADD22R,0.502400X0.652400*%
%ADD23R,0.652400X0.502400*%
%ADD24R,4.052400X1.752400*%
%ADD25C,1.828800*%
%ADD26C,2.952400*%
%ADD27C,6.350000*%
%ADD28C,2.032000*%
%ADD29R,2.184400X2.184400*%
%ADD30C,2.184400*%
%ADD31R,0.685800X2.352041*%
%ADD32R,0.762000X2.362200*%
%ADD33R,0.650241X2.352041*%
%ADD34R,3.200400X2.387600*%
%ADD35R,1.152400X1.252400*%
%ADD36R,3.652400X2.502400*%
%ADD37R,1.952400X1.552400*%
%ADD38C,1.158000*%
%ADD39C,1.277400*%


D10*
X-12700Y-457200D03*
X-12700Y-406400D03*
D11*
X43180Y16400D03*
X43180Y34400D03*
X12700Y16400D03*
X12700Y34400D03*
D10*
X-12700Y-482600D03*
D12*
X10400Y-407670D03*
X40400Y-407670D03*
D13*
X83930Y-407670D03*
X65930Y-407670D03*
X421750Y-118110D03*
X403750Y-118110D03*
D14*
X381000Y-459900D03*
X381000Y-519900D03*
X428000Y-489900D03*
D13*
X638700Y-394970D03*
X656700Y-394970D03*
X639970Y-142240D03*
X657970Y-142240D03*
X638700Y111760D03*
X656700Y111760D03*
X638700Y365760D03*
X656700Y365760D03*
D11*
X381000Y288400D03*
X381000Y270400D03*
D15*
X372078Y142050D03*
X372078Y148550D03*
X372078Y155050D03*
X372078Y161550D03*
X372078Y168050D03*
X372078Y174550D03*
X372078Y181050D03*
X372078Y187550D03*
X372078Y194050D03*
X372078Y200550D03*
X313722Y200550D03*
X313722Y194050D03*
X313722Y187550D03*
X313722Y181050D03*
X313722Y174550D03*
X313722Y168050D03*
X313722Y161550D03*
X313722Y155050D03*
X313722Y148550D03*
X313722Y142050D03*
X372078Y207050D03*
X313722Y207050D03*
X372078Y213550D03*
X313722Y213550D03*
D16*
X337210Y228600D03*
X356210Y228600D03*
D11*
X450850Y72500D03*
X450850Y54500D03*
X406400Y72500D03*
X406400Y54500D03*
X450850Y110600D03*
X450850Y92600D03*
X406400Y110600D03*
X406400Y92600D03*
X450850Y148700D03*
X450850Y130700D03*
X406400Y148700D03*
X406400Y130700D03*
X450850Y186800D03*
X450850Y168800D03*
X406400Y186800D03*
X406400Y168800D03*
X450850Y224900D03*
X450850Y206900D03*
X406400Y224900D03*
X406400Y206900D03*
X346710Y123300D03*
X346710Y105300D03*
X335280Y72500D03*
X335280Y54500D03*
X303530Y123300D03*
X303530Y105300D03*
X377190Y54500D03*
X377190Y72500D03*
D10*
X-12700Y-431800D03*
D17*
X-266700Y114300D03*
D18*
X-266700Y79300D03*
X-266700Y44300D03*
D17*
X-266700Y254000D03*
D18*
X-266700Y219000D03*
X-266700Y184000D03*
D17*
X-266700Y393700D03*
D18*
X-266700Y358700D03*
X-266700Y323700D03*
D17*
X-266700Y533400D03*
D18*
X-266700Y498400D03*
X-266700Y463400D03*
D19*
X520700Y-254000D03*
X774700Y-254000D03*
X520700Y254000D03*
X774700Y254000D03*
X520700Y0D03*
X774700Y0D03*
D17*
X-266470Y-200920D03*
D18*
X-266470Y-235920D03*
X-266470Y-270920D03*
X-266470Y-305920D03*
D15*
X-158718Y-286830D03*
X-158718Y-293330D03*
X-158718Y-299830D03*
X-158718Y-306330D03*
X-158718Y-312830D03*
X-158718Y-319330D03*
X-158718Y-325830D03*
X-158718Y-332330D03*
X-158718Y-338830D03*
X-158718Y-345330D03*
X-100362Y-345330D03*
X-100362Y-338830D03*
X-100362Y-332330D03*
X-100362Y-325830D03*
X-100362Y-319330D03*
X-100362Y-312830D03*
X-100362Y-306330D03*
X-100362Y-299830D03*
X-100362Y-293330D03*
X-100362Y-286830D03*
X-158718Y-351830D03*
X-100362Y-351830D03*
X-158718Y-358330D03*
X-100362Y-358330D03*
D16*
X-117500Y-375920D03*
X-136500Y-375920D03*
D11*
X-143510Y-155050D03*
X-143510Y-137050D03*
X-101600Y-155050D03*
X-101600Y-137050D03*
X-143510Y-240140D03*
X-143510Y-222140D03*
X-101600Y-241410D03*
X-101600Y-223410D03*
X-143510Y-198230D03*
X-143510Y-180230D03*
X-102870Y-196960D03*
X-102870Y-178960D03*
X-102870Y-109330D03*
X-102870Y-91330D03*
X-143510Y-109330D03*
X-143510Y-91330D03*
D13*
X-95360Y-406400D03*
X-77360Y-406400D03*
D11*
X-13970Y-372220D03*
X-13970Y-354220D03*
X-58420Y-372220D03*
X-58420Y-354220D03*
D13*
X-126890Y-405130D03*
X-144890Y-405130D03*
D17*
X-266470Y-556520D03*
D18*
X-266470Y-591520D03*
X-266470Y-626520D03*
X-266470Y-661520D03*
D17*
X-266470Y-378720D03*
D18*
X-266470Y-413720D03*
X-266470Y-448720D03*
X-266470Y-483720D03*
D17*
X-266470Y-23120D03*
D18*
X-266470Y-58120D03*
X-266470Y-93120D03*
X-266470Y-128120D03*
D20*
X-128880Y401880D03*
X-135380Y401880D03*
X-141880Y401880D03*
X-148380Y401880D03*
X-154880Y401880D03*
X-161380Y401880D03*
X-167880Y401880D03*
X-174380Y401880D03*
X-174380Y342880D03*
X-167880Y342880D03*
X-161380Y342880D03*
X-154880Y342880D03*
X-148380Y342880D03*
X-141880Y342880D03*
X-135380Y342880D03*
X-128880Y342880D03*
D21*
X-154330Y58260D03*
X-173330Y58260D03*
X-163830Y37260D03*
D11*
X-114300Y313800D03*
X-114300Y295800D03*
D13*
X-137270Y454660D03*
X-119270Y454660D03*
D11*
X-157480Y182990D03*
X-157480Y164990D03*
X-114300Y181720D03*
X-114300Y163720D03*
X-157480Y246270D03*
X-157480Y264270D03*
X-114300Y245000D03*
X-114300Y263000D03*
D13*
X-137270Y424180D03*
X-119270Y424180D03*
D11*
X-157480Y315070D03*
X-157480Y297070D03*
X-157480Y206900D03*
X-157480Y224900D03*
X-114300Y205630D03*
X-114300Y223630D03*
X-163830Y509380D03*
X-163830Y491380D03*
X-121920Y491380D03*
X-121920Y509380D03*
D13*
X-113140Y12700D03*
X-95140Y12700D03*
X-113140Y-16510D03*
X-95140Y-16510D03*
X-113140Y-45720D03*
X-95140Y-45720D03*
D22*
X637950Y-361860D03*
X644450Y-361860D03*
X650950Y-361860D03*
X657450Y-361860D03*
X657450Y-377360D03*
X650950Y-377360D03*
X644450Y-377360D03*
X637950Y-377360D03*
X639220Y-107860D03*
X645720Y-107860D03*
X652220Y-107860D03*
X658720Y-107860D03*
X658720Y-123360D03*
X652220Y-123360D03*
X645720Y-123360D03*
X639220Y-123360D03*
D23*
X347890Y269650D03*
X347890Y276150D03*
X347890Y282650D03*
X347890Y289150D03*
X363390Y289150D03*
X363390Y282650D03*
X363390Y276150D03*
X363390Y269650D03*
D22*
X639220Y146140D03*
X645720Y146140D03*
X652220Y146140D03*
X658720Y146140D03*
X658720Y130640D03*
X652220Y130640D03*
X645720Y130640D03*
X639220Y130640D03*
X637950Y400140D03*
X644450Y400140D03*
X650950Y400140D03*
X657450Y400140D03*
X657450Y384640D03*
X650950Y384640D03*
X644450Y384640D03*
X637950Y384640D03*
D19*
X774700Y-508000D03*
X520700Y508000D03*
D11*
X-111760Y58530D03*
X-111760Y40530D03*
D19*
X520700Y-508000D03*
X774700Y508000D03*
D10*
X-12700Y-508000D03*
D24*
X385400Y-215900D03*
X300400Y-215900D03*
D11*
X-114300Y123080D03*
X-114300Y141080D03*
X-110490Y78630D03*
X-110490Y96630D03*
X-156210Y123080D03*
X-156210Y141080D03*
X-156210Y78630D03*
X-156210Y96630D03*
D25*
X-29700Y-259200D03*
X-55100Y-259200D03*
X-29700Y-233800D03*
X-55100Y-233800D03*
X-29700Y-208400D03*
X-55100Y-208400D03*
X-29700Y-183000D03*
X-55100Y-183000D03*
X-29700Y-157600D03*
X-55100Y-157600D03*
X-29700Y-132200D03*
X-55100Y-132200D03*
X-29700Y-106800D03*
X-55100Y-106800D03*
X-29700Y-81400D03*
X-55100Y-81400D03*
X-29700Y-56000D03*
X-55100Y-56000D03*
X-29700Y-30600D03*
X-55100Y-30600D03*
X-29700Y-5200D03*
X-55100Y-5200D03*
X-29700Y20200D03*
X-55100Y20200D03*
X-29700Y45600D03*
X-55100Y45600D03*
X-29700Y71000D03*
X-55100Y71000D03*
X-29700Y96400D03*
X-55100Y96400D03*
X-29700Y121800D03*
X-55100Y121800D03*
X-29700Y147200D03*
X-55100Y147200D03*
X-29700Y172600D03*
X-55100Y172600D03*
X-29700Y198000D03*
X-55100Y198000D03*
X-29700Y223400D03*
X-55100Y223400D03*
D26*
X447600Y-307900D03*
X-42400Y272100D03*
X447600Y272100D03*
D27*
X-42418Y-308102D03*
D12*
X10400Y-508000D03*
X40400Y-508000D03*
D13*
X85200Y-509270D03*
X67200Y-509270D03*
D12*
X10400Y-431800D03*
X40400Y-431800D03*
D13*
X85200Y-431800D03*
X67200Y-431800D03*
D12*
X10400Y-482600D03*
X40400Y-482600D03*
D13*
X85200Y-482600D03*
X67200Y-482600D03*
X26560Y-365760D03*
X44560Y-365760D03*
D28*
X25400Y-317500D03*
X50800Y-317500D03*
D29*
X-151130Y-520700D03*
D30*
X-101130Y-520700D03*
D21*
X450240Y-103980D03*
X469240Y-103980D03*
X459740Y-82980D03*
X498500Y-98900D03*
X517500Y-98900D03*
X508000Y-77900D03*
D13*
X491600Y-63500D03*
X473600Y-63500D03*
X517000Y-114300D03*
X499000Y-114300D03*
D31*
X247650Y-76454D03*
D32*
X234950Y-76454D03*
D33*
X222250Y-76454D03*
X209550Y-76454D03*
X209550Y-133604D03*
X222250Y-133604D03*
X234950Y-133604D03*
X247650Y-133604D03*
D34*
X228600Y-104902D03*
D13*
X250300Y-165100D03*
X232300Y-165100D03*
D16*
X269900Y-114300D03*
X288900Y-114300D03*
X269900Y-139700D03*
X288900Y-139700D03*
D13*
X270400Y-165100D03*
X288400Y-165100D03*
D11*
X171450Y-45830D03*
X171450Y-27830D03*
X259080Y-44560D03*
X259080Y-26560D03*
X214630Y-44560D03*
X214630Y-26560D03*
X171450Y-83930D03*
X171450Y-65930D03*
D35*
X259080Y-5960D03*
X259080Y11040D03*
D11*
X304800Y-25290D03*
X304800Y-43290D03*
D36*
X190700Y-172950D03*
X190700Y-232950D03*
D37*
X137160Y-190500D03*
X137160Y-215900D03*
X114300Y-190500D03*
X114300Y-215900D03*
D38*
X215900Y-12700D03*
D39*
X177800Y-101600D03*
X269240Y-86360D03*
X289560Y-81280D03*
M02*
