G04 EAGLE Gerber RS-274X export*
G75*
%MOMM*%
%FSLAX34Y34*%
%LPD*%
%INSoldermask Bottom*%
%IPPOS*%
%AMOC8*
5,1,8,0,0,1.08239X$1,22.5*%
G01*
%ADD10C,1.600200*%
%ADD11C,4.470400*%
%ADD12R,2.565400X2.565400*%
%ADD13C,2.565400*%
%ADD14C,6.756400*%
%ADD15C,1.828800*%
%ADD16C,2.952400*%
%ADD17C,6.350000*%
%ADD18C,2.032000*%
%ADD19R,2.184400X2.184400*%
%ADD20C,2.184400*%
%ADD21C,1.158000*%
%ADD22C,1.277400*%


D10*
X-12700Y-457200D03*
X-12700Y-406400D03*
X-12700Y-482600D03*
D11*
X381000Y-459900D03*
X381000Y-519900D03*
X428000Y-489900D03*
D10*
X-12700Y-431800D03*
D12*
X-266700Y114300D03*
D13*
X-266700Y79300D03*
X-266700Y44300D03*
D12*
X-266700Y254000D03*
D13*
X-266700Y219000D03*
X-266700Y184000D03*
D12*
X-266700Y393700D03*
D13*
X-266700Y358700D03*
X-266700Y323700D03*
D12*
X-266700Y533400D03*
D13*
X-266700Y498400D03*
X-266700Y463400D03*
D14*
X520700Y-254000D03*
X774700Y-254000D03*
X520700Y254000D03*
X774700Y254000D03*
X520700Y0D03*
X774700Y0D03*
D12*
X-266470Y-200920D03*
D13*
X-266470Y-235920D03*
X-266470Y-270920D03*
X-266470Y-305920D03*
D12*
X-266470Y-556520D03*
D13*
X-266470Y-591520D03*
X-266470Y-626520D03*
X-266470Y-661520D03*
D12*
X-266470Y-378720D03*
D13*
X-266470Y-413720D03*
X-266470Y-448720D03*
X-266470Y-483720D03*
D12*
X-266470Y-23120D03*
D13*
X-266470Y-58120D03*
X-266470Y-93120D03*
X-266470Y-128120D03*
D14*
X774700Y-508000D03*
X520700Y508000D03*
X520700Y-508000D03*
X774700Y508000D03*
D10*
X-12700Y-508000D03*
D15*
X-29700Y-259200D03*
X-55100Y-259200D03*
X-29700Y-233800D03*
X-55100Y-233800D03*
X-29700Y-208400D03*
X-55100Y-208400D03*
X-29700Y-183000D03*
X-55100Y-183000D03*
X-29700Y-157600D03*
X-55100Y-157600D03*
X-29700Y-132200D03*
X-55100Y-132200D03*
X-29700Y-106800D03*
X-55100Y-106800D03*
X-29700Y-81400D03*
X-55100Y-81400D03*
X-29700Y-56000D03*
X-55100Y-56000D03*
X-29700Y-30600D03*
X-55100Y-30600D03*
X-29700Y-5200D03*
X-55100Y-5200D03*
X-29700Y20200D03*
X-55100Y20200D03*
X-29700Y45600D03*
X-55100Y45600D03*
X-29700Y71000D03*
X-55100Y71000D03*
X-29700Y96400D03*
X-55100Y96400D03*
X-29700Y121800D03*
X-55100Y121800D03*
X-29700Y147200D03*
X-55100Y147200D03*
X-29700Y172600D03*
X-55100Y172600D03*
X-29700Y198000D03*
X-55100Y198000D03*
X-29700Y223400D03*
X-55100Y223400D03*
D16*
X447600Y-307900D03*
X-42400Y272100D03*
X447600Y272100D03*
D17*
X-42418Y-308102D03*
D18*
X25400Y-317500D03*
X50800Y-317500D03*
D19*
X-151130Y-520700D03*
D20*
X-101130Y-520700D03*
D21*
X215900Y-12700D03*
D22*
X177800Y-101600D03*
X269240Y-86360D03*
X289560Y-81280D03*
M02*
