G04 EAGLE Gerber RS-274X export*
G75*
%MOMM*%
%FSLAX34Y34*%
%LPD*%
%INSolderpaste Top*%
%IPPOS*%
%AMOC8*
5,1,8,0,0,1.08239X$1,22.5*%
G01*
%ADD10R,0.800000X1.200000*%
%ADD11R,1.200000X1.400000*%
%ADD12R,1.200000X0.800000*%
%ADD13R,0.304800X0.990600*%
%ADD14R,1.500000X1.300000*%
%ADD15R,1.600000X0.400000*%
%ADD16R,0.800000X0.900000*%
%ADD17R,10.410000X10.800000*%
%ADD18R,2.159000X1.066800*%
%ADD19R,4.500000X4.000000*%
%ADD20R,2.550000X2.700000*%
%ADD21R,1.270000X1.470000*%
%ADD22R,3.900000X1.600000*%
%ADD23R,0.500000X0.350000*%


D10*
X504300Y114300D03*
X486300Y114300D03*
X504300Y88900D03*
X486300Y88900D03*
D11*
X1258810Y-194310D03*
X1288810Y-194310D03*
D10*
X1262270Y-214630D03*
X1280270Y-214630D03*
D12*
X1018540Y84980D03*
X1018540Y102980D03*
X151130Y-92600D03*
X151130Y-110600D03*
X403860Y-93870D03*
X403860Y-111870D03*
X657860Y-92600D03*
X657860Y-110600D03*
X911860Y-92600D03*
X911860Y-110600D03*
X1041400Y161400D03*
X1041400Y143400D03*
D13*
X650050Y135922D03*
X656550Y135922D03*
X663050Y135922D03*
X669550Y135922D03*
X676050Y135922D03*
X682550Y135922D03*
X689050Y135922D03*
X695550Y135922D03*
X702050Y135922D03*
X708550Y135922D03*
X708550Y194278D03*
X702050Y194278D03*
X695550Y194278D03*
X689050Y194278D03*
X682550Y194278D03*
X676050Y194278D03*
X669550Y194278D03*
X663050Y194278D03*
X656550Y194278D03*
X650050Y194278D03*
X715050Y135922D03*
X715050Y194278D03*
X721550Y135922D03*
X721550Y194278D03*
D14*
X740410Y172060D03*
X740410Y153060D03*
D10*
X580500Y88900D03*
X562500Y88900D03*
X580500Y114300D03*
X562500Y114300D03*
X618600Y88900D03*
X600600Y88900D03*
X618600Y114300D03*
X600600Y114300D03*
X656700Y88900D03*
X638700Y88900D03*
X656700Y114300D03*
X638700Y114300D03*
X694800Y88900D03*
X676800Y88900D03*
X694800Y114300D03*
X676800Y114300D03*
X732900Y88900D03*
X714900Y88900D03*
X732900Y114300D03*
X714900Y114300D03*
X618600Y173990D03*
X600600Y173990D03*
X580500Y165100D03*
X562500Y165100D03*
X618600Y195580D03*
X600600Y195580D03*
X562500Y143510D03*
X580500Y143510D03*
D13*
X383350Y135922D03*
X389850Y135922D03*
X396350Y135922D03*
X402850Y135922D03*
X409350Y135922D03*
X415850Y135922D03*
X422350Y135922D03*
X428850Y135922D03*
X435350Y135922D03*
X441850Y135922D03*
X441850Y194278D03*
X435350Y194278D03*
X428850Y194278D03*
X422350Y194278D03*
X415850Y194278D03*
X409350Y194278D03*
X402850Y194278D03*
X396350Y194278D03*
X389850Y194278D03*
X383350Y194278D03*
X448350Y135922D03*
X448350Y194278D03*
X454850Y135922D03*
X454850Y194278D03*
D14*
X469900Y174600D03*
X469900Y155600D03*
D10*
X351900Y88900D03*
X333900Y88900D03*
X351900Y114300D03*
X333900Y114300D03*
X390000Y88900D03*
X372000Y88900D03*
X390000Y114300D03*
X372000Y114300D03*
X428100Y88900D03*
X410100Y88900D03*
X428100Y114300D03*
X410100Y114300D03*
X466200Y114300D03*
X448200Y114300D03*
X466200Y88900D03*
X448200Y88900D03*
X364600Y171450D03*
X346600Y171450D03*
X326500Y158750D03*
X308500Y158750D03*
X365870Y193040D03*
X347870Y193040D03*
X326500Y137160D03*
X308500Y137160D03*
D15*
X111200Y149250D03*
X111200Y142750D03*
X111200Y136250D03*
X111200Y129750D03*
X111200Y123250D03*
X111200Y116750D03*
X111200Y110250D03*
X111200Y103750D03*
X170200Y103750D03*
X170200Y110250D03*
X170200Y116750D03*
X170200Y123250D03*
X170200Y129750D03*
X170200Y136250D03*
X170200Y142750D03*
X170200Y149250D03*
D16*
X71780Y256700D03*
X90780Y256700D03*
X81280Y277700D03*
D12*
X177800Y194200D03*
X177800Y212200D03*
X139700Y194200D03*
X139700Y212200D03*
D17*
X1244600Y0D03*
D18*
X1161288Y34036D03*
X1161288Y17018D03*
X1161288Y0D03*
X1161288Y-17018D03*
X1161288Y-34036D03*
D19*
X1173600Y-140750D03*
X1173600Y-237750D03*
D20*
X1149400Y-304800D03*
X1212800Y-304800D03*
D21*
X1116420Y-88900D03*
X1159420Y-88900D03*
D22*
X1100500Y139700D03*
X1185500Y139700D03*
D10*
X21700Y88900D03*
X3700Y88900D03*
X54500Y88900D03*
X72500Y88900D03*
X21700Y165100D03*
X3700Y165100D03*
X54500Y165100D03*
X72500Y165100D03*
D12*
X114300Y194200D03*
X114300Y212200D03*
X215900Y194200D03*
X215900Y212200D03*
D10*
X21700Y127000D03*
X3700Y127000D03*
X54500Y127000D03*
X72500Y127000D03*
X21700Y203200D03*
X3700Y203200D03*
X54500Y203200D03*
X72500Y203200D03*
X238870Y142240D03*
X220870Y142240D03*
X237600Y121920D03*
X219600Y121920D03*
X237600Y101600D03*
X219600Y101600D03*
D23*
X184240Y-91850D03*
X184240Y-98350D03*
X184240Y-104850D03*
X184240Y-111350D03*
X168740Y-111350D03*
X168740Y-104850D03*
X168740Y-98350D03*
X168740Y-91850D03*
X438240Y-93120D03*
X438240Y-99620D03*
X438240Y-106120D03*
X438240Y-112620D03*
X422740Y-112620D03*
X422740Y-106120D03*
X422740Y-99620D03*
X422740Y-93120D03*
X1008290Y142650D03*
X1008290Y149150D03*
X1008290Y155650D03*
X1008290Y162150D03*
X1023790Y162150D03*
X1023790Y155650D03*
X1023790Y149150D03*
X1023790Y142650D03*
X692240Y-93120D03*
X692240Y-99620D03*
X692240Y-106120D03*
X692240Y-112620D03*
X676740Y-112620D03*
X676740Y-106120D03*
X676740Y-99620D03*
X676740Y-93120D03*
X946240Y-91850D03*
X946240Y-98350D03*
X946240Y-104850D03*
X946240Y-111350D03*
X930740Y-111350D03*
X930740Y-104850D03*
X930740Y-98350D03*
X930740Y-91850D03*
D16*
X970940Y86520D03*
X989940Y86520D03*
X980440Y107520D03*
D12*
X25400Y257700D03*
X25400Y275700D03*
M02*
