G04 EAGLE Gerber RS-274X export*
G75*
%MOMM*%
%FSLAX34Y34*%
%LPD*%
%INSoldermask Bottom*%
%IPPOS*%
%AMOC8*
5,1,8,0,0,1.08239X$1,22.5*%
G01*
%ADD10C,1.600200*%
%ADD11P,2.914227X8X202.500000*%
%ADD12C,4.470400*%
%ADD13R,2.565400X2.565400*%
%ADD14C,2.565400*%
%ADD15C,6.756400*%
%ADD16C,1.828800*%
%ADD17C,2.952400*%
%ADD18C,2.032000*%


D10*
X1257300Y-114300D03*
X1257300Y-165100D03*
X1257300Y-88900D03*
D11*
X926592Y138430D03*
X861568Y138430D03*
D12*
X1234600Y139700D03*
X1294600Y139700D03*
X1264600Y186700D03*
D10*
X1257300Y-139700D03*
D13*
X-152400Y-228600D03*
D14*
X-152400Y-263600D03*
X-152400Y-298600D03*
D13*
X-152400Y-88900D03*
D14*
X-152400Y-123900D03*
X-152400Y-158900D03*
D13*
X-152400Y50800D03*
D14*
X-152400Y15800D03*
X-152400Y-19200D03*
D13*
X-152400Y190500D03*
D14*
X-152400Y155500D03*
X-152400Y120500D03*
D15*
X292100Y25400D03*
X292100Y-228600D03*
X800100Y25400D03*
X800100Y-228600D03*
X546100Y25400D03*
X546100Y-228600D03*
X1282700Y-304800D03*
X1282700Y266700D03*
D13*
X1018280Y279170D03*
D14*
X983280Y279170D03*
X948280Y279170D03*
X913280Y279170D03*
D13*
X662680Y279170D03*
D14*
X627680Y279170D03*
X592680Y279170D03*
X557680Y279170D03*
D13*
X840480Y279170D03*
D14*
X805480Y279170D03*
X770480Y279170D03*
X735480Y279170D03*
D13*
X1196080Y279170D03*
D14*
X1161080Y279170D03*
X1126080Y279170D03*
X1091080Y279170D03*
D15*
X38100Y-228600D03*
X1054100Y25400D03*
D16*
X-29700Y-259200D03*
X-55100Y-259200D03*
X-29700Y-233800D03*
X-55100Y-233800D03*
X-29700Y-208400D03*
X-55100Y-208400D03*
X-29700Y-183000D03*
X-55100Y-183000D03*
X-29700Y-157600D03*
X-55100Y-157600D03*
X-29700Y-132200D03*
X-55100Y-132200D03*
X-29700Y-106800D03*
X-55100Y-106800D03*
X-29700Y-81400D03*
X-55100Y-81400D03*
X-29700Y-56000D03*
X-55100Y-56000D03*
X-29700Y-30600D03*
X-55100Y-30600D03*
X-29700Y-5200D03*
X-55100Y-5200D03*
X-29700Y20200D03*
X-55100Y20200D03*
X-29700Y45600D03*
X-55100Y45600D03*
X-29700Y71000D03*
X-55100Y71000D03*
X-29700Y96400D03*
X-55100Y96400D03*
X-29700Y121800D03*
X-55100Y121800D03*
X-29700Y147200D03*
X-55100Y147200D03*
X-29700Y172600D03*
X-55100Y172600D03*
X-29700Y198000D03*
X-55100Y198000D03*
X-29700Y223400D03*
X-55100Y223400D03*
D17*
X447600Y-307900D03*
X-42400Y-307900D03*
X-42400Y272100D03*
X447600Y272100D03*
D15*
X38100Y25400D03*
X1054100Y-228600D03*
D18*
X1066800Y-292100D03*
X1041400Y-292100D03*
M02*
