M48
;GenerationSoftware,Autodesk,EAGLE,9.5.2*%
;CreationDate,2020-06-10T23:29:43Z*%
FMAT,2
ICI,OFF
METRIC,TZ,000.000
T9C0.330
T8C0.350
T7C0.900
T6C0.965
T5C1.016
T4C1.200
T3C2.800
T2C2.997
T1C3.658
%
G90
M71
T1
X105410Y2540
X54610Y-22860
X128270Y-30480
X128270Y26670
X3810Y-22860
X29210Y2540
X29210Y-22860
X80010Y2540
X80010Y-22860
X54610Y2540
X105410Y-22860
X3810Y2540
T2
X123460Y13970
X129460Y13970
X126460Y18670
T3
X44760Y27210
X44760Y-30790
X-4240Y-30790
X-4240Y27210
T4
X66268Y27917
X62768Y27917
X59268Y27917
X55768Y27917
X84048Y27917
X80548Y27917
X77048Y27917
X73548Y27917
X119608Y27917
X-15240Y-8890
X116108Y27917
X112608Y27917
X109108Y27917
X-15240Y-22860
X-15240Y-26360
X-15240Y-29860
X-15240Y-12390
X-15240Y-15890
X-15240Y5080
X-15240Y1580
X-15240Y-1920
X-15240Y19050
X-15240Y15550
X-15240Y12050
X101828Y27917
X98328Y27917
X94828Y27917
X91328Y27917
T5
X104140Y-29210
X106680Y-29210
X92659Y13843
X86157Y13843
T6
X125730Y-11430
X125730Y-16510
X125730Y-8890
X125730Y-13970
T7
X-5510Y17260
X-2970Y19800
X-5510Y19800
X-2970Y22340
X-5510Y22340
X-2970Y-10680
X-2970Y-25920
X-5510Y-25920
X-2970Y-23380
X-5510Y-23380
X-2970Y-20840
X-5510Y-20840
X-2970Y-18300
X-5510Y-18300
X-2970Y-15760
X-5510Y-15760
X-2970Y-13220
X-5510Y-13220
X-5510Y-10680
X-2970Y-8140
X-5510Y-8140
X-2970Y-5600
X-5510Y-5600
X-2970Y-3060
X-5510Y-3060
X-2970Y-520
X-5510Y-520
X-2970Y2020
X-5510Y2020
X-2970Y4560
X-5510Y4560
X-2970Y7100
X-5510Y7100
X-2970Y9640
X-5510Y9640
X-2970Y12180
X-5510Y12180
X-2970Y14720
X-5510Y14720
X-2970Y17260
T8
X35560Y-20320
X29210Y-6350
X24130Y-5080
X0Y-20320
X-8890Y3810
X-7112Y5842
X7620Y-5080
X6350Y24130
X130810Y6350
T9
X36671Y15875
X61436Y13970
X61119Y16351
X37783Y24289
X42545Y24447
X50641Y14129
X43815Y16669
X46672Y20320
X55562Y20161
X59055Y16669
X67151Y21114
X60960Y18574
X32067Y18256
X25400Y-2064
X46196Y1270
X48895Y19368
X59055Y19368
X19209Y7620
X22860Y11271
X22860Y13176
X35401Y10160
X34449Y22066
X85884Y22384
X122079Y19050
X35243Y12700
X40640Y23654
X41751Y12541
X40005Y9843
X43656Y6032
X52229Y8255
X42069Y14764
X40005Y11906
X43021Y14764
X43021Y10160
X48101Y25559
X71406Y25686
X43815Y11112
X44609Y3969
X77629Y9684
X47625Y10954
X75406Y-11430
X80010Y-9525
X44926Y14764
X45561Y7779
X-6350Y8414
X-6350Y13494
X-13652Y8414
X8096Y11430
X5556Y15240
X8255Y12382
X6350Y11747
X9684Y10954
X6350Y19368
X39370Y-1905
X36989Y476
X64294Y19050
X63976Y13017
X36195Y10954
X36195Y9366
X48419Y16669
X48895Y14922
X36195Y-4763
X72073Y16351
X71438Y10160
X98901Y11589
X78264Y16192
X60960Y20479
X26352Y16510
X22542Y20320
X39688Y20479
X38576Y4445
X50482Y4763
X50482Y7620
X63659Y20161
X54451Y10954
X4445Y-3016
X32861Y20955
X32861Y7620
X65564Y20479
X65405Y24606
X59690Y25400
X54451Y12224
X63182Y16351
X63024Y14764
X39688Y14764
X37465Y13811
X62389Y-2699
X44609Y-2699
X50482Y-12065
X59531Y6667
X64770Y12541
X63500Y6032
X49054Y-13017
X58737Y10319
X67469Y15240
X65564Y6826
X59690Y-6191
X61595Y7620
X68263Y14764
X67469Y6191
X55562Y-11271
X60801Y10319
X68739Y12541
X71279Y-10636
X71279Y5239
X69374Y14764
X66358Y-12382
X66675Y10954
X66675Y16034
X72390Y-12859
X69691Y7620
X70644Y15716
X70485Y-9525
X70485Y10954
X53022Y18574
X57944Y5715
X72866Y19050
X72866Y10160
X40958Y15875
X44926Y21114
X48260Y24606
X63500Y24606
X67786Y17145
X76676Y15399
X76676Y17939
X40005Y22066
X38576Y23654
X34449Y23495
X44609Y-5556
X72073Y-5398
X74454Y19209
X45561Y18098
X48895Y23971
X66993Y23971
X69533Y20955
X43339Y20479
X57944Y-1111
X75883Y6826
X70168Y18256
X42228Y20479
X42704Y22066
X45561Y16034
X46196Y3969
X56991Y7779
X63024Y17463
X36989Y22066
X37148Y6032
X51276Y5556
X51435Y20955
X37148Y12859
M30