G04 EAGLE Gerber RS-274X export*
G75*
%MOMM*%
%FSLAX34Y34*%
%LPD*%
%IN*%
%IPPOS*%
%AMOC8*
5,1,8,0,0,1.08239X$1,22.5*%
G01*
%ADD10C,0.254000*%


D10*
X-177800Y-304800D02*
X-177655Y-308121D01*
X-177221Y-311416D01*
X-176502Y-314661D01*
X-175502Y-317831D01*
X-174230Y-320902D01*
X-172696Y-323850D01*
X-170910Y-326653D01*
X-168886Y-329290D01*
X-166641Y-331741D01*
X-164190Y-333986D01*
X-161553Y-336010D01*
X-158750Y-337796D01*
X-155802Y-339330D01*
X-152731Y-340602D01*
X-149561Y-341602D01*
X-146316Y-342321D01*
X-143021Y-342755D01*
X-139700Y-342900D01*
X0Y-342900D01*
X0Y-330200D01*
X38100Y-292100D01*
X368300Y-292100D01*
X406400Y-330200D01*
X406400Y-342900D01*
X1282700Y-342900D01*
X1286021Y-342755D01*
X1289316Y-342321D01*
X1292561Y-341602D01*
X1295731Y-340602D01*
X1298802Y-339330D01*
X1301750Y-337796D01*
X1304553Y-336010D01*
X1307190Y-333986D01*
X1309641Y-331741D01*
X1311886Y-329290D01*
X1313910Y-326653D01*
X1315696Y-323850D01*
X1317230Y-320902D01*
X1318502Y-317831D01*
X1319502Y-314661D01*
X1320221Y-311416D01*
X1320655Y-308121D01*
X1320800Y-304800D01*
X1320800Y266700D01*
X1320655Y270021D01*
X1320221Y273316D01*
X1319502Y276561D01*
X1318502Y279731D01*
X1317230Y282802D01*
X1315696Y285750D01*
X1313910Y288553D01*
X1311886Y291190D01*
X1309641Y293641D01*
X1307190Y295886D01*
X1304553Y297910D01*
X1301750Y299696D01*
X1298802Y301230D01*
X1295731Y302502D01*
X1292561Y303502D01*
X1289316Y304221D01*
X1286021Y304655D01*
X1282700Y304800D01*
X-139700Y304800D01*
X-143021Y304655D01*
X-146316Y304221D01*
X-149561Y303502D01*
X-152731Y302502D01*
X-155802Y301230D01*
X-158750Y299696D01*
X-161553Y297910D01*
X-164190Y295886D01*
X-166641Y293641D01*
X-168886Y291190D01*
X-170910Y288553D01*
X-172696Y285750D01*
X-174230Y282802D01*
X-175502Y279731D01*
X-176502Y276561D01*
X-177221Y273316D01*
X-177655Y270021D01*
X-177800Y266700D01*
X-177800Y-304800D01*
X448100Y-293900D02*
X449098Y-293971D01*
X450087Y-294114D01*
X451065Y-294326D01*
X452024Y-294608D01*
X452961Y-294957D01*
X453871Y-295373D01*
X454748Y-295852D01*
X455590Y-296393D01*
X456390Y-296992D01*
X457146Y-297647D01*
X457853Y-298354D01*
X458508Y-299110D01*
X459107Y-299910D01*
X459648Y-300752D01*
X460127Y-301629D01*
X460543Y-302539D01*
X460892Y-303476D01*
X461174Y-304436D01*
X461386Y-305413D01*
X461529Y-306403D01*
X461600Y-307400D01*
X461600Y-308400D01*
X461529Y-309398D01*
X461386Y-310387D01*
X461174Y-311365D01*
X460892Y-312324D01*
X460543Y-313261D01*
X460127Y-314171D01*
X459648Y-315048D01*
X459107Y-315890D01*
X458508Y-316690D01*
X457853Y-317446D01*
X457146Y-318153D01*
X456390Y-318808D01*
X455590Y-319407D01*
X454748Y-319948D01*
X453871Y-320427D01*
X452961Y-320843D01*
X452024Y-321192D01*
X451065Y-321474D01*
X450087Y-321686D01*
X449098Y-321829D01*
X448100Y-321900D01*
X447100Y-321900D01*
X446103Y-321829D01*
X445113Y-321686D01*
X444136Y-321474D01*
X443176Y-321192D01*
X442239Y-320843D01*
X441329Y-320427D01*
X440452Y-319948D01*
X439610Y-319407D01*
X438810Y-318808D01*
X438054Y-318153D01*
X437347Y-317446D01*
X436692Y-316690D01*
X436093Y-315890D01*
X435552Y-315048D01*
X435073Y-314171D01*
X434657Y-313261D01*
X434308Y-312324D01*
X434026Y-311365D01*
X433814Y-310387D01*
X433671Y-309398D01*
X433600Y-308400D01*
X433600Y-307400D01*
X433671Y-306403D01*
X433814Y-305413D01*
X434026Y-304436D01*
X434308Y-303476D01*
X434657Y-302539D01*
X435073Y-301629D01*
X435552Y-300752D01*
X436093Y-299910D01*
X436692Y-299110D01*
X437347Y-298354D01*
X438054Y-297647D01*
X438810Y-296992D01*
X439610Y-296393D01*
X440452Y-295852D01*
X441329Y-295373D01*
X442239Y-294957D01*
X443176Y-294608D01*
X444136Y-294326D01*
X445113Y-294114D01*
X446103Y-293971D01*
X447100Y-293900D01*
X448100Y-293900D01*
X-41900Y-293900D02*
X-40903Y-293971D01*
X-39913Y-294114D01*
X-38936Y-294326D01*
X-37976Y-294608D01*
X-37039Y-294957D01*
X-36129Y-295373D01*
X-35252Y-295852D01*
X-34410Y-296393D01*
X-33610Y-296992D01*
X-32854Y-297647D01*
X-32147Y-298354D01*
X-31492Y-299110D01*
X-30893Y-299910D01*
X-30352Y-300752D01*
X-29873Y-301629D01*
X-29457Y-302539D01*
X-29108Y-303476D01*
X-28826Y-304436D01*
X-28614Y-305413D01*
X-28471Y-306403D01*
X-28400Y-307400D01*
X-28400Y-308400D01*
X-28471Y-309398D01*
X-28614Y-310387D01*
X-28826Y-311365D01*
X-29108Y-312324D01*
X-29457Y-313261D01*
X-29873Y-314171D01*
X-30352Y-315048D01*
X-30893Y-315890D01*
X-31492Y-316690D01*
X-32147Y-317446D01*
X-32854Y-318153D01*
X-33610Y-318808D01*
X-34410Y-319407D01*
X-35252Y-319948D01*
X-36129Y-320427D01*
X-37039Y-320843D01*
X-37976Y-321192D01*
X-38936Y-321474D01*
X-39913Y-321686D01*
X-40903Y-321829D01*
X-41900Y-321900D01*
X-42900Y-321900D01*
X-43898Y-321829D01*
X-44887Y-321686D01*
X-45865Y-321474D01*
X-46824Y-321192D01*
X-47761Y-320843D01*
X-48671Y-320427D01*
X-49548Y-319948D01*
X-50390Y-319407D01*
X-51190Y-318808D01*
X-51946Y-318153D01*
X-52653Y-317446D01*
X-53308Y-316690D01*
X-53907Y-315890D01*
X-54448Y-315048D01*
X-54927Y-314171D01*
X-55343Y-313261D01*
X-55692Y-312324D01*
X-55974Y-311365D01*
X-56186Y-310387D01*
X-56329Y-309398D01*
X-56400Y-308400D01*
X-56400Y-307400D01*
X-56329Y-306403D01*
X-56186Y-305413D01*
X-55974Y-304436D01*
X-55692Y-303476D01*
X-55343Y-302539D01*
X-54927Y-301629D01*
X-54448Y-300752D01*
X-53907Y-299910D01*
X-53308Y-299110D01*
X-52653Y-298354D01*
X-51946Y-297647D01*
X-51190Y-296992D01*
X-50390Y-296393D01*
X-49548Y-295852D01*
X-48671Y-295373D01*
X-47761Y-294957D01*
X-46824Y-294608D01*
X-45865Y-294326D01*
X-44887Y-294114D01*
X-43898Y-293971D01*
X-42900Y-293900D01*
X-41900Y-293900D01*
X-41900Y286100D02*
X-40903Y286029D01*
X-39913Y285886D01*
X-38936Y285674D01*
X-37976Y285392D01*
X-37039Y285043D01*
X-36129Y284627D01*
X-35252Y284148D01*
X-34410Y283607D01*
X-33610Y283008D01*
X-32854Y282353D01*
X-32147Y281646D01*
X-31492Y280890D01*
X-30893Y280090D01*
X-30352Y279248D01*
X-29873Y278371D01*
X-29457Y277461D01*
X-29108Y276524D01*
X-28826Y275565D01*
X-28614Y274587D01*
X-28471Y273598D01*
X-28400Y272600D01*
X-28400Y271600D01*
X-28471Y270603D01*
X-28614Y269613D01*
X-28826Y268636D01*
X-29108Y267676D01*
X-29457Y266739D01*
X-29873Y265829D01*
X-30352Y264952D01*
X-30893Y264110D01*
X-31492Y263310D01*
X-32147Y262554D01*
X-32854Y261847D01*
X-33610Y261192D01*
X-34410Y260593D01*
X-35252Y260052D01*
X-36129Y259573D01*
X-37039Y259157D01*
X-37976Y258808D01*
X-38936Y258526D01*
X-39913Y258314D01*
X-40903Y258171D01*
X-41900Y258100D01*
X-42900Y258100D01*
X-43898Y258171D01*
X-44887Y258314D01*
X-45865Y258526D01*
X-46824Y258808D01*
X-47761Y259157D01*
X-48671Y259573D01*
X-49548Y260052D01*
X-50390Y260593D01*
X-51190Y261192D01*
X-51946Y261847D01*
X-52653Y262554D01*
X-53308Y263310D01*
X-53907Y264110D01*
X-54448Y264952D01*
X-54927Y265829D01*
X-55343Y266739D01*
X-55692Y267676D01*
X-55974Y268636D01*
X-56186Y269613D01*
X-56329Y270603D01*
X-56400Y271600D01*
X-56400Y272600D01*
X-56329Y273598D01*
X-56186Y274587D01*
X-55974Y275565D01*
X-55692Y276524D01*
X-55343Y277461D01*
X-54927Y278371D01*
X-54448Y279248D01*
X-53907Y280090D01*
X-53308Y280890D01*
X-52653Y281646D01*
X-51946Y282353D01*
X-51190Y283008D01*
X-50390Y283607D01*
X-49548Y284148D01*
X-48671Y284627D01*
X-47761Y285043D01*
X-46824Y285392D01*
X-45865Y285674D01*
X-44887Y285886D01*
X-43898Y286029D01*
X-42900Y286100D01*
X-41900Y286100D01*
X448100Y286100D02*
X449098Y286029D01*
X450087Y285886D01*
X451065Y285674D01*
X452024Y285392D01*
X452961Y285043D01*
X453871Y284627D01*
X454748Y284148D01*
X455590Y283607D01*
X456390Y283008D01*
X457146Y282353D01*
X457853Y281646D01*
X458508Y280890D01*
X459107Y280090D01*
X459648Y279248D01*
X460127Y278371D01*
X460543Y277461D01*
X460892Y276524D01*
X461174Y275565D01*
X461386Y274587D01*
X461529Y273598D01*
X461600Y272600D01*
X461600Y271600D01*
X461529Y270603D01*
X461386Y269613D01*
X461174Y268636D01*
X460892Y267676D01*
X460543Y266739D01*
X460127Y265829D01*
X459648Y264952D01*
X459107Y264110D01*
X458508Y263310D01*
X457853Y262554D01*
X457146Y261847D01*
X456390Y261192D01*
X455590Y260593D01*
X454748Y260052D01*
X453871Y259573D01*
X452961Y259157D01*
X452024Y258808D01*
X451065Y258526D01*
X450087Y258314D01*
X449098Y258171D01*
X448100Y258100D01*
X447100Y258100D01*
X446103Y258171D01*
X445113Y258314D01*
X444136Y258526D01*
X443176Y258808D01*
X442239Y259157D01*
X441329Y259573D01*
X440452Y260052D01*
X439610Y260593D01*
X438810Y261192D01*
X438054Y261847D01*
X437347Y262554D01*
X436692Y263310D01*
X436093Y264110D01*
X435552Y264952D01*
X435073Y265829D01*
X434657Y266739D01*
X434308Y267676D01*
X434026Y268636D01*
X433814Y269613D01*
X433671Y270603D01*
X433600Y271600D01*
X433600Y272600D01*
X433671Y273598D01*
X433814Y274587D01*
X434026Y275565D01*
X434308Y276524D01*
X434657Y277461D01*
X435073Y278371D01*
X435552Y279248D01*
X436093Y280090D01*
X436692Y280890D01*
X437347Y281646D01*
X438054Y282353D01*
X438810Y283008D01*
X439610Y283607D01*
X440452Y284148D01*
X441329Y284627D01*
X442239Y285043D01*
X443176Y285392D01*
X444136Y285674D01*
X445113Y285886D01*
X446103Y286029D01*
X447100Y286100D01*
X448100Y286100D01*
M02*
