G04 EAGLE Gerber RS-274X export*
G75*
%MOMM*%
%FSLAX34Y34*%
%LPD*%
%INTop Copper*%
%IPPOS*%
%AMOC8*
5,1,8,0,0,1.08239X$1,22.5*%
G01*
%ADD10R,2.413000X2.413000*%
%ADD11C,2.413000*%
%ADD12C,1.524000*%
%ADD13R,2.209800X0.609600*%
%ADD14R,0.800000X1.200000*%
%ADD15C,0.254000*%
%ADD16C,0.203200*%
%ADD17C,0.685800*%
%ADD18C,0.705600*%


D10*
X-3151372Y-2814090D03*
D11*
X-3116372Y-2814090D03*
X-3081372Y-2814090D03*
X-3046372Y-2814090D03*
D12*
X-3136900Y-2729738D03*
X-3111500Y-2729738D03*
X-3086100Y-2729738D03*
X-3060700Y-2729738D03*
D13*
X-3124962Y-2749550D03*
X-3124962Y-2762250D03*
X-3124962Y-2774950D03*
X-3124962Y-2787650D03*
X-3072638Y-2787650D03*
X-3072638Y-2774950D03*
X-3072638Y-2762250D03*
X-3072638Y-2749550D03*
D14*
X-3168760Y-2787650D03*
X-3150760Y-2787650D03*
X-3027570Y-2787650D03*
X-3045570Y-2787650D03*
X-3044300Y-2744470D03*
X-3026300Y-2744470D03*
X-3044300Y-2764790D03*
X-3026300Y-2764790D03*
X-3168760Y-2744470D03*
X-3150760Y-2744470D03*
X-3168760Y-2762250D03*
X-3150760Y-2762250D03*
D15*
X-3086100Y-2729738D02*
X-3086100Y-2705100D01*
X-3080085Y-2699085D01*
X-3041315Y-2699085D01*
X-3026300Y-2714100D02*
X-3026300Y-2744470D01*
X-3026300Y-2714100D02*
X-3041315Y-2699085D01*
X-3026300Y-2744470D02*
X-3026300Y-2764790D01*
X-3008885Y-2782205D01*
X-3116372Y-2814090D02*
X-3116372Y-2833578D01*
X-3008885Y-2833625D02*
X-3008885Y-2782205D01*
X-3008885Y-2833625D02*
X-3021330Y-2846070D01*
X-3103880Y-2846070D01*
X-3116372Y-2833578D01*
D16*
X-3124200Y-2806700D02*
X-3124200Y-2787650D01*
X-3124200Y-2806700D02*
X-3117850Y-2813050D01*
X-3124200Y-2787650D02*
X-3124962Y-2787650D01*
X-3117850Y-2813050D02*
X-3116372Y-2814090D01*
X-3072638Y-2749550D02*
X-3067558Y-2744470D01*
X-3044300Y-2744470D01*
D15*
X-3136900Y-2729738D02*
X-3150760Y-2743598D01*
X-3150760Y-2744470D01*
X-3150760Y-2762250D01*
X-3150760Y-2781300D01*
X-3150760Y-2787650D01*
X-3150760Y-2813478D01*
X-3151372Y-2814090D01*
D16*
X-3041650Y-2787650D02*
X-3041650Y-2768600D01*
X-3041650Y-2787650D02*
X-3045570Y-2787650D01*
X-3041650Y-2768600D02*
X-3044300Y-2764790D01*
X-3041650Y-2762250D02*
X-3041650Y-2749550D01*
X-3041650Y-2762250D02*
X-3044300Y-2764790D01*
X-3041650Y-2749550D02*
X-3044300Y-2744470D01*
X-3072638Y-2749550D02*
X-3086100Y-2749550D01*
X-3098800Y-2736850D01*
X-3098800Y-2724150D01*
X-3111500Y-2711450D01*
X-3162300Y-2711450D01*
X-3187700Y-2736850D01*
X-3187700Y-2762250D01*
X-3175000Y-2774950D01*
X-3155950Y-2774950D01*
X-3149600Y-2781300D01*
X-3150760Y-2781300D01*
X-3168650Y-2762250D02*
X-3181350Y-2749550D01*
X-3181350Y-2736850D01*
X-3162300Y-2717800D01*
X-3117850Y-2717800D01*
X-3111500Y-2724150D01*
X-3168650Y-2762250D02*
X-3168760Y-2762250D01*
X-3111500Y-2729738D02*
X-3111500Y-2724150D01*
X-3155950Y-2730500D02*
X-3168650Y-2743200D01*
X-3168760Y-2744470D01*
D17*
X-3155950Y-2730500D03*
D18*
X-3082290Y-2833370D03*
D16*
X-3079750Y-2830830D01*
X-3063112Y-2830830D02*
X-3046372Y-2814090D01*
X-3063112Y-2830830D02*
X-3079750Y-2830830D01*
X-3092450Y-2787650D02*
X-3105150Y-2787650D01*
X-3117850Y-2774950D01*
X-3124962Y-2774950D01*
D17*
X-3092450Y-2787650D03*
D16*
X-3117850Y-2743200D02*
X-3124200Y-2736850D01*
X-3117850Y-2743200D02*
X-3111500Y-2743200D01*
X-3079750Y-2774950D01*
X-3072638Y-2774950D01*
D17*
X-3124200Y-2736850D03*
D16*
X-3028950Y-2787650D02*
X-3028950Y-2794000D01*
X-3035300Y-2800350D01*
X-3028950Y-2787650D02*
X-3027570Y-2787650D01*
X-3060700Y-2762250D02*
X-3072638Y-2762250D01*
X-3060700Y-2762250D02*
X-3054350Y-2768600D01*
X-3054350Y-2794000D01*
X-3086100Y-2794000D01*
X-3098800Y-2806700D01*
X-3098800Y-2837180D01*
X-3094990Y-2840990D01*
X-3036570Y-2840990D01*
X-3028950Y-2833370D01*
X-3028950Y-2794000D01*
D17*
X-3035300Y-2800350D03*
D16*
X-3176380Y-2780030D02*
X-3181350Y-2780030D01*
X-3176380Y-2780030D02*
X-3168760Y-2787650D01*
X-3168650Y-2787650D01*
X-3136900Y-2762250D02*
X-3124962Y-2762250D01*
X-3136900Y-2762250D02*
X-3143250Y-2768600D01*
X-3143250Y-2774950D01*
D17*
X-3181350Y-2780030D03*
X-3143250Y-2774950D03*
M02*
