G04 EAGLE Gerber RS-274X export*
G75*
%MOMM*%
%FSLAX34Y34*%
%LPD*%
%INSilkscreen Top*%
%IPPOS*%
%AMOC8*
5,1,8,0,0,1.08239X$1,22.5*%
G01*
%ADD10C,0.152400*%
%ADD11C,0.203200*%


D10*
X-3092568Y-2713510D02*
X-3091129Y-2713510D01*
X-3091129Y-2718308D01*
X-3094008Y-2718308D01*
X-3094094Y-2718306D01*
X-3094180Y-2718300D01*
X-3094266Y-2718291D01*
X-3094351Y-2718277D01*
X-3094435Y-2718260D01*
X-3094519Y-2718239D01*
X-3094601Y-2718214D01*
X-3094682Y-2718186D01*
X-3094762Y-2718154D01*
X-3094841Y-2718118D01*
X-3094917Y-2718079D01*
X-3094992Y-2718036D01*
X-3095065Y-2717991D01*
X-3095136Y-2717942D01*
X-3095204Y-2717889D01*
X-3095271Y-2717834D01*
X-3095334Y-2717776D01*
X-3095395Y-2717715D01*
X-3095453Y-2717652D01*
X-3095508Y-2717585D01*
X-3095561Y-2717517D01*
X-3095610Y-2717446D01*
X-3095655Y-2717373D01*
X-3095698Y-2717298D01*
X-3095737Y-2717222D01*
X-3095773Y-2717143D01*
X-3095805Y-2717063D01*
X-3095833Y-2716982D01*
X-3095858Y-2716900D01*
X-3095879Y-2716816D01*
X-3095896Y-2716732D01*
X-3095910Y-2716647D01*
X-3095919Y-2716561D01*
X-3095925Y-2716475D01*
X-3095927Y-2716389D01*
X-3095927Y-2711591D01*
X-3095925Y-2711505D01*
X-3095919Y-2711419D01*
X-3095910Y-2711333D01*
X-3095896Y-2711248D01*
X-3095879Y-2711164D01*
X-3095858Y-2711080D01*
X-3095833Y-2710998D01*
X-3095805Y-2710917D01*
X-3095773Y-2710837D01*
X-3095737Y-2710758D01*
X-3095698Y-2710682D01*
X-3095655Y-2710607D01*
X-3095610Y-2710534D01*
X-3095561Y-2710463D01*
X-3095508Y-2710395D01*
X-3095453Y-2710328D01*
X-3095395Y-2710265D01*
X-3095334Y-2710204D01*
X-3095271Y-2710146D01*
X-3095205Y-2710091D01*
X-3095136Y-2710039D01*
X-3095065Y-2709989D01*
X-3094992Y-2709944D01*
X-3094917Y-2709901D01*
X-3094841Y-2709862D01*
X-3094762Y-2709826D01*
X-3094682Y-2709794D01*
X-3094601Y-2709766D01*
X-3094519Y-2709741D01*
X-3094435Y-2709720D01*
X-3094351Y-2709703D01*
X-3094266Y-2709689D01*
X-3094180Y-2709680D01*
X-3094094Y-2709674D01*
X-3094008Y-2709672D01*
X-3091129Y-2709672D01*
X-3086173Y-2709672D02*
X-3086173Y-2718308D01*
X-3081376Y-2718308D02*
X-3086173Y-2709672D01*
X-3081376Y-2709672D02*
X-3081376Y-2718308D01*
X-3076420Y-2718308D02*
X-3076420Y-2709672D01*
X-3074021Y-2709672D01*
X-3073924Y-2709674D01*
X-3073828Y-2709680D01*
X-3073732Y-2709689D01*
X-3073636Y-2709703D01*
X-3073541Y-2709720D01*
X-3073447Y-2709742D01*
X-3073354Y-2709767D01*
X-3073261Y-2709795D01*
X-3073170Y-2709828D01*
X-3073081Y-2709864D01*
X-3072993Y-2709904D01*
X-3072906Y-2709947D01*
X-3072821Y-2709993D01*
X-3072739Y-2710043D01*
X-3072658Y-2710097D01*
X-3072580Y-2710153D01*
X-3072504Y-2710213D01*
X-3072430Y-2710275D01*
X-3072359Y-2710341D01*
X-3072291Y-2710409D01*
X-3072225Y-2710480D01*
X-3072163Y-2710554D01*
X-3072103Y-2710630D01*
X-3072047Y-2710708D01*
X-3071993Y-2710789D01*
X-3071943Y-2710872D01*
X-3071897Y-2710956D01*
X-3071854Y-2711043D01*
X-3071814Y-2711131D01*
X-3071778Y-2711220D01*
X-3071745Y-2711311D01*
X-3071717Y-2711404D01*
X-3071692Y-2711497D01*
X-3071670Y-2711591D01*
X-3071653Y-2711686D01*
X-3071639Y-2711782D01*
X-3071630Y-2711878D01*
X-3071624Y-2711974D01*
X-3071622Y-2712071D01*
X-3071622Y-2715909D01*
X-3071624Y-2716006D01*
X-3071630Y-2716102D01*
X-3071639Y-2716198D01*
X-3071653Y-2716294D01*
X-3071670Y-2716389D01*
X-3071692Y-2716483D01*
X-3071717Y-2716576D01*
X-3071745Y-2716669D01*
X-3071778Y-2716760D01*
X-3071814Y-2716849D01*
X-3071854Y-2716937D01*
X-3071897Y-2717024D01*
X-3071943Y-2717109D01*
X-3071993Y-2717191D01*
X-3072047Y-2717272D01*
X-3072103Y-2717350D01*
X-3072163Y-2717426D01*
X-3072225Y-2717500D01*
X-3072291Y-2717571D01*
X-3072359Y-2717639D01*
X-3072430Y-2717705D01*
X-3072504Y-2717767D01*
X-3072580Y-2717827D01*
X-3072658Y-2717883D01*
X-3072739Y-2717937D01*
X-3072822Y-2717987D01*
X-3072906Y-2718033D01*
X-3072993Y-2718076D01*
X-3073081Y-2718116D01*
X-3073170Y-2718152D01*
X-3073261Y-2718185D01*
X-3073354Y-2718213D01*
X-3073447Y-2718238D01*
X-3073541Y-2718260D01*
X-3073636Y-2718277D01*
X-3073732Y-2718291D01*
X-3073828Y-2718300D01*
X-3073924Y-2718306D01*
X-3074021Y-2718308D01*
X-3076420Y-2718308D01*
X-3062134Y-2718308D02*
X-3062048Y-2718306D01*
X-3061962Y-2718300D01*
X-3061876Y-2718291D01*
X-3061791Y-2718277D01*
X-3061707Y-2718260D01*
X-3061624Y-2718239D01*
X-3061541Y-2718214D01*
X-3061460Y-2718186D01*
X-3061380Y-2718154D01*
X-3061301Y-2718118D01*
X-3061225Y-2718079D01*
X-3061150Y-2718036D01*
X-3061077Y-2717991D01*
X-3061006Y-2717942D01*
X-3060938Y-2717889D01*
X-3060871Y-2717834D01*
X-3060808Y-2717776D01*
X-3060747Y-2717715D01*
X-3060689Y-2717652D01*
X-3060634Y-2717585D01*
X-3060582Y-2717517D01*
X-3060532Y-2717446D01*
X-3060487Y-2717373D01*
X-3060444Y-2717298D01*
X-3060405Y-2717222D01*
X-3060369Y-2717143D01*
X-3060337Y-2717063D01*
X-3060309Y-2716982D01*
X-3060284Y-2716900D01*
X-3060263Y-2716816D01*
X-3060246Y-2716732D01*
X-3060232Y-2716647D01*
X-3060223Y-2716561D01*
X-3060217Y-2716475D01*
X-3060215Y-2716389D01*
X-3062134Y-2718308D02*
X-3062257Y-2718306D01*
X-3062380Y-2718301D01*
X-3062503Y-2718291D01*
X-3062625Y-2718278D01*
X-3062747Y-2718261D01*
X-3062869Y-2718241D01*
X-3062989Y-2718217D01*
X-3063109Y-2718189D01*
X-3063228Y-2718158D01*
X-3063346Y-2718122D01*
X-3063463Y-2718084D01*
X-3063579Y-2718042D01*
X-3063693Y-2717996D01*
X-3063806Y-2717947D01*
X-3063917Y-2717895D01*
X-3064027Y-2717839D01*
X-3064135Y-2717780D01*
X-3064241Y-2717717D01*
X-3064345Y-2717652D01*
X-3064448Y-2717583D01*
X-3064548Y-2717511D01*
X-3064645Y-2717436D01*
X-3064741Y-2717359D01*
X-3064834Y-2717278D01*
X-3064925Y-2717195D01*
X-3065013Y-2717109D01*
X-3064772Y-2711591D02*
X-3064770Y-2711505D01*
X-3064764Y-2711419D01*
X-3064755Y-2711333D01*
X-3064741Y-2711248D01*
X-3064724Y-2711164D01*
X-3064703Y-2711080D01*
X-3064678Y-2710998D01*
X-3064650Y-2710917D01*
X-3064618Y-2710837D01*
X-3064582Y-2710758D01*
X-3064543Y-2710682D01*
X-3064500Y-2710607D01*
X-3064455Y-2710534D01*
X-3064406Y-2710463D01*
X-3064353Y-2710395D01*
X-3064298Y-2710328D01*
X-3064240Y-2710265D01*
X-3064179Y-2710204D01*
X-3064116Y-2710146D01*
X-3064049Y-2710091D01*
X-3063981Y-2710038D01*
X-3063910Y-2709989D01*
X-3063837Y-2709944D01*
X-3063762Y-2709901D01*
X-3063686Y-2709862D01*
X-3063607Y-2709826D01*
X-3063527Y-2709794D01*
X-3063446Y-2709766D01*
X-3063364Y-2709741D01*
X-3063280Y-2709720D01*
X-3063196Y-2709703D01*
X-3063111Y-2709689D01*
X-3063025Y-2709680D01*
X-3062939Y-2709674D01*
X-3062853Y-2709672D01*
X-3062737Y-2709674D01*
X-3062622Y-2709679D01*
X-3062506Y-2709689D01*
X-3062391Y-2709702D01*
X-3062277Y-2709718D01*
X-3062163Y-2709739D01*
X-3062049Y-2709763D01*
X-3061937Y-2709791D01*
X-3061826Y-2709822D01*
X-3061715Y-2709857D01*
X-3061606Y-2709895D01*
X-3061498Y-2709937D01*
X-3061392Y-2709982D01*
X-3061286Y-2710031D01*
X-3061183Y-2710083D01*
X-3061081Y-2710138D01*
X-3060982Y-2710197D01*
X-3060884Y-2710259D01*
X-3060788Y-2710324D01*
X-3060694Y-2710392D01*
X-3063812Y-2713270D02*
X-3063887Y-2713224D01*
X-3063960Y-2713174D01*
X-3064030Y-2713121D01*
X-3064098Y-2713065D01*
X-3064163Y-2713006D01*
X-3064226Y-2712944D01*
X-3064285Y-2712880D01*
X-3064342Y-2712812D01*
X-3064396Y-2712742D01*
X-3064446Y-2712670D01*
X-3064493Y-2712596D01*
X-3064537Y-2712520D01*
X-3064577Y-2712441D01*
X-3064613Y-2712361D01*
X-3064646Y-2712280D01*
X-3064675Y-2712197D01*
X-3064701Y-2712112D01*
X-3064723Y-2712027D01*
X-3064740Y-2711941D01*
X-3064754Y-2711854D01*
X-3064764Y-2711767D01*
X-3064770Y-2711679D01*
X-3064772Y-2711591D01*
X-3061174Y-2714710D02*
X-3061100Y-2714756D01*
X-3061027Y-2714806D01*
X-3060957Y-2714859D01*
X-3060889Y-2714915D01*
X-3060824Y-2714974D01*
X-3060761Y-2715036D01*
X-3060702Y-2715101D01*
X-3060645Y-2715168D01*
X-3060591Y-2715238D01*
X-3060541Y-2715310D01*
X-3060494Y-2715384D01*
X-3060450Y-2715460D01*
X-3060410Y-2715539D01*
X-3060374Y-2715619D01*
X-3060341Y-2715700D01*
X-3060311Y-2715783D01*
X-3060286Y-2715868D01*
X-3060264Y-2715953D01*
X-3060247Y-2716039D01*
X-3060233Y-2716126D01*
X-3060223Y-2716213D01*
X-3060217Y-2716301D01*
X-3060215Y-2716389D01*
X-3061174Y-2714710D02*
X-3063813Y-2713270D01*
X-3055868Y-2709672D02*
X-3055868Y-2718308D01*
X-3055868Y-2709672D02*
X-3053469Y-2709672D01*
X-3053372Y-2709674D01*
X-3053276Y-2709680D01*
X-3053180Y-2709689D01*
X-3053084Y-2709703D01*
X-3052989Y-2709720D01*
X-3052895Y-2709742D01*
X-3052802Y-2709767D01*
X-3052709Y-2709795D01*
X-3052618Y-2709828D01*
X-3052529Y-2709864D01*
X-3052441Y-2709904D01*
X-3052354Y-2709947D01*
X-3052269Y-2709993D01*
X-3052187Y-2710043D01*
X-3052106Y-2710097D01*
X-3052028Y-2710153D01*
X-3051952Y-2710213D01*
X-3051878Y-2710275D01*
X-3051807Y-2710341D01*
X-3051739Y-2710409D01*
X-3051673Y-2710480D01*
X-3051611Y-2710554D01*
X-3051551Y-2710630D01*
X-3051495Y-2710708D01*
X-3051441Y-2710789D01*
X-3051391Y-2710872D01*
X-3051345Y-2710956D01*
X-3051302Y-2711043D01*
X-3051262Y-2711131D01*
X-3051226Y-2711220D01*
X-3051193Y-2711311D01*
X-3051165Y-2711404D01*
X-3051140Y-2711497D01*
X-3051118Y-2711591D01*
X-3051101Y-2711686D01*
X-3051087Y-2711782D01*
X-3051078Y-2711878D01*
X-3051072Y-2711974D01*
X-3051070Y-2712071D01*
X-3051071Y-2712071D02*
X-3051071Y-2715909D01*
X-3051070Y-2715909D02*
X-3051072Y-2716006D01*
X-3051078Y-2716102D01*
X-3051087Y-2716198D01*
X-3051101Y-2716294D01*
X-3051118Y-2716389D01*
X-3051140Y-2716483D01*
X-3051165Y-2716576D01*
X-3051193Y-2716669D01*
X-3051226Y-2716760D01*
X-3051262Y-2716849D01*
X-3051302Y-2716937D01*
X-3051345Y-2717024D01*
X-3051391Y-2717109D01*
X-3051441Y-2717191D01*
X-3051495Y-2717272D01*
X-3051551Y-2717350D01*
X-3051611Y-2717426D01*
X-3051673Y-2717500D01*
X-3051739Y-2717571D01*
X-3051807Y-2717639D01*
X-3051878Y-2717705D01*
X-3051952Y-2717767D01*
X-3052028Y-2717827D01*
X-3052106Y-2717883D01*
X-3052187Y-2717937D01*
X-3052270Y-2717987D01*
X-3052354Y-2718033D01*
X-3052441Y-2718076D01*
X-3052529Y-2718116D01*
X-3052618Y-2718152D01*
X-3052709Y-2718185D01*
X-3052802Y-2718213D01*
X-3052895Y-2718238D01*
X-3052989Y-2718260D01*
X-3053084Y-2718277D01*
X-3053180Y-2718291D01*
X-3053276Y-2718300D01*
X-3053372Y-2718306D01*
X-3053469Y-2718308D01*
X-3055868Y-2718308D01*
X-3046899Y-2718308D02*
X-3044021Y-2709672D01*
X-3041142Y-2718308D01*
X-3041862Y-2716149D02*
X-3046180Y-2716149D01*
X-3119202Y-2716389D02*
X-3119204Y-2716475D01*
X-3119210Y-2716561D01*
X-3119219Y-2716647D01*
X-3119233Y-2716732D01*
X-3119250Y-2716816D01*
X-3119271Y-2716900D01*
X-3119296Y-2716982D01*
X-3119324Y-2717063D01*
X-3119356Y-2717143D01*
X-3119392Y-2717222D01*
X-3119431Y-2717298D01*
X-3119474Y-2717373D01*
X-3119519Y-2717446D01*
X-3119569Y-2717517D01*
X-3119621Y-2717585D01*
X-3119676Y-2717652D01*
X-3119734Y-2717715D01*
X-3119795Y-2717776D01*
X-3119858Y-2717834D01*
X-3119925Y-2717889D01*
X-3119993Y-2717942D01*
X-3120064Y-2717991D01*
X-3120137Y-2718036D01*
X-3120212Y-2718079D01*
X-3120288Y-2718118D01*
X-3120367Y-2718154D01*
X-3120447Y-2718186D01*
X-3120528Y-2718214D01*
X-3120611Y-2718239D01*
X-3120694Y-2718260D01*
X-3120778Y-2718277D01*
X-3120863Y-2718291D01*
X-3120949Y-2718300D01*
X-3121035Y-2718306D01*
X-3121121Y-2718308D01*
X-3121244Y-2718306D01*
X-3121367Y-2718301D01*
X-3121490Y-2718291D01*
X-3121612Y-2718278D01*
X-3121734Y-2718261D01*
X-3121856Y-2718241D01*
X-3121976Y-2718217D01*
X-3122096Y-2718189D01*
X-3122215Y-2718158D01*
X-3122333Y-2718122D01*
X-3122450Y-2718084D01*
X-3122566Y-2718042D01*
X-3122680Y-2717996D01*
X-3122793Y-2717947D01*
X-3122904Y-2717895D01*
X-3123014Y-2717839D01*
X-3123122Y-2717780D01*
X-3123228Y-2717717D01*
X-3123332Y-2717652D01*
X-3123435Y-2717583D01*
X-3123535Y-2717511D01*
X-3123632Y-2717436D01*
X-3123728Y-2717359D01*
X-3123821Y-2717278D01*
X-3123912Y-2717195D01*
X-3124000Y-2717109D01*
X-3123760Y-2711591D02*
X-3123758Y-2711505D01*
X-3123752Y-2711419D01*
X-3123743Y-2711333D01*
X-3123729Y-2711248D01*
X-3123712Y-2711164D01*
X-3123691Y-2711080D01*
X-3123666Y-2710998D01*
X-3123638Y-2710917D01*
X-3123606Y-2710837D01*
X-3123570Y-2710758D01*
X-3123531Y-2710682D01*
X-3123488Y-2710607D01*
X-3123443Y-2710534D01*
X-3123394Y-2710463D01*
X-3123341Y-2710395D01*
X-3123286Y-2710328D01*
X-3123228Y-2710265D01*
X-3123167Y-2710204D01*
X-3123104Y-2710146D01*
X-3123037Y-2710091D01*
X-3122969Y-2710038D01*
X-3122898Y-2709989D01*
X-3122825Y-2709944D01*
X-3122750Y-2709901D01*
X-3122674Y-2709862D01*
X-3122595Y-2709826D01*
X-3122515Y-2709794D01*
X-3122434Y-2709766D01*
X-3122352Y-2709741D01*
X-3122268Y-2709720D01*
X-3122184Y-2709703D01*
X-3122099Y-2709689D01*
X-3122013Y-2709680D01*
X-3121927Y-2709674D01*
X-3121841Y-2709672D01*
X-3121725Y-2709674D01*
X-3121610Y-2709679D01*
X-3121494Y-2709689D01*
X-3121379Y-2709702D01*
X-3121265Y-2709718D01*
X-3121151Y-2709739D01*
X-3121037Y-2709763D01*
X-3120925Y-2709791D01*
X-3120814Y-2709822D01*
X-3120703Y-2709857D01*
X-3120594Y-2709895D01*
X-3120486Y-2709937D01*
X-3120380Y-2709982D01*
X-3120274Y-2710031D01*
X-3120171Y-2710083D01*
X-3120069Y-2710138D01*
X-3119970Y-2710197D01*
X-3119872Y-2710259D01*
X-3119776Y-2710324D01*
X-3119682Y-2710392D01*
X-3122800Y-2713270D02*
X-3122875Y-2713224D01*
X-3122948Y-2713174D01*
X-3123018Y-2713121D01*
X-3123086Y-2713065D01*
X-3123151Y-2713006D01*
X-3123214Y-2712944D01*
X-3123273Y-2712880D01*
X-3123330Y-2712812D01*
X-3123384Y-2712742D01*
X-3123434Y-2712670D01*
X-3123481Y-2712596D01*
X-3123525Y-2712520D01*
X-3123565Y-2712441D01*
X-3123601Y-2712361D01*
X-3123634Y-2712280D01*
X-3123663Y-2712197D01*
X-3123689Y-2712112D01*
X-3123711Y-2712027D01*
X-3123728Y-2711941D01*
X-3123742Y-2711854D01*
X-3123752Y-2711767D01*
X-3123758Y-2711679D01*
X-3123760Y-2711591D01*
X-3120161Y-2714710D02*
X-3120087Y-2714756D01*
X-3120014Y-2714806D01*
X-3119944Y-2714859D01*
X-3119876Y-2714915D01*
X-3119811Y-2714974D01*
X-3119748Y-2715036D01*
X-3119689Y-2715101D01*
X-3119632Y-2715168D01*
X-3119578Y-2715238D01*
X-3119528Y-2715310D01*
X-3119481Y-2715384D01*
X-3119437Y-2715460D01*
X-3119397Y-2715539D01*
X-3119361Y-2715619D01*
X-3119328Y-2715700D01*
X-3119298Y-2715783D01*
X-3119273Y-2715868D01*
X-3119251Y-2715953D01*
X-3119234Y-2716039D01*
X-3119220Y-2716126D01*
X-3119210Y-2716213D01*
X-3119204Y-2716301D01*
X-3119202Y-2716389D01*
X-3120162Y-2714710D02*
X-3122801Y-2713270D01*
X-3113280Y-2718308D02*
X-3111361Y-2718308D01*
X-3113280Y-2718308D02*
X-3113366Y-2718306D01*
X-3113452Y-2718300D01*
X-3113538Y-2718291D01*
X-3113623Y-2718277D01*
X-3113707Y-2718260D01*
X-3113791Y-2718239D01*
X-3113873Y-2718214D01*
X-3113954Y-2718186D01*
X-3114034Y-2718154D01*
X-3114113Y-2718118D01*
X-3114189Y-2718079D01*
X-3114264Y-2718036D01*
X-3114337Y-2717991D01*
X-3114408Y-2717942D01*
X-3114476Y-2717889D01*
X-3114543Y-2717834D01*
X-3114606Y-2717776D01*
X-3114667Y-2717715D01*
X-3114725Y-2717652D01*
X-3114780Y-2717585D01*
X-3114833Y-2717517D01*
X-3114882Y-2717446D01*
X-3114927Y-2717373D01*
X-3114970Y-2717298D01*
X-3115009Y-2717222D01*
X-3115045Y-2717143D01*
X-3115077Y-2717063D01*
X-3115105Y-2716982D01*
X-3115130Y-2716900D01*
X-3115151Y-2716816D01*
X-3115168Y-2716732D01*
X-3115182Y-2716647D01*
X-3115191Y-2716561D01*
X-3115197Y-2716475D01*
X-3115199Y-2716389D01*
X-3115199Y-2711591D01*
X-3115197Y-2711505D01*
X-3115191Y-2711419D01*
X-3115182Y-2711333D01*
X-3115168Y-2711248D01*
X-3115151Y-2711164D01*
X-3115130Y-2711080D01*
X-3115105Y-2710998D01*
X-3115077Y-2710917D01*
X-3115045Y-2710837D01*
X-3115009Y-2710758D01*
X-3114970Y-2710682D01*
X-3114927Y-2710607D01*
X-3114882Y-2710534D01*
X-3114833Y-2710463D01*
X-3114780Y-2710395D01*
X-3114725Y-2710328D01*
X-3114667Y-2710265D01*
X-3114606Y-2710204D01*
X-3114543Y-2710146D01*
X-3114477Y-2710091D01*
X-3114408Y-2710039D01*
X-3114337Y-2709989D01*
X-3114264Y-2709944D01*
X-3114189Y-2709901D01*
X-3114113Y-2709862D01*
X-3114034Y-2709826D01*
X-3113954Y-2709794D01*
X-3113873Y-2709766D01*
X-3113791Y-2709741D01*
X-3113707Y-2709720D01*
X-3113623Y-2709703D01*
X-3113538Y-2709689D01*
X-3113452Y-2709680D01*
X-3113366Y-2709674D01*
X-3113280Y-2709672D01*
X-3111361Y-2709672D01*
X-3107210Y-2709672D02*
X-3107210Y-2718308D01*
X-3103372Y-2718308D01*
X-3144125Y-2718308D02*
X-3147004Y-2718308D01*
X-3144125Y-2718308D02*
X-3144039Y-2718306D01*
X-3143953Y-2718300D01*
X-3143867Y-2718291D01*
X-3143782Y-2718277D01*
X-3143698Y-2718260D01*
X-3143614Y-2718239D01*
X-3143532Y-2718214D01*
X-3143451Y-2718186D01*
X-3143371Y-2718154D01*
X-3143292Y-2718118D01*
X-3143216Y-2718079D01*
X-3143141Y-2718036D01*
X-3143068Y-2717991D01*
X-3142997Y-2717942D01*
X-3142929Y-2717889D01*
X-3142862Y-2717834D01*
X-3142799Y-2717776D01*
X-3142738Y-2717715D01*
X-3142680Y-2717652D01*
X-3142625Y-2717585D01*
X-3142573Y-2717517D01*
X-3142523Y-2717446D01*
X-3142478Y-2717373D01*
X-3142435Y-2717298D01*
X-3142396Y-2717222D01*
X-3142360Y-2717143D01*
X-3142328Y-2717063D01*
X-3142300Y-2716982D01*
X-3142275Y-2716900D01*
X-3142254Y-2716816D01*
X-3142237Y-2716732D01*
X-3142223Y-2716647D01*
X-3142214Y-2716561D01*
X-3142208Y-2716475D01*
X-3142206Y-2716389D01*
X-3142206Y-2715429D01*
X-3142208Y-2715343D01*
X-3142214Y-2715257D01*
X-3142223Y-2715171D01*
X-3142237Y-2715086D01*
X-3142254Y-2715002D01*
X-3142275Y-2714918D01*
X-3142300Y-2714836D01*
X-3142328Y-2714755D01*
X-3142360Y-2714675D01*
X-3142396Y-2714596D01*
X-3142435Y-2714520D01*
X-3142478Y-2714445D01*
X-3142523Y-2714372D01*
X-3142572Y-2714301D01*
X-3142625Y-2714233D01*
X-3142680Y-2714166D01*
X-3142738Y-2714103D01*
X-3142799Y-2714042D01*
X-3142862Y-2713984D01*
X-3142929Y-2713929D01*
X-3142997Y-2713876D01*
X-3143068Y-2713827D01*
X-3143141Y-2713782D01*
X-3143216Y-2713739D01*
X-3143292Y-2713700D01*
X-3143371Y-2713664D01*
X-3143451Y-2713632D01*
X-3143532Y-2713604D01*
X-3143614Y-2713579D01*
X-3143698Y-2713558D01*
X-3143782Y-2713541D01*
X-3143867Y-2713527D01*
X-3143953Y-2713518D01*
X-3144039Y-2713512D01*
X-3144125Y-2713510D01*
X-3147004Y-2713510D01*
X-3147004Y-2709672D01*
X-3142206Y-2709672D01*
X-3138339Y-2709672D02*
X-3135461Y-2718308D01*
X-3132582Y-2709672D01*
X-3110738Y-2784582D02*
X-3102102Y-2784582D01*
X-3110738Y-2784582D02*
X-3110738Y-2782183D01*
X-3110736Y-2782086D01*
X-3110730Y-2781990D01*
X-3110721Y-2781894D01*
X-3110707Y-2781798D01*
X-3110690Y-2781703D01*
X-3110668Y-2781609D01*
X-3110643Y-2781516D01*
X-3110615Y-2781423D01*
X-3110582Y-2781332D01*
X-3110546Y-2781243D01*
X-3110506Y-2781155D01*
X-3110463Y-2781068D01*
X-3110417Y-2780984D01*
X-3110367Y-2780901D01*
X-3110313Y-2780820D01*
X-3110257Y-2780742D01*
X-3110197Y-2780666D01*
X-3110135Y-2780592D01*
X-3110069Y-2780521D01*
X-3110001Y-2780453D01*
X-3109930Y-2780387D01*
X-3109856Y-2780325D01*
X-3109780Y-2780265D01*
X-3109702Y-2780209D01*
X-3109621Y-2780155D01*
X-3109539Y-2780105D01*
X-3109454Y-2780059D01*
X-3109367Y-2780016D01*
X-3109279Y-2779976D01*
X-3109190Y-2779940D01*
X-3109099Y-2779907D01*
X-3109006Y-2779879D01*
X-3108913Y-2779854D01*
X-3108819Y-2779832D01*
X-3108724Y-2779815D01*
X-3108628Y-2779801D01*
X-3108532Y-2779792D01*
X-3108436Y-2779786D01*
X-3108339Y-2779784D01*
X-3108242Y-2779786D01*
X-3108146Y-2779792D01*
X-3108050Y-2779801D01*
X-3107954Y-2779815D01*
X-3107859Y-2779832D01*
X-3107765Y-2779854D01*
X-3107672Y-2779879D01*
X-3107579Y-2779907D01*
X-3107488Y-2779940D01*
X-3107399Y-2779976D01*
X-3107311Y-2780016D01*
X-3107224Y-2780059D01*
X-3107140Y-2780105D01*
X-3107057Y-2780155D01*
X-3106976Y-2780209D01*
X-3106898Y-2780265D01*
X-3106822Y-2780325D01*
X-3106748Y-2780387D01*
X-3106677Y-2780453D01*
X-3106609Y-2780521D01*
X-3106543Y-2780592D01*
X-3106481Y-2780666D01*
X-3106421Y-2780742D01*
X-3106365Y-2780820D01*
X-3106311Y-2780901D01*
X-3106261Y-2780984D01*
X-3106215Y-2781068D01*
X-3106172Y-2781155D01*
X-3106132Y-2781243D01*
X-3106096Y-2781332D01*
X-3106063Y-2781423D01*
X-3106035Y-2781516D01*
X-3106010Y-2781609D01*
X-3105988Y-2781703D01*
X-3105971Y-2781798D01*
X-3105957Y-2781894D01*
X-3105948Y-2781990D01*
X-3105942Y-2782086D01*
X-3105940Y-2782183D01*
X-3105940Y-2784582D01*
X-3104501Y-2775938D02*
X-3104598Y-2775936D01*
X-3104694Y-2775930D01*
X-3104790Y-2775921D01*
X-3104886Y-2775907D01*
X-3104981Y-2775890D01*
X-3105075Y-2775868D01*
X-3105168Y-2775843D01*
X-3105261Y-2775815D01*
X-3105352Y-2775782D01*
X-3105441Y-2775746D01*
X-3105529Y-2775706D01*
X-3105616Y-2775663D01*
X-3105701Y-2775617D01*
X-3105783Y-2775567D01*
X-3105864Y-2775513D01*
X-3105942Y-2775457D01*
X-3106018Y-2775397D01*
X-3106092Y-2775335D01*
X-3106163Y-2775269D01*
X-3106231Y-2775201D01*
X-3106297Y-2775130D01*
X-3106359Y-2775056D01*
X-3106419Y-2774980D01*
X-3106475Y-2774902D01*
X-3106529Y-2774821D01*
X-3106579Y-2774739D01*
X-3106625Y-2774654D01*
X-3106668Y-2774567D01*
X-3106708Y-2774479D01*
X-3106744Y-2774390D01*
X-3106777Y-2774299D01*
X-3106805Y-2774206D01*
X-3106830Y-2774113D01*
X-3106852Y-2774019D01*
X-3106869Y-2773924D01*
X-3106883Y-2773828D01*
X-3106892Y-2773732D01*
X-3106898Y-2773636D01*
X-3106900Y-2773539D01*
X-3106898Y-2773442D01*
X-3106892Y-2773346D01*
X-3106883Y-2773250D01*
X-3106869Y-2773154D01*
X-3106852Y-2773059D01*
X-3106830Y-2772965D01*
X-3106805Y-2772872D01*
X-3106777Y-2772779D01*
X-3106744Y-2772688D01*
X-3106708Y-2772599D01*
X-3106668Y-2772511D01*
X-3106625Y-2772424D01*
X-3106579Y-2772340D01*
X-3106529Y-2772257D01*
X-3106475Y-2772176D01*
X-3106419Y-2772098D01*
X-3106359Y-2772022D01*
X-3106297Y-2771948D01*
X-3106231Y-2771877D01*
X-3106163Y-2771809D01*
X-3106092Y-2771743D01*
X-3106018Y-2771681D01*
X-3105942Y-2771621D01*
X-3105864Y-2771565D01*
X-3105783Y-2771511D01*
X-3105701Y-2771461D01*
X-3105616Y-2771415D01*
X-3105529Y-2771372D01*
X-3105441Y-2771332D01*
X-3105352Y-2771296D01*
X-3105261Y-2771263D01*
X-3105168Y-2771235D01*
X-3105075Y-2771210D01*
X-3104981Y-2771188D01*
X-3104886Y-2771171D01*
X-3104790Y-2771157D01*
X-3104694Y-2771148D01*
X-3104598Y-2771142D01*
X-3104501Y-2771140D01*
X-3104404Y-2771142D01*
X-3104308Y-2771148D01*
X-3104212Y-2771157D01*
X-3104116Y-2771171D01*
X-3104021Y-2771188D01*
X-3103927Y-2771210D01*
X-3103834Y-2771235D01*
X-3103741Y-2771263D01*
X-3103650Y-2771296D01*
X-3103561Y-2771332D01*
X-3103473Y-2771372D01*
X-3103386Y-2771415D01*
X-3103302Y-2771461D01*
X-3103219Y-2771511D01*
X-3103138Y-2771565D01*
X-3103060Y-2771621D01*
X-3102984Y-2771681D01*
X-3102910Y-2771743D01*
X-3102839Y-2771809D01*
X-3102771Y-2771877D01*
X-3102705Y-2771948D01*
X-3102643Y-2772022D01*
X-3102583Y-2772098D01*
X-3102527Y-2772176D01*
X-3102473Y-2772257D01*
X-3102423Y-2772340D01*
X-3102377Y-2772424D01*
X-3102334Y-2772511D01*
X-3102294Y-2772599D01*
X-3102258Y-2772688D01*
X-3102225Y-2772779D01*
X-3102197Y-2772872D01*
X-3102172Y-2772965D01*
X-3102150Y-2773059D01*
X-3102133Y-2773154D01*
X-3102119Y-2773250D01*
X-3102110Y-2773346D01*
X-3102104Y-2773442D01*
X-3102102Y-2773539D01*
X-3102104Y-2773636D01*
X-3102110Y-2773732D01*
X-3102119Y-2773828D01*
X-3102133Y-2773924D01*
X-3102150Y-2774019D01*
X-3102172Y-2774113D01*
X-3102197Y-2774206D01*
X-3102225Y-2774299D01*
X-3102258Y-2774390D01*
X-3102294Y-2774479D01*
X-3102334Y-2774567D01*
X-3102377Y-2774654D01*
X-3102423Y-2774739D01*
X-3102473Y-2774821D01*
X-3102527Y-2774902D01*
X-3102583Y-2774980D01*
X-3102643Y-2775056D01*
X-3102705Y-2775130D01*
X-3102771Y-2775201D01*
X-3102839Y-2775269D01*
X-3102910Y-2775335D01*
X-3102984Y-2775397D01*
X-3103060Y-2775457D01*
X-3103138Y-2775513D01*
X-3103219Y-2775567D01*
X-3103302Y-2775617D01*
X-3103386Y-2775663D01*
X-3103473Y-2775706D01*
X-3103561Y-2775746D01*
X-3103650Y-2775782D01*
X-3103741Y-2775815D01*
X-3103834Y-2775843D01*
X-3103927Y-2775868D01*
X-3104021Y-2775890D01*
X-3104116Y-2775907D01*
X-3104212Y-2775921D01*
X-3104308Y-2775930D01*
X-3104404Y-2775936D01*
X-3104501Y-2775938D01*
X-3108819Y-2775458D02*
X-3108905Y-2775456D01*
X-3108991Y-2775450D01*
X-3109077Y-2775441D01*
X-3109162Y-2775427D01*
X-3109246Y-2775410D01*
X-3109330Y-2775389D01*
X-3109412Y-2775364D01*
X-3109493Y-2775336D01*
X-3109573Y-2775304D01*
X-3109652Y-2775268D01*
X-3109728Y-2775229D01*
X-3109803Y-2775186D01*
X-3109876Y-2775141D01*
X-3109947Y-2775092D01*
X-3110015Y-2775039D01*
X-3110082Y-2774984D01*
X-3110145Y-2774926D01*
X-3110206Y-2774865D01*
X-3110264Y-2774802D01*
X-3110319Y-2774735D01*
X-3110372Y-2774667D01*
X-3110421Y-2774596D01*
X-3110466Y-2774523D01*
X-3110509Y-2774448D01*
X-3110548Y-2774372D01*
X-3110584Y-2774293D01*
X-3110616Y-2774213D01*
X-3110644Y-2774132D01*
X-3110669Y-2774050D01*
X-3110690Y-2773966D01*
X-3110707Y-2773882D01*
X-3110721Y-2773797D01*
X-3110730Y-2773711D01*
X-3110736Y-2773625D01*
X-3110738Y-2773539D01*
X-3110736Y-2773453D01*
X-3110730Y-2773367D01*
X-3110721Y-2773281D01*
X-3110707Y-2773196D01*
X-3110690Y-2773112D01*
X-3110669Y-2773028D01*
X-3110644Y-2772946D01*
X-3110616Y-2772865D01*
X-3110584Y-2772785D01*
X-3110548Y-2772706D01*
X-3110509Y-2772630D01*
X-3110466Y-2772555D01*
X-3110421Y-2772482D01*
X-3110372Y-2772411D01*
X-3110319Y-2772343D01*
X-3110264Y-2772276D01*
X-3110206Y-2772213D01*
X-3110145Y-2772152D01*
X-3110082Y-2772094D01*
X-3110015Y-2772039D01*
X-3109947Y-2771986D01*
X-3109876Y-2771937D01*
X-3109803Y-2771892D01*
X-3109728Y-2771849D01*
X-3109652Y-2771810D01*
X-3109573Y-2771774D01*
X-3109493Y-2771742D01*
X-3109412Y-2771714D01*
X-3109330Y-2771689D01*
X-3109246Y-2771668D01*
X-3109162Y-2771651D01*
X-3109077Y-2771637D01*
X-3108991Y-2771628D01*
X-3108905Y-2771622D01*
X-3108819Y-2771620D01*
X-3108733Y-2771622D01*
X-3108647Y-2771628D01*
X-3108561Y-2771637D01*
X-3108476Y-2771651D01*
X-3108392Y-2771668D01*
X-3108308Y-2771689D01*
X-3108226Y-2771714D01*
X-3108145Y-2771742D01*
X-3108065Y-2771774D01*
X-3107986Y-2771810D01*
X-3107910Y-2771849D01*
X-3107835Y-2771892D01*
X-3107762Y-2771937D01*
X-3107691Y-2771986D01*
X-3107623Y-2772039D01*
X-3107556Y-2772094D01*
X-3107493Y-2772152D01*
X-3107432Y-2772213D01*
X-3107374Y-2772276D01*
X-3107319Y-2772343D01*
X-3107266Y-2772411D01*
X-3107217Y-2772482D01*
X-3107172Y-2772555D01*
X-3107129Y-2772630D01*
X-3107090Y-2772706D01*
X-3107054Y-2772785D01*
X-3107022Y-2772865D01*
X-3106994Y-2772946D01*
X-3106969Y-2773028D01*
X-3106948Y-2773112D01*
X-3106931Y-2773196D01*
X-3106917Y-2773281D01*
X-3106908Y-2773367D01*
X-3106902Y-2773453D01*
X-3106900Y-2773539D01*
X-3106902Y-2773625D01*
X-3106908Y-2773711D01*
X-3106917Y-2773797D01*
X-3106931Y-2773882D01*
X-3106948Y-2773966D01*
X-3106969Y-2774050D01*
X-3106994Y-2774132D01*
X-3107022Y-2774213D01*
X-3107054Y-2774293D01*
X-3107090Y-2774372D01*
X-3107129Y-2774448D01*
X-3107172Y-2774523D01*
X-3107217Y-2774596D01*
X-3107266Y-2774667D01*
X-3107319Y-2774735D01*
X-3107374Y-2774802D01*
X-3107432Y-2774865D01*
X-3107493Y-2774926D01*
X-3107556Y-2774984D01*
X-3107623Y-2775039D01*
X-3107691Y-2775092D01*
X-3107762Y-2775141D01*
X-3107835Y-2775186D01*
X-3107910Y-2775229D01*
X-3107986Y-2775268D01*
X-3108065Y-2775304D01*
X-3108145Y-2775336D01*
X-3108226Y-2775364D01*
X-3108308Y-2775389D01*
X-3108392Y-2775410D01*
X-3108476Y-2775427D01*
X-3108561Y-2775441D01*
X-3108647Y-2775450D01*
X-3108733Y-2775456D01*
X-3108819Y-2775458D01*
X-3110738Y-2764155D02*
X-3110736Y-2764063D01*
X-3110730Y-2763972D01*
X-3110721Y-2763881D01*
X-3110707Y-2763790D01*
X-3110690Y-2763700D01*
X-3110668Y-2763611D01*
X-3110643Y-2763523D01*
X-3110615Y-2763436D01*
X-3110582Y-2763350D01*
X-3110546Y-2763266D01*
X-3110507Y-2763183D01*
X-3110464Y-2763102D01*
X-3110417Y-2763023D01*
X-3110368Y-2762946D01*
X-3110315Y-2762871D01*
X-3110259Y-2762799D01*
X-3110200Y-2762729D01*
X-3110138Y-2762661D01*
X-3110073Y-2762596D01*
X-3110005Y-2762534D01*
X-3109935Y-2762475D01*
X-3109863Y-2762419D01*
X-3109788Y-2762366D01*
X-3109711Y-2762317D01*
X-3109632Y-2762270D01*
X-3109551Y-2762227D01*
X-3109468Y-2762188D01*
X-3109384Y-2762152D01*
X-3109298Y-2762119D01*
X-3109211Y-2762091D01*
X-3109123Y-2762066D01*
X-3109034Y-2762044D01*
X-3108944Y-2762027D01*
X-3108853Y-2762013D01*
X-3108762Y-2762004D01*
X-3108671Y-2761998D01*
X-3108579Y-2761996D01*
X-3110738Y-2764155D02*
X-3110736Y-2764258D01*
X-3110730Y-2764360D01*
X-3110721Y-2764462D01*
X-3110708Y-2764564D01*
X-3110691Y-2764665D01*
X-3110670Y-2764766D01*
X-3110646Y-2764865D01*
X-3110617Y-2764964D01*
X-3110586Y-2765061D01*
X-3110550Y-2765158D01*
X-3110512Y-2765253D01*
X-3110469Y-2765346D01*
X-3110423Y-2765438D01*
X-3110374Y-2765528D01*
X-3110322Y-2765616D01*
X-3110266Y-2765703D01*
X-3110207Y-2765787D01*
X-3110146Y-2765868D01*
X-3110081Y-2765948D01*
X-3110013Y-2766025D01*
X-3109942Y-2766100D01*
X-3109869Y-2766171D01*
X-3109793Y-2766240D01*
X-3109715Y-2766307D01*
X-3109634Y-2766370D01*
X-3109551Y-2766430D01*
X-3109466Y-2766487D01*
X-3109379Y-2766541D01*
X-3109289Y-2766592D01*
X-3109198Y-2766639D01*
X-3109106Y-2766683D01*
X-3109011Y-2766724D01*
X-3108916Y-2766761D01*
X-3108819Y-2766794D01*
X-3106900Y-2762716D02*
X-3106966Y-2762649D01*
X-3107035Y-2762585D01*
X-3107106Y-2762524D01*
X-3107180Y-2762466D01*
X-3107256Y-2762411D01*
X-3107334Y-2762359D01*
X-3107414Y-2762310D01*
X-3107496Y-2762264D01*
X-3107580Y-2762222D01*
X-3107666Y-2762183D01*
X-3107753Y-2762148D01*
X-3107841Y-2762117D01*
X-3107931Y-2762089D01*
X-3108021Y-2762064D01*
X-3108113Y-2762043D01*
X-3108205Y-2762026D01*
X-3108298Y-2762013D01*
X-3108391Y-2762004D01*
X-3108485Y-2761998D01*
X-3108579Y-2761996D01*
X-3106900Y-2762716D02*
X-3102102Y-2766794D01*
X-3102102Y-2761996D01*
X-3091660Y-2782183D02*
X-3091660Y-2784582D01*
X-3091660Y-2782183D02*
X-3091658Y-2782086D01*
X-3091652Y-2781990D01*
X-3091643Y-2781894D01*
X-3091629Y-2781798D01*
X-3091612Y-2781703D01*
X-3091590Y-2781609D01*
X-3091565Y-2781516D01*
X-3091537Y-2781423D01*
X-3091504Y-2781332D01*
X-3091468Y-2781243D01*
X-3091428Y-2781155D01*
X-3091385Y-2781068D01*
X-3091339Y-2780984D01*
X-3091289Y-2780901D01*
X-3091235Y-2780820D01*
X-3091179Y-2780742D01*
X-3091119Y-2780666D01*
X-3091057Y-2780592D01*
X-3090991Y-2780521D01*
X-3090923Y-2780453D01*
X-3090852Y-2780387D01*
X-3090778Y-2780325D01*
X-3090702Y-2780265D01*
X-3090624Y-2780209D01*
X-3090543Y-2780155D01*
X-3090461Y-2780105D01*
X-3090376Y-2780059D01*
X-3090289Y-2780016D01*
X-3090201Y-2779976D01*
X-3090112Y-2779940D01*
X-3090021Y-2779907D01*
X-3089928Y-2779879D01*
X-3089835Y-2779854D01*
X-3089741Y-2779832D01*
X-3089646Y-2779815D01*
X-3089550Y-2779801D01*
X-3089454Y-2779792D01*
X-3089358Y-2779786D01*
X-3089261Y-2779784D01*
X-3089164Y-2779786D01*
X-3089068Y-2779792D01*
X-3088972Y-2779801D01*
X-3088876Y-2779815D01*
X-3088781Y-2779832D01*
X-3088687Y-2779854D01*
X-3088594Y-2779879D01*
X-3088501Y-2779907D01*
X-3088410Y-2779940D01*
X-3088321Y-2779976D01*
X-3088233Y-2780016D01*
X-3088146Y-2780059D01*
X-3088062Y-2780105D01*
X-3087979Y-2780155D01*
X-3087898Y-2780209D01*
X-3087820Y-2780265D01*
X-3087744Y-2780325D01*
X-3087670Y-2780387D01*
X-3087599Y-2780453D01*
X-3087531Y-2780521D01*
X-3087465Y-2780592D01*
X-3087403Y-2780666D01*
X-3087343Y-2780742D01*
X-3087287Y-2780820D01*
X-3087233Y-2780901D01*
X-3087183Y-2780984D01*
X-3087137Y-2781068D01*
X-3087094Y-2781155D01*
X-3087054Y-2781243D01*
X-3087018Y-2781332D01*
X-3086985Y-2781423D01*
X-3086957Y-2781516D01*
X-3086932Y-2781609D01*
X-3086910Y-2781703D01*
X-3086893Y-2781798D01*
X-3086879Y-2781894D01*
X-3086870Y-2781990D01*
X-3086864Y-2782086D01*
X-3086862Y-2782183D01*
X-3086862Y-2784582D01*
X-3095498Y-2784582D01*
X-3095498Y-2782183D01*
X-3095496Y-2782097D01*
X-3095490Y-2782011D01*
X-3095481Y-2781925D01*
X-3095467Y-2781840D01*
X-3095450Y-2781756D01*
X-3095429Y-2781672D01*
X-3095404Y-2781590D01*
X-3095376Y-2781509D01*
X-3095344Y-2781429D01*
X-3095308Y-2781350D01*
X-3095269Y-2781274D01*
X-3095226Y-2781199D01*
X-3095181Y-2781126D01*
X-3095132Y-2781055D01*
X-3095079Y-2780987D01*
X-3095024Y-2780920D01*
X-3094966Y-2780857D01*
X-3094905Y-2780796D01*
X-3094842Y-2780738D01*
X-3094775Y-2780683D01*
X-3094707Y-2780630D01*
X-3094636Y-2780581D01*
X-3094563Y-2780536D01*
X-3094488Y-2780493D01*
X-3094412Y-2780454D01*
X-3094333Y-2780418D01*
X-3094253Y-2780386D01*
X-3094172Y-2780358D01*
X-3094090Y-2780333D01*
X-3094006Y-2780312D01*
X-3093922Y-2780295D01*
X-3093837Y-2780281D01*
X-3093751Y-2780272D01*
X-3093665Y-2780266D01*
X-3093579Y-2780264D01*
X-3093493Y-2780266D01*
X-3093407Y-2780272D01*
X-3093321Y-2780281D01*
X-3093236Y-2780295D01*
X-3093152Y-2780312D01*
X-3093068Y-2780333D01*
X-3092986Y-2780358D01*
X-3092905Y-2780386D01*
X-3092825Y-2780418D01*
X-3092746Y-2780454D01*
X-3092670Y-2780493D01*
X-3092595Y-2780536D01*
X-3092522Y-2780581D01*
X-3092451Y-2780630D01*
X-3092383Y-2780683D01*
X-3092316Y-2780738D01*
X-3092253Y-2780796D01*
X-3092192Y-2780857D01*
X-3092134Y-2780920D01*
X-3092079Y-2780987D01*
X-3092026Y-2781055D01*
X-3091977Y-2781126D01*
X-3091932Y-2781199D01*
X-3091889Y-2781274D01*
X-3091850Y-2781350D01*
X-3091814Y-2781429D01*
X-3091782Y-2781509D01*
X-3091754Y-2781590D01*
X-3091729Y-2781672D01*
X-3091708Y-2781756D01*
X-3091691Y-2781840D01*
X-3091677Y-2781925D01*
X-3091668Y-2782011D01*
X-3091662Y-2782097D01*
X-3091660Y-2782183D01*
X-3094538Y-2775938D02*
X-3095498Y-2775938D01*
X-3095498Y-2771140D01*
X-3086862Y-2773539D01*
X-3093579Y-2766794D02*
X-3095498Y-2764395D01*
X-3086862Y-2764395D01*
X-3086862Y-2766794D02*
X-3086862Y-2761996D01*
X-3086862Y-2757650D02*
X-3086862Y-2754771D01*
X-3086864Y-2754685D01*
X-3086870Y-2754599D01*
X-3086879Y-2754513D01*
X-3086893Y-2754428D01*
X-3086910Y-2754344D01*
X-3086931Y-2754260D01*
X-3086956Y-2754178D01*
X-3086984Y-2754097D01*
X-3087016Y-2754017D01*
X-3087052Y-2753938D01*
X-3087091Y-2753862D01*
X-3087134Y-2753787D01*
X-3087179Y-2753714D01*
X-3087228Y-2753643D01*
X-3087281Y-2753575D01*
X-3087336Y-2753508D01*
X-3087394Y-2753445D01*
X-3087455Y-2753384D01*
X-3087518Y-2753326D01*
X-3087585Y-2753271D01*
X-3087653Y-2753218D01*
X-3087724Y-2753169D01*
X-3087797Y-2753124D01*
X-3087872Y-2753081D01*
X-3087948Y-2753042D01*
X-3088027Y-2753006D01*
X-3088107Y-2752974D01*
X-3088188Y-2752946D01*
X-3088270Y-2752921D01*
X-3088354Y-2752900D01*
X-3088438Y-2752883D01*
X-3088523Y-2752869D01*
X-3088609Y-2752860D01*
X-3088695Y-2752854D01*
X-3088781Y-2752852D01*
X-3089741Y-2752852D01*
X-3089827Y-2752854D01*
X-3089913Y-2752860D01*
X-3089999Y-2752869D01*
X-3090084Y-2752883D01*
X-3090168Y-2752900D01*
X-3090252Y-2752921D01*
X-3090334Y-2752946D01*
X-3090415Y-2752974D01*
X-3090495Y-2753006D01*
X-3090574Y-2753042D01*
X-3090650Y-2753081D01*
X-3090725Y-2753124D01*
X-3090798Y-2753169D01*
X-3090869Y-2753219D01*
X-3090937Y-2753271D01*
X-3091004Y-2753326D01*
X-3091067Y-2753384D01*
X-3091128Y-2753445D01*
X-3091186Y-2753508D01*
X-3091241Y-2753575D01*
X-3091294Y-2753643D01*
X-3091343Y-2753714D01*
X-3091388Y-2753787D01*
X-3091431Y-2753862D01*
X-3091470Y-2753938D01*
X-3091506Y-2754017D01*
X-3091538Y-2754097D01*
X-3091566Y-2754178D01*
X-3091591Y-2754261D01*
X-3091612Y-2754344D01*
X-3091629Y-2754428D01*
X-3091643Y-2754513D01*
X-3091652Y-2754599D01*
X-3091658Y-2754685D01*
X-3091660Y-2754771D01*
X-3091660Y-2757650D01*
X-3095498Y-2757650D01*
X-3095498Y-2752852D01*
X-3155470Y-2837039D02*
X-3155472Y-2837125D01*
X-3155478Y-2837211D01*
X-3155487Y-2837297D01*
X-3155501Y-2837382D01*
X-3155518Y-2837466D01*
X-3155539Y-2837550D01*
X-3155564Y-2837632D01*
X-3155592Y-2837713D01*
X-3155624Y-2837793D01*
X-3155660Y-2837872D01*
X-3155699Y-2837948D01*
X-3155742Y-2838023D01*
X-3155787Y-2838096D01*
X-3155837Y-2838167D01*
X-3155889Y-2838235D01*
X-3155944Y-2838302D01*
X-3156002Y-2838365D01*
X-3156063Y-2838426D01*
X-3156126Y-2838484D01*
X-3156193Y-2838539D01*
X-3156261Y-2838592D01*
X-3156332Y-2838641D01*
X-3156405Y-2838686D01*
X-3156480Y-2838729D01*
X-3156556Y-2838768D01*
X-3156635Y-2838804D01*
X-3156715Y-2838836D01*
X-3156796Y-2838864D01*
X-3156879Y-2838889D01*
X-3156962Y-2838910D01*
X-3157046Y-2838927D01*
X-3157131Y-2838941D01*
X-3157217Y-2838950D01*
X-3157303Y-2838956D01*
X-3157389Y-2838958D01*
X-3157512Y-2838956D01*
X-3157635Y-2838951D01*
X-3157758Y-2838941D01*
X-3157880Y-2838928D01*
X-3158002Y-2838911D01*
X-3158124Y-2838891D01*
X-3158244Y-2838867D01*
X-3158364Y-2838839D01*
X-3158483Y-2838808D01*
X-3158601Y-2838772D01*
X-3158718Y-2838734D01*
X-3158834Y-2838692D01*
X-3158948Y-2838646D01*
X-3159061Y-2838597D01*
X-3159172Y-2838545D01*
X-3159282Y-2838489D01*
X-3159390Y-2838430D01*
X-3159496Y-2838367D01*
X-3159600Y-2838302D01*
X-3159703Y-2838233D01*
X-3159803Y-2838161D01*
X-3159900Y-2838086D01*
X-3159996Y-2838009D01*
X-3160089Y-2837928D01*
X-3160180Y-2837845D01*
X-3160268Y-2837759D01*
X-3160028Y-2832241D02*
X-3160026Y-2832155D01*
X-3160020Y-2832069D01*
X-3160011Y-2831983D01*
X-3159997Y-2831898D01*
X-3159980Y-2831814D01*
X-3159959Y-2831730D01*
X-3159934Y-2831648D01*
X-3159906Y-2831567D01*
X-3159874Y-2831487D01*
X-3159838Y-2831408D01*
X-3159799Y-2831332D01*
X-3159756Y-2831257D01*
X-3159711Y-2831184D01*
X-3159662Y-2831113D01*
X-3159609Y-2831045D01*
X-3159554Y-2830978D01*
X-3159496Y-2830915D01*
X-3159435Y-2830854D01*
X-3159372Y-2830796D01*
X-3159305Y-2830741D01*
X-3159237Y-2830688D01*
X-3159166Y-2830639D01*
X-3159093Y-2830594D01*
X-3159018Y-2830551D01*
X-3158942Y-2830512D01*
X-3158863Y-2830476D01*
X-3158783Y-2830444D01*
X-3158702Y-2830416D01*
X-3158620Y-2830391D01*
X-3158536Y-2830370D01*
X-3158452Y-2830353D01*
X-3158367Y-2830339D01*
X-3158281Y-2830330D01*
X-3158195Y-2830324D01*
X-3158109Y-2830322D01*
X-3157993Y-2830324D01*
X-3157878Y-2830329D01*
X-3157762Y-2830339D01*
X-3157647Y-2830352D01*
X-3157533Y-2830368D01*
X-3157419Y-2830389D01*
X-3157305Y-2830413D01*
X-3157193Y-2830441D01*
X-3157082Y-2830472D01*
X-3156971Y-2830507D01*
X-3156862Y-2830545D01*
X-3156754Y-2830587D01*
X-3156648Y-2830632D01*
X-3156542Y-2830681D01*
X-3156439Y-2830733D01*
X-3156337Y-2830788D01*
X-3156238Y-2830847D01*
X-3156140Y-2830909D01*
X-3156044Y-2830974D01*
X-3155950Y-2831042D01*
X-3159068Y-2833920D02*
X-3159143Y-2833874D01*
X-3159216Y-2833824D01*
X-3159286Y-2833771D01*
X-3159354Y-2833715D01*
X-3159419Y-2833656D01*
X-3159482Y-2833594D01*
X-3159541Y-2833530D01*
X-3159598Y-2833462D01*
X-3159652Y-2833392D01*
X-3159702Y-2833320D01*
X-3159749Y-2833246D01*
X-3159793Y-2833170D01*
X-3159833Y-2833091D01*
X-3159869Y-2833011D01*
X-3159902Y-2832930D01*
X-3159931Y-2832847D01*
X-3159957Y-2832762D01*
X-3159979Y-2832677D01*
X-3159996Y-2832591D01*
X-3160010Y-2832504D01*
X-3160020Y-2832417D01*
X-3160026Y-2832329D01*
X-3160028Y-2832241D01*
X-3156429Y-2835360D02*
X-3156355Y-2835406D01*
X-3156282Y-2835456D01*
X-3156212Y-2835509D01*
X-3156144Y-2835565D01*
X-3156079Y-2835624D01*
X-3156016Y-2835686D01*
X-3155957Y-2835751D01*
X-3155900Y-2835818D01*
X-3155846Y-2835888D01*
X-3155796Y-2835960D01*
X-3155749Y-2836034D01*
X-3155705Y-2836110D01*
X-3155665Y-2836189D01*
X-3155629Y-2836269D01*
X-3155596Y-2836350D01*
X-3155566Y-2836433D01*
X-3155541Y-2836518D01*
X-3155519Y-2836603D01*
X-3155502Y-2836689D01*
X-3155488Y-2836776D01*
X-3155478Y-2836863D01*
X-3155472Y-2836951D01*
X-3155470Y-2837039D01*
X-3156430Y-2835360D02*
X-3159069Y-2833920D01*
X-3150119Y-2838958D02*
X-3147720Y-2838958D01*
X-3150119Y-2838958D02*
X-3150194Y-2838956D01*
X-3150269Y-2838950D01*
X-3150344Y-2838940D01*
X-3150418Y-2838927D01*
X-3150491Y-2838909D01*
X-3150564Y-2838888D01*
X-3150635Y-2838862D01*
X-3150704Y-2838834D01*
X-3150772Y-2838801D01*
X-3150839Y-2838765D01*
X-3150903Y-2838726D01*
X-3150965Y-2838683D01*
X-3151025Y-2838637D01*
X-3151082Y-2838588D01*
X-3151137Y-2838537D01*
X-3151188Y-2838482D01*
X-3151237Y-2838425D01*
X-3151283Y-2838365D01*
X-3151326Y-2838303D01*
X-3151365Y-2838239D01*
X-3151401Y-2838172D01*
X-3151434Y-2838104D01*
X-3151462Y-2838035D01*
X-3151488Y-2837964D01*
X-3151509Y-2837891D01*
X-3151527Y-2837818D01*
X-3151540Y-2837744D01*
X-3151550Y-2837669D01*
X-3151556Y-2837594D01*
X-3151558Y-2837519D01*
X-3151559Y-2837519D02*
X-3151559Y-2835120D01*
X-3151557Y-2835034D01*
X-3151551Y-2834948D01*
X-3151542Y-2834862D01*
X-3151528Y-2834777D01*
X-3151511Y-2834693D01*
X-3151490Y-2834609D01*
X-3151465Y-2834527D01*
X-3151437Y-2834446D01*
X-3151405Y-2834366D01*
X-3151369Y-2834287D01*
X-3151330Y-2834211D01*
X-3151287Y-2834136D01*
X-3151242Y-2834063D01*
X-3151193Y-2833992D01*
X-3151140Y-2833924D01*
X-3151085Y-2833857D01*
X-3151027Y-2833794D01*
X-3150966Y-2833733D01*
X-3150903Y-2833675D01*
X-3150836Y-2833620D01*
X-3150768Y-2833567D01*
X-3150697Y-2833518D01*
X-3150624Y-2833473D01*
X-3150549Y-2833430D01*
X-3150473Y-2833391D01*
X-3150394Y-2833355D01*
X-3150314Y-2833323D01*
X-3150233Y-2833295D01*
X-3150151Y-2833270D01*
X-3150067Y-2833249D01*
X-3149983Y-2833232D01*
X-3149898Y-2833218D01*
X-3149812Y-2833209D01*
X-3149726Y-2833203D01*
X-3149640Y-2833201D01*
X-3149554Y-2833203D01*
X-3149468Y-2833209D01*
X-3149382Y-2833218D01*
X-3149297Y-2833232D01*
X-3149213Y-2833249D01*
X-3149129Y-2833270D01*
X-3149047Y-2833295D01*
X-3148966Y-2833323D01*
X-3148886Y-2833355D01*
X-3148807Y-2833391D01*
X-3148731Y-2833430D01*
X-3148656Y-2833473D01*
X-3148583Y-2833518D01*
X-3148512Y-2833567D01*
X-3148444Y-2833620D01*
X-3148377Y-2833675D01*
X-3148314Y-2833733D01*
X-3148253Y-2833794D01*
X-3148195Y-2833857D01*
X-3148140Y-2833924D01*
X-3148087Y-2833992D01*
X-3148038Y-2834063D01*
X-3147993Y-2834136D01*
X-3147950Y-2834211D01*
X-3147911Y-2834287D01*
X-3147875Y-2834366D01*
X-3147843Y-2834446D01*
X-3147815Y-2834527D01*
X-3147790Y-2834609D01*
X-3147769Y-2834693D01*
X-3147752Y-2834777D01*
X-3147738Y-2834862D01*
X-3147729Y-2834948D01*
X-3147723Y-2835034D01*
X-3147721Y-2835120D01*
X-3147720Y-2835120D02*
X-3147720Y-2836079D01*
X-3151559Y-2836079D01*
X-3143329Y-2833201D02*
X-3143329Y-2838958D01*
X-3143329Y-2833201D02*
X-3140930Y-2833201D01*
X-3140855Y-2833203D01*
X-3140780Y-2833209D01*
X-3140705Y-2833219D01*
X-3140631Y-2833232D01*
X-3140558Y-2833250D01*
X-3140485Y-2833271D01*
X-3140414Y-2833297D01*
X-3140345Y-2833325D01*
X-3140277Y-2833358D01*
X-3140211Y-2833394D01*
X-3140146Y-2833433D01*
X-3140084Y-2833476D01*
X-3140024Y-2833522D01*
X-3139967Y-2833571D01*
X-3139912Y-2833622D01*
X-3139861Y-2833677D01*
X-3139812Y-2833734D01*
X-3139766Y-2833794D01*
X-3139723Y-2833856D01*
X-3139684Y-2833920D01*
X-3139648Y-2833987D01*
X-3139615Y-2834055D01*
X-3139587Y-2834124D01*
X-3139561Y-2834195D01*
X-3139540Y-2834268D01*
X-3139522Y-2834341D01*
X-3139509Y-2834415D01*
X-3139499Y-2834490D01*
X-3139493Y-2834565D01*
X-3139491Y-2834640D01*
X-3139491Y-2838958D01*
X-3134380Y-2835600D02*
X-3131981Y-2836559D01*
X-3134380Y-2835600D02*
X-3134443Y-2835573D01*
X-3134505Y-2835542D01*
X-3134565Y-2835507D01*
X-3134623Y-2835470D01*
X-3134679Y-2835429D01*
X-3134732Y-2835386D01*
X-3134783Y-2835339D01*
X-3134831Y-2835290D01*
X-3134877Y-2835238D01*
X-3134919Y-2835183D01*
X-3134959Y-2835126D01*
X-3134995Y-2835068D01*
X-3135028Y-2835007D01*
X-3135057Y-2834945D01*
X-3135083Y-2834881D01*
X-3135106Y-2834815D01*
X-3135124Y-2834749D01*
X-3135139Y-2834681D01*
X-3135151Y-2834613D01*
X-3135158Y-2834545D01*
X-3135162Y-2834476D01*
X-3135161Y-2834407D01*
X-3135157Y-2834338D01*
X-3135149Y-2834269D01*
X-3135138Y-2834201D01*
X-3135122Y-2834134D01*
X-3135103Y-2834067D01*
X-3135081Y-2834002D01*
X-3135054Y-2833938D01*
X-3135024Y-2833876D01*
X-3134991Y-2833816D01*
X-3134954Y-2833757D01*
X-3134915Y-2833701D01*
X-3134872Y-2833646D01*
X-3134826Y-2833595D01*
X-3134778Y-2833546D01*
X-3134726Y-2833499D01*
X-3134673Y-2833456D01*
X-3134617Y-2833416D01*
X-3134558Y-2833379D01*
X-3134498Y-2833345D01*
X-3134436Y-2833314D01*
X-3134373Y-2833287D01*
X-3134308Y-2833264D01*
X-3134242Y-2833244D01*
X-3134175Y-2833228D01*
X-3134107Y-2833215D01*
X-3134038Y-2833207D01*
X-3133969Y-2833202D01*
X-3133900Y-2833201D01*
X-3133761Y-2833204D01*
X-3133622Y-2833212D01*
X-3133483Y-2833223D01*
X-3133345Y-2833237D01*
X-3133207Y-2833255D01*
X-3133069Y-2833276D01*
X-3132932Y-2833301D01*
X-3132796Y-2833330D01*
X-3132660Y-2833362D01*
X-3132526Y-2833397D01*
X-3132392Y-2833436D01*
X-3132259Y-2833478D01*
X-3132128Y-2833524D01*
X-3131998Y-2833573D01*
X-3131869Y-2833625D01*
X-3131741Y-2833680D01*
X-3131981Y-2836559D02*
X-3131918Y-2836586D01*
X-3131856Y-2836617D01*
X-3131796Y-2836652D01*
X-3131738Y-2836689D01*
X-3131682Y-2836730D01*
X-3131629Y-2836773D01*
X-3131578Y-2836820D01*
X-3131530Y-2836869D01*
X-3131484Y-2836921D01*
X-3131442Y-2836976D01*
X-3131402Y-2837033D01*
X-3131366Y-2837091D01*
X-3131333Y-2837152D01*
X-3131304Y-2837215D01*
X-3131278Y-2837278D01*
X-3131255Y-2837344D01*
X-3131237Y-2837410D01*
X-3131222Y-2837478D01*
X-3131210Y-2837546D01*
X-3131203Y-2837614D01*
X-3131199Y-2837683D01*
X-3131200Y-2837752D01*
X-3131204Y-2837821D01*
X-3131212Y-2837890D01*
X-3131223Y-2837958D01*
X-3131239Y-2838025D01*
X-3131258Y-2838092D01*
X-3131280Y-2838157D01*
X-3131307Y-2838221D01*
X-3131337Y-2838283D01*
X-3131370Y-2838343D01*
X-3131407Y-2838402D01*
X-3131446Y-2838458D01*
X-3131489Y-2838513D01*
X-3131535Y-2838564D01*
X-3131583Y-2838613D01*
X-3131635Y-2838660D01*
X-3131688Y-2838703D01*
X-3131744Y-2838743D01*
X-3131803Y-2838780D01*
X-3131863Y-2838814D01*
X-3131925Y-2838845D01*
X-3131988Y-2838872D01*
X-3132053Y-2838895D01*
X-3132119Y-2838915D01*
X-3132186Y-2838931D01*
X-3132254Y-2838944D01*
X-3132323Y-2838952D01*
X-3132392Y-2838957D01*
X-3132461Y-2838958D01*
X-3132460Y-2838957D02*
X-3132653Y-2838952D01*
X-3132845Y-2838943D01*
X-3133037Y-2838928D01*
X-3133228Y-2838910D01*
X-3133419Y-2838887D01*
X-3133610Y-2838859D01*
X-3133800Y-2838827D01*
X-3133988Y-2838790D01*
X-3134176Y-2838749D01*
X-3134363Y-2838703D01*
X-3134549Y-2838653D01*
X-3134734Y-2838599D01*
X-3134917Y-2838540D01*
X-3135099Y-2838477D01*
X-3127389Y-2838958D02*
X-3127389Y-2833201D01*
X-3127629Y-2830802D02*
X-3127629Y-2830322D01*
X-3127149Y-2830322D01*
X-3127149Y-2830802D01*
X-3127629Y-2830802D01*
X-3123136Y-2833201D02*
X-3123136Y-2838958D01*
X-3123136Y-2833201D02*
X-3120257Y-2833201D01*
X-3120257Y-2834160D01*
X-3117331Y-2833201D02*
X-3117331Y-2838958D01*
X-3117571Y-2830802D02*
X-3117571Y-2830322D01*
X-3117091Y-2830322D01*
X-3117091Y-2830802D01*
X-3117571Y-2830802D01*
X-3113459Y-2835120D02*
X-3113459Y-2837039D01*
X-3113459Y-2835120D02*
X-3113457Y-2835034D01*
X-3113451Y-2834948D01*
X-3113442Y-2834862D01*
X-3113428Y-2834777D01*
X-3113411Y-2834693D01*
X-3113390Y-2834609D01*
X-3113365Y-2834527D01*
X-3113337Y-2834446D01*
X-3113305Y-2834366D01*
X-3113269Y-2834287D01*
X-3113230Y-2834211D01*
X-3113187Y-2834136D01*
X-3113142Y-2834063D01*
X-3113093Y-2833992D01*
X-3113040Y-2833924D01*
X-3112985Y-2833857D01*
X-3112927Y-2833794D01*
X-3112866Y-2833733D01*
X-3112803Y-2833675D01*
X-3112736Y-2833620D01*
X-3112668Y-2833567D01*
X-3112597Y-2833518D01*
X-3112524Y-2833473D01*
X-3112449Y-2833430D01*
X-3112373Y-2833391D01*
X-3112294Y-2833355D01*
X-3112214Y-2833323D01*
X-3112133Y-2833295D01*
X-3112051Y-2833270D01*
X-3111967Y-2833249D01*
X-3111883Y-2833232D01*
X-3111798Y-2833218D01*
X-3111712Y-2833209D01*
X-3111626Y-2833203D01*
X-3111540Y-2833201D01*
X-3111454Y-2833203D01*
X-3111368Y-2833209D01*
X-3111282Y-2833218D01*
X-3111197Y-2833232D01*
X-3111113Y-2833249D01*
X-3111029Y-2833270D01*
X-3110947Y-2833295D01*
X-3110866Y-2833323D01*
X-3110786Y-2833355D01*
X-3110707Y-2833391D01*
X-3110631Y-2833430D01*
X-3110556Y-2833473D01*
X-3110483Y-2833518D01*
X-3110412Y-2833567D01*
X-3110344Y-2833620D01*
X-3110277Y-2833675D01*
X-3110214Y-2833733D01*
X-3110153Y-2833794D01*
X-3110095Y-2833857D01*
X-3110040Y-2833924D01*
X-3109987Y-2833992D01*
X-3109938Y-2834063D01*
X-3109893Y-2834136D01*
X-3109850Y-2834211D01*
X-3109811Y-2834287D01*
X-3109775Y-2834366D01*
X-3109743Y-2834446D01*
X-3109715Y-2834527D01*
X-3109690Y-2834609D01*
X-3109669Y-2834693D01*
X-3109652Y-2834777D01*
X-3109638Y-2834862D01*
X-3109629Y-2834948D01*
X-3109623Y-2835034D01*
X-3109621Y-2835120D01*
X-3109621Y-2837039D01*
X-3109623Y-2837125D01*
X-3109629Y-2837211D01*
X-3109638Y-2837297D01*
X-3109652Y-2837382D01*
X-3109669Y-2837466D01*
X-3109690Y-2837550D01*
X-3109715Y-2837632D01*
X-3109743Y-2837713D01*
X-3109775Y-2837793D01*
X-3109811Y-2837872D01*
X-3109850Y-2837948D01*
X-3109893Y-2838023D01*
X-3109938Y-2838096D01*
X-3109987Y-2838167D01*
X-3110040Y-2838235D01*
X-3110095Y-2838302D01*
X-3110153Y-2838365D01*
X-3110214Y-2838426D01*
X-3110277Y-2838484D01*
X-3110344Y-2838539D01*
X-3110412Y-2838592D01*
X-3110483Y-2838641D01*
X-3110556Y-2838686D01*
X-3110631Y-2838729D01*
X-3110707Y-2838768D01*
X-3110786Y-2838804D01*
X-3110866Y-2838836D01*
X-3110947Y-2838864D01*
X-3111029Y-2838889D01*
X-3111113Y-2838910D01*
X-3111197Y-2838927D01*
X-3111282Y-2838941D01*
X-3111368Y-2838950D01*
X-3111454Y-2838956D01*
X-3111540Y-2838958D01*
X-3111626Y-2838956D01*
X-3111712Y-2838950D01*
X-3111798Y-2838941D01*
X-3111883Y-2838927D01*
X-3111967Y-2838910D01*
X-3112051Y-2838889D01*
X-3112133Y-2838864D01*
X-3112214Y-2838836D01*
X-3112294Y-2838804D01*
X-3112373Y-2838768D01*
X-3112449Y-2838729D01*
X-3112524Y-2838686D01*
X-3112597Y-2838641D01*
X-3112668Y-2838592D01*
X-3112736Y-2838539D01*
X-3112803Y-2838484D01*
X-3112866Y-2838426D01*
X-3112927Y-2838365D01*
X-3112985Y-2838302D01*
X-3113040Y-2838235D01*
X-3113093Y-2838167D01*
X-3113142Y-2838096D01*
X-3113187Y-2838023D01*
X-3113230Y-2837948D01*
X-3113269Y-2837872D01*
X-3113305Y-2837793D01*
X-3113337Y-2837713D01*
X-3113365Y-2837632D01*
X-3113390Y-2837550D01*
X-3113411Y-2837466D01*
X-3113428Y-2837382D01*
X-3113442Y-2837297D01*
X-3113451Y-2837211D01*
X-3113457Y-2837125D01*
X-3113459Y-2837039D01*
X-3105229Y-2838958D02*
X-3105229Y-2833201D01*
X-3102830Y-2833201D01*
X-3102755Y-2833203D01*
X-3102680Y-2833209D01*
X-3102605Y-2833219D01*
X-3102531Y-2833232D01*
X-3102458Y-2833250D01*
X-3102385Y-2833271D01*
X-3102314Y-2833297D01*
X-3102245Y-2833325D01*
X-3102177Y-2833358D01*
X-3102111Y-2833394D01*
X-3102046Y-2833433D01*
X-3101984Y-2833476D01*
X-3101924Y-2833522D01*
X-3101867Y-2833571D01*
X-3101812Y-2833622D01*
X-3101761Y-2833677D01*
X-3101712Y-2833734D01*
X-3101666Y-2833794D01*
X-3101623Y-2833856D01*
X-3101584Y-2833920D01*
X-3101548Y-2833987D01*
X-3101515Y-2834055D01*
X-3101487Y-2834124D01*
X-3101461Y-2834195D01*
X-3101440Y-2834268D01*
X-3101422Y-2834341D01*
X-3101409Y-2834415D01*
X-3101399Y-2834490D01*
X-3101393Y-2834565D01*
X-3101391Y-2834640D01*
X-3101391Y-2838958D01*
X-3156430Y-2854198D02*
X-3158349Y-2854198D01*
X-3158435Y-2854196D01*
X-3158521Y-2854190D01*
X-3158607Y-2854181D01*
X-3158692Y-2854167D01*
X-3158776Y-2854150D01*
X-3158860Y-2854129D01*
X-3158942Y-2854104D01*
X-3159023Y-2854076D01*
X-3159103Y-2854044D01*
X-3159182Y-2854008D01*
X-3159258Y-2853969D01*
X-3159333Y-2853926D01*
X-3159406Y-2853881D01*
X-3159477Y-2853832D01*
X-3159545Y-2853779D01*
X-3159612Y-2853724D01*
X-3159675Y-2853666D01*
X-3159736Y-2853605D01*
X-3159794Y-2853542D01*
X-3159849Y-2853475D01*
X-3159902Y-2853407D01*
X-3159951Y-2853336D01*
X-3159996Y-2853263D01*
X-3160039Y-2853188D01*
X-3160078Y-2853112D01*
X-3160114Y-2853033D01*
X-3160146Y-2852953D01*
X-3160174Y-2852872D01*
X-3160199Y-2852790D01*
X-3160220Y-2852706D01*
X-3160237Y-2852622D01*
X-3160251Y-2852537D01*
X-3160260Y-2852451D01*
X-3160266Y-2852365D01*
X-3160268Y-2852279D01*
X-3160268Y-2847481D01*
X-3160266Y-2847395D01*
X-3160260Y-2847309D01*
X-3160251Y-2847223D01*
X-3160237Y-2847138D01*
X-3160220Y-2847054D01*
X-3160199Y-2846970D01*
X-3160174Y-2846888D01*
X-3160146Y-2846807D01*
X-3160114Y-2846727D01*
X-3160078Y-2846648D01*
X-3160039Y-2846572D01*
X-3159996Y-2846497D01*
X-3159951Y-2846424D01*
X-3159902Y-2846353D01*
X-3159849Y-2846285D01*
X-3159794Y-2846218D01*
X-3159736Y-2846155D01*
X-3159675Y-2846094D01*
X-3159612Y-2846036D01*
X-3159546Y-2845981D01*
X-3159477Y-2845929D01*
X-3159406Y-2845879D01*
X-3159333Y-2845834D01*
X-3159258Y-2845791D01*
X-3159182Y-2845752D01*
X-3159103Y-2845716D01*
X-3159023Y-2845684D01*
X-3158942Y-2845656D01*
X-3158860Y-2845631D01*
X-3158776Y-2845610D01*
X-3158692Y-2845593D01*
X-3158607Y-2845579D01*
X-3158521Y-2845570D01*
X-3158435Y-2845564D01*
X-3158349Y-2845562D01*
X-3156430Y-2845562D01*
X-3152740Y-2850360D02*
X-3152740Y-2852279D01*
X-3152740Y-2850360D02*
X-3152738Y-2850274D01*
X-3152732Y-2850188D01*
X-3152723Y-2850102D01*
X-3152709Y-2850017D01*
X-3152692Y-2849933D01*
X-3152671Y-2849849D01*
X-3152646Y-2849767D01*
X-3152618Y-2849686D01*
X-3152586Y-2849606D01*
X-3152550Y-2849527D01*
X-3152511Y-2849451D01*
X-3152468Y-2849376D01*
X-3152423Y-2849303D01*
X-3152374Y-2849232D01*
X-3152321Y-2849164D01*
X-3152266Y-2849097D01*
X-3152208Y-2849034D01*
X-3152147Y-2848973D01*
X-3152084Y-2848915D01*
X-3152017Y-2848860D01*
X-3151949Y-2848807D01*
X-3151878Y-2848758D01*
X-3151805Y-2848713D01*
X-3151730Y-2848670D01*
X-3151654Y-2848631D01*
X-3151575Y-2848595D01*
X-3151495Y-2848563D01*
X-3151414Y-2848535D01*
X-3151332Y-2848510D01*
X-3151248Y-2848489D01*
X-3151164Y-2848472D01*
X-3151079Y-2848458D01*
X-3150993Y-2848449D01*
X-3150907Y-2848443D01*
X-3150821Y-2848441D01*
X-3150735Y-2848443D01*
X-3150649Y-2848449D01*
X-3150563Y-2848458D01*
X-3150478Y-2848472D01*
X-3150394Y-2848489D01*
X-3150310Y-2848510D01*
X-3150228Y-2848535D01*
X-3150147Y-2848563D01*
X-3150067Y-2848595D01*
X-3149988Y-2848631D01*
X-3149912Y-2848670D01*
X-3149837Y-2848713D01*
X-3149764Y-2848758D01*
X-3149693Y-2848807D01*
X-3149625Y-2848860D01*
X-3149558Y-2848915D01*
X-3149495Y-2848973D01*
X-3149434Y-2849034D01*
X-3149376Y-2849097D01*
X-3149321Y-2849164D01*
X-3149268Y-2849232D01*
X-3149219Y-2849303D01*
X-3149174Y-2849376D01*
X-3149131Y-2849451D01*
X-3149092Y-2849527D01*
X-3149056Y-2849606D01*
X-3149024Y-2849686D01*
X-3148996Y-2849767D01*
X-3148971Y-2849849D01*
X-3148950Y-2849933D01*
X-3148933Y-2850017D01*
X-3148919Y-2850102D01*
X-3148910Y-2850188D01*
X-3148904Y-2850274D01*
X-3148902Y-2850360D01*
X-3148901Y-2850360D02*
X-3148901Y-2852279D01*
X-3148902Y-2852279D02*
X-3148904Y-2852365D01*
X-3148910Y-2852451D01*
X-3148919Y-2852537D01*
X-3148933Y-2852622D01*
X-3148950Y-2852706D01*
X-3148971Y-2852790D01*
X-3148996Y-2852872D01*
X-3149024Y-2852953D01*
X-3149056Y-2853033D01*
X-3149092Y-2853112D01*
X-3149131Y-2853188D01*
X-3149174Y-2853263D01*
X-3149219Y-2853336D01*
X-3149268Y-2853407D01*
X-3149321Y-2853475D01*
X-3149376Y-2853542D01*
X-3149434Y-2853605D01*
X-3149495Y-2853666D01*
X-3149558Y-2853724D01*
X-3149625Y-2853779D01*
X-3149693Y-2853832D01*
X-3149764Y-2853881D01*
X-3149837Y-2853926D01*
X-3149912Y-2853969D01*
X-3149988Y-2854008D01*
X-3150067Y-2854044D01*
X-3150147Y-2854076D01*
X-3150228Y-2854104D01*
X-3150310Y-2854129D01*
X-3150394Y-2854150D01*
X-3150478Y-2854167D01*
X-3150563Y-2854181D01*
X-3150649Y-2854190D01*
X-3150735Y-2854196D01*
X-3150821Y-2854198D01*
X-3150907Y-2854196D01*
X-3150993Y-2854190D01*
X-3151079Y-2854181D01*
X-3151164Y-2854167D01*
X-3151248Y-2854150D01*
X-3151332Y-2854129D01*
X-3151414Y-2854104D01*
X-3151495Y-2854076D01*
X-3151575Y-2854044D01*
X-3151654Y-2854008D01*
X-3151730Y-2853969D01*
X-3151805Y-2853926D01*
X-3151878Y-2853881D01*
X-3151949Y-2853832D01*
X-3152017Y-2853779D01*
X-3152084Y-2853724D01*
X-3152147Y-2853666D01*
X-3152208Y-2853605D01*
X-3152266Y-2853542D01*
X-3152321Y-2853475D01*
X-3152374Y-2853407D01*
X-3152423Y-2853336D01*
X-3152468Y-2853263D01*
X-3152511Y-2853188D01*
X-3152550Y-2853112D01*
X-3152586Y-2853033D01*
X-3152618Y-2852953D01*
X-3152646Y-2852872D01*
X-3152671Y-2852790D01*
X-3152692Y-2852706D01*
X-3152709Y-2852622D01*
X-3152723Y-2852537D01*
X-3152732Y-2852451D01*
X-3152738Y-2852365D01*
X-3152740Y-2852279D01*
X-3144510Y-2854198D02*
X-3144510Y-2848441D01*
X-3142111Y-2848441D01*
X-3142036Y-2848443D01*
X-3141961Y-2848449D01*
X-3141886Y-2848459D01*
X-3141812Y-2848472D01*
X-3141739Y-2848490D01*
X-3141666Y-2848511D01*
X-3141595Y-2848537D01*
X-3141526Y-2848565D01*
X-3141458Y-2848598D01*
X-3141392Y-2848634D01*
X-3141327Y-2848673D01*
X-3141265Y-2848716D01*
X-3141205Y-2848762D01*
X-3141148Y-2848811D01*
X-3141093Y-2848862D01*
X-3141042Y-2848917D01*
X-3140993Y-2848974D01*
X-3140947Y-2849034D01*
X-3140904Y-2849096D01*
X-3140865Y-2849160D01*
X-3140829Y-2849227D01*
X-3140796Y-2849295D01*
X-3140768Y-2849364D01*
X-3140742Y-2849435D01*
X-3140721Y-2849508D01*
X-3140703Y-2849581D01*
X-3140690Y-2849655D01*
X-3140680Y-2849730D01*
X-3140674Y-2849805D01*
X-3140672Y-2849880D01*
X-3140672Y-2854198D01*
X-3135976Y-2854198D02*
X-3135976Y-2848441D01*
X-3133577Y-2848441D01*
X-3133502Y-2848443D01*
X-3133427Y-2848449D01*
X-3133352Y-2848459D01*
X-3133278Y-2848472D01*
X-3133205Y-2848490D01*
X-3133132Y-2848511D01*
X-3133061Y-2848537D01*
X-3132992Y-2848565D01*
X-3132924Y-2848598D01*
X-3132858Y-2848634D01*
X-3132793Y-2848673D01*
X-3132731Y-2848716D01*
X-3132671Y-2848762D01*
X-3132614Y-2848811D01*
X-3132559Y-2848862D01*
X-3132508Y-2848917D01*
X-3132459Y-2848974D01*
X-3132413Y-2849034D01*
X-3132370Y-2849096D01*
X-3132331Y-2849160D01*
X-3132295Y-2849227D01*
X-3132262Y-2849295D01*
X-3132234Y-2849364D01*
X-3132208Y-2849435D01*
X-3132187Y-2849508D01*
X-3132169Y-2849581D01*
X-3132156Y-2849655D01*
X-3132146Y-2849730D01*
X-3132140Y-2849805D01*
X-3132138Y-2849880D01*
X-3132138Y-2854198D01*
X-3126307Y-2854198D02*
X-3123908Y-2854198D01*
X-3126307Y-2854198D02*
X-3126382Y-2854196D01*
X-3126457Y-2854190D01*
X-3126532Y-2854180D01*
X-3126606Y-2854167D01*
X-3126679Y-2854149D01*
X-3126752Y-2854128D01*
X-3126823Y-2854102D01*
X-3126892Y-2854074D01*
X-3126960Y-2854041D01*
X-3127027Y-2854005D01*
X-3127091Y-2853966D01*
X-3127153Y-2853923D01*
X-3127213Y-2853877D01*
X-3127270Y-2853828D01*
X-3127325Y-2853777D01*
X-3127376Y-2853722D01*
X-3127425Y-2853665D01*
X-3127471Y-2853605D01*
X-3127514Y-2853543D01*
X-3127553Y-2853479D01*
X-3127589Y-2853412D01*
X-3127622Y-2853344D01*
X-3127650Y-2853275D01*
X-3127676Y-2853204D01*
X-3127697Y-2853131D01*
X-3127715Y-2853058D01*
X-3127728Y-2852984D01*
X-3127738Y-2852909D01*
X-3127744Y-2852834D01*
X-3127746Y-2852759D01*
X-3127746Y-2850360D01*
X-3127744Y-2850274D01*
X-3127738Y-2850188D01*
X-3127729Y-2850102D01*
X-3127715Y-2850017D01*
X-3127698Y-2849933D01*
X-3127677Y-2849849D01*
X-3127652Y-2849767D01*
X-3127624Y-2849686D01*
X-3127592Y-2849606D01*
X-3127556Y-2849527D01*
X-3127517Y-2849451D01*
X-3127474Y-2849376D01*
X-3127429Y-2849303D01*
X-3127380Y-2849232D01*
X-3127327Y-2849164D01*
X-3127272Y-2849097D01*
X-3127214Y-2849034D01*
X-3127153Y-2848973D01*
X-3127090Y-2848915D01*
X-3127023Y-2848860D01*
X-3126955Y-2848807D01*
X-3126884Y-2848758D01*
X-3126811Y-2848713D01*
X-3126736Y-2848670D01*
X-3126660Y-2848631D01*
X-3126581Y-2848595D01*
X-3126501Y-2848563D01*
X-3126420Y-2848535D01*
X-3126338Y-2848510D01*
X-3126254Y-2848489D01*
X-3126170Y-2848472D01*
X-3126085Y-2848458D01*
X-3125999Y-2848449D01*
X-3125913Y-2848443D01*
X-3125827Y-2848441D01*
X-3125741Y-2848443D01*
X-3125655Y-2848449D01*
X-3125569Y-2848458D01*
X-3125484Y-2848472D01*
X-3125400Y-2848489D01*
X-3125316Y-2848510D01*
X-3125234Y-2848535D01*
X-3125153Y-2848563D01*
X-3125073Y-2848595D01*
X-3124994Y-2848631D01*
X-3124918Y-2848670D01*
X-3124843Y-2848713D01*
X-3124770Y-2848758D01*
X-3124699Y-2848807D01*
X-3124631Y-2848860D01*
X-3124564Y-2848915D01*
X-3124501Y-2848973D01*
X-3124440Y-2849034D01*
X-3124382Y-2849097D01*
X-3124327Y-2849164D01*
X-3124274Y-2849232D01*
X-3124225Y-2849303D01*
X-3124180Y-2849376D01*
X-3124137Y-2849451D01*
X-3124098Y-2849527D01*
X-3124062Y-2849606D01*
X-3124030Y-2849686D01*
X-3124002Y-2849767D01*
X-3123977Y-2849849D01*
X-3123956Y-2849933D01*
X-3123939Y-2850017D01*
X-3123925Y-2850102D01*
X-3123916Y-2850188D01*
X-3123910Y-2850274D01*
X-3123908Y-2850360D01*
X-3123908Y-2851319D01*
X-3127746Y-2851319D01*
X-3118367Y-2854198D02*
X-3116448Y-2854198D01*
X-3118367Y-2854198D02*
X-3118442Y-2854196D01*
X-3118517Y-2854190D01*
X-3118592Y-2854180D01*
X-3118666Y-2854167D01*
X-3118739Y-2854149D01*
X-3118812Y-2854128D01*
X-3118883Y-2854102D01*
X-3118952Y-2854074D01*
X-3119020Y-2854041D01*
X-3119087Y-2854005D01*
X-3119151Y-2853966D01*
X-3119213Y-2853923D01*
X-3119273Y-2853877D01*
X-3119330Y-2853828D01*
X-3119385Y-2853777D01*
X-3119436Y-2853722D01*
X-3119485Y-2853665D01*
X-3119531Y-2853605D01*
X-3119574Y-2853543D01*
X-3119613Y-2853479D01*
X-3119649Y-2853412D01*
X-3119682Y-2853344D01*
X-3119710Y-2853275D01*
X-3119736Y-2853204D01*
X-3119757Y-2853131D01*
X-3119775Y-2853058D01*
X-3119788Y-2852984D01*
X-3119798Y-2852909D01*
X-3119804Y-2852834D01*
X-3119806Y-2852759D01*
X-3119806Y-2849880D01*
X-3119804Y-2849805D01*
X-3119798Y-2849730D01*
X-3119788Y-2849655D01*
X-3119775Y-2849581D01*
X-3119757Y-2849508D01*
X-3119736Y-2849435D01*
X-3119710Y-2849364D01*
X-3119682Y-2849295D01*
X-3119649Y-2849227D01*
X-3119613Y-2849161D01*
X-3119574Y-2849096D01*
X-3119531Y-2849034D01*
X-3119485Y-2848974D01*
X-3119436Y-2848917D01*
X-3119385Y-2848862D01*
X-3119330Y-2848811D01*
X-3119273Y-2848762D01*
X-3119213Y-2848716D01*
X-3119151Y-2848673D01*
X-3119087Y-2848634D01*
X-3119020Y-2848598D01*
X-3118952Y-2848565D01*
X-3118883Y-2848537D01*
X-3118812Y-2848511D01*
X-3118739Y-2848490D01*
X-3118666Y-2848472D01*
X-3118592Y-2848459D01*
X-3118517Y-2848449D01*
X-3118442Y-2848443D01*
X-3118367Y-2848441D01*
X-3116448Y-2848441D01*
X-3113657Y-2848441D02*
X-3110778Y-2848441D01*
X-3112697Y-2845562D02*
X-3112697Y-2852759D01*
X-3112695Y-2852834D01*
X-3112689Y-2852909D01*
X-3112679Y-2852984D01*
X-3112666Y-2853058D01*
X-3112648Y-2853131D01*
X-3112627Y-2853204D01*
X-3112601Y-2853275D01*
X-3112573Y-2853344D01*
X-3112540Y-2853412D01*
X-3112504Y-2853479D01*
X-3112465Y-2853543D01*
X-3112422Y-2853605D01*
X-3112376Y-2853665D01*
X-3112327Y-2853722D01*
X-3112276Y-2853777D01*
X-3112221Y-2853828D01*
X-3112164Y-2853877D01*
X-3112104Y-2853923D01*
X-3112042Y-2853966D01*
X-3111978Y-2854005D01*
X-3111911Y-2854041D01*
X-3111843Y-2854074D01*
X-3111774Y-2854102D01*
X-3111703Y-2854128D01*
X-3111630Y-2854149D01*
X-3111557Y-2854167D01*
X-3111483Y-2854180D01*
X-3111408Y-2854190D01*
X-3111333Y-2854196D01*
X-3111258Y-2854198D01*
X-3110778Y-2854198D01*
X-3107020Y-2852279D02*
X-3107020Y-2850360D01*
X-3107018Y-2850274D01*
X-3107012Y-2850188D01*
X-3107003Y-2850102D01*
X-3106989Y-2850017D01*
X-3106972Y-2849933D01*
X-3106951Y-2849849D01*
X-3106926Y-2849767D01*
X-3106898Y-2849686D01*
X-3106866Y-2849606D01*
X-3106830Y-2849527D01*
X-3106791Y-2849451D01*
X-3106748Y-2849376D01*
X-3106703Y-2849303D01*
X-3106654Y-2849232D01*
X-3106601Y-2849164D01*
X-3106546Y-2849097D01*
X-3106488Y-2849034D01*
X-3106427Y-2848973D01*
X-3106364Y-2848915D01*
X-3106297Y-2848860D01*
X-3106229Y-2848807D01*
X-3106158Y-2848758D01*
X-3106085Y-2848713D01*
X-3106010Y-2848670D01*
X-3105934Y-2848631D01*
X-3105855Y-2848595D01*
X-3105775Y-2848563D01*
X-3105694Y-2848535D01*
X-3105612Y-2848510D01*
X-3105528Y-2848489D01*
X-3105444Y-2848472D01*
X-3105359Y-2848458D01*
X-3105273Y-2848449D01*
X-3105187Y-2848443D01*
X-3105101Y-2848441D01*
X-3105015Y-2848443D01*
X-3104929Y-2848449D01*
X-3104843Y-2848458D01*
X-3104758Y-2848472D01*
X-3104674Y-2848489D01*
X-3104590Y-2848510D01*
X-3104508Y-2848535D01*
X-3104427Y-2848563D01*
X-3104347Y-2848595D01*
X-3104268Y-2848631D01*
X-3104192Y-2848670D01*
X-3104117Y-2848713D01*
X-3104044Y-2848758D01*
X-3103973Y-2848807D01*
X-3103905Y-2848860D01*
X-3103838Y-2848915D01*
X-3103775Y-2848973D01*
X-3103714Y-2849034D01*
X-3103656Y-2849097D01*
X-3103601Y-2849164D01*
X-3103548Y-2849232D01*
X-3103499Y-2849303D01*
X-3103454Y-2849376D01*
X-3103411Y-2849451D01*
X-3103372Y-2849527D01*
X-3103336Y-2849606D01*
X-3103304Y-2849686D01*
X-3103276Y-2849767D01*
X-3103251Y-2849849D01*
X-3103230Y-2849933D01*
X-3103213Y-2850017D01*
X-3103199Y-2850102D01*
X-3103190Y-2850188D01*
X-3103184Y-2850274D01*
X-3103182Y-2850360D01*
X-3103182Y-2852279D01*
X-3103184Y-2852365D01*
X-3103190Y-2852451D01*
X-3103199Y-2852537D01*
X-3103213Y-2852622D01*
X-3103230Y-2852706D01*
X-3103251Y-2852790D01*
X-3103276Y-2852872D01*
X-3103304Y-2852953D01*
X-3103336Y-2853033D01*
X-3103372Y-2853112D01*
X-3103411Y-2853188D01*
X-3103454Y-2853263D01*
X-3103499Y-2853336D01*
X-3103548Y-2853407D01*
X-3103601Y-2853475D01*
X-3103656Y-2853542D01*
X-3103714Y-2853605D01*
X-3103775Y-2853666D01*
X-3103838Y-2853724D01*
X-3103905Y-2853779D01*
X-3103973Y-2853832D01*
X-3104044Y-2853881D01*
X-3104117Y-2853926D01*
X-3104192Y-2853969D01*
X-3104268Y-2854008D01*
X-3104347Y-2854044D01*
X-3104427Y-2854076D01*
X-3104508Y-2854104D01*
X-3104590Y-2854129D01*
X-3104674Y-2854150D01*
X-3104758Y-2854167D01*
X-3104843Y-2854181D01*
X-3104929Y-2854190D01*
X-3105015Y-2854196D01*
X-3105101Y-2854198D01*
X-3105187Y-2854196D01*
X-3105273Y-2854190D01*
X-3105359Y-2854181D01*
X-3105444Y-2854167D01*
X-3105528Y-2854150D01*
X-3105612Y-2854129D01*
X-3105694Y-2854104D01*
X-3105775Y-2854076D01*
X-3105855Y-2854044D01*
X-3105934Y-2854008D01*
X-3106010Y-2853969D01*
X-3106085Y-2853926D01*
X-3106158Y-2853881D01*
X-3106229Y-2853832D01*
X-3106297Y-2853779D01*
X-3106364Y-2853724D01*
X-3106427Y-2853666D01*
X-3106488Y-2853605D01*
X-3106546Y-2853542D01*
X-3106601Y-2853475D01*
X-3106654Y-2853407D01*
X-3106703Y-2853336D01*
X-3106748Y-2853263D01*
X-3106791Y-2853188D01*
X-3106830Y-2853112D01*
X-3106866Y-2853033D01*
X-3106898Y-2852953D01*
X-3106926Y-2852872D01*
X-3106951Y-2852790D01*
X-3106972Y-2852706D01*
X-3106989Y-2852622D01*
X-3107003Y-2852537D01*
X-3107012Y-2852451D01*
X-3107018Y-2852365D01*
X-3107020Y-2852279D01*
X-3098714Y-2854198D02*
X-3098714Y-2848441D01*
X-3095835Y-2848441D01*
X-3095835Y-2849400D01*
X-3087188Y-2845562D02*
X-3087188Y-2854198D01*
X-3087188Y-2845562D02*
X-3084789Y-2845562D01*
X-3084692Y-2845564D01*
X-3084596Y-2845570D01*
X-3084500Y-2845579D01*
X-3084404Y-2845593D01*
X-3084309Y-2845610D01*
X-3084215Y-2845632D01*
X-3084122Y-2845657D01*
X-3084029Y-2845685D01*
X-3083938Y-2845718D01*
X-3083849Y-2845754D01*
X-3083761Y-2845794D01*
X-3083674Y-2845837D01*
X-3083590Y-2845883D01*
X-3083507Y-2845933D01*
X-3083426Y-2845987D01*
X-3083348Y-2846043D01*
X-3083272Y-2846103D01*
X-3083198Y-2846165D01*
X-3083127Y-2846231D01*
X-3083059Y-2846299D01*
X-3082993Y-2846370D01*
X-3082931Y-2846444D01*
X-3082871Y-2846520D01*
X-3082815Y-2846598D01*
X-3082761Y-2846679D01*
X-3082711Y-2846762D01*
X-3082665Y-2846846D01*
X-3082622Y-2846933D01*
X-3082582Y-2847021D01*
X-3082546Y-2847110D01*
X-3082513Y-2847201D01*
X-3082485Y-2847294D01*
X-3082460Y-2847387D01*
X-3082438Y-2847481D01*
X-3082421Y-2847576D01*
X-3082407Y-2847672D01*
X-3082398Y-2847768D01*
X-3082392Y-2847864D01*
X-3082390Y-2847961D01*
X-3082392Y-2848058D01*
X-3082398Y-2848154D01*
X-3082407Y-2848250D01*
X-3082421Y-2848346D01*
X-3082438Y-2848441D01*
X-3082460Y-2848535D01*
X-3082485Y-2848628D01*
X-3082513Y-2848721D01*
X-3082546Y-2848812D01*
X-3082582Y-2848901D01*
X-3082622Y-2848989D01*
X-3082665Y-2849076D01*
X-3082711Y-2849161D01*
X-3082761Y-2849243D01*
X-3082815Y-2849324D01*
X-3082871Y-2849402D01*
X-3082931Y-2849478D01*
X-3082993Y-2849552D01*
X-3083059Y-2849623D01*
X-3083127Y-2849691D01*
X-3083198Y-2849757D01*
X-3083272Y-2849819D01*
X-3083348Y-2849879D01*
X-3083426Y-2849935D01*
X-3083507Y-2849989D01*
X-3083590Y-2850039D01*
X-3083674Y-2850085D01*
X-3083761Y-2850128D01*
X-3083849Y-2850168D01*
X-3083938Y-2850204D01*
X-3084029Y-2850237D01*
X-3084122Y-2850265D01*
X-3084215Y-2850290D01*
X-3084309Y-2850312D01*
X-3084404Y-2850329D01*
X-3084500Y-2850343D01*
X-3084596Y-2850352D01*
X-3084692Y-2850358D01*
X-3084789Y-2850360D01*
X-3087188Y-2850360D01*
X-3076663Y-2854198D02*
X-3074744Y-2854198D01*
X-3076663Y-2854198D02*
X-3076749Y-2854196D01*
X-3076835Y-2854190D01*
X-3076921Y-2854181D01*
X-3077006Y-2854167D01*
X-3077090Y-2854150D01*
X-3077174Y-2854129D01*
X-3077256Y-2854104D01*
X-3077337Y-2854076D01*
X-3077417Y-2854044D01*
X-3077496Y-2854008D01*
X-3077572Y-2853969D01*
X-3077647Y-2853926D01*
X-3077720Y-2853881D01*
X-3077791Y-2853832D01*
X-3077859Y-2853779D01*
X-3077926Y-2853724D01*
X-3077989Y-2853666D01*
X-3078050Y-2853605D01*
X-3078108Y-2853542D01*
X-3078163Y-2853475D01*
X-3078216Y-2853407D01*
X-3078265Y-2853336D01*
X-3078310Y-2853263D01*
X-3078353Y-2853188D01*
X-3078392Y-2853112D01*
X-3078428Y-2853033D01*
X-3078460Y-2852953D01*
X-3078488Y-2852872D01*
X-3078513Y-2852790D01*
X-3078534Y-2852706D01*
X-3078551Y-2852622D01*
X-3078565Y-2852537D01*
X-3078574Y-2852451D01*
X-3078580Y-2852365D01*
X-3078582Y-2852279D01*
X-3078582Y-2847481D01*
X-3078580Y-2847395D01*
X-3078574Y-2847309D01*
X-3078565Y-2847223D01*
X-3078551Y-2847138D01*
X-3078534Y-2847054D01*
X-3078513Y-2846970D01*
X-3078488Y-2846888D01*
X-3078460Y-2846807D01*
X-3078428Y-2846727D01*
X-3078392Y-2846648D01*
X-3078353Y-2846572D01*
X-3078310Y-2846497D01*
X-3078265Y-2846424D01*
X-3078216Y-2846353D01*
X-3078163Y-2846285D01*
X-3078108Y-2846218D01*
X-3078050Y-2846155D01*
X-3077989Y-2846094D01*
X-3077926Y-2846036D01*
X-3077860Y-2845981D01*
X-3077791Y-2845929D01*
X-3077720Y-2845879D01*
X-3077647Y-2845834D01*
X-3077572Y-2845791D01*
X-3077496Y-2845752D01*
X-3077417Y-2845716D01*
X-3077337Y-2845684D01*
X-3077256Y-2845656D01*
X-3077174Y-2845631D01*
X-3077090Y-2845610D01*
X-3077006Y-2845593D01*
X-3076921Y-2845579D01*
X-3076835Y-2845570D01*
X-3076749Y-2845564D01*
X-3076663Y-2845562D01*
X-3074744Y-2845562D01*
X-3070424Y-2849400D02*
X-3068025Y-2849400D01*
X-3067928Y-2849402D01*
X-3067832Y-2849408D01*
X-3067736Y-2849417D01*
X-3067640Y-2849431D01*
X-3067545Y-2849448D01*
X-3067451Y-2849470D01*
X-3067358Y-2849495D01*
X-3067265Y-2849523D01*
X-3067174Y-2849556D01*
X-3067085Y-2849592D01*
X-3066997Y-2849632D01*
X-3066910Y-2849675D01*
X-3066826Y-2849721D01*
X-3066743Y-2849771D01*
X-3066662Y-2849825D01*
X-3066584Y-2849881D01*
X-3066508Y-2849941D01*
X-3066434Y-2850003D01*
X-3066363Y-2850069D01*
X-3066295Y-2850137D01*
X-3066229Y-2850208D01*
X-3066167Y-2850282D01*
X-3066107Y-2850358D01*
X-3066051Y-2850436D01*
X-3065997Y-2850517D01*
X-3065947Y-2850600D01*
X-3065901Y-2850684D01*
X-3065858Y-2850771D01*
X-3065818Y-2850859D01*
X-3065782Y-2850948D01*
X-3065749Y-2851039D01*
X-3065721Y-2851132D01*
X-3065696Y-2851225D01*
X-3065674Y-2851319D01*
X-3065657Y-2851414D01*
X-3065643Y-2851510D01*
X-3065634Y-2851606D01*
X-3065628Y-2851702D01*
X-3065626Y-2851799D01*
X-3065628Y-2851896D01*
X-3065634Y-2851992D01*
X-3065643Y-2852088D01*
X-3065657Y-2852184D01*
X-3065674Y-2852279D01*
X-3065696Y-2852373D01*
X-3065721Y-2852466D01*
X-3065749Y-2852559D01*
X-3065782Y-2852650D01*
X-3065818Y-2852739D01*
X-3065858Y-2852827D01*
X-3065901Y-2852914D01*
X-3065947Y-2852999D01*
X-3065997Y-2853081D01*
X-3066051Y-2853162D01*
X-3066107Y-2853240D01*
X-3066167Y-2853316D01*
X-3066229Y-2853390D01*
X-3066295Y-2853461D01*
X-3066363Y-2853529D01*
X-3066434Y-2853595D01*
X-3066508Y-2853657D01*
X-3066584Y-2853717D01*
X-3066662Y-2853773D01*
X-3066743Y-2853827D01*
X-3066826Y-2853877D01*
X-3066910Y-2853923D01*
X-3066997Y-2853966D01*
X-3067085Y-2854006D01*
X-3067174Y-2854042D01*
X-3067265Y-2854075D01*
X-3067358Y-2854103D01*
X-3067451Y-2854128D01*
X-3067545Y-2854150D01*
X-3067640Y-2854167D01*
X-3067736Y-2854181D01*
X-3067832Y-2854190D01*
X-3067928Y-2854196D01*
X-3068025Y-2854198D01*
X-3070424Y-2854198D01*
X-3070424Y-2845562D01*
X-3068025Y-2845562D01*
X-3067939Y-2845564D01*
X-3067853Y-2845570D01*
X-3067767Y-2845579D01*
X-3067682Y-2845593D01*
X-3067598Y-2845610D01*
X-3067514Y-2845631D01*
X-3067432Y-2845656D01*
X-3067351Y-2845684D01*
X-3067271Y-2845716D01*
X-3067192Y-2845752D01*
X-3067116Y-2845791D01*
X-3067041Y-2845834D01*
X-3066968Y-2845879D01*
X-3066897Y-2845928D01*
X-3066829Y-2845981D01*
X-3066762Y-2846036D01*
X-3066699Y-2846094D01*
X-3066638Y-2846155D01*
X-3066580Y-2846218D01*
X-3066525Y-2846285D01*
X-3066472Y-2846353D01*
X-3066423Y-2846424D01*
X-3066378Y-2846497D01*
X-3066335Y-2846572D01*
X-3066296Y-2846648D01*
X-3066260Y-2846727D01*
X-3066228Y-2846807D01*
X-3066200Y-2846888D01*
X-3066175Y-2846970D01*
X-3066154Y-2847054D01*
X-3066137Y-2847138D01*
X-3066123Y-2847223D01*
X-3066114Y-2847309D01*
X-3066108Y-2847395D01*
X-3066106Y-2847481D01*
X-3066108Y-2847567D01*
X-3066114Y-2847653D01*
X-3066123Y-2847739D01*
X-3066137Y-2847824D01*
X-3066154Y-2847908D01*
X-3066175Y-2847992D01*
X-3066200Y-2848074D01*
X-3066228Y-2848155D01*
X-3066260Y-2848235D01*
X-3066296Y-2848314D01*
X-3066335Y-2848390D01*
X-3066378Y-2848465D01*
X-3066423Y-2848538D01*
X-3066472Y-2848609D01*
X-3066525Y-2848677D01*
X-3066580Y-2848744D01*
X-3066638Y-2848807D01*
X-3066699Y-2848868D01*
X-3066762Y-2848926D01*
X-3066829Y-2848981D01*
X-3066897Y-2849034D01*
X-3066968Y-2849083D01*
X-3067041Y-2849128D01*
X-3067116Y-2849171D01*
X-3067192Y-2849210D01*
X-3067271Y-2849246D01*
X-3067351Y-2849278D01*
X-3067432Y-2849306D01*
X-3067514Y-2849331D01*
X-3067598Y-2849352D01*
X-3067682Y-2849369D01*
X-3067767Y-2849383D01*
X-3067853Y-2849392D01*
X-3067939Y-2849398D01*
X-3068025Y-2849400D01*
X-3159548Y-2862001D02*
X-3159621Y-2862155D01*
X-3159690Y-2862310D01*
X-3159755Y-2862467D01*
X-3159817Y-2862626D01*
X-3159874Y-2862785D01*
X-3159928Y-2862947D01*
X-3159978Y-2863109D01*
X-3160024Y-2863272D01*
X-3160066Y-2863437D01*
X-3160104Y-2863603D01*
X-3160139Y-2863769D01*
X-3160169Y-2863936D01*
X-3160195Y-2864104D01*
X-3160217Y-2864272D01*
X-3160236Y-2864441D01*
X-3160250Y-2864611D01*
X-3160260Y-2864780D01*
X-3160266Y-2864950D01*
X-3160268Y-2865120D01*
X-3159548Y-2862001D02*
X-3159520Y-2861925D01*
X-3159488Y-2861850D01*
X-3159453Y-2861776D01*
X-3159415Y-2861704D01*
X-3159373Y-2861634D01*
X-3159328Y-2861566D01*
X-3159280Y-2861500D01*
X-3159229Y-2861436D01*
X-3159175Y-2861375D01*
X-3159119Y-2861316D01*
X-3159059Y-2861260D01*
X-3158998Y-2861207D01*
X-3158934Y-2861157D01*
X-3158867Y-2861109D01*
X-3158799Y-2861065D01*
X-3158728Y-2861024D01*
X-3158656Y-2860986D01*
X-3158582Y-2860952D01*
X-3158507Y-2860921D01*
X-3158430Y-2860893D01*
X-3158352Y-2860869D01*
X-3158273Y-2860849D01*
X-3158193Y-2860832D01*
X-3158113Y-2860819D01*
X-3158032Y-2860809D01*
X-3157951Y-2860804D01*
X-3157869Y-2860802D01*
X-3157787Y-2860804D01*
X-3157706Y-2860809D01*
X-3157625Y-2860819D01*
X-3157545Y-2860832D01*
X-3157465Y-2860849D01*
X-3157386Y-2860869D01*
X-3157308Y-2860893D01*
X-3157231Y-2860921D01*
X-3157156Y-2860952D01*
X-3157082Y-2860986D01*
X-3157010Y-2861024D01*
X-3156939Y-2861065D01*
X-3156871Y-2861109D01*
X-3156804Y-2861157D01*
X-3156740Y-2861207D01*
X-3156679Y-2861260D01*
X-3156619Y-2861316D01*
X-3156563Y-2861375D01*
X-3156509Y-2861436D01*
X-3156458Y-2861500D01*
X-3156410Y-2861566D01*
X-3156365Y-2861634D01*
X-3156323Y-2861704D01*
X-3156285Y-2861776D01*
X-3156250Y-2861850D01*
X-3156218Y-2861925D01*
X-3156190Y-2862001D01*
X-3156117Y-2862155D01*
X-3156048Y-2862310D01*
X-3155983Y-2862467D01*
X-3155921Y-2862626D01*
X-3155864Y-2862785D01*
X-3155810Y-2862947D01*
X-3155760Y-2863109D01*
X-3155714Y-2863272D01*
X-3155672Y-2863437D01*
X-3155634Y-2863603D01*
X-3155599Y-2863769D01*
X-3155569Y-2863936D01*
X-3155543Y-2864104D01*
X-3155521Y-2864272D01*
X-3155502Y-2864441D01*
X-3155488Y-2864611D01*
X-3155478Y-2864780D01*
X-3155472Y-2864950D01*
X-3155470Y-2865120D01*
X-3160268Y-2865120D02*
X-3160266Y-2865290D01*
X-3160260Y-2865460D01*
X-3160250Y-2865629D01*
X-3160236Y-2865799D01*
X-3160217Y-2865968D01*
X-3160195Y-2866136D01*
X-3160169Y-2866304D01*
X-3160139Y-2866471D01*
X-3160104Y-2866637D01*
X-3160066Y-2866803D01*
X-3160024Y-2866968D01*
X-3159978Y-2867131D01*
X-3159928Y-2867293D01*
X-3159874Y-2867455D01*
X-3159817Y-2867614D01*
X-3159755Y-2867773D01*
X-3159690Y-2867930D01*
X-3159621Y-2868085D01*
X-3159548Y-2868239D01*
X-3159520Y-2868315D01*
X-3159488Y-2868390D01*
X-3159453Y-2868464D01*
X-3159415Y-2868536D01*
X-3159373Y-2868606D01*
X-3159328Y-2868674D01*
X-3159280Y-2868740D01*
X-3159229Y-2868804D01*
X-3159175Y-2868865D01*
X-3159119Y-2868924D01*
X-3159059Y-2868980D01*
X-3158998Y-2869033D01*
X-3158934Y-2869083D01*
X-3158867Y-2869131D01*
X-3158799Y-2869175D01*
X-3158728Y-2869216D01*
X-3158656Y-2869254D01*
X-3158582Y-2869288D01*
X-3158507Y-2869319D01*
X-3158430Y-2869347D01*
X-3158352Y-2869371D01*
X-3158273Y-2869391D01*
X-3158193Y-2869408D01*
X-3158113Y-2869421D01*
X-3158032Y-2869431D01*
X-3157951Y-2869436D01*
X-3157869Y-2869438D01*
X-3156190Y-2868239D02*
X-3156117Y-2868085D01*
X-3156048Y-2867930D01*
X-3155983Y-2867773D01*
X-3155921Y-2867614D01*
X-3155864Y-2867455D01*
X-3155810Y-2867293D01*
X-3155760Y-2867131D01*
X-3155714Y-2866968D01*
X-3155672Y-2866803D01*
X-3155634Y-2866637D01*
X-3155599Y-2866471D01*
X-3155569Y-2866304D01*
X-3155543Y-2866136D01*
X-3155521Y-2865968D01*
X-3155502Y-2865799D01*
X-3155488Y-2865629D01*
X-3155478Y-2865460D01*
X-3155472Y-2865290D01*
X-3155470Y-2865120D01*
X-3156190Y-2868239D02*
X-3156218Y-2868315D01*
X-3156250Y-2868390D01*
X-3156285Y-2868464D01*
X-3156323Y-2868536D01*
X-3156365Y-2868606D01*
X-3156410Y-2868674D01*
X-3156458Y-2868740D01*
X-3156509Y-2868804D01*
X-3156563Y-2868865D01*
X-3156619Y-2868924D01*
X-3156679Y-2868980D01*
X-3156740Y-2869033D01*
X-3156804Y-2869083D01*
X-3156871Y-2869131D01*
X-3156939Y-2869175D01*
X-3157010Y-2869216D01*
X-3157082Y-2869254D01*
X-3157156Y-2869288D01*
X-3157231Y-2869319D01*
X-3157308Y-2869347D01*
X-3157386Y-2869371D01*
X-3157465Y-2869391D01*
X-3157545Y-2869408D01*
X-3157625Y-2869421D01*
X-3157706Y-2869431D01*
X-3157787Y-2869436D01*
X-3157869Y-2869438D01*
X-3159788Y-2867519D02*
X-3155950Y-2862721D01*
X-3151124Y-2867039D02*
X-3151122Y-2866942D01*
X-3151116Y-2866846D01*
X-3151107Y-2866750D01*
X-3151093Y-2866654D01*
X-3151076Y-2866559D01*
X-3151054Y-2866465D01*
X-3151029Y-2866372D01*
X-3151001Y-2866279D01*
X-3150968Y-2866188D01*
X-3150932Y-2866099D01*
X-3150892Y-2866011D01*
X-3150849Y-2865924D01*
X-3150803Y-2865840D01*
X-3150753Y-2865757D01*
X-3150699Y-2865676D01*
X-3150643Y-2865598D01*
X-3150583Y-2865522D01*
X-3150521Y-2865448D01*
X-3150455Y-2865377D01*
X-3150387Y-2865309D01*
X-3150316Y-2865243D01*
X-3150242Y-2865181D01*
X-3150166Y-2865121D01*
X-3150088Y-2865065D01*
X-3150007Y-2865011D01*
X-3149925Y-2864961D01*
X-3149840Y-2864915D01*
X-3149753Y-2864872D01*
X-3149665Y-2864832D01*
X-3149576Y-2864796D01*
X-3149485Y-2864763D01*
X-3149392Y-2864735D01*
X-3149299Y-2864710D01*
X-3149205Y-2864688D01*
X-3149110Y-2864671D01*
X-3149014Y-2864657D01*
X-3148918Y-2864648D01*
X-3148822Y-2864642D01*
X-3148725Y-2864640D01*
X-3148628Y-2864642D01*
X-3148532Y-2864648D01*
X-3148436Y-2864657D01*
X-3148340Y-2864671D01*
X-3148245Y-2864688D01*
X-3148151Y-2864710D01*
X-3148058Y-2864735D01*
X-3147965Y-2864763D01*
X-3147874Y-2864796D01*
X-3147785Y-2864832D01*
X-3147697Y-2864872D01*
X-3147610Y-2864915D01*
X-3147526Y-2864961D01*
X-3147443Y-2865011D01*
X-3147362Y-2865065D01*
X-3147284Y-2865121D01*
X-3147208Y-2865181D01*
X-3147134Y-2865243D01*
X-3147063Y-2865309D01*
X-3146995Y-2865377D01*
X-3146929Y-2865448D01*
X-3146867Y-2865522D01*
X-3146807Y-2865598D01*
X-3146751Y-2865676D01*
X-3146697Y-2865757D01*
X-3146647Y-2865840D01*
X-3146601Y-2865924D01*
X-3146558Y-2866011D01*
X-3146518Y-2866099D01*
X-3146482Y-2866188D01*
X-3146449Y-2866279D01*
X-3146421Y-2866372D01*
X-3146396Y-2866465D01*
X-3146374Y-2866559D01*
X-3146357Y-2866654D01*
X-3146343Y-2866750D01*
X-3146334Y-2866846D01*
X-3146328Y-2866942D01*
X-3146326Y-2867039D01*
X-3146328Y-2867136D01*
X-3146334Y-2867232D01*
X-3146343Y-2867328D01*
X-3146357Y-2867424D01*
X-3146374Y-2867519D01*
X-3146396Y-2867613D01*
X-3146421Y-2867706D01*
X-3146449Y-2867799D01*
X-3146482Y-2867890D01*
X-3146518Y-2867979D01*
X-3146558Y-2868067D01*
X-3146601Y-2868154D01*
X-3146647Y-2868239D01*
X-3146697Y-2868321D01*
X-3146751Y-2868402D01*
X-3146807Y-2868480D01*
X-3146867Y-2868556D01*
X-3146929Y-2868630D01*
X-3146995Y-2868701D01*
X-3147063Y-2868769D01*
X-3147134Y-2868835D01*
X-3147208Y-2868897D01*
X-3147284Y-2868957D01*
X-3147362Y-2869013D01*
X-3147443Y-2869067D01*
X-3147526Y-2869117D01*
X-3147610Y-2869163D01*
X-3147697Y-2869206D01*
X-3147785Y-2869246D01*
X-3147874Y-2869282D01*
X-3147965Y-2869315D01*
X-3148058Y-2869343D01*
X-3148151Y-2869368D01*
X-3148245Y-2869390D01*
X-3148340Y-2869407D01*
X-3148436Y-2869421D01*
X-3148532Y-2869430D01*
X-3148628Y-2869436D01*
X-3148725Y-2869438D01*
X-3148822Y-2869436D01*
X-3148918Y-2869430D01*
X-3149014Y-2869421D01*
X-3149110Y-2869407D01*
X-3149205Y-2869390D01*
X-3149299Y-2869368D01*
X-3149392Y-2869343D01*
X-3149485Y-2869315D01*
X-3149576Y-2869282D01*
X-3149665Y-2869246D01*
X-3149753Y-2869206D01*
X-3149840Y-2869163D01*
X-3149925Y-2869117D01*
X-3150007Y-2869067D01*
X-3150088Y-2869013D01*
X-3150166Y-2868957D01*
X-3150242Y-2868897D01*
X-3150316Y-2868835D01*
X-3150387Y-2868769D01*
X-3150455Y-2868701D01*
X-3150521Y-2868630D01*
X-3150583Y-2868556D01*
X-3150643Y-2868480D01*
X-3150699Y-2868402D01*
X-3150753Y-2868321D01*
X-3150803Y-2868239D01*
X-3150849Y-2868154D01*
X-3150892Y-2868067D01*
X-3150932Y-2867979D01*
X-3150968Y-2867890D01*
X-3151001Y-2867799D01*
X-3151029Y-2867706D01*
X-3151054Y-2867613D01*
X-3151076Y-2867519D01*
X-3151093Y-2867424D01*
X-3151107Y-2867328D01*
X-3151116Y-2867232D01*
X-3151122Y-2867136D01*
X-3151124Y-2867039D01*
X-3150644Y-2862721D02*
X-3150642Y-2862635D01*
X-3150636Y-2862549D01*
X-3150627Y-2862463D01*
X-3150613Y-2862378D01*
X-3150596Y-2862294D01*
X-3150575Y-2862210D01*
X-3150550Y-2862128D01*
X-3150522Y-2862047D01*
X-3150490Y-2861967D01*
X-3150454Y-2861888D01*
X-3150415Y-2861812D01*
X-3150372Y-2861737D01*
X-3150327Y-2861664D01*
X-3150278Y-2861593D01*
X-3150225Y-2861525D01*
X-3150170Y-2861458D01*
X-3150112Y-2861395D01*
X-3150051Y-2861334D01*
X-3149988Y-2861276D01*
X-3149921Y-2861221D01*
X-3149853Y-2861168D01*
X-3149782Y-2861119D01*
X-3149709Y-2861074D01*
X-3149634Y-2861031D01*
X-3149558Y-2860992D01*
X-3149479Y-2860956D01*
X-3149399Y-2860924D01*
X-3149318Y-2860896D01*
X-3149236Y-2860871D01*
X-3149152Y-2860850D01*
X-3149068Y-2860833D01*
X-3148983Y-2860819D01*
X-3148897Y-2860810D01*
X-3148811Y-2860804D01*
X-3148725Y-2860802D01*
X-3148639Y-2860804D01*
X-3148553Y-2860810D01*
X-3148467Y-2860819D01*
X-3148382Y-2860833D01*
X-3148298Y-2860850D01*
X-3148214Y-2860871D01*
X-3148132Y-2860896D01*
X-3148051Y-2860924D01*
X-3147971Y-2860956D01*
X-3147892Y-2860992D01*
X-3147816Y-2861031D01*
X-3147741Y-2861074D01*
X-3147668Y-2861119D01*
X-3147597Y-2861168D01*
X-3147529Y-2861221D01*
X-3147462Y-2861276D01*
X-3147399Y-2861334D01*
X-3147338Y-2861395D01*
X-3147280Y-2861458D01*
X-3147225Y-2861525D01*
X-3147172Y-2861593D01*
X-3147123Y-2861664D01*
X-3147078Y-2861737D01*
X-3147035Y-2861812D01*
X-3146996Y-2861888D01*
X-3146960Y-2861967D01*
X-3146928Y-2862047D01*
X-3146900Y-2862128D01*
X-3146875Y-2862210D01*
X-3146854Y-2862294D01*
X-3146837Y-2862378D01*
X-3146823Y-2862463D01*
X-3146814Y-2862549D01*
X-3146808Y-2862635D01*
X-3146806Y-2862721D01*
X-3146808Y-2862807D01*
X-3146814Y-2862893D01*
X-3146823Y-2862979D01*
X-3146837Y-2863064D01*
X-3146854Y-2863148D01*
X-3146875Y-2863232D01*
X-3146900Y-2863314D01*
X-3146928Y-2863395D01*
X-3146960Y-2863475D01*
X-3146996Y-2863554D01*
X-3147035Y-2863630D01*
X-3147078Y-2863705D01*
X-3147123Y-2863778D01*
X-3147172Y-2863849D01*
X-3147225Y-2863917D01*
X-3147280Y-2863984D01*
X-3147338Y-2864047D01*
X-3147399Y-2864108D01*
X-3147462Y-2864166D01*
X-3147529Y-2864221D01*
X-3147597Y-2864274D01*
X-3147668Y-2864323D01*
X-3147741Y-2864368D01*
X-3147816Y-2864411D01*
X-3147892Y-2864450D01*
X-3147971Y-2864486D01*
X-3148051Y-2864518D01*
X-3148132Y-2864546D01*
X-3148214Y-2864571D01*
X-3148298Y-2864592D01*
X-3148382Y-2864609D01*
X-3148467Y-2864623D01*
X-3148553Y-2864632D01*
X-3148639Y-2864638D01*
X-3148725Y-2864640D01*
X-3148811Y-2864638D01*
X-3148897Y-2864632D01*
X-3148983Y-2864623D01*
X-3149068Y-2864609D01*
X-3149152Y-2864592D01*
X-3149236Y-2864571D01*
X-3149318Y-2864546D01*
X-3149399Y-2864518D01*
X-3149479Y-2864486D01*
X-3149558Y-2864450D01*
X-3149634Y-2864411D01*
X-3149709Y-2864368D01*
X-3149782Y-2864323D01*
X-3149853Y-2864274D01*
X-3149921Y-2864221D01*
X-3149988Y-2864166D01*
X-3150051Y-2864108D01*
X-3150112Y-2864047D01*
X-3150170Y-2863984D01*
X-3150225Y-2863917D01*
X-3150278Y-2863849D01*
X-3150327Y-2863778D01*
X-3150372Y-2863705D01*
X-3150415Y-2863630D01*
X-3150454Y-2863554D01*
X-3150490Y-2863475D01*
X-3150522Y-2863395D01*
X-3150550Y-2863314D01*
X-3150575Y-2863232D01*
X-3150596Y-2863148D01*
X-3150613Y-2863064D01*
X-3150627Y-2862979D01*
X-3150636Y-2862893D01*
X-3150642Y-2862807D01*
X-3150644Y-2862721D01*
X-3142415Y-2870398D02*
X-3138576Y-2859842D01*
X-3133945Y-2862001D02*
X-3134018Y-2862155D01*
X-3134087Y-2862310D01*
X-3134152Y-2862467D01*
X-3134214Y-2862626D01*
X-3134271Y-2862785D01*
X-3134325Y-2862947D01*
X-3134375Y-2863109D01*
X-3134421Y-2863272D01*
X-3134463Y-2863437D01*
X-3134501Y-2863603D01*
X-3134536Y-2863769D01*
X-3134566Y-2863936D01*
X-3134592Y-2864104D01*
X-3134614Y-2864272D01*
X-3134633Y-2864441D01*
X-3134647Y-2864611D01*
X-3134657Y-2864780D01*
X-3134663Y-2864950D01*
X-3134665Y-2865120D01*
X-3133945Y-2862001D02*
X-3133917Y-2861925D01*
X-3133885Y-2861850D01*
X-3133850Y-2861776D01*
X-3133812Y-2861704D01*
X-3133770Y-2861634D01*
X-3133725Y-2861566D01*
X-3133677Y-2861500D01*
X-3133626Y-2861436D01*
X-3133572Y-2861375D01*
X-3133516Y-2861316D01*
X-3133456Y-2861260D01*
X-3133395Y-2861207D01*
X-3133331Y-2861157D01*
X-3133264Y-2861109D01*
X-3133196Y-2861065D01*
X-3133125Y-2861024D01*
X-3133053Y-2860986D01*
X-3132979Y-2860952D01*
X-3132904Y-2860921D01*
X-3132827Y-2860893D01*
X-3132749Y-2860869D01*
X-3132670Y-2860849D01*
X-3132590Y-2860832D01*
X-3132510Y-2860819D01*
X-3132429Y-2860809D01*
X-3132348Y-2860804D01*
X-3132266Y-2860802D01*
X-3132184Y-2860804D01*
X-3132103Y-2860809D01*
X-3132022Y-2860819D01*
X-3131942Y-2860832D01*
X-3131862Y-2860849D01*
X-3131783Y-2860869D01*
X-3131705Y-2860893D01*
X-3131628Y-2860921D01*
X-3131553Y-2860952D01*
X-3131479Y-2860986D01*
X-3131407Y-2861024D01*
X-3131336Y-2861065D01*
X-3131268Y-2861109D01*
X-3131201Y-2861157D01*
X-3131137Y-2861207D01*
X-3131076Y-2861260D01*
X-3131016Y-2861316D01*
X-3130960Y-2861375D01*
X-3130906Y-2861436D01*
X-3130855Y-2861500D01*
X-3130807Y-2861566D01*
X-3130762Y-2861634D01*
X-3130720Y-2861704D01*
X-3130682Y-2861776D01*
X-3130647Y-2861850D01*
X-3130615Y-2861925D01*
X-3130587Y-2862001D01*
X-3130514Y-2862155D01*
X-3130445Y-2862310D01*
X-3130380Y-2862467D01*
X-3130318Y-2862626D01*
X-3130261Y-2862785D01*
X-3130207Y-2862947D01*
X-3130157Y-2863109D01*
X-3130111Y-2863272D01*
X-3130069Y-2863437D01*
X-3130031Y-2863603D01*
X-3129996Y-2863769D01*
X-3129966Y-2863936D01*
X-3129940Y-2864104D01*
X-3129918Y-2864272D01*
X-3129899Y-2864441D01*
X-3129885Y-2864611D01*
X-3129875Y-2864780D01*
X-3129869Y-2864950D01*
X-3129867Y-2865120D01*
X-3134665Y-2865120D02*
X-3134663Y-2865290D01*
X-3134657Y-2865460D01*
X-3134647Y-2865629D01*
X-3134633Y-2865799D01*
X-3134614Y-2865968D01*
X-3134592Y-2866136D01*
X-3134566Y-2866304D01*
X-3134536Y-2866471D01*
X-3134501Y-2866637D01*
X-3134463Y-2866803D01*
X-3134421Y-2866968D01*
X-3134375Y-2867131D01*
X-3134325Y-2867293D01*
X-3134271Y-2867455D01*
X-3134214Y-2867614D01*
X-3134152Y-2867773D01*
X-3134087Y-2867930D01*
X-3134018Y-2868085D01*
X-3133945Y-2868239D01*
X-3133917Y-2868315D01*
X-3133885Y-2868390D01*
X-3133850Y-2868464D01*
X-3133812Y-2868536D01*
X-3133770Y-2868606D01*
X-3133725Y-2868674D01*
X-3133677Y-2868740D01*
X-3133626Y-2868804D01*
X-3133572Y-2868865D01*
X-3133516Y-2868924D01*
X-3133456Y-2868980D01*
X-3133395Y-2869033D01*
X-3133331Y-2869083D01*
X-3133264Y-2869131D01*
X-3133196Y-2869175D01*
X-3133125Y-2869216D01*
X-3133053Y-2869254D01*
X-3132979Y-2869288D01*
X-3132904Y-2869319D01*
X-3132827Y-2869347D01*
X-3132749Y-2869371D01*
X-3132670Y-2869391D01*
X-3132590Y-2869408D01*
X-3132510Y-2869421D01*
X-3132429Y-2869431D01*
X-3132348Y-2869436D01*
X-3132266Y-2869438D01*
X-3130587Y-2868239D02*
X-3130514Y-2868085D01*
X-3130445Y-2867930D01*
X-3130380Y-2867773D01*
X-3130318Y-2867614D01*
X-3130261Y-2867455D01*
X-3130207Y-2867293D01*
X-3130157Y-2867131D01*
X-3130111Y-2866968D01*
X-3130069Y-2866803D01*
X-3130031Y-2866637D01*
X-3129996Y-2866471D01*
X-3129966Y-2866304D01*
X-3129940Y-2866136D01*
X-3129918Y-2865968D01*
X-3129899Y-2865799D01*
X-3129885Y-2865629D01*
X-3129875Y-2865460D01*
X-3129869Y-2865290D01*
X-3129867Y-2865120D01*
X-3130587Y-2868239D02*
X-3130615Y-2868315D01*
X-3130647Y-2868390D01*
X-3130682Y-2868464D01*
X-3130720Y-2868536D01*
X-3130762Y-2868606D01*
X-3130807Y-2868674D01*
X-3130855Y-2868740D01*
X-3130906Y-2868804D01*
X-3130960Y-2868865D01*
X-3131016Y-2868924D01*
X-3131076Y-2868980D01*
X-3131137Y-2869033D01*
X-3131201Y-2869083D01*
X-3131268Y-2869131D01*
X-3131336Y-2869175D01*
X-3131407Y-2869216D01*
X-3131479Y-2869254D01*
X-3131553Y-2869288D01*
X-3131628Y-2869319D01*
X-3131705Y-2869347D01*
X-3131783Y-2869371D01*
X-3131862Y-2869391D01*
X-3131942Y-2869408D01*
X-3132022Y-2869421D01*
X-3132103Y-2869431D01*
X-3132184Y-2869436D01*
X-3132266Y-2869438D01*
X-3134185Y-2867519D02*
X-3130347Y-2862721D01*
X-3125521Y-2869438D02*
X-3123122Y-2869438D01*
X-3123025Y-2869436D01*
X-3122929Y-2869430D01*
X-3122833Y-2869421D01*
X-3122737Y-2869407D01*
X-3122642Y-2869390D01*
X-3122548Y-2869368D01*
X-3122455Y-2869343D01*
X-3122362Y-2869315D01*
X-3122271Y-2869282D01*
X-3122182Y-2869246D01*
X-3122094Y-2869206D01*
X-3122007Y-2869163D01*
X-3121923Y-2869117D01*
X-3121840Y-2869067D01*
X-3121759Y-2869013D01*
X-3121681Y-2868957D01*
X-3121605Y-2868897D01*
X-3121531Y-2868835D01*
X-3121460Y-2868769D01*
X-3121392Y-2868701D01*
X-3121326Y-2868630D01*
X-3121264Y-2868556D01*
X-3121204Y-2868480D01*
X-3121148Y-2868402D01*
X-3121094Y-2868321D01*
X-3121044Y-2868239D01*
X-3120998Y-2868154D01*
X-3120955Y-2868067D01*
X-3120915Y-2867979D01*
X-3120879Y-2867890D01*
X-3120846Y-2867799D01*
X-3120818Y-2867706D01*
X-3120793Y-2867613D01*
X-3120771Y-2867519D01*
X-3120754Y-2867424D01*
X-3120740Y-2867328D01*
X-3120731Y-2867232D01*
X-3120725Y-2867136D01*
X-3120723Y-2867039D01*
X-3120725Y-2866942D01*
X-3120731Y-2866846D01*
X-3120740Y-2866750D01*
X-3120754Y-2866654D01*
X-3120771Y-2866559D01*
X-3120793Y-2866465D01*
X-3120818Y-2866372D01*
X-3120846Y-2866279D01*
X-3120879Y-2866188D01*
X-3120915Y-2866099D01*
X-3120955Y-2866011D01*
X-3120998Y-2865924D01*
X-3121044Y-2865840D01*
X-3121094Y-2865757D01*
X-3121148Y-2865676D01*
X-3121204Y-2865598D01*
X-3121264Y-2865522D01*
X-3121326Y-2865448D01*
X-3121392Y-2865377D01*
X-3121460Y-2865309D01*
X-3121531Y-2865243D01*
X-3121605Y-2865181D01*
X-3121681Y-2865121D01*
X-3121759Y-2865065D01*
X-3121840Y-2865011D01*
X-3121923Y-2864961D01*
X-3122007Y-2864915D01*
X-3122094Y-2864872D01*
X-3122182Y-2864832D01*
X-3122271Y-2864796D01*
X-3122362Y-2864763D01*
X-3122455Y-2864735D01*
X-3122548Y-2864710D01*
X-3122642Y-2864688D01*
X-3122737Y-2864671D01*
X-3122833Y-2864657D01*
X-3122929Y-2864648D01*
X-3123025Y-2864642D01*
X-3123122Y-2864640D01*
X-3122642Y-2860802D02*
X-3125521Y-2860802D01*
X-3122642Y-2860802D02*
X-3122556Y-2860804D01*
X-3122470Y-2860810D01*
X-3122384Y-2860819D01*
X-3122299Y-2860833D01*
X-3122215Y-2860850D01*
X-3122131Y-2860871D01*
X-3122049Y-2860896D01*
X-3121968Y-2860924D01*
X-3121888Y-2860956D01*
X-3121809Y-2860992D01*
X-3121733Y-2861031D01*
X-3121658Y-2861074D01*
X-3121585Y-2861119D01*
X-3121514Y-2861168D01*
X-3121446Y-2861221D01*
X-3121379Y-2861276D01*
X-3121316Y-2861334D01*
X-3121255Y-2861395D01*
X-3121197Y-2861458D01*
X-3121142Y-2861525D01*
X-3121089Y-2861593D01*
X-3121040Y-2861664D01*
X-3120995Y-2861737D01*
X-3120952Y-2861812D01*
X-3120913Y-2861888D01*
X-3120877Y-2861967D01*
X-3120845Y-2862047D01*
X-3120817Y-2862128D01*
X-3120792Y-2862210D01*
X-3120771Y-2862294D01*
X-3120754Y-2862378D01*
X-3120740Y-2862463D01*
X-3120731Y-2862549D01*
X-3120725Y-2862635D01*
X-3120723Y-2862721D01*
X-3120725Y-2862807D01*
X-3120731Y-2862893D01*
X-3120740Y-2862979D01*
X-3120754Y-2863064D01*
X-3120771Y-2863148D01*
X-3120792Y-2863232D01*
X-3120817Y-2863314D01*
X-3120845Y-2863395D01*
X-3120877Y-2863475D01*
X-3120913Y-2863554D01*
X-3120952Y-2863630D01*
X-3120995Y-2863705D01*
X-3121040Y-2863778D01*
X-3121089Y-2863849D01*
X-3121142Y-2863917D01*
X-3121197Y-2863984D01*
X-3121255Y-2864047D01*
X-3121316Y-2864108D01*
X-3121379Y-2864166D01*
X-3121446Y-2864221D01*
X-3121514Y-2864274D01*
X-3121585Y-2864323D01*
X-3121658Y-2864368D01*
X-3121733Y-2864411D01*
X-3121809Y-2864450D01*
X-3121888Y-2864486D01*
X-3121968Y-2864518D01*
X-3122049Y-2864546D01*
X-3122131Y-2864571D01*
X-3122215Y-2864592D01*
X-3122299Y-2864609D01*
X-3122384Y-2864623D01*
X-3122470Y-2864632D01*
X-3122556Y-2864638D01*
X-3122642Y-2864640D01*
X-3124561Y-2864640D01*
X-3116812Y-2870398D02*
X-3112973Y-2859842D01*
X-3106423Y-2860802D02*
X-3106331Y-2860804D01*
X-3106240Y-2860810D01*
X-3106149Y-2860819D01*
X-3106058Y-2860833D01*
X-3105968Y-2860850D01*
X-3105879Y-2860872D01*
X-3105791Y-2860897D01*
X-3105704Y-2860925D01*
X-3105618Y-2860958D01*
X-3105534Y-2860994D01*
X-3105451Y-2861033D01*
X-3105370Y-2861076D01*
X-3105291Y-2861123D01*
X-3105214Y-2861172D01*
X-3105139Y-2861225D01*
X-3105067Y-2861281D01*
X-3104997Y-2861340D01*
X-3104929Y-2861402D01*
X-3104864Y-2861467D01*
X-3104802Y-2861535D01*
X-3104743Y-2861605D01*
X-3104687Y-2861677D01*
X-3104634Y-2861752D01*
X-3104585Y-2861829D01*
X-3104538Y-2861908D01*
X-3104495Y-2861989D01*
X-3104456Y-2862072D01*
X-3104420Y-2862156D01*
X-3104387Y-2862242D01*
X-3104359Y-2862329D01*
X-3104334Y-2862417D01*
X-3104312Y-2862506D01*
X-3104295Y-2862596D01*
X-3104281Y-2862687D01*
X-3104272Y-2862778D01*
X-3104266Y-2862869D01*
X-3104264Y-2862961D01*
X-3106423Y-2860802D02*
X-3106526Y-2860804D01*
X-3106628Y-2860810D01*
X-3106730Y-2860819D01*
X-3106832Y-2860832D01*
X-3106933Y-2860849D01*
X-3107034Y-2860870D01*
X-3107133Y-2860894D01*
X-3107232Y-2860923D01*
X-3107329Y-2860954D01*
X-3107426Y-2860990D01*
X-3107521Y-2861028D01*
X-3107614Y-2861071D01*
X-3107706Y-2861117D01*
X-3107796Y-2861166D01*
X-3107884Y-2861218D01*
X-3107971Y-2861274D01*
X-3108055Y-2861333D01*
X-3108136Y-2861394D01*
X-3108216Y-2861459D01*
X-3108293Y-2861527D01*
X-3108368Y-2861598D01*
X-3108439Y-2861671D01*
X-3108508Y-2861747D01*
X-3108575Y-2861825D01*
X-3108638Y-2861906D01*
X-3108698Y-2861989D01*
X-3108755Y-2862074D01*
X-3108809Y-2862161D01*
X-3108860Y-2862251D01*
X-3108907Y-2862342D01*
X-3108951Y-2862434D01*
X-3108992Y-2862529D01*
X-3109029Y-2862624D01*
X-3109062Y-2862721D01*
X-3104984Y-2864640D02*
X-3104917Y-2864574D01*
X-3104853Y-2864505D01*
X-3104792Y-2864434D01*
X-3104734Y-2864360D01*
X-3104679Y-2864284D01*
X-3104627Y-2864206D01*
X-3104578Y-2864126D01*
X-3104532Y-2864044D01*
X-3104490Y-2863960D01*
X-3104451Y-2863874D01*
X-3104416Y-2863787D01*
X-3104385Y-2863699D01*
X-3104357Y-2863609D01*
X-3104332Y-2863519D01*
X-3104311Y-2863427D01*
X-3104294Y-2863335D01*
X-3104281Y-2863242D01*
X-3104272Y-2863149D01*
X-3104266Y-2863055D01*
X-3104264Y-2862961D01*
X-3104984Y-2864640D02*
X-3109062Y-2869438D01*
X-3104264Y-2869438D01*
X-3099918Y-2865120D02*
X-3099916Y-2864950D01*
X-3099910Y-2864780D01*
X-3099900Y-2864611D01*
X-3099886Y-2864441D01*
X-3099867Y-2864272D01*
X-3099845Y-2864104D01*
X-3099819Y-2863936D01*
X-3099789Y-2863769D01*
X-3099754Y-2863603D01*
X-3099716Y-2863437D01*
X-3099674Y-2863272D01*
X-3099628Y-2863109D01*
X-3099578Y-2862947D01*
X-3099524Y-2862785D01*
X-3099467Y-2862626D01*
X-3099405Y-2862467D01*
X-3099340Y-2862310D01*
X-3099271Y-2862155D01*
X-3099198Y-2862001D01*
X-3099170Y-2861925D01*
X-3099138Y-2861850D01*
X-3099103Y-2861776D01*
X-3099065Y-2861704D01*
X-3099023Y-2861634D01*
X-3098978Y-2861566D01*
X-3098930Y-2861500D01*
X-3098879Y-2861436D01*
X-3098825Y-2861375D01*
X-3098769Y-2861316D01*
X-3098709Y-2861260D01*
X-3098648Y-2861207D01*
X-3098584Y-2861157D01*
X-3098517Y-2861109D01*
X-3098449Y-2861065D01*
X-3098378Y-2861024D01*
X-3098306Y-2860986D01*
X-3098232Y-2860952D01*
X-3098157Y-2860921D01*
X-3098080Y-2860893D01*
X-3098002Y-2860869D01*
X-3097923Y-2860849D01*
X-3097843Y-2860832D01*
X-3097763Y-2860819D01*
X-3097682Y-2860809D01*
X-3097601Y-2860804D01*
X-3097519Y-2860802D01*
X-3097437Y-2860804D01*
X-3097356Y-2860809D01*
X-3097275Y-2860819D01*
X-3097195Y-2860832D01*
X-3097115Y-2860849D01*
X-3097036Y-2860869D01*
X-3096958Y-2860893D01*
X-3096881Y-2860921D01*
X-3096806Y-2860952D01*
X-3096732Y-2860986D01*
X-3096660Y-2861024D01*
X-3096589Y-2861065D01*
X-3096521Y-2861109D01*
X-3096454Y-2861157D01*
X-3096390Y-2861207D01*
X-3096329Y-2861260D01*
X-3096269Y-2861316D01*
X-3096213Y-2861375D01*
X-3096159Y-2861436D01*
X-3096108Y-2861500D01*
X-3096060Y-2861566D01*
X-3096015Y-2861634D01*
X-3095973Y-2861704D01*
X-3095935Y-2861776D01*
X-3095900Y-2861850D01*
X-3095868Y-2861925D01*
X-3095840Y-2862001D01*
X-3095767Y-2862155D01*
X-3095698Y-2862310D01*
X-3095633Y-2862467D01*
X-3095571Y-2862626D01*
X-3095514Y-2862785D01*
X-3095460Y-2862947D01*
X-3095410Y-2863109D01*
X-3095364Y-2863272D01*
X-3095322Y-2863437D01*
X-3095284Y-2863603D01*
X-3095249Y-2863769D01*
X-3095219Y-2863936D01*
X-3095193Y-2864104D01*
X-3095171Y-2864272D01*
X-3095152Y-2864441D01*
X-3095138Y-2864611D01*
X-3095128Y-2864780D01*
X-3095122Y-2864950D01*
X-3095120Y-2865120D01*
X-3099918Y-2865120D02*
X-3099916Y-2865290D01*
X-3099910Y-2865460D01*
X-3099900Y-2865629D01*
X-3099886Y-2865799D01*
X-3099867Y-2865968D01*
X-3099845Y-2866136D01*
X-3099819Y-2866304D01*
X-3099789Y-2866471D01*
X-3099754Y-2866637D01*
X-3099716Y-2866803D01*
X-3099674Y-2866968D01*
X-3099628Y-2867131D01*
X-3099578Y-2867293D01*
X-3099524Y-2867455D01*
X-3099467Y-2867614D01*
X-3099405Y-2867773D01*
X-3099340Y-2867930D01*
X-3099271Y-2868085D01*
X-3099198Y-2868239D01*
X-3099170Y-2868315D01*
X-3099138Y-2868390D01*
X-3099103Y-2868464D01*
X-3099065Y-2868536D01*
X-3099023Y-2868606D01*
X-3098978Y-2868674D01*
X-3098930Y-2868740D01*
X-3098879Y-2868804D01*
X-3098825Y-2868865D01*
X-3098769Y-2868924D01*
X-3098709Y-2868980D01*
X-3098648Y-2869033D01*
X-3098584Y-2869083D01*
X-3098517Y-2869131D01*
X-3098449Y-2869175D01*
X-3098378Y-2869216D01*
X-3098306Y-2869254D01*
X-3098232Y-2869288D01*
X-3098157Y-2869319D01*
X-3098080Y-2869347D01*
X-3098002Y-2869371D01*
X-3097923Y-2869391D01*
X-3097843Y-2869408D01*
X-3097763Y-2869421D01*
X-3097682Y-2869431D01*
X-3097601Y-2869436D01*
X-3097519Y-2869438D01*
X-3095840Y-2868239D02*
X-3095767Y-2868085D01*
X-3095698Y-2867930D01*
X-3095633Y-2867773D01*
X-3095571Y-2867614D01*
X-3095514Y-2867455D01*
X-3095460Y-2867293D01*
X-3095410Y-2867131D01*
X-3095364Y-2866968D01*
X-3095322Y-2866803D01*
X-3095284Y-2866637D01*
X-3095249Y-2866471D01*
X-3095219Y-2866304D01*
X-3095193Y-2866136D01*
X-3095171Y-2865968D01*
X-3095152Y-2865799D01*
X-3095138Y-2865629D01*
X-3095128Y-2865460D01*
X-3095122Y-2865290D01*
X-3095120Y-2865120D01*
X-3095840Y-2868239D02*
X-3095868Y-2868315D01*
X-3095900Y-2868390D01*
X-3095935Y-2868464D01*
X-3095973Y-2868536D01*
X-3096015Y-2868606D01*
X-3096060Y-2868674D01*
X-3096108Y-2868740D01*
X-3096159Y-2868804D01*
X-3096213Y-2868865D01*
X-3096269Y-2868924D01*
X-3096329Y-2868980D01*
X-3096390Y-2869033D01*
X-3096454Y-2869083D01*
X-3096521Y-2869131D01*
X-3096589Y-2869175D01*
X-3096660Y-2869216D01*
X-3096732Y-2869254D01*
X-3096806Y-2869288D01*
X-3096881Y-2869319D01*
X-3096958Y-2869347D01*
X-3097036Y-2869371D01*
X-3097115Y-2869391D01*
X-3097195Y-2869408D01*
X-3097275Y-2869421D01*
X-3097356Y-2869431D01*
X-3097437Y-2869436D01*
X-3097519Y-2869438D01*
X-3099438Y-2867519D02*
X-3095600Y-2862721D01*
D11*
X-3063872Y-2799140D02*
X-3168872Y-2799140D01*
X-3168872Y-2890730D02*
X-3063872Y-2890730D01*
X-3168872Y-2890730D02*
X-3168872Y-2876380D01*
X-3168872Y-2799140D01*
X-3168872Y-2876380D02*
X-3063872Y-2876380D01*
X-3028872Y-2799140D02*
X-3133872Y-2799140D01*
X-3028872Y-2799140D02*
X-3028872Y-2876380D01*
X-3028872Y-2890730D01*
X-3133872Y-2890730D01*
X-3133872Y-2876380D02*
X-3028872Y-2876380D01*
D10*
X-3080770Y-2792220D02*
X-3116830Y-2792220D01*
X-3116830Y-2744980D02*
X-3080770Y-2744980D01*
D11*
X-3120556Y-2741930D02*
X-3120554Y-2741855D01*
X-3120548Y-2741780D01*
X-3120538Y-2741705D01*
X-3120525Y-2741631D01*
X-3120507Y-2741558D01*
X-3120486Y-2741486D01*
X-3120461Y-2741415D01*
X-3120432Y-2741346D01*
X-3120399Y-2741278D01*
X-3120364Y-2741212D01*
X-3120324Y-2741148D01*
X-3120282Y-2741086D01*
X-3120236Y-2741026D01*
X-3120187Y-2740969D01*
X-3120135Y-2740915D01*
X-3120081Y-2740863D01*
X-3120024Y-2740814D01*
X-3119964Y-2740768D01*
X-3119902Y-2740726D01*
X-3119838Y-2740686D01*
X-3119772Y-2740651D01*
X-3119704Y-2740618D01*
X-3119635Y-2740589D01*
X-3119564Y-2740564D01*
X-3119492Y-2740543D01*
X-3119419Y-2740525D01*
X-3119345Y-2740512D01*
X-3119270Y-2740502D01*
X-3119195Y-2740496D01*
X-3119120Y-2740494D01*
X-3119045Y-2740496D01*
X-3118970Y-2740502D01*
X-3118895Y-2740512D01*
X-3118821Y-2740525D01*
X-3118748Y-2740543D01*
X-3118676Y-2740564D01*
X-3118605Y-2740589D01*
X-3118536Y-2740618D01*
X-3118468Y-2740651D01*
X-3118402Y-2740686D01*
X-3118338Y-2740726D01*
X-3118276Y-2740768D01*
X-3118216Y-2740814D01*
X-3118159Y-2740863D01*
X-3118105Y-2740915D01*
X-3118053Y-2740969D01*
X-3118004Y-2741026D01*
X-3117958Y-2741086D01*
X-3117916Y-2741148D01*
X-3117876Y-2741212D01*
X-3117841Y-2741278D01*
X-3117808Y-2741346D01*
X-3117779Y-2741415D01*
X-3117754Y-2741486D01*
X-3117733Y-2741558D01*
X-3117715Y-2741631D01*
X-3117702Y-2741705D01*
X-3117692Y-2741780D01*
X-3117686Y-2741855D01*
X-3117684Y-2741930D01*
X-3117686Y-2742005D01*
X-3117692Y-2742080D01*
X-3117702Y-2742155D01*
X-3117715Y-2742229D01*
X-3117733Y-2742302D01*
X-3117754Y-2742374D01*
X-3117779Y-2742445D01*
X-3117808Y-2742514D01*
X-3117841Y-2742582D01*
X-3117876Y-2742648D01*
X-3117916Y-2742712D01*
X-3117958Y-2742774D01*
X-3118004Y-2742834D01*
X-3118053Y-2742891D01*
X-3118105Y-2742945D01*
X-3118159Y-2742997D01*
X-3118216Y-2743046D01*
X-3118276Y-2743092D01*
X-3118338Y-2743134D01*
X-3118402Y-2743174D01*
X-3118468Y-2743209D01*
X-3118536Y-2743242D01*
X-3118605Y-2743271D01*
X-3118676Y-2743296D01*
X-3118748Y-2743317D01*
X-3118821Y-2743335D01*
X-3118895Y-2743348D01*
X-3118970Y-2743358D01*
X-3119045Y-2743364D01*
X-3119120Y-2743366D01*
X-3119195Y-2743364D01*
X-3119270Y-2743358D01*
X-3119345Y-2743348D01*
X-3119419Y-2743335D01*
X-3119492Y-2743317D01*
X-3119564Y-2743296D01*
X-3119635Y-2743271D01*
X-3119704Y-2743242D01*
X-3119772Y-2743209D01*
X-3119838Y-2743174D01*
X-3119902Y-2743134D01*
X-3119964Y-2743092D01*
X-3120024Y-2743046D01*
X-3120081Y-2742997D01*
X-3120135Y-2742945D01*
X-3120187Y-2742891D01*
X-3120236Y-2742834D01*
X-3120282Y-2742774D01*
X-3120324Y-2742712D01*
X-3120364Y-2742648D01*
X-3120399Y-2742582D01*
X-3120432Y-2742514D01*
X-3120461Y-2742445D01*
X-3120486Y-2742374D01*
X-3120507Y-2742302D01*
X-3120525Y-2742229D01*
X-3120538Y-2742155D01*
X-3120548Y-2742080D01*
X-3120554Y-2742005D01*
X-3120556Y-2741930D01*
D10*
X-3190819Y-2784602D02*
X-3190819Y-2793238D01*
X-3190819Y-2784602D02*
X-3188420Y-2784602D01*
X-3188323Y-2784604D01*
X-3188227Y-2784610D01*
X-3188131Y-2784619D01*
X-3188035Y-2784633D01*
X-3187940Y-2784650D01*
X-3187846Y-2784672D01*
X-3187753Y-2784697D01*
X-3187660Y-2784725D01*
X-3187569Y-2784758D01*
X-3187480Y-2784794D01*
X-3187392Y-2784834D01*
X-3187305Y-2784877D01*
X-3187221Y-2784923D01*
X-3187138Y-2784973D01*
X-3187057Y-2785027D01*
X-3186979Y-2785083D01*
X-3186903Y-2785143D01*
X-3186829Y-2785205D01*
X-3186758Y-2785271D01*
X-3186690Y-2785339D01*
X-3186624Y-2785410D01*
X-3186562Y-2785484D01*
X-3186502Y-2785560D01*
X-3186446Y-2785638D01*
X-3186392Y-2785719D01*
X-3186342Y-2785802D01*
X-3186296Y-2785886D01*
X-3186253Y-2785973D01*
X-3186213Y-2786061D01*
X-3186177Y-2786150D01*
X-3186144Y-2786241D01*
X-3186116Y-2786334D01*
X-3186091Y-2786427D01*
X-3186069Y-2786521D01*
X-3186052Y-2786616D01*
X-3186038Y-2786712D01*
X-3186029Y-2786808D01*
X-3186023Y-2786904D01*
X-3186021Y-2787001D01*
X-3186023Y-2787098D01*
X-3186029Y-2787194D01*
X-3186038Y-2787290D01*
X-3186052Y-2787386D01*
X-3186069Y-2787481D01*
X-3186091Y-2787575D01*
X-3186116Y-2787668D01*
X-3186144Y-2787761D01*
X-3186177Y-2787852D01*
X-3186213Y-2787941D01*
X-3186253Y-2788029D01*
X-3186296Y-2788116D01*
X-3186342Y-2788201D01*
X-3186392Y-2788283D01*
X-3186446Y-2788364D01*
X-3186502Y-2788442D01*
X-3186562Y-2788518D01*
X-3186624Y-2788592D01*
X-3186690Y-2788663D01*
X-3186758Y-2788731D01*
X-3186829Y-2788797D01*
X-3186903Y-2788859D01*
X-3186979Y-2788919D01*
X-3187057Y-2788975D01*
X-3187138Y-2789029D01*
X-3187221Y-2789079D01*
X-3187305Y-2789125D01*
X-3187392Y-2789168D01*
X-3187480Y-2789208D01*
X-3187569Y-2789244D01*
X-3187660Y-2789277D01*
X-3187753Y-2789305D01*
X-3187846Y-2789330D01*
X-3187940Y-2789352D01*
X-3188035Y-2789369D01*
X-3188131Y-2789383D01*
X-3188227Y-2789392D01*
X-3188323Y-2789398D01*
X-3188420Y-2789400D01*
X-3190819Y-2789400D01*
X-3187940Y-2789400D02*
X-3186021Y-2793238D01*
X-3181759Y-2786521D02*
X-3179360Y-2784602D01*
X-3179360Y-2793238D01*
X-3181759Y-2793238D02*
X-3176961Y-2793238D01*
X-3177032Y-2818384D02*
X-3177032Y-2820783D01*
X-3177032Y-2818384D02*
X-3177034Y-2818287D01*
X-3177040Y-2818191D01*
X-3177049Y-2818095D01*
X-3177063Y-2817999D01*
X-3177080Y-2817904D01*
X-3177102Y-2817810D01*
X-3177127Y-2817717D01*
X-3177155Y-2817624D01*
X-3177188Y-2817533D01*
X-3177224Y-2817444D01*
X-3177264Y-2817356D01*
X-3177307Y-2817269D01*
X-3177353Y-2817185D01*
X-3177403Y-2817102D01*
X-3177457Y-2817021D01*
X-3177513Y-2816943D01*
X-3177573Y-2816867D01*
X-3177635Y-2816793D01*
X-3177701Y-2816722D01*
X-3177769Y-2816654D01*
X-3177840Y-2816588D01*
X-3177914Y-2816526D01*
X-3177990Y-2816466D01*
X-3178068Y-2816410D01*
X-3178149Y-2816356D01*
X-3178232Y-2816306D01*
X-3178316Y-2816260D01*
X-3178403Y-2816217D01*
X-3178491Y-2816177D01*
X-3178580Y-2816141D01*
X-3178671Y-2816108D01*
X-3178764Y-2816080D01*
X-3178857Y-2816055D01*
X-3178951Y-2816033D01*
X-3179046Y-2816016D01*
X-3179142Y-2816002D01*
X-3179238Y-2815993D01*
X-3179334Y-2815987D01*
X-3179431Y-2815985D01*
X-3179528Y-2815987D01*
X-3179624Y-2815993D01*
X-3179720Y-2816002D01*
X-3179816Y-2816016D01*
X-3179911Y-2816033D01*
X-3180005Y-2816055D01*
X-3180098Y-2816080D01*
X-3180191Y-2816108D01*
X-3180282Y-2816141D01*
X-3180371Y-2816177D01*
X-3180459Y-2816217D01*
X-3180546Y-2816260D01*
X-3180631Y-2816306D01*
X-3180713Y-2816356D01*
X-3180794Y-2816410D01*
X-3180872Y-2816466D01*
X-3180948Y-2816526D01*
X-3181022Y-2816588D01*
X-3181093Y-2816654D01*
X-3181161Y-2816722D01*
X-3181227Y-2816793D01*
X-3181289Y-2816867D01*
X-3181349Y-2816943D01*
X-3181405Y-2817021D01*
X-3181459Y-2817102D01*
X-3181509Y-2817185D01*
X-3181555Y-2817269D01*
X-3181598Y-2817356D01*
X-3181638Y-2817444D01*
X-3181674Y-2817533D01*
X-3181707Y-2817624D01*
X-3181735Y-2817717D01*
X-3181760Y-2817810D01*
X-3181782Y-2817904D01*
X-3181799Y-2817999D01*
X-3181813Y-2818095D01*
X-3181822Y-2818191D01*
X-3181828Y-2818287D01*
X-3181830Y-2818384D01*
X-3185668Y-2817904D02*
X-3185668Y-2820783D01*
X-3185668Y-2817904D02*
X-3185666Y-2817818D01*
X-3185660Y-2817732D01*
X-3185651Y-2817646D01*
X-3185637Y-2817561D01*
X-3185620Y-2817477D01*
X-3185599Y-2817393D01*
X-3185574Y-2817311D01*
X-3185546Y-2817230D01*
X-3185514Y-2817150D01*
X-3185478Y-2817071D01*
X-3185439Y-2816995D01*
X-3185396Y-2816920D01*
X-3185351Y-2816847D01*
X-3185302Y-2816776D01*
X-3185249Y-2816708D01*
X-3185194Y-2816641D01*
X-3185136Y-2816578D01*
X-3185075Y-2816517D01*
X-3185012Y-2816459D01*
X-3184945Y-2816404D01*
X-3184877Y-2816351D01*
X-3184806Y-2816302D01*
X-3184733Y-2816257D01*
X-3184658Y-2816214D01*
X-3184582Y-2816175D01*
X-3184503Y-2816139D01*
X-3184423Y-2816107D01*
X-3184342Y-2816079D01*
X-3184260Y-2816054D01*
X-3184176Y-2816033D01*
X-3184092Y-2816016D01*
X-3184007Y-2816002D01*
X-3183921Y-2815993D01*
X-3183835Y-2815987D01*
X-3183749Y-2815985D01*
X-3183663Y-2815987D01*
X-3183577Y-2815993D01*
X-3183491Y-2816002D01*
X-3183406Y-2816016D01*
X-3183322Y-2816033D01*
X-3183238Y-2816054D01*
X-3183156Y-2816079D01*
X-3183075Y-2816107D01*
X-3182995Y-2816139D01*
X-3182916Y-2816175D01*
X-3182840Y-2816214D01*
X-3182765Y-2816257D01*
X-3182692Y-2816302D01*
X-3182621Y-2816351D01*
X-3182553Y-2816404D01*
X-3182486Y-2816459D01*
X-3182423Y-2816517D01*
X-3182362Y-2816578D01*
X-3182304Y-2816641D01*
X-3182249Y-2816708D01*
X-3182196Y-2816776D01*
X-3182147Y-2816847D01*
X-3182102Y-2816920D01*
X-3182059Y-2816995D01*
X-3182020Y-2817071D01*
X-3181984Y-2817150D01*
X-3181952Y-2817230D01*
X-3181924Y-2817311D01*
X-3181899Y-2817393D01*
X-3181878Y-2817477D01*
X-3181861Y-2817561D01*
X-3181847Y-2817646D01*
X-3181838Y-2817732D01*
X-3181832Y-2817818D01*
X-3181830Y-2817904D01*
X-3181830Y-2819823D01*
X-3177032Y-2811639D02*
X-3177032Y-2809240D01*
X-3177034Y-2809143D01*
X-3177040Y-2809047D01*
X-3177049Y-2808951D01*
X-3177063Y-2808855D01*
X-3177080Y-2808760D01*
X-3177102Y-2808666D01*
X-3177127Y-2808573D01*
X-3177155Y-2808480D01*
X-3177188Y-2808389D01*
X-3177224Y-2808300D01*
X-3177264Y-2808212D01*
X-3177307Y-2808125D01*
X-3177353Y-2808041D01*
X-3177403Y-2807958D01*
X-3177457Y-2807877D01*
X-3177513Y-2807799D01*
X-3177573Y-2807723D01*
X-3177635Y-2807649D01*
X-3177701Y-2807578D01*
X-3177769Y-2807510D01*
X-3177840Y-2807444D01*
X-3177914Y-2807382D01*
X-3177990Y-2807322D01*
X-3178068Y-2807266D01*
X-3178149Y-2807212D01*
X-3178232Y-2807162D01*
X-3178316Y-2807116D01*
X-3178403Y-2807073D01*
X-3178491Y-2807033D01*
X-3178580Y-2806997D01*
X-3178671Y-2806964D01*
X-3178764Y-2806936D01*
X-3178857Y-2806911D01*
X-3178951Y-2806889D01*
X-3179046Y-2806872D01*
X-3179142Y-2806858D01*
X-3179238Y-2806849D01*
X-3179334Y-2806843D01*
X-3179431Y-2806841D01*
X-3179528Y-2806843D01*
X-3179624Y-2806849D01*
X-3179720Y-2806858D01*
X-3179816Y-2806872D01*
X-3179911Y-2806889D01*
X-3180005Y-2806911D01*
X-3180098Y-2806936D01*
X-3180191Y-2806964D01*
X-3180282Y-2806997D01*
X-3180371Y-2807033D01*
X-3180459Y-2807073D01*
X-3180546Y-2807116D01*
X-3180631Y-2807162D01*
X-3180713Y-2807212D01*
X-3180794Y-2807266D01*
X-3180872Y-2807322D01*
X-3180948Y-2807382D01*
X-3181022Y-2807444D01*
X-3181093Y-2807510D01*
X-3181161Y-2807578D01*
X-3181227Y-2807649D01*
X-3181289Y-2807723D01*
X-3181349Y-2807799D01*
X-3181405Y-2807877D01*
X-3181459Y-2807958D01*
X-3181509Y-2808041D01*
X-3181555Y-2808125D01*
X-3181598Y-2808212D01*
X-3181638Y-2808300D01*
X-3181674Y-2808389D01*
X-3181707Y-2808480D01*
X-3181735Y-2808573D01*
X-3181760Y-2808666D01*
X-3181782Y-2808760D01*
X-3181799Y-2808855D01*
X-3181813Y-2808951D01*
X-3181822Y-2809047D01*
X-3181828Y-2809143D01*
X-3181830Y-2809240D01*
X-3185668Y-2808760D02*
X-3185668Y-2811639D01*
X-3185668Y-2808760D02*
X-3185666Y-2808674D01*
X-3185660Y-2808588D01*
X-3185651Y-2808502D01*
X-3185637Y-2808417D01*
X-3185620Y-2808333D01*
X-3185599Y-2808249D01*
X-3185574Y-2808167D01*
X-3185546Y-2808086D01*
X-3185514Y-2808006D01*
X-3185478Y-2807927D01*
X-3185439Y-2807851D01*
X-3185396Y-2807776D01*
X-3185351Y-2807703D01*
X-3185302Y-2807632D01*
X-3185249Y-2807564D01*
X-3185194Y-2807497D01*
X-3185136Y-2807434D01*
X-3185075Y-2807373D01*
X-3185012Y-2807315D01*
X-3184945Y-2807260D01*
X-3184877Y-2807207D01*
X-3184806Y-2807158D01*
X-3184733Y-2807113D01*
X-3184658Y-2807070D01*
X-3184582Y-2807031D01*
X-3184503Y-2806995D01*
X-3184423Y-2806963D01*
X-3184342Y-2806935D01*
X-3184260Y-2806910D01*
X-3184176Y-2806889D01*
X-3184092Y-2806872D01*
X-3184007Y-2806858D01*
X-3183921Y-2806849D01*
X-3183835Y-2806843D01*
X-3183749Y-2806841D01*
X-3183663Y-2806843D01*
X-3183577Y-2806849D01*
X-3183491Y-2806858D01*
X-3183406Y-2806872D01*
X-3183322Y-2806889D01*
X-3183238Y-2806910D01*
X-3183156Y-2806935D01*
X-3183075Y-2806963D01*
X-3182995Y-2806995D01*
X-3182916Y-2807031D01*
X-3182840Y-2807070D01*
X-3182765Y-2807113D01*
X-3182692Y-2807158D01*
X-3182621Y-2807207D01*
X-3182553Y-2807260D01*
X-3182486Y-2807315D01*
X-3182423Y-2807373D01*
X-3182362Y-2807434D01*
X-3182304Y-2807497D01*
X-3182249Y-2807564D01*
X-3182196Y-2807632D01*
X-3182147Y-2807703D01*
X-3182102Y-2807776D01*
X-3182059Y-2807851D01*
X-3182020Y-2807927D01*
X-3181984Y-2808006D01*
X-3181952Y-2808086D01*
X-3181924Y-2808167D01*
X-3181899Y-2808249D01*
X-3181878Y-2808333D01*
X-3181861Y-2808417D01*
X-3181847Y-2808502D01*
X-3181838Y-2808588D01*
X-3181832Y-2808674D01*
X-3181830Y-2808760D01*
X-3181830Y-2810679D01*
X-3181350Y-2802495D02*
X-3181520Y-2802493D01*
X-3181690Y-2802487D01*
X-3181859Y-2802477D01*
X-3182029Y-2802463D01*
X-3182198Y-2802444D01*
X-3182366Y-2802422D01*
X-3182534Y-2802396D01*
X-3182701Y-2802366D01*
X-3182867Y-2802331D01*
X-3183033Y-2802293D01*
X-3183198Y-2802251D01*
X-3183361Y-2802205D01*
X-3183524Y-2802155D01*
X-3183685Y-2802101D01*
X-3183845Y-2802044D01*
X-3184003Y-2801982D01*
X-3184160Y-2801917D01*
X-3184315Y-2801848D01*
X-3184469Y-2801775D01*
X-3184545Y-2801747D01*
X-3184620Y-2801715D01*
X-3184694Y-2801680D01*
X-3184766Y-2801642D01*
X-3184836Y-2801600D01*
X-3184904Y-2801555D01*
X-3184970Y-2801507D01*
X-3185034Y-2801456D01*
X-3185095Y-2801402D01*
X-3185154Y-2801346D01*
X-3185210Y-2801286D01*
X-3185263Y-2801225D01*
X-3185313Y-2801161D01*
X-3185361Y-2801094D01*
X-3185405Y-2801026D01*
X-3185446Y-2800955D01*
X-3185484Y-2800883D01*
X-3185518Y-2800809D01*
X-3185549Y-2800734D01*
X-3185577Y-2800657D01*
X-3185601Y-2800579D01*
X-3185621Y-2800500D01*
X-3185638Y-2800420D01*
X-3185651Y-2800340D01*
X-3185661Y-2800259D01*
X-3185666Y-2800178D01*
X-3185668Y-2800096D01*
X-3185666Y-2800014D01*
X-3185661Y-2799933D01*
X-3185651Y-2799852D01*
X-3185638Y-2799772D01*
X-3185621Y-2799692D01*
X-3185601Y-2799613D01*
X-3185577Y-2799535D01*
X-3185549Y-2799458D01*
X-3185518Y-2799383D01*
X-3185484Y-2799309D01*
X-3185446Y-2799237D01*
X-3185405Y-2799166D01*
X-3185361Y-2799098D01*
X-3185313Y-2799031D01*
X-3185263Y-2798967D01*
X-3185210Y-2798906D01*
X-3185154Y-2798846D01*
X-3185095Y-2798790D01*
X-3185034Y-2798736D01*
X-3184970Y-2798685D01*
X-3184904Y-2798637D01*
X-3184836Y-2798592D01*
X-3184766Y-2798550D01*
X-3184694Y-2798512D01*
X-3184620Y-2798477D01*
X-3184545Y-2798445D01*
X-3184469Y-2798417D01*
X-3184315Y-2798344D01*
X-3184160Y-2798275D01*
X-3184003Y-2798210D01*
X-3183845Y-2798148D01*
X-3183685Y-2798091D01*
X-3183524Y-2798037D01*
X-3183361Y-2797987D01*
X-3183198Y-2797941D01*
X-3183033Y-2797899D01*
X-3182867Y-2797861D01*
X-3182701Y-2797826D01*
X-3182534Y-2797796D01*
X-3182366Y-2797770D01*
X-3182198Y-2797748D01*
X-3182029Y-2797729D01*
X-3181859Y-2797715D01*
X-3181690Y-2797705D01*
X-3181520Y-2797699D01*
X-3181350Y-2797697D01*
X-3181350Y-2802495D02*
X-3181180Y-2802493D01*
X-3181010Y-2802487D01*
X-3180841Y-2802477D01*
X-3180671Y-2802463D01*
X-3180502Y-2802444D01*
X-3180334Y-2802422D01*
X-3180166Y-2802396D01*
X-3179999Y-2802366D01*
X-3179833Y-2802331D01*
X-3179667Y-2802293D01*
X-3179502Y-2802251D01*
X-3179339Y-2802205D01*
X-3179177Y-2802155D01*
X-3179015Y-2802101D01*
X-3178856Y-2802044D01*
X-3178697Y-2801982D01*
X-3178540Y-2801917D01*
X-3178385Y-2801848D01*
X-3178231Y-2801775D01*
X-3178155Y-2801747D01*
X-3178080Y-2801715D01*
X-3178006Y-2801680D01*
X-3177934Y-2801642D01*
X-3177864Y-2801600D01*
X-3177796Y-2801555D01*
X-3177730Y-2801507D01*
X-3177666Y-2801456D01*
X-3177605Y-2801402D01*
X-3177546Y-2801346D01*
X-3177490Y-2801286D01*
X-3177437Y-2801225D01*
X-3177387Y-2801161D01*
X-3177339Y-2801094D01*
X-3177295Y-2801026D01*
X-3177254Y-2800955D01*
X-3177216Y-2800883D01*
X-3177182Y-2800809D01*
X-3177151Y-2800734D01*
X-3177123Y-2800657D01*
X-3177099Y-2800579D01*
X-3177079Y-2800500D01*
X-3177062Y-2800420D01*
X-3177049Y-2800340D01*
X-3177039Y-2800259D01*
X-3177034Y-2800178D01*
X-3177032Y-2800096D01*
X-3178231Y-2798417D02*
X-3178385Y-2798344D01*
X-3178540Y-2798275D01*
X-3178697Y-2798210D01*
X-3178856Y-2798148D01*
X-3179015Y-2798091D01*
X-3179177Y-2798037D01*
X-3179339Y-2797987D01*
X-3179502Y-2797941D01*
X-3179667Y-2797899D01*
X-3179833Y-2797861D01*
X-3179999Y-2797826D01*
X-3180166Y-2797796D01*
X-3180334Y-2797770D01*
X-3180502Y-2797748D01*
X-3180671Y-2797729D01*
X-3180841Y-2797715D01*
X-3181010Y-2797705D01*
X-3181180Y-2797699D01*
X-3181350Y-2797697D01*
X-3178231Y-2798417D02*
X-3178155Y-2798445D01*
X-3178080Y-2798477D01*
X-3178006Y-2798512D01*
X-3177934Y-2798550D01*
X-3177864Y-2798592D01*
X-3177796Y-2798637D01*
X-3177730Y-2798685D01*
X-3177666Y-2798736D01*
X-3177605Y-2798790D01*
X-3177546Y-2798846D01*
X-3177490Y-2798906D01*
X-3177437Y-2798967D01*
X-3177387Y-2799031D01*
X-3177339Y-2799098D01*
X-3177295Y-2799166D01*
X-3177254Y-2799237D01*
X-3177216Y-2799309D01*
X-3177182Y-2799383D01*
X-3177151Y-2799458D01*
X-3177123Y-2799535D01*
X-3177099Y-2799613D01*
X-3177079Y-2799692D01*
X-3177062Y-2799772D01*
X-3177049Y-2799852D01*
X-3177039Y-2799933D01*
X-3177034Y-2800014D01*
X-3177032Y-2800096D01*
X-3178951Y-2802015D02*
X-3183749Y-2798177D01*
X-3019369Y-2793238D02*
X-3019369Y-2784602D01*
X-3016970Y-2784602D01*
X-3016873Y-2784604D01*
X-3016777Y-2784610D01*
X-3016681Y-2784619D01*
X-3016585Y-2784633D01*
X-3016490Y-2784650D01*
X-3016396Y-2784672D01*
X-3016303Y-2784697D01*
X-3016210Y-2784725D01*
X-3016119Y-2784758D01*
X-3016030Y-2784794D01*
X-3015942Y-2784834D01*
X-3015855Y-2784877D01*
X-3015771Y-2784923D01*
X-3015688Y-2784973D01*
X-3015607Y-2785027D01*
X-3015529Y-2785083D01*
X-3015453Y-2785143D01*
X-3015379Y-2785205D01*
X-3015308Y-2785271D01*
X-3015240Y-2785339D01*
X-3015174Y-2785410D01*
X-3015112Y-2785484D01*
X-3015052Y-2785560D01*
X-3014996Y-2785638D01*
X-3014942Y-2785719D01*
X-3014892Y-2785802D01*
X-3014846Y-2785886D01*
X-3014803Y-2785973D01*
X-3014763Y-2786061D01*
X-3014727Y-2786150D01*
X-3014694Y-2786241D01*
X-3014666Y-2786334D01*
X-3014641Y-2786427D01*
X-3014619Y-2786521D01*
X-3014602Y-2786616D01*
X-3014588Y-2786712D01*
X-3014579Y-2786808D01*
X-3014573Y-2786904D01*
X-3014571Y-2787001D01*
X-3014573Y-2787098D01*
X-3014579Y-2787194D01*
X-3014588Y-2787290D01*
X-3014602Y-2787386D01*
X-3014619Y-2787481D01*
X-3014641Y-2787575D01*
X-3014666Y-2787668D01*
X-3014694Y-2787761D01*
X-3014727Y-2787852D01*
X-3014763Y-2787941D01*
X-3014803Y-2788029D01*
X-3014846Y-2788116D01*
X-3014892Y-2788201D01*
X-3014942Y-2788283D01*
X-3014996Y-2788364D01*
X-3015052Y-2788442D01*
X-3015112Y-2788518D01*
X-3015174Y-2788592D01*
X-3015240Y-2788663D01*
X-3015308Y-2788731D01*
X-3015379Y-2788797D01*
X-3015453Y-2788859D01*
X-3015529Y-2788919D01*
X-3015607Y-2788975D01*
X-3015688Y-2789029D01*
X-3015771Y-2789079D01*
X-3015855Y-2789125D01*
X-3015942Y-2789168D01*
X-3016030Y-2789208D01*
X-3016119Y-2789244D01*
X-3016210Y-2789277D01*
X-3016303Y-2789305D01*
X-3016396Y-2789330D01*
X-3016490Y-2789352D01*
X-3016585Y-2789369D01*
X-3016681Y-2789383D01*
X-3016777Y-2789392D01*
X-3016873Y-2789398D01*
X-3016970Y-2789400D01*
X-3019369Y-2789400D01*
X-3016490Y-2789400D02*
X-3014571Y-2793238D01*
X-3007670Y-2784602D02*
X-3007578Y-2784604D01*
X-3007487Y-2784610D01*
X-3007396Y-2784619D01*
X-3007305Y-2784633D01*
X-3007215Y-2784650D01*
X-3007126Y-2784672D01*
X-3007038Y-2784697D01*
X-3006951Y-2784725D01*
X-3006865Y-2784758D01*
X-3006781Y-2784794D01*
X-3006698Y-2784833D01*
X-3006617Y-2784876D01*
X-3006538Y-2784923D01*
X-3006461Y-2784972D01*
X-3006386Y-2785025D01*
X-3006314Y-2785081D01*
X-3006244Y-2785140D01*
X-3006176Y-2785202D01*
X-3006111Y-2785267D01*
X-3006049Y-2785335D01*
X-3005990Y-2785405D01*
X-3005934Y-2785477D01*
X-3005881Y-2785552D01*
X-3005832Y-2785629D01*
X-3005785Y-2785708D01*
X-3005742Y-2785789D01*
X-3005703Y-2785872D01*
X-3005667Y-2785956D01*
X-3005634Y-2786042D01*
X-3005606Y-2786129D01*
X-3005581Y-2786217D01*
X-3005559Y-2786306D01*
X-3005542Y-2786396D01*
X-3005528Y-2786487D01*
X-3005519Y-2786578D01*
X-3005513Y-2786669D01*
X-3005511Y-2786761D01*
X-3007670Y-2784602D02*
X-3007773Y-2784604D01*
X-3007875Y-2784610D01*
X-3007977Y-2784619D01*
X-3008079Y-2784632D01*
X-3008180Y-2784649D01*
X-3008281Y-2784670D01*
X-3008380Y-2784694D01*
X-3008479Y-2784723D01*
X-3008576Y-2784754D01*
X-3008673Y-2784790D01*
X-3008768Y-2784828D01*
X-3008861Y-2784871D01*
X-3008953Y-2784917D01*
X-3009043Y-2784966D01*
X-3009131Y-2785018D01*
X-3009218Y-2785074D01*
X-3009302Y-2785133D01*
X-3009383Y-2785194D01*
X-3009463Y-2785259D01*
X-3009540Y-2785327D01*
X-3009615Y-2785398D01*
X-3009686Y-2785471D01*
X-3009755Y-2785547D01*
X-3009822Y-2785625D01*
X-3009885Y-2785706D01*
X-3009945Y-2785789D01*
X-3010002Y-2785874D01*
X-3010056Y-2785961D01*
X-3010107Y-2786051D01*
X-3010154Y-2786142D01*
X-3010198Y-2786234D01*
X-3010239Y-2786329D01*
X-3010276Y-2786424D01*
X-3010309Y-2786521D01*
X-3006231Y-2788440D02*
X-3006164Y-2788374D01*
X-3006100Y-2788305D01*
X-3006039Y-2788234D01*
X-3005981Y-2788160D01*
X-3005926Y-2788084D01*
X-3005874Y-2788006D01*
X-3005825Y-2787926D01*
X-3005779Y-2787844D01*
X-3005737Y-2787760D01*
X-3005698Y-2787674D01*
X-3005663Y-2787587D01*
X-3005632Y-2787499D01*
X-3005604Y-2787409D01*
X-3005579Y-2787319D01*
X-3005558Y-2787227D01*
X-3005541Y-2787135D01*
X-3005528Y-2787042D01*
X-3005519Y-2786949D01*
X-3005513Y-2786855D01*
X-3005511Y-2786761D01*
X-3006231Y-2788440D02*
X-3010309Y-2793238D01*
X-3005511Y-2793238D01*
X-3011932Y-2818384D02*
X-3011932Y-2820783D01*
X-3011932Y-2818384D02*
X-3011934Y-2818287D01*
X-3011940Y-2818191D01*
X-3011949Y-2818095D01*
X-3011963Y-2817999D01*
X-3011980Y-2817904D01*
X-3012002Y-2817810D01*
X-3012027Y-2817717D01*
X-3012055Y-2817624D01*
X-3012088Y-2817533D01*
X-3012124Y-2817444D01*
X-3012164Y-2817356D01*
X-3012207Y-2817269D01*
X-3012253Y-2817185D01*
X-3012303Y-2817102D01*
X-3012357Y-2817021D01*
X-3012413Y-2816943D01*
X-3012473Y-2816867D01*
X-3012535Y-2816793D01*
X-3012601Y-2816722D01*
X-3012669Y-2816654D01*
X-3012740Y-2816588D01*
X-3012814Y-2816526D01*
X-3012890Y-2816466D01*
X-3012968Y-2816410D01*
X-3013049Y-2816356D01*
X-3013132Y-2816306D01*
X-3013216Y-2816260D01*
X-3013303Y-2816217D01*
X-3013391Y-2816177D01*
X-3013480Y-2816141D01*
X-3013571Y-2816108D01*
X-3013664Y-2816080D01*
X-3013757Y-2816055D01*
X-3013851Y-2816033D01*
X-3013946Y-2816016D01*
X-3014042Y-2816002D01*
X-3014138Y-2815993D01*
X-3014234Y-2815987D01*
X-3014331Y-2815985D01*
X-3014428Y-2815987D01*
X-3014524Y-2815993D01*
X-3014620Y-2816002D01*
X-3014716Y-2816016D01*
X-3014811Y-2816033D01*
X-3014905Y-2816055D01*
X-3014998Y-2816080D01*
X-3015091Y-2816108D01*
X-3015182Y-2816141D01*
X-3015271Y-2816177D01*
X-3015359Y-2816217D01*
X-3015446Y-2816260D01*
X-3015531Y-2816306D01*
X-3015613Y-2816356D01*
X-3015694Y-2816410D01*
X-3015772Y-2816466D01*
X-3015848Y-2816526D01*
X-3015922Y-2816588D01*
X-3015993Y-2816654D01*
X-3016061Y-2816722D01*
X-3016127Y-2816793D01*
X-3016189Y-2816867D01*
X-3016249Y-2816943D01*
X-3016305Y-2817021D01*
X-3016359Y-2817102D01*
X-3016409Y-2817185D01*
X-3016455Y-2817269D01*
X-3016498Y-2817356D01*
X-3016538Y-2817444D01*
X-3016574Y-2817533D01*
X-3016607Y-2817624D01*
X-3016635Y-2817717D01*
X-3016660Y-2817810D01*
X-3016682Y-2817904D01*
X-3016699Y-2817999D01*
X-3016713Y-2818095D01*
X-3016722Y-2818191D01*
X-3016728Y-2818287D01*
X-3016730Y-2818384D01*
X-3020568Y-2817904D02*
X-3020568Y-2820783D01*
X-3020568Y-2817904D02*
X-3020566Y-2817818D01*
X-3020560Y-2817732D01*
X-3020551Y-2817646D01*
X-3020537Y-2817561D01*
X-3020520Y-2817477D01*
X-3020499Y-2817393D01*
X-3020474Y-2817311D01*
X-3020446Y-2817230D01*
X-3020414Y-2817150D01*
X-3020378Y-2817071D01*
X-3020339Y-2816995D01*
X-3020296Y-2816920D01*
X-3020251Y-2816847D01*
X-3020202Y-2816776D01*
X-3020149Y-2816708D01*
X-3020094Y-2816641D01*
X-3020036Y-2816578D01*
X-3019975Y-2816517D01*
X-3019912Y-2816459D01*
X-3019845Y-2816404D01*
X-3019777Y-2816351D01*
X-3019706Y-2816302D01*
X-3019633Y-2816257D01*
X-3019558Y-2816214D01*
X-3019482Y-2816175D01*
X-3019403Y-2816139D01*
X-3019323Y-2816107D01*
X-3019242Y-2816079D01*
X-3019160Y-2816054D01*
X-3019076Y-2816033D01*
X-3018992Y-2816016D01*
X-3018907Y-2816002D01*
X-3018821Y-2815993D01*
X-3018735Y-2815987D01*
X-3018649Y-2815985D01*
X-3018563Y-2815987D01*
X-3018477Y-2815993D01*
X-3018391Y-2816002D01*
X-3018306Y-2816016D01*
X-3018222Y-2816033D01*
X-3018138Y-2816054D01*
X-3018056Y-2816079D01*
X-3017975Y-2816107D01*
X-3017895Y-2816139D01*
X-3017816Y-2816175D01*
X-3017740Y-2816214D01*
X-3017665Y-2816257D01*
X-3017592Y-2816302D01*
X-3017521Y-2816351D01*
X-3017453Y-2816404D01*
X-3017386Y-2816459D01*
X-3017323Y-2816517D01*
X-3017262Y-2816578D01*
X-3017204Y-2816641D01*
X-3017149Y-2816708D01*
X-3017096Y-2816776D01*
X-3017047Y-2816847D01*
X-3017002Y-2816920D01*
X-3016959Y-2816995D01*
X-3016920Y-2817071D01*
X-3016884Y-2817150D01*
X-3016852Y-2817230D01*
X-3016824Y-2817311D01*
X-3016799Y-2817393D01*
X-3016778Y-2817477D01*
X-3016761Y-2817561D01*
X-3016747Y-2817646D01*
X-3016738Y-2817732D01*
X-3016732Y-2817818D01*
X-3016730Y-2817904D01*
X-3016730Y-2819823D01*
X-3011932Y-2811639D02*
X-3011932Y-2809240D01*
X-3011934Y-2809143D01*
X-3011940Y-2809047D01*
X-3011949Y-2808951D01*
X-3011963Y-2808855D01*
X-3011980Y-2808760D01*
X-3012002Y-2808666D01*
X-3012027Y-2808573D01*
X-3012055Y-2808480D01*
X-3012088Y-2808389D01*
X-3012124Y-2808300D01*
X-3012164Y-2808212D01*
X-3012207Y-2808125D01*
X-3012253Y-2808041D01*
X-3012303Y-2807958D01*
X-3012357Y-2807877D01*
X-3012413Y-2807799D01*
X-3012473Y-2807723D01*
X-3012535Y-2807649D01*
X-3012601Y-2807578D01*
X-3012669Y-2807510D01*
X-3012740Y-2807444D01*
X-3012814Y-2807382D01*
X-3012890Y-2807322D01*
X-3012968Y-2807266D01*
X-3013049Y-2807212D01*
X-3013132Y-2807162D01*
X-3013216Y-2807116D01*
X-3013303Y-2807073D01*
X-3013391Y-2807033D01*
X-3013480Y-2806997D01*
X-3013571Y-2806964D01*
X-3013664Y-2806936D01*
X-3013757Y-2806911D01*
X-3013851Y-2806889D01*
X-3013946Y-2806872D01*
X-3014042Y-2806858D01*
X-3014138Y-2806849D01*
X-3014234Y-2806843D01*
X-3014331Y-2806841D01*
X-3014428Y-2806843D01*
X-3014524Y-2806849D01*
X-3014620Y-2806858D01*
X-3014716Y-2806872D01*
X-3014811Y-2806889D01*
X-3014905Y-2806911D01*
X-3014998Y-2806936D01*
X-3015091Y-2806964D01*
X-3015182Y-2806997D01*
X-3015271Y-2807033D01*
X-3015359Y-2807073D01*
X-3015446Y-2807116D01*
X-3015531Y-2807162D01*
X-3015613Y-2807212D01*
X-3015694Y-2807266D01*
X-3015772Y-2807322D01*
X-3015848Y-2807382D01*
X-3015922Y-2807444D01*
X-3015993Y-2807510D01*
X-3016061Y-2807578D01*
X-3016127Y-2807649D01*
X-3016189Y-2807723D01*
X-3016249Y-2807799D01*
X-3016305Y-2807877D01*
X-3016359Y-2807958D01*
X-3016409Y-2808041D01*
X-3016455Y-2808125D01*
X-3016498Y-2808212D01*
X-3016538Y-2808300D01*
X-3016574Y-2808389D01*
X-3016607Y-2808480D01*
X-3016635Y-2808573D01*
X-3016660Y-2808666D01*
X-3016682Y-2808760D01*
X-3016699Y-2808855D01*
X-3016713Y-2808951D01*
X-3016722Y-2809047D01*
X-3016728Y-2809143D01*
X-3016730Y-2809240D01*
X-3020568Y-2808760D02*
X-3020568Y-2811639D01*
X-3020568Y-2808760D02*
X-3020566Y-2808674D01*
X-3020560Y-2808588D01*
X-3020551Y-2808502D01*
X-3020537Y-2808417D01*
X-3020520Y-2808333D01*
X-3020499Y-2808249D01*
X-3020474Y-2808167D01*
X-3020446Y-2808086D01*
X-3020414Y-2808006D01*
X-3020378Y-2807927D01*
X-3020339Y-2807851D01*
X-3020296Y-2807776D01*
X-3020251Y-2807703D01*
X-3020202Y-2807632D01*
X-3020149Y-2807564D01*
X-3020094Y-2807497D01*
X-3020036Y-2807434D01*
X-3019975Y-2807373D01*
X-3019912Y-2807315D01*
X-3019845Y-2807260D01*
X-3019777Y-2807207D01*
X-3019706Y-2807158D01*
X-3019633Y-2807113D01*
X-3019558Y-2807070D01*
X-3019482Y-2807031D01*
X-3019403Y-2806995D01*
X-3019323Y-2806963D01*
X-3019242Y-2806935D01*
X-3019160Y-2806910D01*
X-3019076Y-2806889D01*
X-3018992Y-2806872D01*
X-3018907Y-2806858D01*
X-3018821Y-2806849D01*
X-3018735Y-2806843D01*
X-3018649Y-2806841D01*
X-3018563Y-2806843D01*
X-3018477Y-2806849D01*
X-3018391Y-2806858D01*
X-3018306Y-2806872D01*
X-3018222Y-2806889D01*
X-3018138Y-2806910D01*
X-3018056Y-2806935D01*
X-3017975Y-2806963D01*
X-3017895Y-2806995D01*
X-3017816Y-2807031D01*
X-3017740Y-2807070D01*
X-3017665Y-2807113D01*
X-3017592Y-2807158D01*
X-3017521Y-2807207D01*
X-3017453Y-2807260D01*
X-3017386Y-2807315D01*
X-3017323Y-2807373D01*
X-3017262Y-2807434D01*
X-3017204Y-2807497D01*
X-3017149Y-2807564D01*
X-3017096Y-2807632D01*
X-3017047Y-2807703D01*
X-3017002Y-2807776D01*
X-3016959Y-2807851D01*
X-3016920Y-2807927D01*
X-3016884Y-2808006D01*
X-3016852Y-2808086D01*
X-3016824Y-2808167D01*
X-3016799Y-2808249D01*
X-3016778Y-2808333D01*
X-3016761Y-2808417D01*
X-3016747Y-2808502D01*
X-3016738Y-2808588D01*
X-3016732Y-2808674D01*
X-3016730Y-2808760D01*
X-3016730Y-2810679D01*
X-3016250Y-2802495D02*
X-3016420Y-2802493D01*
X-3016590Y-2802487D01*
X-3016759Y-2802477D01*
X-3016929Y-2802463D01*
X-3017098Y-2802444D01*
X-3017266Y-2802422D01*
X-3017434Y-2802396D01*
X-3017601Y-2802366D01*
X-3017767Y-2802331D01*
X-3017933Y-2802293D01*
X-3018098Y-2802251D01*
X-3018261Y-2802205D01*
X-3018424Y-2802155D01*
X-3018585Y-2802101D01*
X-3018745Y-2802044D01*
X-3018903Y-2801982D01*
X-3019060Y-2801917D01*
X-3019215Y-2801848D01*
X-3019369Y-2801775D01*
X-3019445Y-2801747D01*
X-3019520Y-2801715D01*
X-3019594Y-2801680D01*
X-3019666Y-2801642D01*
X-3019736Y-2801600D01*
X-3019804Y-2801555D01*
X-3019870Y-2801507D01*
X-3019934Y-2801456D01*
X-3019995Y-2801402D01*
X-3020054Y-2801346D01*
X-3020110Y-2801286D01*
X-3020163Y-2801225D01*
X-3020213Y-2801161D01*
X-3020261Y-2801094D01*
X-3020305Y-2801026D01*
X-3020346Y-2800955D01*
X-3020384Y-2800883D01*
X-3020418Y-2800809D01*
X-3020449Y-2800734D01*
X-3020477Y-2800657D01*
X-3020501Y-2800579D01*
X-3020521Y-2800500D01*
X-3020538Y-2800420D01*
X-3020551Y-2800340D01*
X-3020561Y-2800259D01*
X-3020566Y-2800178D01*
X-3020568Y-2800096D01*
X-3020566Y-2800014D01*
X-3020561Y-2799933D01*
X-3020551Y-2799852D01*
X-3020538Y-2799772D01*
X-3020521Y-2799692D01*
X-3020501Y-2799613D01*
X-3020477Y-2799535D01*
X-3020449Y-2799458D01*
X-3020418Y-2799383D01*
X-3020384Y-2799309D01*
X-3020346Y-2799237D01*
X-3020305Y-2799166D01*
X-3020261Y-2799098D01*
X-3020213Y-2799031D01*
X-3020163Y-2798967D01*
X-3020110Y-2798906D01*
X-3020054Y-2798846D01*
X-3019995Y-2798790D01*
X-3019934Y-2798736D01*
X-3019870Y-2798685D01*
X-3019804Y-2798637D01*
X-3019736Y-2798592D01*
X-3019666Y-2798550D01*
X-3019594Y-2798512D01*
X-3019520Y-2798477D01*
X-3019445Y-2798445D01*
X-3019369Y-2798417D01*
X-3019215Y-2798344D01*
X-3019060Y-2798275D01*
X-3018903Y-2798210D01*
X-3018745Y-2798148D01*
X-3018585Y-2798091D01*
X-3018424Y-2798037D01*
X-3018261Y-2797987D01*
X-3018098Y-2797941D01*
X-3017933Y-2797899D01*
X-3017767Y-2797861D01*
X-3017601Y-2797826D01*
X-3017434Y-2797796D01*
X-3017266Y-2797770D01*
X-3017098Y-2797748D01*
X-3016929Y-2797729D01*
X-3016759Y-2797715D01*
X-3016590Y-2797705D01*
X-3016420Y-2797699D01*
X-3016250Y-2797697D01*
X-3016250Y-2802495D02*
X-3016080Y-2802493D01*
X-3015910Y-2802487D01*
X-3015741Y-2802477D01*
X-3015571Y-2802463D01*
X-3015402Y-2802444D01*
X-3015234Y-2802422D01*
X-3015066Y-2802396D01*
X-3014899Y-2802366D01*
X-3014733Y-2802331D01*
X-3014567Y-2802293D01*
X-3014402Y-2802251D01*
X-3014239Y-2802205D01*
X-3014077Y-2802155D01*
X-3013915Y-2802101D01*
X-3013756Y-2802044D01*
X-3013597Y-2801982D01*
X-3013440Y-2801917D01*
X-3013285Y-2801848D01*
X-3013131Y-2801775D01*
X-3013055Y-2801747D01*
X-3012980Y-2801715D01*
X-3012906Y-2801680D01*
X-3012834Y-2801642D01*
X-3012764Y-2801600D01*
X-3012696Y-2801555D01*
X-3012630Y-2801507D01*
X-3012566Y-2801456D01*
X-3012505Y-2801402D01*
X-3012446Y-2801346D01*
X-3012390Y-2801286D01*
X-3012337Y-2801225D01*
X-3012287Y-2801161D01*
X-3012239Y-2801094D01*
X-3012195Y-2801026D01*
X-3012154Y-2800955D01*
X-3012116Y-2800883D01*
X-3012082Y-2800809D01*
X-3012051Y-2800734D01*
X-3012023Y-2800657D01*
X-3011999Y-2800579D01*
X-3011979Y-2800500D01*
X-3011962Y-2800420D01*
X-3011949Y-2800340D01*
X-3011939Y-2800259D01*
X-3011934Y-2800178D01*
X-3011932Y-2800096D01*
X-3013131Y-2798417D02*
X-3013285Y-2798344D01*
X-3013440Y-2798275D01*
X-3013597Y-2798210D01*
X-3013756Y-2798148D01*
X-3013915Y-2798091D01*
X-3014077Y-2798037D01*
X-3014239Y-2797987D01*
X-3014402Y-2797941D01*
X-3014567Y-2797899D01*
X-3014733Y-2797861D01*
X-3014899Y-2797826D01*
X-3015066Y-2797796D01*
X-3015234Y-2797770D01*
X-3015402Y-2797748D01*
X-3015571Y-2797729D01*
X-3015741Y-2797715D01*
X-3015910Y-2797705D01*
X-3016080Y-2797699D01*
X-3016250Y-2797697D01*
X-3013131Y-2798417D02*
X-3013055Y-2798445D01*
X-3012980Y-2798477D01*
X-3012906Y-2798512D01*
X-3012834Y-2798550D01*
X-3012764Y-2798592D01*
X-3012696Y-2798637D01*
X-3012630Y-2798685D01*
X-3012566Y-2798736D01*
X-3012505Y-2798790D01*
X-3012446Y-2798846D01*
X-3012390Y-2798906D01*
X-3012337Y-2798967D01*
X-3012287Y-2799031D01*
X-3012239Y-2799098D01*
X-3012195Y-2799166D01*
X-3012154Y-2799237D01*
X-3012116Y-2799309D01*
X-3012082Y-2799383D01*
X-3012051Y-2799458D01*
X-3012023Y-2799535D01*
X-3011999Y-2799613D01*
X-3011979Y-2799692D01*
X-3011962Y-2799772D01*
X-3011949Y-2799852D01*
X-3011939Y-2799933D01*
X-3011934Y-2800014D01*
X-3011932Y-2800096D01*
X-3013851Y-2802015D02*
X-3018649Y-2798177D01*
X-3014839Y-2752573D02*
X-3016758Y-2750174D01*
X-3008122Y-2750174D01*
X-3008122Y-2752573D02*
X-3008122Y-2747775D01*
X-3012440Y-2743429D02*
X-3012610Y-2743427D01*
X-3012780Y-2743421D01*
X-3012949Y-2743411D01*
X-3013119Y-2743397D01*
X-3013288Y-2743378D01*
X-3013456Y-2743356D01*
X-3013624Y-2743330D01*
X-3013791Y-2743300D01*
X-3013957Y-2743265D01*
X-3014123Y-2743227D01*
X-3014288Y-2743185D01*
X-3014451Y-2743139D01*
X-3014614Y-2743089D01*
X-3014775Y-2743035D01*
X-3014935Y-2742978D01*
X-3015093Y-2742916D01*
X-3015250Y-2742851D01*
X-3015405Y-2742782D01*
X-3015559Y-2742709D01*
X-3015635Y-2742681D01*
X-3015710Y-2742649D01*
X-3015784Y-2742614D01*
X-3015856Y-2742576D01*
X-3015926Y-2742534D01*
X-3015994Y-2742489D01*
X-3016060Y-2742441D01*
X-3016124Y-2742390D01*
X-3016185Y-2742336D01*
X-3016244Y-2742280D01*
X-3016300Y-2742220D01*
X-3016353Y-2742159D01*
X-3016403Y-2742095D01*
X-3016451Y-2742028D01*
X-3016495Y-2741960D01*
X-3016536Y-2741889D01*
X-3016574Y-2741817D01*
X-3016608Y-2741743D01*
X-3016639Y-2741668D01*
X-3016667Y-2741591D01*
X-3016691Y-2741513D01*
X-3016711Y-2741434D01*
X-3016728Y-2741354D01*
X-3016741Y-2741274D01*
X-3016751Y-2741193D01*
X-3016756Y-2741112D01*
X-3016758Y-2741030D01*
X-3016756Y-2740948D01*
X-3016751Y-2740867D01*
X-3016741Y-2740786D01*
X-3016728Y-2740706D01*
X-3016711Y-2740626D01*
X-3016691Y-2740547D01*
X-3016667Y-2740469D01*
X-3016639Y-2740392D01*
X-3016608Y-2740317D01*
X-3016574Y-2740243D01*
X-3016536Y-2740171D01*
X-3016495Y-2740100D01*
X-3016451Y-2740032D01*
X-3016403Y-2739965D01*
X-3016353Y-2739901D01*
X-3016300Y-2739840D01*
X-3016244Y-2739780D01*
X-3016185Y-2739724D01*
X-3016124Y-2739670D01*
X-3016060Y-2739619D01*
X-3015994Y-2739571D01*
X-3015926Y-2739526D01*
X-3015856Y-2739484D01*
X-3015784Y-2739446D01*
X-3015710Y-2739411D01*
X-3015635Y-2739379D01*
X-3015559Y-2739351D01*
X-3015559Y-2739350D02*
X-3015405Y-2739277D01*
X-3015250Y-2739208D01*
X-3015093Y-2739143D01*
X-3014935Y-2739081D01*
X-3014775Y-2739024D01*
X-3014614Y-2738970D01*
X-3014451Y-2738920D01*
X-3014288Y-2738874D01*
X-3014123Y-2738832D01*
X-3013957Y-2738794D01*
X-3013791Y-2738759D01*
X-3013624Y-2738729D01*
X-3013456Y-2738703D01*
X-3013288Y-2738681D01*
X-3013119Y-2738662D01*
X-3012949Y-2738648D01*
X-3012780Y-2738638D01*
X-3012610Y-2738632D01*
X-3012440Y-2738630D01*
X-3012440Y-2743429D02*
X-3012270Y-2743427D01*
X-3012100Y-2743421D01*
X-3011931Y-2743411D01*
X-3011761Y-2743397D01*
X-3011592Y-2743378D01*
X-3011424Y-2743356D01*
X-3011256Y-2743330D01*
X-3011089Y-2743300D01*
X-3010923Y-2743265D01*
X-3010757Y-2743227D01*
X-3010592Y-2743185D01*
X-3010429Y-2743139D01*
X-3010267Y-2743089D01*
X-3010105Y-2743035D01*
X-3009946Y-2742978D01*
X-3009787Y-2742916D01*
X-3009630Y-2742851D01*
X-3009475Y-2742782D01*
X-3009321Y-2742709D01*
X-3009245Y-2742681D01*
X-3009170Y-2742649D01*
X-3009096Y-2742614D01*
X-3009024Y-2742576D01*
X-3008954Y-2742534D01*
X-3008886Y-2742489D01*
X-3008820Y-2742441D01*
X-3008756Y-2742390D01*
X-3008695Y-2742336D01*
X-3008636Y-2742280D01*
X-3008580Y-2742220D01*
X-3008527Y-2742159D01*
X-3008477Y-2742095D01*
X-3008429Y-2742028D01*
X-3008385Y-2741960D01*
X-3008344Y-2741889D01*
X-3008306Y-2741817D01*
X-3008272Y-2741743D01*
X-3008241Y-2741668D01*
X-3008213Y-2741591D01*
X-3008189Y-2741513D01*
X-3008169Y-2741434D01*
X-3008152Y-2741354D01*
X-3008139Y-2741274D01*
X-3008129Y-2741193D01*
X-3008124Y-2741112D01*
X-3008122Y-2741030D01*
X-3009321Y-2739351D02*
X-3009475Y-2739278D01*
X-3009630Y-2739209D01*
X-3009787Y-2739144D01*
X-3009946Y-2739082D01*
X-3010105Y-2739025D01*
X-3010267Y-2738971D01*
X-3010429Y-2738921D01*
X-3010592Y-2738875D01*
X-3010757Y-2738833D01*
X-3010923Y-2738795D01*
X-3011089Y-2738760D01*
X-3011256Y-2738730D01*
X-3011424Y-2738704D01*
X-3011592Y-2738682D01*
X-3011761Y-2738663D01*
X-3011931Y-2738649D01*
X-3012100Y-2738639D01*
X-3012270Y-2738633D01*
X-3012440Y-2738631D01*
X-3009321Y-2739351D02*
X-3009245Y-2739379D01*
X-3009170Y-2739411D01*
X-3009096Y-2739446D01*
X-3009024Y-2739484D01*
X-3008954Y-2739526D01*
X-3008886Y-2739571D01*
X-3008820Y-2739619D01*
X-3008756Y-2739670D01*
X-3008695Y-2739724D01*
X-3008636Y-2739780D01*
X-3008580Y-2739840D01*
X-3008527Y-2739901D01*
X-3008477Y-2739965D01*
X-3008429Y-2740032D01*
X-3008385Y-2740100D01*
X-3008344Y-2740171D01*
X-3008306Y-2740243D01*
X-3008272Y-2740317D01*
X-3008241Y-2740392D01*
X-3008213Y-2740469D01*
X-3008189Y-2740547D01*
X-3008169Y-2740626D01*
X-3008152Y-2740706D01*
X-3008139Y-2740786D01*
X-3008129Y-2740867D01*
X-3008124Y-2740948D01*
X-3008122Y-2741030D01*
X-3010041Y-2742949D02*
X-3014839Y-2739111D01*
X-3012440Y-2734285D02*
X-3012610Y-2734283D01*
X-3012780Y-2734277D01*
X-3012949Y-2734267D01*
X-3013119Y-2734253D01*
X-3013288Y-2734234D01*
X-3013456Y-2734212D01*
X-3013624Y-2734186D01*
X-3013791Y-2734156D01*
X-3013957Y-2734121D01*
X-3014123Y-2734083D01*
X-3014288Y-2734041D01*
X-3014451Y-2733995D01*
X-3014614Y-2733945D01*
X-3014775Y-2733891D01*
X-3014935Y-2733834D01*
X-3015093Y-2733772D01*
X-3015250Y-2733707D01*
X-3015405Y-2733638D01*
X-3015559Y-2733565D01*
X-3015635Y-2733537D01*
X-3015710Y-2733505D01*
X-3015784Y-2733470D01*
X-3015856Y-2733432D01*
X-3015926Y-2733390D01*
X-3015994Y-2733345D01*
X-3016060Y-2733297D01*
X-3016124Y-2733246D01*
X-3016185Y-2733192D01*
X-3016244Y-2733136D01*
X-3016300Y-2733076D01*
X-3016353Y-2733015D01*
X-3016403Y-2732951D01*
X-3016451Y-2732884D01*
X-3016495Y-2732816D01*
X-3016536Y-2732745D01*
X-3016574Y-2732673D01*
X-3016608Y-2732599D01*
X-3016639Y-2732524D01*
X-3016667Y-2732447D01*
X-3016691Y-2732369D01*
X-3016711Y-2732290D01*
X-3016728Y-2732210D01*
X-3016741Y-2732130D01*
X-3016751Y-2732049D01*
X-3016756Y-2731968D01*
X-3016758Y-2731886D01*
X-3016756Y-2731804D01*
X-3016751Y-2731723D01*
X-3016741Y-2731642D01*
X-3016728Y-2731562D01*
X-3016711Y-2731482D01*
X-3016691Y-2731403D01*
X-3016667Y-2731325D01*
X-3016639Y-2731248D01*
X-3016608Y-2731173D01*
X-3016574Y-2731099D01*
X-3016536Y-2731027D01*
X-3016495Y-2730956D01*
X-3016451Y-2730888D01*
X-3016403Y-2730821D01*
X-3016353Y-2730757D01*
X-3016300Y-2730696D01*
X-3016244Y-2730636D01*
X-3016185Y-2730580D01*
X-3016124Y-2730526D01*
X-3016060Y-2730475D01*
X-3015994Y-2730427D01*
X-3015926Y-2730382D01*
X-3015856Y-2730340D01*
X-3015784Y-2730302D01*
X-3015710Y-2730267D01*
X-3015635Y-2730235D01*
X-3015559Y-2730207D01*
X-3015559Y-2730206D02*
X-3015405Y-2730133D01*
X-3015250Y-2730064D01*
X-3015093Y-2729999D01*
X-3014935Y-2729937D01*
X-3014775Y-2729880D01*
X-3014614Y-2729826D01*
X-3014451Y-2729776D01*
X-3014288Y-2729730D01*
X-3014123Y-2729688D01*
X-3013957Y-2729650D01*
X-3013791Y-2729615D01*
X-3013624Y-2729585D01*
X-3013456Y-2729559D01*
X-3013288Y-2729537D01*
X-3013119Y-2729518D01*
X-3012949Y-2729504D01*
X-3012780Y-2729494D01*
X-3012610Y-2729488D01*
X-3012440Y-2729486D01*
X-3012440Y-2734285D02*
X-3012270Y-2734283D01*
X-3012100Y-2734277D01*
X-3011931Y-2734267D01*
X-3011761Y-2734253D01*
X-3011592Y-2734234D01*
X-3011424Y-2734212D01*
X-3011256Y-2734186D01*
X-3011089Y-2734156D01*
X-3010923Y-2734121D01*
X-3010757Y-2734083D01*
X-3010592Y-2734041D01*
X-3010429Y-2733995D01*
X-3010267Y-2733945D01*
X-3010105Y-2733891D01*
X-3009946Y-2733834D01*
X-3009787Y-2733772D01*
X-3009630Y-2733707D01*
X-3009475Y-2733638D01*
X-3009321Y-2733565D01*
X-3009245Y-2733537D01*
X-3009170Y-2733505D01*
X-3009096Y-2733470D01*
X-3009024Y-2733432D01*
X-3008954Y-2733390D01*
X-3008886Y-2733345D01*
X-3008820Y-2733297D01*
X-3008756Y-2733246D01*
X-3008695Y-2733192D01*
X-3008636Y-2733136D01*
X-3008580Y-2733076D01*
X-3008527Y-2733015D01*
X-3008477Y-2732951D01*
X-3008429Y-2732884D01*
X-3008385Y-2732816D01*
X-3008344Y-2732745D01*
X-3008306Y-2732673D01*
X-3008272Y-2732599D01*
X-3008241Y-2732524D01*
X-3008213Y-2732447D01*
X-3008189Y-2732369D01*
X-3008169Y-2732290D01*
X-3008152Y-2732210D01*
X-3008139Y-2732130D01*
X-3008129Y-2732049D01*
X-3008124Y-2731968D01*
X-3008122Y-2731886D01*
X-3009321Y-2730207D02*
X-3009475Y-2730134D01*
X-3009630Y-2730065D01*
X-3009787Y-2730000D01*
X-3009946Y-2729938D01*
X-3010105Y-2729881D01*
X-3010267Y-2729827D01*
X-3010429Y-2729777D01*
X-3010592Y-2729731D01*
X-3010757Y-2729689D01*
X-3010923Y-2729651D01*
X-3011089Y-2729616D01*
X-3011256Y-2729586D01*
X-3011424Y-2729560D01*
X-3011592Y-2729538D01*
X-3011761Y-2729519D01*
X-3011931Y-2729505D01*
X-3012100Y-2729495D01*
X-3012270Y-2729489D01*
X-3012440Y-2729487D01*
X-3009321Y-2730207D02*
X-3009245Y-2730235D01*
X-3009170Y-2730267D01*
X-3009096Y-2730302D01*
X-3009024Y-2730340D01*
X-3008954Y-2730382D01*
X-3008886Y-2730427D01*
X-3008820Y-2730475D01*
X-3008756Y-2730526D01*
X-3008695Y-2730580D01*
X-3008636Y-2730636D01*
X-3008580Y-2730696D01*
X-3008527Y-2730757D01*
X-3008477Y-2730821D01*
X-3008429Y-2730888D01*
X-3008385Y-2730956D01*
X-3008344Y-2731027D01*
X-3008306Y-2731099D01*
X-3008272Y-2731173D01*
X-3008241Y-2731248D01*
X-3008213Y-2731325D01*
X-3008189Y-2731403D01*
X-3008169Y-2731482D01*
X-3008152Y-2731562D01*
X-3008139Y-2731642D01*
X-3008129Y-2731723D01*
X-3008124Y-2731804D01*
X-3008122Y-2731886D01*
X-3010041Y-2733805D02*
X-3014839Y-2729967D01*
X-3013879Y-2724966D02*
X-3008122Y-2724966D01*
X-3013879Y-2724966D02*
X-3013879Y-2722567D01*
X-3013877Y-2722492D01*
X-3013871Y-2722417D01*
X-3013861Y-2722342D01*
X-3013848Y-2722268D01*
X-3013830Y-2722195D01*
X-3013809Y-2722122D01*
X-3013783Y-2722051D01*
X-3013755Y-2721982D01*
X-3013722Y-2721914D01*
X-3013686Y-2721848D01*
X-3013647Y-2721783D01*
X-3013604Y-2721721D01*
X-3013558Y-2721661D01*
X-3013509Y-2721604D01*
X-3013458Y-2721549D01*
X-3013403Y-2721498D01*
X-3013346Y-2721449D01*
X-3013286Y-2721403D01*
X-3013224Y-2721360D01*
X-3013160Y-2721321D01*
X-3013093Y-2721285D01*
X-3013025Y-2721252D01*
X-3012956Y-2721224D01*
X-3012885Y-2721198D01*
X-3012812Y-2721177D01*
X-3012739Y-2721159D01*
X-3012665Y-2721146D01*
X-3012590Y-2721136D01*
X-3012515Y-2721130D01*
X-3012440Y-2721128D01*
X-3012440Y-2721127D02*
X-3008122Y-2721127D01*
X-3016758Y-2771510D02*
X-3014839Y-2773909D01*
X-3016758Y-2771510D02*
X-3008122Y-2771510D01*
X-3008122Y-2773909D02*
X-3008122Y-2769111D01*
X-3009561Y-2764590D02*
X-3013879Y-2764590D01*
X-3009561Y-2764589D02*
X-3009486Y-2764587D01*
X-3009411Y-2764581D01*
X-3009336Y-2764571D01*
X-3009262Y-2764558D01*
X-3009189Y-2764540D01*
X-3009116Y-2764519D01*
X-3009045Y-2764493D01*
X-3008976Y-2764465D01*
X-3008908Y-2764432D01*
X-3008842Y-2764396D01*
X-3008777Y-2764357D01*
X-3008715Y-2764314D01*
X-3008655Y-2764268D01*
X-3008598Y-2764219D01*
X-3008543Y-2764168D01*
X-3008492Y-2764113D01*
X-3008443Y-2764056D01*
X-3008397Y-2763996D01*
X-3008354Y-2763934D01*
X-3008315Y-2763870D01*
X-3008279Y-2763803D01*
X-3008246Y-2763735D01*
X-3008218Y-2763666D01*
X-3008192Y-2763595D01*
X-3008171Y-2763522D01*
X-3008153Y-2763449D01*
X-3008140Y-2763375D01*
X-3008130Y-2763300D01*
X-3008124Y-2763225D01*
X-3008122Y-2763150D01*
X-3008122Y-2760751D01*
X-3013879Y-2760751D01*
X-3190819Y-2747518D02*
X-3190819Y-2738882D01*
X-3188420Y-2738882D01*
X-3188323Y-2738884D01*
X-3188227Y-2738890D01*
X-3188131Y-2738899D01*
X-3188035Y-2738913D01*
X-3187940Y-2738930D01*
X-3187846Y-2738952D01*
X-3187753Y-2738977D01*
X-3187660Y-2739005D01*
X-3187569Y-2739038D01*
X-3187480Y-2739074D01*
X-3187392Y-2739114D01*
X-3187305Y-2739157D01*
X-3187221Y-2739203D01*
X-3187138Y-2739253D01*
X-3187057Y-2739307D01*
X-3186979Y-2739363D01*
X-3186903Y-2739423D01*
X-3186829Y-2739485D01*
X-3186758Y-2739551D01*
X-3186690Y-2739619D01*
X-3186624Y-2739690D01*
X-3186562Y-2739764D01*
X-3186502Y-2739840D01*
X-3186446Y-2739918D01*
X-3186392Y-2739999D01*
X-3186342Y-2740082D01*
X-3186296Y-2740166D01*
X-3186253Y-2740253D01*
X-3186213Y-2740341D01*
X-3186177Y-2740430D01*
X-3186144Y-2740521D01*
X-3186116Y-2740614D01*
X-3186091Y-2740707D01*
X-3186069Y-2740801D01*
X-3186052Y-2740896D01*
X-3186038Y-2740992D01*
X-3186029Y-2741088D01*
X-3186023Y-2741184D01*
X-3186021Y-2741281D01*
X-3186023Y-2741378D01*
X-3186029Y-2741474D01*
X-3186038Y-2741570D01*
X-3186052Y-2741666D01*
X-3186069Y-2741761D01*
X-3186091Y-2741855D01*
X-3186116Y-2741948D01*
X-3186144Y-2742041D01*
X-3186177Y-2742132D01*
X-3186213Y-2742221D01*
X-3186253Y-2742309D01*
X-3186296Y-2742396D01*
X-3186342Y-2742481D01*
X-3186392Y-2742563D01*
X-3186446Y-2742644D01*
X-3186502Y-2742722D01*
X-3186562Y-2742798D01*
X-3186624Y-2742872D01*
X-3186690Y-2742943D01*
X-3186758Y-2743011D01*
X-3186829Y-2743077D01*
X-3186903Y-2743139D01*
X-3186979Y-2743199D01*
X-3187057Y-2743255D01*
X-3187138Y-2743309D01*
X-3187221Y-2743359D01*
X-3187305Y-2743405D01*
X-3187392Y-2743448D01*
X-3187480Y-2743488D01*
X-3187569Y-2743524D01*
X-3187660Y-2743557D01*
X-3187753Y-2743585D01*
X-3187846Y-2743610D01*
X-3187940Y-2743632D01*
X-3188035Y-2743649D01*
X-3188131Y-2743663D01*
X-3188227Y-2743672D01*
X-3188323Y-2743678D01*
X-3188420Y-2743680D01*
X-3190819Y-2743680D01*
X-3187940Y-2743680D02*
X-3186021Y-2747518D01*
X-3181759Y-2747518D02*
X-3179360Y-2747518D01*
X-3179263Y-2747516D01*
X-3179167Y-2747510D01*
X-3179071Y-2747501D01*
X-3178975Y-2747487D01*
X-3178880Y-2747470D01*
X-3178786Y-2747448D01*
X-3178693Y-2747423D01*
X-3178600Y-2747395D01*
X-3178509Y-2747362D01*
X-3178420Y-2747326D01*
X-3178332Y-2747286D01*
X-3178245Y-2747243D01*
X-3178161Y-2747197D01*
X-3178078Y-2747147D01*
X-3177997Y-2747093D01*
X-3177919Y-2747037D01*
X-3177843Y-2746977D01*
X-3177769Y-2746915D01*
X-3177698Y-2746849D01*
X-3177630Y-2746781D01*
X-3177564Y-2746710D01*
X-3177502Y-2746636D01*
X-3177442Y-2746560D01*
X-3177386Y-2746482D01*
X-3177332Y-2746401D01*
X-3177282Y-2746319D01*
X-3177236Y-2746234D01*
X-3177193Y-2746147D01*
X-3177153Y-2746059D01*
X-3177117Y-2745970D01*
X-3177084Y-2745879D01*
X-3177056Y-2745786D01*
X-3177031Y-2745693D01*
X-3177009Y-2745599D01*
X-3176992Y-2745504D01*
X-3176978Y-2745408D01*
X-3176969Y-2745312D01*
X-3176963Y-2745216D01*
X-3176961Y-2745119D01*
X-3176963Y-2745022D01*
X-3176969Y-2744926D01*
X-3176978Y-2744830D01*
X-3176992Y-2744734D01*
X-3177009Y-2744639D01*
X-3177031Y-2744545D01*
X-3177056Y-2744452D01*
X-3177084Y-2744359D01*
X-3177117Y-2744268D01*
X-3177153Y-2744179D01*
X-3177193Y-2744091D01*
X-3177236Y-2744004D01*
X-3177282Y-2743920D01*
X-3177332Y-2743837D01*
X-3177386Y-2743756D01*
X-3177442Y-2743678D01*
X-3177502Y-2743602D01*
X-3177564Y-2743528D01*
X-3177630Y-2743457D01*
X-3177698Y-2743389D01*
X-3177769Y-2743323D01*
X-3177843Y-2743261D01*
X-3177919Y-2743201D01*
X-3177997Y-2743145D01*
X-3178078Y-2743091D01*
X-3178161Y-2743041D01*
X-3178245Y-2742995D01*
X-3178332Y-2742952D01*
X-3178420Y-2742912D01*
X-3178509Y-2742876D01*
X-3178600Y-2742843D01*
X-3178693Y-2742815D01*
X-3178786Y-2742790D01*
X-3178880Y-2742768D01*
X-3178975Y-2742751D01*
X-3179071Y-2742737D01*
X-3179167Y-2742728D01*
X-3179263Y-2742722D01*
X-3179360Y-2742720D01*
X-3178881Y-2738882D02*
X-3181759Y-2738882D01*
X-3178881Y-2738882D02*
X-3178795Y-2738884D01*
X-3178709Y-2738890D01*
X-3178623Y-2738899D01*
X-3178538Y-2738913D01*
X-3178454Y-2738930D01*
X-3178370Y-2738951D01*
X-3178288Y-2738976D01*
X-3178207Y-2739004D01*
X-3178127Y-2739036D01*
X-3178048Y-2739072D01*
X-3177972Y-2739111D01*
X-3177897Y-2739154D01*
X-3177824Y-2739199D01*
X-3177753Y-2739248D01*
X-3177685Y-2739301D01*
X-3177618Y-2739356D01*
X-3177555Y-2739414D01*
X-3177494Y-2739475D01*
X-3177436Y-2739538D01*
X-3177381Y-2739605D01*
X-3177328Y-2739673D01*
X-3177279Y-2739744D01*
X-3177234Y-2739817D01*
X-3177191Y-2739892D01*
X-3177152Y-2739968D01*
X-3177116Y-2740047D01*
X-3177084Y-2740127D01*
X-3177056Y-2740208D01*
X-3177031Y-2740290D01*
X-3177010Y-2740374D01*
X-3176993Y-2740458D01*
X-3176979Y-2740543D01*
X-3176970Y-2740629D01*
X-3176964Y-2740715D01*
X-3176962Y-2740801D01*
X-3176964Y-2740887D01*
X-3176970Y-2740973D01*
X-3176979Y-2741059D01*
X-3176993Y-2741144D01*
X-3177010Y-2741228D01*
X-3177031Y-2741312D01*
X-3177056Y-2741394D01*
X-3177084Y-2741475D01*
X-3177116Y-2741555D01*
X-3177152Y-2741634D01*
X-3177191Y-2741710D01*
X-3177234Y-2741785D01*
X-3177279Y-2741858D01*
X-3177328Y-2741929D01*
X-3177381Y-2741997D01*
X-3177436Y-2742064D01*
X-3177494Y-2742127D01*
X-3177555Y-2742188D01*
X-3177618Y-2742246D01*
X-3177685Y-2742301D01*
X-3177753Y-2742354D01*
X-3177824Y-2742403D01*
X-3177897Y-2742448D01*
X-3177972Y-2742491D01*
X-3178048Y-2742530D01*
X-3178127Y-2742566D01*
X-3178207Y-2742598D01*
X-3178288Y-2742626D01*
X-3178370Y-2742651D01*
X-3178454Y-2742672D01*
X-3178538Y-2742689D01*
X-3178623Y-2742703D01*
X-3178709Y-2742712D01*
X-3178795Y-2742718D01*
X-3178881Y-2742720D01*
X-3180800Y-2742720D01*
X-3173381Y-2732899D02*
X-3171462Y-2726182D01*
X-3173381Y-2732899D02*
X-3168584Y-2732899D01*
X-3170023Y-2730980D02*
X-3170023Y-2734818D01*
X-3164822Y-2734818D02*
X-3164822Y-2734338D01*
X-3164342Y-2734338D01*
X-3164342Y-2734818D01*
X-3164822Y-2734818D01*
X-3160580Y-2727142D02*
X-3160580Y-2726182D01*
X-3155782Y-2726182D01*
X-3158181Y-2734818D01*
X-3150936Y-2734818D02*
X-3150936Y-2726182D01*
X-3146139Y-2726182D02*
X-3150936Y-2731460D01*
X-3149017Y-2729540D02*
X-3146139Y-2734818D01*
X-3190819Y-2757932D02*
X-3190819Y-2766568D01*
X-3190819Y-2757932D02*
X-3188420Y-2757932D01*
X-3188323Y-2757934D01*
X-3188227Y-2757940D01*
X-3188131Y-2757949D01*
X-3188035Y-2757963D01*
X-3187940Y-2757980D01*
X-3187846Y-2758002D01*
X-3187753Y-2758027D01*
X-3187660Y-2758055D01*
X-3187569Y-2758088D01*
X-3187480Y-2758124D01*
X-3187392Y-2758164D01*
X-3187305Y-2758207D01*
X-3187221Y-2758253D01*
X-3187138Y-2758303D01*
X-3187057Y-2758357D01*
X-3186979Y-2758413D01*
X-3186903Y-2758473D01*
X-3186829Y-2758535D01*
X-3186758Y-2758601D01*
X-3186690Y-2758669D01*
X-3186624Y-2758740D01*
X-3186562Y-2758814D01*
X-3186502Y-2758890D01*
X-3186446Y-2758968D01*
X-3186392Y-2759049D01*
X-3186342Y-2759132D01*
X-3186296Y-2759216D01*
X-3186253Y-2759303D01*
X-3186213Y-2759391D01*
X-3186177Y-2759480D01*
X-3186144Y-2759571D01*
X-3186116Y-2759664D01*
X-3186091Y-2759757D01*
X-3186069Y-2759851D01*
X-3186052Y-2759946D01*
X-3186038Y-2760042D01*
X-3186029Y-2760138D01*
X-3186023Y-2760234D01*
X-3186021Y-2760331D01*
X-3186023Y-2760428D01*
X-3186029Y-2760524D01*
X-3186038Y-2760620D01*
X-3186052Y-2760716D01*
X-3186069Y-2760811D01*
X-3186091Y-2760905D01*
X-3186116Y-2760998D01*
X-3186144Y-2761091D01*
X-3186177Y-2761182D01*
X-3186213Y-2761271D01*
X-3186253Y-2761359D01*
X-3186296Y-2761446D01*
X-3186342Y-2761531D01*
X-3186392Y-2761613D01*
X-3186446Y-2761694D01*
X-3186502Y-2761772D01*
X-3186562Y-2761848D01*
X-3186624Y-2761922D01*
X-3186690Y-2761993D01*
X-3186758Y-2762061D01*
X-3186829Y-2762127D01*
X-3186903Y-2762189D01*
X-3186979Y-2762249D01*
X-3187057Y-2762305D01*
X-3187138Y-2762359D01*
X-3187221Y-2762409D01*
X-3187305Y-2762455D01*
X-3187392Y-2762498D01*
X-3187480Y-2762538D01*
X-3187569Y-2762574D01*
X-3187660Y-2762607D01*
X-3187753Y-2762635D01*
X-3187846Y-2762660D01*
X-3187940Y-2762682D01*
X-3188035Y-2762699D01*
X-3188131Y-2762713D01*
X-3188227Y-2762722D01*
X-3188323Y-2762728D01*
X-3188420Y-2762730D01*
X-3190819Y-2762730D01*
X-3187940Y-2762730D02*
X-3186021Y-2766568D01*
X-3181759Y-2764649D02*
X-3179840Y-2757932D01*
X-3181759Y-2764649D02*
X-3176961Y-2764649D01*
X-3178401Y-2762730D02*
X-3178401Y-2766568D01*
X-3171462Y-2771902D02*
X-3173381Y-2778619D01*
X-3168584Y-2778619D01*
X-3170023Y-2776700D02*
X-3170023Y-2780538D01*
X-3164822Y-2780538D02*
X-3164822Y-2780058D01*
X-3164342Y-2780058D01*
X-3164342Y-2780538D01*
X-3164822Y-2780538D01*
X-3160580Y-2772862D02*
X-3160580Y-2771902D01*
X-3155782Y-2771902D01*
X-3158181Y-2780538D01*
X-3150936Y-2780538D02*
X-3150936Y-2771902D01*
X-3146139Y-2771902D02*
X-3150936Y-2777180D01*
X-3149017Y-2775260D02*
X-3146139Y-2780538D01*
M02*
