G04 EAGLE Gerber RS-274X export*
G75*
%MOMM*%
%FSLAX34Y34*%
%LPD*%
%INSoldermask Bottom*%
%IPPOS*%
%AMOC8*
5,1,8,0,0,1.08239X$1,22.5*%
G01*
%ADD10R,2.565400X2.565400*%
%ADD11C,2.565400*%
%ADD12C,1.676400*%
%ADD13R,0.787400X1.422400*%

G36*
X-3126040Y-2771763D02*
X-3126040Y-2771763D01*
X-3125974Y-2771761D01*
X-3125931Y-2771743D01*
X-3125884Y-2771735D01*
X-3125827Y-2771701D01*
X-3125767Y-2771676D01*
X-3125732Y-2771645D01*
X-3125691Y-2771620D01*
X-3125650Y-2771569D01*
X-3125601Y-2771525D01*
X-3125579Y-2771483D01*
X-3125550Y-2771446D01*
X-3125529Y-2771384D01*
X-3125498Y-2771325D01*
X-3125490Y-2771271D01*
X-3125478Y-2771234D01*
X-3125479Y-2771194D01*
X-3125471Y-2771140D01*
X-3125471Y-2768600D01*
X-3125482Y-2768535D01*
X-3125484Y-2768469D01*
X-3125502Y-2768426D01*
X-3125510Y-2768379D01*
X-3125544Y-2768322D01*
X-3125569Y-2768262D01*
X-3125600Y-2768227D01*
X-3125625Y-2768186D01*
X-3125676Y-2768145D01*
X-3125720Y-2768096D01*
X-3125762Y-2768074D01*
X-3125799Y-2768045D01*
X-3125861Y-2768024D01*
X-3125920Y-2767993D01*
X-3125974Y-2767985D01*
X-3126011Y-2767973D01*
X-3126051Y-2767974D01*
X-3126105Y-2767966D01*
X-3129915Y-2767966D01*
X-3129980Y-2767977D01*
X-3130046Y-2767979D01*
X-3130089Y-2767997D01*
X-3130136Y-2768005D01*
X-3130193Y-2768039D01*
X-3130253Y-2768064D01*
X-3130288Y-2768095D01*
X-3130329Y-2768120D01*
X-3130371Y-2768171D01*
X-3130419Y-2768215D01*
X-3130441Y-2768257D01*
X-3130470Y-2768294D01*
X-3130491Y-2768356D01*
X-3130522Y-2768415D01*
X-3130530Y-2768469D01*
X-3130542Y-2768506D01*
X-3130542Y-2768509D01*
X-3130541Y-2768546D01*
X-3130549Y-2768600D01*
X-3130549Y-2771140D01*
X-3130538Y-2771205D01*
X-3130536Y-2771271D01*
X-3130518Y-2771314D01*
X-3130510Y-2771361D01*
X-3130476Y-2771418D01*
X-3130451Y-2771478D01*
X-3130420Y-2771513D01*
X-3130395Y-2771554D01*
X-3130344Y-2771596D01*
X-3130300Y-2771644D01*
X-3130258Y-2771666D01*
X-3130221Y-2771695D01*
X-3130159Y-2771716D01*
X-3130100Y-2771747D01*
X-3130046Y-2771755D01*
X-3130009Y-2771767D01*
X-3129969Y-2771766D01*
X-3129915Y-2771774D01*
X-3126105Y-2771774D01*
X-3126040Y-2771763D01*
G37*
G36*
X-3075240Y-2771763D02*
X-3075240Y-2771763D01*
X-3075174Y-2771761D01*
X-3075131Y-2771743D01*
X-3075084Y-2771735D01*
X-3075027Y-2771701D01*
X-3074967Y-2771676D01*
X-3074932Y-2771645D01*
X-3074891Y-2771620D01*
X-3074850Y-2771569D01*
X-3074801Y-2771525D01*
X-3074779Y-2771483D01*
X-3074750Y-2771446D01*
X-3074729Y-2771384D01*
X-3074698Y-2771325D01*
X-3074690Y-2771271D01*
X-3074678Y-2771234D01*
X-3074679Y-2771194D01*
X-3074671Y-2771140D01*
X-3074671Y-2768600D01*
X-3074682Y-2768535D01*
X-3074684Y-2768469D01*
X-3074702Y-2768426D01*
X-3074710Y-2768379D01*
X-3074744Y-2768322D01*
X-3074769Y-2768262D01*
X-3074800Y-2768227D01*
X-3074825Y-2768186D01*
X-3074876Y-2768145D01*
X-3074920Y-2768096D01*
X-3074962Y-2768074D01*
X-3074999Y-2768045D01*
X-3075061Y-2768024D01*
X-3075120Y-2767993D01*
X-3075174Y-2767985D01*
X-3075211Y-2767973D01*
X-3075251Y-2767974D01*
X-3075305Y-2767966D01*
X-3079115Y-2767966D01*
X-3079180Y-2767977D01*
X-3079246Y-2767979D01*
X-3079289Y-2767997D01*
X-3079336Y-2768005D01*
X-3079393Y-2768039D01*
X-3079453Y-2768064D01*
X-3079488Y-2768095D01*
X-3079529Y-2768120D01*
X-3079571Y-2768171D01*
X-3079619Y-2768215D01*
X-3079641Y-2768257D01*
X-3079670Y-2768294D01*
X-3079691Y-2768356D01*
X-3079722Y-2768415D01*
X-3079730Y-2768469D01*
X-3079742Y-2768506D01*
X-3079742Y-2768509D01*
X-3079741Y-2768546D01*
X-3079749Y-2768600D01*
X-3079749Y-2771140D01*
X-3079738Y-2771205D01*
X-3079736Y-2771271D01*
X-3079718Y-2771314D01*
X-3079710Y-2771361D01*
X-3079676Y-2771418D01*
X-3079651Y-2771478D01*
X-3079620Y-2771513D01*
X-3079595Y-2771554D01*
X-3079544Y-2771596D01*
X-3079500Y-2771644D01*
X-3079458Y-2771666D01*
X-3079421Y-2771695D01*
X-3079359Y-2771716D01*
X-3079300Y-2771747D01*
X-3079246Y-2771755D01*
X-3079209Y-2771767D01*
X-3079169Y-2771766D01*
X-3079115Y-2771774D01*
X-3075305Y-2771774D01*
X-3075240Y-2771763D01*
G37*
D10*
X-3151372Y-2814090D03*
D11*
X-3116372Y-2814090D03*
X-3081372Y-2814090D03*
X-3046372Y-2814090D03*
D12*
X-3136900Y-2729738D03*
X-3111500Y-2729738D03*
X-3086100Y-2729738D03*
X-3060700Y-2729738D03*
D13*
X-3092450Y-2769870D03*
X-3082290Y-2769870D03*
X-3072130Y-2769870D03*
X-3112770Y-2769870D03*
X-3122930Y-2769870D03*
X-3133090Y-2769870D03*
X-3165094Y-2771140D03*
X-3156966Y-2771140D03*
X-3041396Y-2769870D03*
X-3049524Y-2769870D03*
M02*
