                                                                        S      1
,,28HTETRA Sensirion adapter male,28HTETRA Sensirion adapter male,7HunknG      1
own,7Hunknown,32,38,7,99,15,,1.,2,2HMM,1,0.08,15H20210512.202049,0.01,  G      2
10000.,7Hunknown,7Hunknown,11,0,;                                       G      3
     186       1                                                00000000D      1
     186            -135       1       0                               0D      2
     514       2                                                00010000D      3
     514                       1       1                               0D      4
     510       3                                                00010000D      5
     510            -135       1       1                               0D      6
     510       4                                                00010000D      7
     510            -135       1       1                               0D      8
     510       5                                                00010000D      9
     510            -135       1       1                               0D     10
     510       6                                                00010000D     11
     510            -135       1       1                               0D     12
     510       7                                                00010000D     13
     510            -135       1       1                               0D     14
     510       8                                                00010000D     15
     510            -135       1       1                               0D     16
     510       9                                                00010000D     17
     510            -135       1       1                               0D     18
     510      10                                                00010000D     19
     510            -135       1       1                               0D     20
     510      11                                                00010000D     21
     510            -135       1       1                               0D     22
     510      12                                                00010000D     23
     510            -135       1       1                               0D     24
     508      13                                                00010000D     25
     508                       2       1                               0D     26
     508      15                                                00010000D     27
     508                       1       1                               0D     28
     508      16                                                00010000D     29
     508                       1       1                               0D     30
     508      17                                                00010000D     31
     508                       2       1                               0D     32
     508      19                                                00010000D     33
     508                       1       1                               0D     34
     508      20                                                00010000D     35
     508                       1       1                               0D     36
     508      21                                                00010000D     37
     508                       2       1                               0D     38
     508      23                                                00010000D     39
     508                       2       1                               0D     40
     508      25                                                00010000D     41
     508                       1       1                               0D     42
     508      26                                                00010000D     43
     508                       1       1                               0D     44
     508      27                                                00010000D     45
     508                       2       1                               0D     46
     508      29                                                00010000D     47
     508                       2       1                               0D     48
     508      31                                                00010000D     49
     508                       2       1                               0D     50
     126      33                                                00010000D     51
     126       0               9       0                               0D     52
     126      42                                                00010000D     53
     126       0              10       0                               0D     54
     126      52                                                00010000D     55
     126       0               4       0                               0D     56
     126      56                                                00010000D     57
     126       0               7       0                               0D     58
     126      63                                                00010000D     59
     126       0               8       0                               0D     60
     126      71                                                00010000D     61
     126       0               7       0                               0D     62
     126      78                                                00010000D     63
     126       0               8       0                               0D     64
     126      86                                                00010000D     65
     126       0               3       0                               0D     66
     126      89                                                00010000D     67
     126       0               8       0                               0D     68
     126      97                                                00010000D     69
     126       0               8       0                               0D     70
     126     105                                                00010000D     71
     126       0               8       0                               0D     72
     126     113                                                00010000D     73
     126       0               9       0                               0D     74
     126     122                                                00010000D     75
     126       0               4       0                               0D     76
     126     126                                                00010000D     77
     126       0               8       0                               0D     78
     126     134                                                00010000D     79
     126       0               7       0                               0D     80
     126     141                                                00010000D     81
     126       0              10       0                               0D     82
     126     151                                                00010000D     83
     126       0               6       0                               0D     84
     126     157                                                00010000D     85
     126       0               5       0                               0D     86
     126     162                                                00010000D     87
     126       0              10       0                               0D     88
     126     172                                                00010000D     89
     126       0               5       0                               0D     90
     126     177                                                00010000D     91
     126       0               6       0                               0D     92
     126     183                                                00010000D     93
     126       0              10       0                               0D     94
     126     193                                                00010000D     95
     126       0               5       0                               0D     96
     126     198                                                00010000D     97
     126       0               4       0                               0D     98
     126     202                                                00010000D     99
     126       0               5       0                               0D    100
     126     207                                                00010000D    101
     126       0               7       0                               0D    102
     126     214                                                00010000D    103
     126       0              10       0                               0D    104
     126     224                                                00010000D    105
     126       0               6       0                               0D    106
     126     230                                                00010000D    107
     126       0               4       0                               0D    108
     128     234                                                00010000D    109
     128       0    -135      21       0                               0D    110
     128     255                                                00010000D    111
     128       0    -135       9       0                               0D    112
     128     264                                                00010000D    113
     128       0    -135      15       0                               0D    114
     128     279                                                00010000D    115
     128       0    -135       8       0                               0D    116
     128     287                                                00010000D    117
     128       0    -135      20       0                               0D    118
     128     307                                                00010000D    119
     128       0    -135      29       0                               0D    120
     128     336                                                00010000D    121
     128       0    -135       7       0                               0D    122
     128     343                                                00010000D    123
     128       0    -135      22       0                               0D    124
     128     365                                                00010000D    125
     128       0    -135      28       0                               0D    126
     128     393                                                00010000D    127
     128       0    -135      22       0                               0D    128
     502     415                                                00010000D    129
     502                      13       1                               0D    130
     504     428                                                00010001D    131
     504                       8       1                               0D    132
     406     436                                                00000000D    133
     406                       1      15                               0D    134
     314     437                                                00000200D    135
     314                       1       0                               0D    136
     314     438                                                00000200D    137
     314                       2       0                               0D    138
186,3,1,0,0,1,133;                                                     1P      1
514,10,5,1,7,1,9,1,11,1,13,1,15,1,17,1,19,1,21,1,23,1;                 3P      2
510,109,1,1,25;                                                        5P      3
510,111,2,1,27,29;                                                     7P      4
510,113,1,1,31;                                                        9P      5
510,115,2,1,33,35;                                                    11P      6
510,117,1,1,37;                                                       13P      7
510,119,1,1,39;                                                       15P      8
510,121,2,1,41,43;                                                    17P      9
510,123,1,1,45;                                                       19P     10
510,125,1,1,47;                                                       21P     11
510,127,1,1,49;                                                       23P     12
508,6,0,131,1,0,0,0,131,2,0,0,0,131,3,1,0,0,131,4,0,0,0,131,5,0,      25P     13
0,0,131,3,0,0;                                                        25P     14
508,2,0,131,1,1,0,0,131,2,1,0;                                        27P     15
508,2,0,131,6,0,0,0,131,7,0,0;                                        29P     16
508,6,0,131,6,1,0,0,131,8,1,0,0,131,9,0,0,0,131,10,0,0,0,131,8,       31P     17
0,0,0,131,7,1,0;                                                      31P     18
508,2,0,131,11,0,0,0,131,12,0,0;                                      33P     19
508,2,0,131,9,1,0,0,131,10,1,0;                                       35P     20
508,6,0,131,11,1,0,0,131,13,1,0,0,131,14,1,0,0,131,15,1,0,0,131,      37P     21
13,0,0,0,131,12,1,0;                                                  37P     22
508,7,0,131,16,1,0,0,131,17,1,0,0,131,18,1,0,0,131,19,1,0,0,131,      39P     23
20,1,0,0,131,18,0,0,0,131,21,1,0;                                     39P     24
508,2,0,131,20,0,0,0,131,19,0,0;                                      41P     25
508,2,0,131,22,0,0,0,131,23,0,0;                                      43P     26
508,7,0,131,16,0,0,0,131,21,0,0,0,131,17,0,0,0,131,24,1,0,0,131,      45P     27
5,1,0,0,131,4,1,0,0,131,24,0,0;                                       45P     28
508,7,0,131,22,1,0,0,131,25,1,0,0,131,26,1,0,0,131,27,1,0,0,131,      47P     29
28,1,0,0,131,25,0,0,0,131,23,1,0;                                     47P     30
508,7,0,131,28,0,0,0,131,27,0,0,0,131,29,1,0,0,131,15,0,0,0,131,      49P     31
14,0,0,0,131,29,0,0,0,131,26,0,0;                                     49P     32
126,4,2,0,0,0,0,1.5707963267949,1.5707963267949,1.5707963267949,      51P     33
3.14159265358979,3.14159265358979,4.71238898038469,                   51P     34
4.71238898038469,4.71238898038469,1.,0.707106781186548,1.,            51P     35
0.707106781186548,1.,39.709374781754,5.0788281188972,                 51P     36
-6.78382569705557D-16,39.709374781754,5.0788281188972,                51P     37
11.0788281188972,39.709374781754,-6.,11.0788281188972,                51P     38
39.709374781754,-17.0788281188972,11.0788281188972,                   51P     39
39.709374781754,-17.0788281188972,2.03514770911667D-15,               51P     40
1.5707963267949,4.71238898038469,0.,0.,0.;                            51P     41
126,4,2,0,0,0,0,4.71238898038469,4.71238898038469,                    53P     42
4.71238898038469,6.28318530717959,6.28318530717959,                   53P     43
7.85398163397448,7.85398163397448,7.85398163397448,1.,                53P     44
0.707106781186547,1.,0.707106781186548,1.,39.709374781754,            53P     45
-17.0788281188972,2.03514770911667D-15,39.709374781754,               53P     46
-17.0788281188972,-11.0788281188972,39.709374781754,-6.,              53P     47
-11.0788281188972,39.709374781754,5.07882811889719,                   53P     48
-11.0788281188972,39.709374781754,5.0788281188972,                    53P     49
-3.39191284852779D-15,4.71238898038469,7.85398163397448,0.,0.,        53P     50
0.;                                                                   53P     51
126,1,1,0,0,1,0,-0.223822173632912,-0.223822173632912,                55P     52
0.223822173632912,0.223822173632912,1.,1.,39.709374781754,            55P     53
-17.0788281188972,0.,34.75,-17.0788281188972,0.,                      55P     54
-0.223822173632912,0.223822173632912,0.,0.,0.;                        55P     55
126,4,2,0,0,0,0,0.,0.,0.,1.5707963267949,1.5707963267949,             57P     56
3.14159265358979,3.14159265358979,3.14159265358979,1.,                57P     57
0.707106781186548,1.,0.707106781186548,1.,34.75,5.0788281188972,      57P     58
0.,34.75,5.0788281188972,-11.0788281188972,34.75,-6.,                 57P     59
-11.0788281188972,34.75,-17.0788281188972,-11.0788281188972,          57P     60
34.75,-17.0788281188972,-1.35676513941111D-15,0.,                     57P     61
3.14159265358979,0.,0.,0.;                                            57P     62
126,4,2,0,0,0,0,3.14159265358979,3.14159265358979,                    59P     63
3.14159265358979,4.71238898038469,4.71238898038469,                   59P     64
6.28318530717959,6.28318530717959,6.28318530717959,1.,                59P     65
0.707106781186548,1.,0.707106781186547,1.,34.75,                      59P     66
-17.0788281188972,-1.35676513941111D-15,34.75,-17.0788281188972,      59P     67
11.0788281188972,34.75,-6.,11.0788281188972,34.75,                    59P     68
5.0788281188972,11.0788281188972,34.75,5.0788281188972,               59P     69
2.71353027882223D-15,3.14159265358979,6.28318530717959,0.,0.,0.;      59P     70
126,4,2,0,0,0,0,1.5707963267949,1.5707963267949,1.5707963267949,      61P     71
3.14159265358979,3.14159265358979,4.71238898038469,                   61P     72
4.71238898038469,4.71238898038469,1.,0.707106781186548,1.,            61P     73
0.707106781186548,1.,39.709374781754,-3.5,-1.53080849893419D-16,      61P     74
39.709374781754,-3.5,2.5,39.709374781754,-6.,2.5,                     61P     75
39.709374781754,-8.5,2.5,39.709374781754,-8.5,                        61P     76
4.59242549680257D-16,1.5707963267949,4.71238898038469,0.,0.,0.;       61P     77
126,4,2,0,0,0,0,4.71238898038469,4.71238898038469,                    63P     78
4.71238898038469,6.28318530717959,6.28318530717959,                   63P     79
7.85398163397448,7.85398163397448,7.85398163397448,1.,                63P     80
0.707106781186548,1.,0.707106781186548,1.,39.709374781754,-8.5,       63P     81
4.59242549680257D-16,39.709374781754,-8.5,-2.5,39.709374781754,       63P     82
-6.,-2.5,39.709374781754,-3.5,-2.5,39.709374781754,-3.5,              63P     83
-7.65404249467096D-16,4.71238898038469,7.85398163397448,0.,0.,        63P     84
0.;                                                                   63P     85
126,1,1,0,0,1,0,-0.8418749563508,-0.8418749563508,                    65P     86
0.8418749563508,0.8418749563508,1.,1.,39.709374781754,-8.5,0.,        65P     87
35.5,-8.5,0.,-0.8418749563508,0.8418749563508,0.,0.,0.;               65P     88
126,4,2,0,0,0,0,1.5707963267949,1.5707963267949,1.5707963267949,      67P     89
3.14159265358979,3.14159265358979,4.71238898038469,                   67P     90
4.71238898038469,4.71238898038469,1.,0.707106781186548,1.,            67P     91
0.707106781186548,1.,35.5,-3.4999999627471,                           67P     92
-1.53080852174502D-16,35.5,-3.4999999627471,2.5000000372529,          67P     93
35.5,-6.,2.5000000372529,35.5,-8.5000000372529,2.5000000372529,       67P     94
35.5,-8.5000000372529,4.59242556523505D-16,1.5707963267949,           67P     95
4.71238898038469,0.,0.,0.;                                            67P     96
126,4,2,0,0,0,0,4.71238898038469,4.71238898038469,                    69P     97
4.71238898038469,6.28318530717959,6.28318530717959,                   69P     98
7.85398163397448,7.85398163397448,7.85398163397448,1.,                69P     99
0.707106781186548,1.,0.707106781186547,1.,35.5,-8.5000000372529,      69P    100
4.59242556523505D-16,35.5,-8.5000000372529,-2.5000000372529,          69P    101
35.5,-6.,-2.5000000372529,35.5,-3.4999999627471,                      69P    102
-2.5000000372529,35.5,-3.4999999627471,-7.65404260872508D-16,         69P    103
4.71238898038469,7.85398163397448,0.,0.,0.;                           69P    104
126,4,2,0,0,0,0,1.5707963267949,1.5707963267949,1.5707963267949,      71P    105
3.14159265358979,3.14159265358979,4.71238898038469,                   71P    106
4.71238898038469,4.71238898038469,1.,0.707106781186548,1.,            71P    107
0.707106781186548,1.,35.5,1.71617188110281,                           71P    108
-4.72479259793168D-16,35.5,1.71617188110281,7.71617188110281,         71P    109
35.5,-6.,7.71617188110281,35.5,-13.7161718811028,                     71P    110
7.71617188110281,35.5,-13.7161718811028,1.4174377793795D-15,          71P    111
1.5707963267949,4.71238898038469,0.,0.,0.;                            71P    112
126,4,2,0,0,0,0,4.71238898038469,4.71238898038469,                    73P    113
4.71238898038469,6.28318530717959,6.28318530717959,                   73P    114
7.85398163397448,7.85398163397448,7.85398163397448,1.,                73P    115
0.707106781186549,1.,0.707106781186548,1.,35.5,                       73P    116
-13.7161718811028,1.4174377793795D-15,35.5,-13.7161718811028,         73P    117
-7.7161718811028,35.5,-6.,-7.71617188110281,35.5,                     73P    118
1.7161718811028,-7.71617188110281,35.5,1.71617188110281,              73P    119
-2.36239629896584D-15,4.71238898038469,7.85398163397448,0.,0.,        73P    120
0.;                                                                   73P    121
126,1,1,0,0,1,0,-0.0485992284488102,-0.0485992284488102,              75P    122
0.0485992284488102,0.0485992284488102,1.,1.,35.5,                     75P    123
-13.7161718811028,0.,34.75,-13.7161718811028,0.,                      75P    124
-0.0485992284488102,0.0485992284488102,0.,0.,0.;                      75P    125
126,4,2,0,0,0,0,3.14159265358979,3.14159265358979,                    77P    126
3.14159265358979,4.71238898038469,4.71238898038469,                   77P    127
6.28318530717959,6.28318530717959,6.28318530717959,1.,                77P    128
0.707106781186549,1.,0.707106781186548,1.,34.75,                      77P    129
-13.7161718811028,-9.44958519586336D-16,34.75,-13.7161718811028,      77P    130
7.71617188110281,34.75,-6.,7.71617188110281,34.75,                    77P    131
1.7161718811028,7.71617188110281,34.75,1.71617188110281,              77P    132
1.88991703917267D-15,3.14159265358979,6.28318530717959,0.,0.,0.;      77P    133
126,4,2,0,0,0,0,0.,0.,0.,1.5707963267949,1.5707963267949,             79P    134
3.14159265358979,3.14159265358979,3.14159265358979,1.,                79P    135
0.707106781186548,1.,0.707106781186548,1.,34.75,                      79P    136
1.71617188110281,0.,34.75,1.71617188110281,-7.71617188110281,         79P    137
34.75,-6.,-7.71617188110281,34.75,-13.7161718811028,                  79P    138
-7.71617188110281,34.75,-13.7161718811028,-9.44958519586336D-16,      79P    139
0.,3.14159265358979,0.,0.,0.;                                         79P    140
126,4,2,0,0,0,0,-3.14159265358979,-3.14159265358979,                  81P    141
-3.14159265358979,-1.5707963267949,-1.5707963267949,                  81P    142
-1.22464679914735D-16,-1.22464679914735D-16,                          81P    143
-1.22464679914735D-16,1.,0.707106781186548,1.,0.707106781186548,      81P    144
1.,15.8937484701211,4.84304884921429,-2.65578101323773D-15,           81P    145
15.8937484701211,4.84304884921428,-10.8430488492143,                  81P    146
15.8937484701211,-6.,-10.8430488492143,15.8937484701211,              81P    147
-16.8430488492143,-10.8430488492143,15.8937484701211,                 81P    148
-16.8430488492143,2.46519032881566D-31,-3.14159265358979,             81P    149
-1.22464679914735D-16,0.,0.,0.;                                       81P    150
126,2,2,0,0,0,0,-1.22464679914735D-16,-1.22464679914735D-16,          83P    151
-1.22464679914735D-16,1.5707963267949,1.5707963267949,                83P    152
1.5707963267949,1.,0.707106781186548,1.,15.8937484701211,             83P    153
-16.8430488492143,2.46519032881566D-31,15.8937484701211,              83P    154
-16.8430488492143,10.8430488492143,15.8937484701211,-6.,              83P    155
10.8430488492143,-1.22464679914735D-16,1.5707963267949,0.,0.,0.;      83P    156
126,2,2,0,0,0,0,0.0125033855407694,0.0125033855407694,                85P    157
0.0125033855407694,1.5707963267949,1.5707963267949,                   85P    158
1.5707963267949,1.,0.711513548626416,1.,15.8937484701211,-6.,         85P    159
10.8430488492143,15.4,-6.,10.836875,15.4,-6.,10.3430879323676,        85P    160
0.0125033855407694,1.5707963267949,0.,0.,0.;                          85P    161
126,6,2,0,0,0,0,-1.5707963267949,-1.5707963267949,                    87P    162
-1.5707963267949,0.,0.,1.5707963267949,1.5707963267949,               87P    163
3.14159265358979,3.14159265358979,3.14159265358979,1.,                87P    164
0.707106781186548,1.,0.707106781186548,1.,0.707106781186548,1.,       87P    165
15.4,-6.,10.3430879323676,15.4,-16.3430879323676,                     87P    166
10.3430879323676,15.4,-16.3430879323676,1.26666295296736D-15,         87P    167
15.4,-16.3430879323676,-10.3430879323676,15.4,-6.,                    87P    168
-10.3430879323676,15.4,4.3430879323676,-10.3430879323676,15.4,        87P    169
4.34308793236761,-2.53332590593472D-15,-1.5707963267949,              87P    170
3.14159265358979,0.,0.,0.;                                            87P    171
126,2,2,0,0,0,0,-3.14159265358979,-3.14159265358979,                  89P    172
-3.14159265358979,-1.5707963267949,-1.5707963267949,                  89P    173
-1.5707963267949,1.,0.707106781186548,1.,15.4,4.34308793236761,       89P    174
0.,15.4,4.34308793236761,10.3430879323676,15.4,-6.,                   89P    175
10.3430879323676,-3.14159265358979,-1.5707963267949,0.,0.,0.;         89P    176
126,2,2,0,0,0,0,1.5707963267949,1.5707963267949,1.5707963267949,      91P    177
3.14159265358979,3.14159265358979,3.14159265358979,1.,                91P    178
0.707106781186547,1.,15.8937484701211,-6.,10.8430488492143,           91P    179
15.8937484701211,4.84304884921429,10.8430488492143,                   91P    180
15.8937484701211,4.84304884921429,0.,1.5707963267949,                 91P    181
3.14159265358979,0.,0.,0.;                                            91P    182
126,6,2,0,0,0,0,-3.14159265358979,-3.14159265358979,                  93P    183
-3.14159265358979,-1.5707963267949,-1.5707963267949,0.,0.,            93P    184
1.5707963267949,1.5707963267949,1.5707963267949,1.,                   93P    185
0.707106781186547,1.,0.707106781186548,1.,0.707106781186548,1.,       93P    186
15.4,2.45191206763239,-2.07012141206018D-15,15.4,                     93P    187
2.45191206763239,-8.45191206763239,15.4,-6.,-8.45191206763239,        93P    188
15.4,-14.4519120676324,-8.45191206763239,15.4,-14.4519120676324,      93P    189
1.03506070603009D-15,15.4,-14.4519120676324,8.45191206763239,         93P    190
15.4,-6.,8.45191206763239,-3.14159265358979,1.5707963267949,0.,       93P    191
0.,0.;                                                                93P    192
126,2,2,0,0,0,0,1.5707963267949,1.5707963267949,1.5707963267949,      95P    193
3.14159265358979,3.14159265358979,3.14159265358979,1.,                95P    194
0.707106781186547,1.,15.4,-6.,8.45191206763239,15.4,                  95P    195
2.45191206763239,8.45191206763239,15.4,2.45191206763239,0.,           95P    196
1.5707963267949,3.14159265358979,0.,0.,0.;                            95P    197
126,1,1,0,0,1,0,-1.70214081907026,-1.70214081907026,                  97P    198
1.41166701337887D-18,1.41166701337887D-18,1.,1.,15.893748470121,      97P    199
-16.8430488492143,0.,34.75,-17.0788281188972,0.,                      97P    200
-1.70214081907026,1.41166701337887D-18,0.,0.,0.;                      97P    201
126,2,2,0,0,0,0,1.5707963267949,1.5707963267949,1.5707963267949,      99P    202
3.12908926804903,3.12908926804903,3.12908926804903,1.,                99P    203
0.711513548626411,1.,15.4,-6.,8.45191206763239,15.4,-6.,              99P    204
7.958125,15.8937484701211,-6.,7.95195115078571,1.5707963267949,       99P    205
3.12908926804903,0.,0.,0.;                                            99P    206
126,2,2,0,0,0,0,-1.5707963267949,-1.5707963267949,                   101P    207
-1.5707963267949,-1.22464679914735D-16,-1.22464679914735D-16,        101P    208
-1.22464679914735D-16,1.,0.707106781186548,1.,15.8937484701211,      101P    209
-6.,7.95195115078571,15.8937484701211,-13.9519511507857,             101P    210
7.95195115078571,15.8937484701211,-13.9519511507857,                 101P    211
-1.23259516440783D-31,-1.5707963267949,-1.22464679914735D-16,0.,     101P    212
0.,0.;                                                               101P    213
126,4,2,0,0,0,0,-1.22464679914735D-16,-1.22464679914735D-16,         103P    214
-1.22464679914735D-16,1.5707963267949,1.5707963267949,               103P    215
3.14159265358979,3.14159265358979,3.14159265358979,1.,               103P    216
0.707106781186548,1.,0.707106781186548,1.,15.8937484701211,          103P    217
-13.9519511507857,-1.23259516440783D-31,15.8937484701211,            103P    218
-13.9519511507857,-7.95195115078571,15.8937484701211,-6.,            103P    219
-7.95195115078571,15.8937484701211,1.95195115078571,                 103P    220
-7.95195115078571,15.8937484701211,1.95195115078571,                 103P    221
-1.94766630475717D-15,-1.22464679914735D-16,3.14159265358979,0.,     103P    222
0.,0.;                                                               103P    223
126,2,2,0,0,0,0,-3.14159265358979,-3.14159265358979,                 105P    224
-3.14159265358979,-1.5707963267949,-1.5707963267949,                 105P    225
-1.5707963267949,1.,0.707106781186548,1.,15.8937484701211,           105P    226
1.95195115078571,-1.23259516440783D-31,15.8937484701211,             105P    227
1.95195115078571,7.95195115078571,15.8937484701211,-6.,              105P    228
7.95195115078571,-3.14159265358979,-1.5707963267949,0.,0.,0.;        105P    229
126,1,1,0,0,1,0,0.0620481668272854,0.0620481668272854,               107P    230
2.43166733825753,2.43166733825753,1.,1.,15.8937484701211,            107P    231
-13.9519511507857,0.,34.75,-13.7161718811028,0.,                     107P    232
0.0620481668272854,2.43166733825753,0.,0.,0.;                        107P    233
128,1,8,1,2,0,1,0,0,1,-0.223822173632912,-0.223822173632912,         109P    234
0.223822173632912,0.223822173632912,-3.14159265358979,               109P    235
-3.14159265358979,-3.14159265358979,-1.5707963267949,                109P    236
-1.5707963267949,0.,0.,1.5707963267949,1.5707963267949,              109P    237
3.14159265358979,3.14159265358979,3.14159265358979,1.,1.,            109P    238
0.707106781186548,0.707106781186548,1.,1.,0.707106781186548,         109P    239
0.707106781186548,1.,1.,0.707106781186548,0.707106781186548,1.,      109P    240
1.,0.707106781186548,0.707106781186548,1.,1.,39.709374781754,        109P    241
-17.0788281188972,0.,34.75,-17.0788281188972,0.,39.709374781754,     109P    242
-17.0788281188972,-11.0788281188972,34.75,-17.0788281188972,         109P    243
-11.0788281188972,39.709374781754,-6.,-11.0788281188972,34.75,       109P    244
-6.,-11.0788281188972,39.709374781754,5.0788281188972,               109P    245
-11.0788281188972,34.75,5.0788281188972,-11.0788281188972,           109P    246
39.709374781754,5.0788281188972,0.,34.75,5.0788281188972,0.,         109P    247
39.709374781754,5.0788281188972,11.0788281188972,34.75,              109P    248
5.0788281188972,11.0788281188972,39.709374781754,-6.,                109P    249
11.0788281188972,34.75,-6.,11.0788281188972,39.709374781754,         109P    250
-17.0788281188972,11.0788281188972,34.75,-17.0788281188972,          109P    251
11.0788281188972,39.709374781754,-17.0788281188972,0.,34.75,         109P    252
-17.0788281188972,0.,-0.223822173632912,0.223822173632912,           109P    253
-3.14159265358979,3.14159265358979;                                  109P    254
128,1,1,1,1,0,0,1,0,0,-1.10888281188972,-1.10888281188972,           111P    255
1.10888281188972,1.10888281188972,-1.35888281188972,                 111P    256
-1.35888281188972,0.85888281188972,0.85888281188972,1.,1.,1.,1.,     111P    257
39.709374781754,-17.0888281188972,11.0888281188972,                  111P    258
39.709374781754,-17.0888281188972,-11.0888281188972,                 111P    259
39.709374781754,5.0888281188972,11.0888281188972,                    111P    260
39.709374781754,5.0888281188972,-11.0888281188972,                   111P    261
-1.10888281188972,1.10888281188972,-1.35888281188972,                111P    262
0.85888281188972;                                                    111P    263
128,1,8,1,2,0,1,0,0,1,-0.8418749563508,-0.8418749563508,             113P    264
0.8418749563508,0.8418749563508,-3.14159265358979,                   113P    265
-3.14159265358979,-3.14159265358979,-1.5707963267949,                113P    266
-1.5707963267949,0.,0.,1.5707963267949,1.5707963267949,              113P    267
3.14159265358979,3.14159265358979,3.14159265358979,1.,1.,            113P    268
0.707106781186548,0.707106781186548,1.,1.,0.707106781186548,         113P    269
0.707106781186548,1.,1.,0.707106781186548,0.707106781186548,1.,      113P    270
1.,0.707106781186548,0.707106781186548,1.,1.,35.5,-8.5,0.,           113P    271
39.709374781754,-8.5,0.,35.5,-8.5,-2.5,39.709374781754,-8.5,         113P    272
-2.5,35.5,-6.,-2.5,39.709374781754,-6.,-2.5,35.5,-3.5,-2.5,          113P    273
39.709374781754,-3.5,-2.5,35.5,-3.5,0.,39.709374781754,-3.5,0.,      113P    274
35.5,-3.5,2.5,39.709374781754,-3.5,2.5,35.5,-6.,2.5,                 113P    275
39.709374781754,-6.,2.5,35.5,-8.5,2.5,39.709374781754,-8.5,2.5,      113P    276
35.5,-8.5,0.,39.709374781754,-8.5,0.,-0.8418749563508,               113P    277
0.8418749563508,-3.14159265358979,3.14159265358979;                  113P    278
128,1,1,1,1,0,0,1,0,0,-0.772617188110281,-0.772617188110281,         115P    279
0.772617188110281,0.772617188110281,-1.54423437622056,               115P    280
-1.54423437622056,0.00100000000000001,0.00100000000000001,1.,1.,     115P    281
1.,1.,35.5,-13.7261718811028,-7.72617188110281,35.5,                 115P    282
-13.7261718811028,7.72617188110281,35.5,1.72617188110281,            115P    283
-7.72617188110281,35.5,1.72617188110281,7.72617188110281,            115P    284
-0.772617188110281,0.772617188110281,-1.54423437622056,              115P    285
0.00100000000000001;                                                 115P    286
128,1,8,1,2,0,1,0,0,1,-0.0485992284488102,-0.0485992284488102,       117P    287
0.0485992284488102,0.0485992284488102,-3.14159265358979,             117P    288
-3.14159265358979,-3.14159265358979,-1.5707963267949,                117P    289
-1.5707963267949,0.,0.,1.5707963267949,1.5707963267949,              117P    290
3.14159265358979,3.14159265358979,3.14159265358979,1.,1.,            117P    291
0.707106781186548,0.707106781186548,1.,1.,0.707106781186548,         117P    292
0.707106781186548,1.,1.,0.707106781186548,0.707106781186548,1.,      117P    293
1.,0.707106781186548,0.707106781186548,1.,1.,34.75,                  117P    294
-13.7161718811028,0.,35.5,-13.7161718811028,0.,34.75,                117P    295
-13.7161718811028,-7.71617188110281,35.5,-13.7161718811028,          117P    296
-7.71617188110281,34.75,-6.,-7.71617188110281,35.5,-6.,              117P    297
-7.71617188110281,34.75,1.7161718811028,-7.71617188110281,35.5,      117P    298
1.7161718811028,-7.71617188110281,34.75,1.71617188110281,0.,         117P    299
35.5,1.71617188110281,0.,34.75,1.7161718811028,7.71617188110281,     117P    300
35.5,1.7161718811028,7.71617188110281,34.75,-6.,                     117P    301
7.71617188110281,35.5,-6.,7.71617188110281,34.75,                    117P    302
-13.7161718811028,7.71617188110281,35.5,-13.7161718811028,           117P    303
7.71617188110281,34.75,-13.7161718811028,0.,35.5,                    117P    304
-13.7161718811028,0.,-0.0485992284488102,0.0485992284488102,         117P    305
-3.14159265358979,3.14159265358979;                                  117P    306
128,2,8,2,2,0,1,0,0,1,-1.5707963267949,-1.5707963267949,             119P    307
-1.5707963267949,-0.0125033855407694,-0.0125033855407694,            119P    308
-0.0125033855407694,-3.14159265358979,-3.14159265358979,             119P    309
-3.14159265358979,-1.5707963267949,-1.5707963267949,0.,0.,           119P    310
1.5707963267949,1.5707963267949,3.14159265358979,                    119P    311
3.14159265358979,3.14159265358979,1.,0.711513548626416,1.,           119P    312
0.707106781186548,0.503116055139843,0.707106781186548,1.,            119P    313
0.711513548626416,1.,0.707106781186548,0.503116055139843,            119P    314
0.707106781186548,1.,0.711513548626416,1.,0.707106781186548,         119P    315
0.503116055139843,0.707106781186548,1.,0.711513548626416,1.,         119P    316
0.707106781186548,0.503116055139843,0.707106781186548,1.,            119P    317
0.711513548626416,1.,15.8937484701211,-6.,10.8430488492143,15.4,     119P    318
-6.,10.836875,15.4,-6.,10.3430879323676,15.8937484701211,            119P    319
-16.8430488492143,10.8430488492143,15.4,-16.836875,10.836875,        119P    320
15.4,-16.3430879323676,10.3430879323676,15.8937484701211,            119P    321
-16.8430488492143,0.,15.4,-16.836875,0.,15.4,-16.3430879323676,      119P    322
0.,15.8937484701211,-16.8430488492143,-10.8430488492143,15.4,        119P    323
-16.836875,-10.836875,15.4,-16.3430879323676,-10.3430879323676,      119P    324
15.8937484701211,-6.,-10.8430488492143,15.4,-6.,-10.836875,15.4,     119P    325
-6.,-10.3430879323676,15.8937484701211,4.84304884921428,             119P    326
-10.8430488492143,15.4,4.83687499999999,-10.836875,15.4,             119P    327
4.3430879323676,-10.3430879323676,15.8937484701211,                  119P    328
4.84304884921429,0.,15.4,4.83687499999999,0.,15.4,                   119P    329
4.34308793236761,0.,15.8937484701211,4.84304884921428,               119P    330
10.8430488492143,15.4,4.83687499999999,10.836875,15.4,               119P    331
4.3430879323676,10.3430879323676,15.8937484701211,-6.,               119P    332
10.8430488492143,15.4,-6.,10.836875,15.4,-6.,10.3430879323676,       119P    333
-1.5707963267949,-0.0125033855407694,-3.14159265358979,              119P    334
3.14159265358979;                                                    119P    335
128,1,1,1,1,0,0,1,0,0,-1.03530879323676,-1.03530879323676,           121P    336
1.03530879323676,1.03530879323676,-1.03530879323676,                 121P    337
-1.03530879323676,1.03530879323676,1.03530879323676,1.,1.,1.,1.,     121P    338
15.4,-16.3530879323676,-10.3530879323676,15.4,-16.3530879323676,     121P    339
10.3530879323676,15.4,4.35308793236761,-10.3530879323676,15.4,       121P    340
4.35308793236761,10.3530879323676,-1.03530879323676,                 121P    341
1.03530879323676,-1.03530879323676,1.03530879323676;                 121P    342
128,1,8,1,2,0,1,0,0,1,-1.41166701337887D-18,                         123P    343
-1.41166701337887D-18,1.70214081907026,1.70214081907026,             123P    344
-3.14159265358979,-3.14159265358979,-3.14159265358979,               123P    345
-1.5707963267949,-1.5707963267949,0.,0.,1.5707963267949,             123P    346
1.5707963267949,3.14159265358979,3.14159265358979,                   123P    347
3.14159265358979,1.,1.,0.707106781186548,0.707106781186548,1.,       123P    348
1.,0.707106781186548,0.707106781186548,1.,1.,0.707106781186548,      123P    349
0.707106781186548,1.,1.,0.707106781186548,0.707106781186548,1.,      123P    350
1.,15.893748470121,-16.8430488492143,0.,34.75,-17.0788281188972,     123P    351
0.,15.893748470121,-16.8430488492143,10.8430488492143,34.75,         123P    352
-17.0788281188972,11.0788281188972,15.893748470121,-6.,              123P    353
10.8430488492143,34.75,-6.,11.0788281188972,15.893748470121,         123P    354
4.84304884921428,10.8430488492143,34.75,5.0788281188972,             123P    355
11.0788281188972,15.893748470121,4.84304884921429,0.,34.75,          123P    356
5.0788281188972,0.,15.893748470121,4.84304884921428,                 123P    357
-10.8430488492143,34.75,5.0788281188972,-11.0788281188972,           123P    358
15.893748470121,-6.,-10.8430488492143,34.75,-6.,                     123P    359
-11.0788281188972,15.893748470121,-16.8430488492143,                 123P    360
-10.8430488492143,34.75,-17.0788281188972,-11.0788281188972,         123P    361
15.893748470121,-16.8430488492143,0.,34.75,-17.0788281188972,0.,     123P    362
-1.41166701337887D-18,1.70214081907026,-3.14159265358979,            123P    363
3.14159265358979;                                                    123P    364
128,2,8,2,2,0,1,0,0,1,-3.12908926804903,-3.12908926804903,           125P    365
-3.12908926804903,-1.5707963267949,-1.5707963267949,                 125P    366
-1.5707963267949,-3.14159265358979,-3.14159265358979,                125P    367
-3.14159265358979,-1.5707963267949,-1.5707963267949,0.,0.,           125P    368
1.5707963267949,1.5707963267949,3.14159265358979,                    125P    369
3.14159265358979,3.14159265358979,1.,0.711513548626411,1.,           125P    370
0.707106781186548,0.50311605513984,0.707106781186548,1.,             125P    371
0.711513548626411,1.,0.707106781186548,0.50311605513984,             125P    372
0.707106781186548,1.,0.711513548626411,1.,0.707106781186548,         125P    373
0.50311605513984,0.707106781186548,1.,0.711513548626411,1.,          125P    374
0.707106781186548,0.50311605513984,0.707106781186548,1.,             125P    375
0.711513548626411,1.,15.4,-6.,8.45191206763239,15.4,-6.,             125P    376
7.958125,15.8937484701211,-6.,7.95195115078571,15.4,                 125P    377
-14.4519120676324,8.45191206763239,15.4,-13.958125,7.958125,         125P    378
15.8937484701211,-13.9519511507857,7.95195115078571,15.4,            125P    379
-14.4519120676324,0.,15.4,-13.958125,0.,15.8937484701211,            125P    380
-13.9519511507857,0.,15.4,-14.4519120676324,-8.45191206763239,       125P    381
15.4,-13.958125,-7.958125,15.8937484701211,-13.9519511507857,        125P    382
-7.95195115078571,15.4,-6.,-8.45191206763239,15.4,-6.,-7.958125,     125P    383
15.8937484701211,-6.,-7.95195115078571,15.4,2.45191206763239,        125P    384
-8.45191206763239,15.4,1.958125,-7.958125,15.8937484701211,          125P    385
1.95195115078571,-7.95195115078571,15.4,2.45191206763239,0.,         125P    386
15.4,1.958125,0.,15.8937484701211,1.95195115078571,0.,15.4,          125P    387
2.45191206763239,8.45191206763239,15.4,1.958125,7.958125,            125P    388
15.8937484701211,1.95195115078571,7.95195115078571,15.4,-6.,         125P    389
8.45191206763239,15.4,-6.,7.958125,15.8937484701211,-6.,             125P    390
7.95195115078571,-3.12908926804903,-1.5707963267949,                 125P    391
-3.14159265358979,3.14159265358979;                                  125P    392
128,1,8,1,2,0,1,0,0,1,0.0620481668272854,0.0620481668272854,         127P    393
2.43166733825753,2.43166733825753,-3.14159265358979,                 127P    394
-3.14159265358979,-3.14159265358979,-1.5707963267949,                127P    395
-1.5707963267949,0.,0.,1.5707963267949,1.5707963267949,              127P    396
3.14159265358979,3.14159265358979,3.14159265358979,1.,1.,            127P    397
0.707106781186548,0.707106781186548,1.,1.,0.707106781186548,         127P    398
0.707106781186548,1.,1.,0.707106781186548,0.707106781186548,1.,      127P    399
1.,0.707106781186548,0.707106781186548,1.,1.,15.8937484701211,       127P    400
-13.9519511507857,0.,34.75,-13.7161718811028,0.,                     127P    401
15.8937484701211,-13.9519511507857,-7.95195115078571,34.75,          127P    402
-13.7161718811028,-7.71617188110281,15.8937484701211,-6.,            127P    403
-7.95195115078571,34.75,-6.,-7.71617188110281,15.8937484701211,      127P    404
1.95195115078571,-7.95195115078571,34.75,1.7161718811028,            127P    405
-7.71617188110281,15.8937484701211,1.95195115078571,0.,34.75,        127P    406
1.71617188110281,0.,15.8937484701211,1.95195115078571,               127P    407
7.95195115078571,34.75,1.7161718811028,7.71617188110281,             127P    408
15.8937484701211,-6.,7.95195115078571,34.75,-6.,                     127P    409
7.71617188110281,15.8937484701211,-13.9519511507857,                 127P    410
7.95195115078571,34.75,-13.7161718811028,7.71617188110281,           127P    411
15.8937484701211,-13.9519511507857,0.,34.75,-13.7161718811028,       127P    412
0.,0.0620481668272854,2.43166733825753,-3.14159265358979,            127P    413
3.14159265358979;                                                    127P    414
502,22,39.709374781754,5.0788281188972,0.,39.709374781754,           129P    415
-17.0788281188972,0.,34.75,-17.0788281188972,0.,34.75,               129P    416
5.0788281188972,0.,39.709374781754,-3.5,0.,39.709374781754,-8.5,     129P    417
0.,35.5,-8.5,0.,35.5,-3.4999999627471,0.,35.5,1.71617188110281,      129P    418
0.,35.5,-13.7161718811028,0.,34.75,-13.7161718811028,0.,34.75,       129P    419
1.71617188110281,0.,15.8937484701211,4.84304884921429,               129P    420
-2.65578101323773D-15,15.893748470121,-16.8430488492143,0.,          129P    421
15.8937484701211,-6.,10.8430488492143,15.4,-6.,10.3430879323676,     129P    422
15.4,4.34308793236761,0.,15.4,2.45191206763239,                      129P    423
-2.07012141206018D-15,15.4,-6.,8.45191206763239,                     129P    424
15.8937484701211,-6.,7.95195115078571,15.8937484701211,              129P    425
-13.9519511507857,0.,15.8937484701211,1.95195115078571,              129P    426
-1.23259516440783D-31;                                               129P    427
504,29,51,129,1,129,2,53,129,2,129,1,55,129,2,129,3,57,129,4,        131P    428
129,3,59,129,3,129,4,61,129,5,129,6,63,129,6,129,5,65,129,6,129,     131P    429
7,67,129,8,129,7,69,129,7,129,8,71,129,9,129,10,73,129,10,129,9,     131P    430
75,129,10,129,11,77,129,11,129,12,79,129,12,129,11,81,129,13,        131P    431
129,14,83,129,14,129,15,85,129,15,129,16,87,129,16,129,17,89,        131P    432
129,17,129,16,91,129,15,129,13,93,129,18,129,19,95,129,19,129,       131P    433
18,97,129,14,129,3,99,129,19,129,20,101,129,20,129,21,103,129,       131P    434
21,129,22,105,129,22,129,20,107,129,21,129,11;                       131P    435
406,1,23HInternal_slip_connector;                                    133P    436
314,100.,47.4509803921569,23.1372549019608,13HSteel - Satin;         135P    437
314,62.7450980392157,62.7450980392157,62.7450980392157,13HSteel      137P    438
- Satin;                                                             137P    439
S      1G      3D    138P    439                                        T      1
